<svg width="80" height="80" viewBox="0 0 80 80" fill="none" xmlns="http://www.w3.org/2000/svg">
<rect width="80" height="80" rx="8" fill="#E2EEFF"/>
<path d="M14.1134 65.5902C11.9395 65.6037 10.2732 64.0405 10.0289 62.0594C9.78469 60.0782 11.1091 58.1486 13.1527 57.6601C13.1662 56.466 13.5652 55.4238 14.4608 54.5608L14.4744 20.9461C14.4744 19.5511 15.7418 18.5442 17.0634 18.5442H50.4393C51.6362 17.3935 53.2482 17.285 54.7029 17.9038C55.5198 15.3554 57.9488 13.7542 60.5514 14.031C63.1541 14.3078 65.2248 16.384 65.4663 19.106C68.0826 19.5104 69.9389 21.6626 69.9986 24.1974C70.0583 26.7322 68.2264 29.0689 65.5423 29.5194L65.5369 56.9762C65.5369 58.515 64.2966 59.5273 62.8148 59.5273H33.9793C34.4081 62.7324 32.0308 65.582 28.7578 65.5848L14.1161 65.5929L14.1134 65.5902ZM49.9155 22.9897C48.4337 23.0575 47.3563 24.2191 47.3834 25.6249C47.4106 27.0307 48.5016 28.1407 49.9562 28.1407L64.8096 28.1326C66.9481 28.1326 68.5738 26.3224 68.5657 24.3113C68.5575 22.3003 66.8939 20.5336 64.7662 20.4956C64.3428 20.4874 64.0117 20.1373 64.0307 19.7085C64.1311 17.456 62.4376 15.5942 60.2502 15.4422C58.0628 15.2902 56.1521 16.8806 55.9269 19.125C55.9025 19.3584 55.6799 19.6841 55.5089 19.7574C54.692 20.1102 53.9349 18.357 52.084 19.1413C50.9333 19.6298 50.3633 20.8945 50.613 22.1022C50.7053 22.55 50.423 22.9625 49.9155 22.9842V22.9897ZM46.1866 24.2272C46.6887 22.816 47.8068 22.0072 49.0688 21.6408L49.3646 19.9799H17.0824C16.4501 19.9799 15.9073 20.4304 15.9073 21.0465V24.2299H46.1866V24.2272ZM62.9858 58.0889C63.6643 58.0889 64.1039 57.5352 64.1039 56.9626V29.5791H50.1733C47.8882 29.6551 46.0645 27.9751 45.9342 25.6629H15.8992V53.6815C16.9115 53.4535 17.8423 53.5621 18.7569 53.9094C19.6227 51.2579 22.1493 49.7001 24.8253 50.0909C27.3139 50.4519 29.2815 52.5308 29.5014 55.1388C31.3224 55.3994 32.7282 56.5012 33.5397 58.0916H62.9858V58.0889ZM14.0021 64.1518H28.7605C30.9533 64.1518 32.6115 62.3687 32.5898 60.2926C32.5681 58.2164 30.8963 56.5447 28.7686 56.5148C28.3208 56.5094 28.0467 56.1213 28.063 55.6952C28.1471 53.4589 26.4428 51.6162 24.2852 51.475C22.1276 51.3339 20.198 52.9189 19.9701 55.147C19.9456 55.3912 19.7339 55.7033 19.5575 55.7793C19.3513 55.8662 18.9442 55.8119 18.7732 55.6653C17.9238 54.9407 16.7839 54.7562 15.8639 55.3017C13.5652 56.6614 15.5464 58.9383 13.9397 59.017C12.4986 59.0876 11.4239 60.2112 11.4348 61.6116C11.4456 62.917 12.4878 64.1545 13.9994 64.1572L14.0021 64.1518Z" fill="#5370EA"/>
<path d="M45.6601 53.98H34.3946C33.9006 53.9855 33.5912 53.6462 33.5912 53.1794L33.5858 48.2916L28.6383 48.2862C28.2339 48.2862 27.9327 47.966 27.9028 47.5589V36.2092C27.9164 35.8781 28.1824 35.4738 28.5243 35.4738L33.5858 35.4629L33.5994 30.4856C33.5994 30.0676 33.9658 29.7609 34.3891 29.7772H45.7415C46.0997 29.8152 46.4118 30.1246 46.4145 30.4801L46.4254 35.4656H51.3675C51.7854 35.471 52.0866 35.7859 52.1084 36.212V47.5589C52.0785 47.9687 51.7773 48.2862 51.3729 48.2889L46.4254 48.2944L46.4173 53.1821C46.4173 53.6028 46.1703 53.9475 45.6655 53.9827L45.6601 53.98ZM33.5885 46.8478V41.9411C33.5858 41.4878 33.9142 41.1432 34.3891 41.154H44.9734L44.9789 31.2102L35.0215 31.2183L35.0269 35.4602L40.007 35.4711C40.4493 35.4711 40.7424 35.8591 40.7071 36.2554C40.6827 36.5431 40.3896 36.8986 39.9934 36.8986H29.3331V46.8533L33.5885 46.8451V46.8478ZM44.9816 48.2916L39.9961 48.2835C39.5754 48.2835 39.2579 47.8818 39.2878 47.51C39.3122 47.1952 39.608 46.8533 40.007 46.8533H50.6673L50.67 36.9284L46.4173 36.8959L46.4118 41.9058C46.3548 42.2613 46.1214 42.5273 45.7361 42.5843L35.0215 42.5924V52.5417L44.9599 52.5444L44.9789 48.2916H44.9816Z" fill="#5370EA"/>
<path d="M61.8731 19.1139C61.6452 17.9171 60.489 17.2495 59.3329 17.6457C58.9665 17.7705 58.573 17.624 58.3966 17.2712C58.2609 16.9971 58.3721 16.495 58.7629 16.3376C60.7523 15.5397 62.937 16.7772 63.2871 18.8968C63.3495 19.2849 63.0618 19.6513 62.7687 19.7137C62.3345 19.806 61.96 19.5563 61.8758 19.1139H61.8731Z" fill="#5370EA"/>
<path d="M25.9272 55.2039C25.7047 53.9772 24.5621 53.258 23.368 53.6759C22.9989 53.8062 22.5484 53.5999 22.4453 53.3204C22.2906 52.897 22.4615 52.471 22.8876 52.319C24.8796 51.6079 27.0209 52.8536 27.3249 54.9759C27.3792 55.3586 27.0779 55.6815 26.7441 55.7548C26.4402 55.8199 25.9978 55.5838 25.9299 55.2039H25.9272Z" fill="#5370EA"/>
<path d="M19.2892 22.8431C19.6984 22.8431 20.0301 22.5114 20.0301 22.1022C20.0301 21.693 19.6984 21.3613 19.2892 21.3613C18.88 21.3613 18.5483 21.693 18.5483 22.1022C18.5483 22.5114 18.88 22.8431 19.2892 22.8431Z" fill="#5370EA"/>
<path d="M22.4968 22.8431C22.9059 22.8431 23.2377 22.5114 23.2377 22.1022C23.2377 21.693 22.9059 21.3613 22.4968 21.3613C22.0876 21.3613 21.7559 21.693 21.7559 22.1022C21.7559 22.5114 22.0876 22.8431 22.4968 22.8431Z" fill="#5370EA"/>
<path d="M25.7018 22.8431C26.111 22.8431 26.4427 22.5114 26.4427 22.1022C26.4427 21.693 26.111 21.3613 25.7018 21.3613C25.2926 21.3613 24.9609 21.693 24.9609 22.1022C24.9609 22.5114 25.2926 22.8431 25.7018 22.8431Z" fill="#5370EA"/>
<path d="M42.7401 51.0922C42.1159 51.1438 41.0494 51.3039 40.9761 50.4816C40.9544 50.2482 41.1742 49.7814 41.4239 49.7488C42.1105 49.6592 43.1934 49.5317 43.2422 50.373C43.2558 50.6091 43.0061 51.0705 42.7428 51.0922H42.7401Z" fill="#5370EA"/>
<path d="M38.4167 34.0357L37.4695 34.0547C37.114 34.0628 36.7911 33.7046 36.7693 33.3952C36.7476 33.0858 37.0054 32.6326 37.3664 32.6326H38.4682C38.7179 32.6353 39.0138 33.0559 39.0246 33.2785C39.0409 33.5852 38.7804 34.0248 38.414 34.033L38.4167 34.0357Z" fill="#5370EA"/>
</svg>
