<svg width="80" height="80" viewBox="0 0 80 80" fill="none" xmlns="http://www.w3.org/2000/svg">
<rect width="80" height="80" rx="8" fill="#E2EEFF"/>
<path d="M70.0001 35.509V42.0565H55.6759V49.5912L59.7784 53.2999C61.4625 52.1772 63.5909 52.4991 64.852 53.9651C66.1131 55.431 66.0705 57.5594 64.7908 58.9855C63.5111 60.4115 61.3907 60.6669 59.829 59.6001C58.2673 58.5332 57.6607 56.45 58.5998 54.6142L53.92 50.3787L53.9093 42.0645L47.4682 42.0539L47.4549 50.7565L52.1427 54.8563L52.1561 60.1109C54.0264 60.6111 55.2396 62.3138 55.0667 64.1815C54.8937 66.0492 53.2788 67.5896 51.4031 67.6508C49.4317 67.712 47.7742 66.278 47.5028 64.4156C47.2155 62.4442 48.418 60.635 50.3842 60.1242L50.3975 55.6811L45.7017 51.5653L45.6883 42.0592L40.8835 42.0698V62.4575C42.6979 62.955 43.8898 64.5407 43.8074 66.3658C43.7249 68.1909 42.3707 69.6036 40.5855 70.0054H39.4149C37.6297 69.5983 36.2755 68.2202 36.193 66.3658C36.1105 64.5114 37.3051 62.955 39.1195 62.4575V42.0698L34.312 42.0592L34.2987 51.5679L29.6029 55.6784L29.6162 60.1215C31.5823 60.6323 32.7849 62.4415 32.4975 64.4129C32.2235 66.2753 30.5686 67.712 28.5972 67.6481C26.6258 67.5843 25.1093 66.121 24.931 64.1815C24.7528 62.242 25.9739 60.6137 27.8443 60.1109L27.8549 54.859L32.5428 50.7644L32.5294 42.0565L26.0884 42.0672L26.0777 50.384L21.3979 54.6169C22.337 56.45 21.7703 58.5066 20.1687 59.6001C18.5671 60.6935 16.4733 60.3955 15.2068 58.9855C13.9404 57.5754 13.9059 55.3991 15.1457 53.9651C16.3855 52.531 18.5351 52.1745 20.2192 53.3026L24.3271 49.5965L24.3164 42.0592H17.6119L17.596 40.3139L21.06 40.2846C21.5575 30.0735 30.0099 22.1877 40.0613 22.2143C50.0702 22.241 58.4588 30.1401 58.9404 40.3006H68.2389L68.2442 36.7914L62.0212 34.5645L59.414 28.2644L62.2394 22.3208L57.6979 17.7633L55.5908 18.7503L54.8432 17.1567L58.0757 15.6455L64.3625 21.9403L61.3375 28.3229L63.3568 33.1784L69.9975 35.5117L70.0001 35.509ZM57.1738 40.2926C56.6656 30.9462 48.9289 23.9011 39.8432 23.973C30.7575 24.0448 23.2442 31.2309 22.8372 40.3006L57.1738 40.2926ZM20.0942 56.4367C20.0942 55.3033 19.1763 54.3854 18.043 54.3854C16.9096 54.3854 15.9917 55.3033 15.9917 56.4367C15.9917 57.5701 16.9096 58.488 18.043 58.488C19.1763 58.488 20.0942 57.5701 20.0942 56.4367ZM64.0086 56.4367C64.0086 55.3033 63.0908 54.3854 61.9574 54.3854C60.824 54.3854 59.9061 55.3033 59.9061 56.4367C59.9061 57.5701 60.824 58.488 61.9574 58.488C63.0908 58.488 64.0086 57.5701 64.0086 56.4367ZM30.7788 63.8356C30.7788 62.7022 29.8609 61.7843 28.7276 61.7843C27.5942 61.7843 26.6763 62.7022 26.6763 63.8356C26.6763 64.969 27.5942 65.8869 28.7276 65.8869C29.8609 65.8869 30.7788 64.969 30.7788 63.8356ZM53.3214 63.8356C53.3214 62.7022 52.4035 61.7843 51.2701 61.7843C50.1367 61.7843 49.2188 62.7022 49.2188 63.8356C49.2188 64.969 50.1367 65.8869 51.2701 65.8869C52.4035 65.8869 53.3214 64.969 53.3214 63.8356ZM42.0514 66.1849C42.0514 65.0515 41.1335 64.1336 40.0002 64.1336C38.8668 64.1336 37.9489 65.0515 37.9489 66.1849C37.9489 67.3182 38.8668 68.2361 40.0002 68.2361C41.1335 68.2361 42.0514 67.3182 42.0514 66.1849Z" fill="#5370EA"/>
<path d="M11.7533 40.2953L15.8159 40.3006V42.0566H10.0027L10 35.5436L16.6407 33.1784L18.66 28.3203L15.635 21.9377L21.9377 15.6349L25.0319 17.0929L24.2923 18.6918L22.3049 17.7606L17.7581 22.3075L20.5835 28.2617L17.9762 34.5672L11.7692 36.7861L11.7533 40.2953Z" fill="#5370EA"/>
<path d="M43.2168 11.7586L36.7916 11.7559L34.5621 17.9816L28.2753 20.5836L25.8782 19.4475L26.6444 17.8698L28.3046 18.66L33.1707 16.6513L35.5411 10H44.4592L46.8244 16.638L51.6639 18.652L53.2495 17.9363L54.0025 19.5194L51.7277 20.5836L45.425 17.9656L43.2168 11.7586Z" fill="#5370EA"/>
<path d="M40.8834 14.4615H39.1167V16.2256H40.8834V14.4615Z" fill="#5370EA"/>
<path d="M40.8834 17.9841H39.1167V19.7482H40.8834V17.9841Z" fill="#5370EA"/>
<path d="M57.4329 21.321L56.1855 22.5684L57.4311 23.8139L58.6784 22.5665L57.4329 21.321Z" fill="#5370EA"/>
<path d="M22.5625 21.3181L21.3188 22.5618L22.5662 23.8092L23.8099 22.5655L22.5625 21.3181Z" fill="#5370EA"/>
<path d="M25.0527 23.8102L23.8091 25.0538L25.0546 26.2993L26.2982 25.0557L25.0527 23.8102Z" fill="#5370EA"/>
<path d="M54.9404 23.8168L53.6968 25.0604L54.9404 26.3041L56.1841 25.0604L54.9404 23.8168Z" fill="#5370EA"/>
<path d="M41.7295 38.6058L41.6816 37.0015C41.6656 36.4348 41.216 35.7165 40.6067 35.5382C40.1438 35.4052 39.5399 35.4823 39.0104 35.4956L38.9892 38.5925L37.2385 38.5845V29.7303L40.8223 29.7223C42.0488 29.7223 43.0863 30.5045 43.4907 31.5394C43.951 32.7207 43.6184 33.9791 42.6314 34.8491C43.1608 35.5701 43.4695 36.3284 43.4695 37.1904L43.4641 38.5765L41.7295 38.6031V38.6058ZM40.7744 33.7157C41.4954 33.7157 41.9397 33.173 41.9263 32.5637C41.9157 32.0103 41.4475 31.4862 40.801 31.4889L39.0051 31.4969L39.0104 33.7157H40.7744Z" fill="#5370EA"/>
<path d="M35.3066 35.001L31.5127 35.0143L31.4808 36.7596L35.288 36.7756L35.3013 38.5289L29.7248 38.5316L29.7222 29.7305L35.2906 29.7252L35.288 31.4838L31.4967 31.4918L31.4914 33.2371L35.296 33.2584L35.3066 35.001Z" fill="#5370EA"/>
<path d="M47.2314 35.4933L47.2128 38.5928L45.4622 38.5875V29.7359L49.0246 29.7252C50.6103 29.7199 51.8447 30.9783 51.9086 32.4709C51.9724 33.9635 50.7752 35.4321 49.147 35.4587L47.2287 35.4906L47.2314 35.4933ZM48.982 33.7187C49.6977 33.7187 50.1606 33.1839 50.1473 32.5614C50.1367 32.0612 49.711 31.4971 49.0991 31.4971H47.2234L47.2287 33.7134L48.982 33.7187Z" fill="#5370EA"/>
</svg>
