<svg width="45" height="60" viewBox="0 0 45 60" fill="none" xmlns="http://www.w3.org/2000/svg">
<path d="M43.7416 60H0.633205C0.223485 59.7632 0 59.4732 0 58.9384L0.00532623 46.7612C0.00532623 46.2025 0.420368 45.8487 0.904583 45.8593C1.35421 45.8673 1.75062 46.2265 1.76126 46.7692V58.2414L42.6109 58.2334L42.6189 11.5148C42.6189 10.9055 42.9674 10.5277 43.4702 10.5171C44.013 10.5064 44.3775 10.8736 44.3775 11.5068V58.9145C44.3775 59.4918 44.162 59.7552 43.7469 59.9973L43.7416 60Z" fill="#5370EA"/>
<path d="M42.6106 1.7586L1.76637 1.76392L1.75838 42.6134C1.75838 43.1642 1.31406 43.4888 0.917644 43.4941C0.364256 43.5021 0.00244141 43.1376 0.00244141 42.515V0.963107C0.00244141 0.423022 0.327016 0 0.891045 0H43.4859C44.0473 0 44.3746 0.446966 44.3746 0.936501V7.26852C44.3746 7.80595 43.9462 8.16512 43.462 8.15447C43.031 8.14383 42.6293 7.77934 42.6186 7.2632L42.6133 1.7586H42.6106Z" fill="#5370EA"/>
<path d="M38.3572 54.4581L38.3625 41.2566C38.3625 40.7086 38.7669 40.3574 39.2431 40.3574C39.6848 40.3574 40.1184 40.7086 40.1184 41.2593V55.3042C40.1184 55.8549 39.6848 56.214 39.1793 56.214H33.5762C33.1159 56.214 32.6743 55.8602 32.6743 55.3467V34.044C32.6743 33.5358 33.0707 33.1527 33.5523 33.1527H39.1846C39.7353 33.1501 40.1238 33.5518 40.1238 34.0999L40.1158 37.1488C40.1158 37.6596 39.6528 38.0002 39.2484 38.0002C38.719 38.0002 38.3625 37.5984 38.3625 37.0424V34.9113H34.4356V54.4448L38.3625 54.4581H38.3572Z" fill="#5370EA"/>
<path d="M17.3786 18.2804C17.3786 22.0318 14.3376 25.0727 10.5863 25.0727C6.83493 25.0727 3.79395 22.0318 3.79395 18.2804C3.79395 14.5291 6.83493 11.4882 10.5863 11.4882C14.3376 11.4882 17.3786 14.5291 17.3786 18.2804ZM9.70827 18.2831L9.69499 13.3266C7.06906 13.8214 5.3743 16.1414 5.56586 18.6769C5.75742 21.2123 7.78207 23.1678 10.2883 23.3088C12.7945 23.4498 15.0373 21.7976 15.5428 19.1691L10.5836 19.1531C10.0967 19.1398 9.74818 18.8046 9.70827 18.2858V18.2831ZM15.5321 17.3839C15.1331 15.2262 13.4969 13.6751 11.4722 13.3479V17.3998L15.5321 17.3839Z" fill="#5370EA"/>
<path d="M31.6842 9.33865H12.7306C12.2171 9.33865 11.8394 8.92095 11.8394 8.44206V4.68009C11.8394 4.19322 12.2145 3.78882 12.7306 3.78882H31.6416C32.179 3.78882 32.5063 4.19588 32.5355 4.68275V8.4394C32.4956 8.90765 32.2482 9.26149 31.6842 9.33865ZM30.7769 5.54742H13.6006V7.58005H30.7769V5.54742Z" fill="#5370EA"/>
<path d="M29.8324 56.2139H24.0857C23.5935 56.174 23.2051 55.8494 23.2051 55.3013V38.8008C23.2051 38.29 23.5749 37.8883 24.0671 37.8883L29.7819 37.8829C30.2714 37.9308 30.6412 38.2634 30.6412 38.8035V55.304C30.6412 55.7962 30.314 56.1234 29.8324 56.2165V56.2139ZM28.8826 39.6415H24.9637V54.4553H28.8826V39.6415Z" fill="#5370EA"/>
<path d="M20.3399 56.2141L14.5905 56.2087C14.1117 56.2087 13.7312 55.7937 13.7312 55.3121V45.8168C13.7791 45.3831 14.1063 44.9867 14.5639 44.9867H20.316C20.7842 44.9867 21.1168 45.3751 21.1674 45.8221V55.3095C21.1674 55.7937 20.8321 56.1396 20.3373 56.2141H20.3399ZM19.4114 46.7426H15.4925V54.4555H19.4114V46.7426Z" fill="#5370EA"/>
<path d="M39.6895 13.2414H22.1993C21.6432 13.2414 21.324 12.7998 21.3213 12.3634C21.3186 11.9271 21.6406 11.4855 22.1966 11.4855H39.6363C40.1657 11.4855 40.5223 11.818 40.5701 12.2597C40.618 12.7013 40.3334 13.2414 39.6895 13.2414Z" fill="#5370EA"/>
<path d="M39.6926 21.1325H22.2023C21.6409 21.1325 21.3084 20.6909 21.3217 20.2226C21.3323 19.8076 21.6516 19.3739 22.2023 19.3739H39.6261C40.1449 19.3739 40.5093 19.7011 40.5625 20.1162C40.6237 20.5765 40.3391 21.1325 39.6899 21.1325H39.6926Z" fill="#5370EA"/>
<path d="M39.679 17.1893H22.226C21.6727 17.1893 21.3374 16.7716 21.3241 16.3432C21.3108 15.8697 21.638 15.4333 22.2021 15.4333H39.6365C40.1765 15.4333 40.5331 15.7659 40.573 16.2395C40.6102 16.6598 40.3149 17.1866 39.679 17.1866V17.1893Z" fill="#5370EA"/>
<path d="M10.8228 56.2114H5.19845C4.69029 56.2114 4.25928 55.8469 4.25928 55.3174V51.5608C4.25928 51.0313 4.69029 50.6642 5.19845 50.6642H10.8015C11.2564 50.6642 11.7007 51.0367 11.7007 51.5129V55.3653C11.7007 55.8256 11.2698 56.2114 10.8228 56.2114ZM9.9448 52.4201H6.01521V54.4528H9.9448V52.4201Z" fill="#5370EA"/>
<path d="M22.1756 34.8288H6.26036C5.73358 34.8288 5.3824 34.4617 5.33983 34.0333C5.29726 33.605 5.60588 33.0729 6.16458 33.0729H22.1702C22.7183 33.0729 23.0456 33.4959 23.0509 33.9296C23.0562 34.3632 22.7316 34.8288 22.1756 34.8288Z" fill="#5370EA"/>
<path d="M22.2633 30.8806H6.21239C5.69359 30.8859 5.35573 30.4363 5.33976 30.0505C5.31848 29.537 5.67764 29.1273 6.26029 29.1273H22.1782C22.7076 29.1273 23.0242 29.5104 23.0535 29.9468C23.0748 30.2713 22.8433 30.8806 22.266 30.8806H22.2633Z" fill="#5370EA"/>
<path d="M32.6686 25.0778H22.1915C21.6541 25.0778 21.3215 24.6388 21.3215 24.1972C21.3215 23.7556 21.6514 23.3192 22.1889 23.3192H32.4957C33.0252 23.3166 33.4109 23.6225 33.4641 24.0801C33.5174 24.5377 33.2646 24.9794 32.6686 25.0778Z" fill="#5370EA"/>
<path d="M15.0928 38.7717L6.25191 38.777C5.69852 38.777 5.33936 38.3593 5.33404 37.9097C5.32872 37.4202 5.69852 37.0184 6.24924 37.0184H15.0343C15.5371 37.0184 15.9016 37.3616 15.9469 37.8059C15.9894 38.2183 15.6994 38.7744 15.0901 38.7744L15.0928 38.7717Z" fill="#5370EA"/>
</svg>
