<svg width="80" height="80" viewBox="0 0 80 80" fill="none" xmlns="http://www.w3.org/2000/svg">
<rect width="80" height="80" rx="8" fill="#E2EEFF"/>
<path d="M10.137 32.7624V66.8508C10.137 67.4585 10.5929 67.9005 11.2197 67.9005H30.3957C31.0226 67.9005 31.45 68.3701 31.4785 68.895C31.507 69.4199 31.0796 69.9724 30.3957 69.9724H11.2197C9.42467 69.9724 8 68.5911 8 66.8508V25.5525C8 23.8121 9.42467 22.4309 11.2197 22.4309H51.6802C52.3355 22.4309 52.7344 22.9005 52.7629 23.3978C52.7914 23.9502 52.364 24.4751 51.6802 24.4751H11.2197C10.5929 24.5027 10.137 24.9171 10.137 25.4972V30.663H53.8172C54.4725 30.663 54.8714 31.1326 54.8999 31.6298C54.9284 32.2099 54.501 32.6795 53.8172 32.7072H10.137V32.7624Z" fill="#5370EA"/>
<path d="M34.4987 65.8563H30.6521C30.1677 65.8563 29.6833 65.5248 29.5978 65.0829L28.9425 62.2652L26.3781 61.2431L23.9562 62.7348C23.5003 63.011 22.9304 62.9834 22.56 62.6243L19.9671 60.1105C19.5397 59.7237 19.4542 59.1712 19.7677 58.674L21.3063 56.3259L20.252 53.8398L17.3742 53.2044C16.8898 53.0939 16.5764 52.6519 16.5764 52.1823V48.5359C16.5764 47.9005 17.0038 47.569 17.6022 47.4309L20.2805 46.8508L21.3348 44.3646L19.7392 41.9337C19.4827 41.5469 19.5967 40.9668 19.9101 40.663L22.5885 38.0663C22.9589 37.7072 23.5288 37.6795 23.9847 37.9282L26.4066 39.4199L28.9425 38.3978L29.5978 35.6077C29.7118 35.1381 30.1962 34.8342 30.6521 34.8342H34.2707C34.8976 34.8342 35.3535 35.1105 35.4959 35.7182L36.1228 38.3978L38.6872 39.4475L41.1091 37.9558C41.679 37.5967 42.2204 37.7624 42.6763 38.2044L45.1267 40.6077C45.5541 41.0221 45.6396 41.5469 45.3261 42.0442L43.7875 44.3922C44.1864 45.2486 44.4998 45.9116 44.8132 46.8508L47.7196 47.5138C48.2039 47.6243 48.5174 48.0663 48.5174 48.5359V52.1823C48.5174 52.7072 48.1185 53.1215 47.6056 53.232L44.8132 53.8398L43.759 56.3259L45.2976 58.674C45.5826 59.116 45.5256 59.6685 45.1552 60.0276L42.5053 62.6243C42.0779 63.0387 41.4795 62.9834 40.9951 62.7072L38.6872 61.2707L36.1228 62.2928L35.4674 65.1105C35.382 65.4972 34.9546 65.884 34.4702 65.884L34.4987 65.8563ZM33.6154 63.7845L34.1853 61.2431C34.2707 60.8287 34.6411 60.4972 35.0685 60.3867C36.1798 60.1105 37.1486 59.6961 38.1743 59.1436C38.4877 58.9503 39.0006 58.9779 39.314 59.1436L41.622 60.5801L43.1036 59.1436L41.679 56.9889C41.4225 56.6022 41.394 56.105 41.679 55.6906C43.0467 53.5083 42.6762 52.1547 43.7875 51.9337L46.4089 51.3812V49.3094L43.6735 48.7293C43.3031 48.6464 43.0182 48.2596 42.9042 47.9005C42.5908 46.7956 42.1919 45.884 41.622 44.9171C41.4795 44.6685 41.4225 44.1436 41.565 43.895L43.1036 41.5746L41.622 40.1381L39.314 41.5746C38.9151 41.8232 38.4023 41.7403 37.9749 41.4917C35.7524 40.1933 34.4417 40.5801 34.1853 39.4751L33.6154 36.9337H31.4784L30.9085 39.4751C30.7946 39.9447 30.3957 40.2486 29.9113 40.3591C28.8285 40.6353 27.8882 41.0221 26.948 41.5746C26.6345 41.7679 26.0932 41.7679 25.7797 41.5746L23.4718 40.1381L21.9901 41.5746L23.3578 43.6464C24.1271 44.8066 22.9304 45.1657 22.1896 47.9282C22.0756 48.3425 21.7337 48.7016 21.3063 48.7845L18.6849 49.337V51.3812L21.3063 51.9337C21.7337 52.0166 22.0756 52.3757 22.1896 52.79C22.4745 53.8674 22.9019 54.8066 23.4718 55.8011C23.6427 56.1049 23.6427 56.6022 23.4718 56.9061L21.9901 59.1436L23.4718 60.5801L25.7797 59.1436C26.0932 58.9503 26.606 58.9503 26.9195 59.1436C27.9167 59.6961 28.8855 60.1105 30.0252 60.3867C30.4526 60.4972 30.823 60.8287 30.9085 61.2431L31.4784 63.7845H33.6154Z" fill="#5370EA"/>
<path d="M61.3112 39.2818C61.3112 43.3425 60.8268 47.1271 59.858 50.9669C57.5786 60.1105 51.8799 67.4862 41.9927 69.4475C39.6278 69.9171 37.3483 70 34.9264 69.9724C34.2426 69.9724 33.6442 69.6685 33.6157 68.9779C33.5872 68.2873 34.1856 67.8453 34.9549 67.8729C37.0064 67.9282 38.9725 67.8729 40.9955 67.5138C46.3237 66.5746 50.8542 63.7017 53.8744 59.337C55.6695 56.7403 56.8662 53.9503 57.6925 50.884C58.7183 47.0718 59.2027 43.2873 59.2027 39.3094V24.4475H56.0114C55.698 24.4475 55.2421 24.1713 55.1281 23.9503C54.9572 23.674 54.9287 23.2044 55.1281 22.9006L62.5364 10.5801C62.7358 10.2486 63.1347 10.0276 63.4767 10C63.7901 10 64.2745 10.1657 64.4454 10.4972L71.8822 22.8729C72.0531 23.1768 72.0246 23.6464 71.8822 23.9227C71.7397 24.1436 71.3123 24.4199 70.9989 24.4199H67.7791V37.8453C67.7791 38.453 67.2948 38.8674 66.7819 38.895C66.212 38.9227 65.6707 38.5083 65.6707 37.8453V23.3978C65.6707 22.7901 66.155 22.3757 66.7249 22.3481L69.1183 22.2928L63.5337 13.011L57.949 22.2928H60.3424C60.9123 22.3481 61.3967 22.7624 61.3967 23.3702V39.1713L61.3112 39.2818Z" fill="#5370EA"/>
<path d="M14.4104 17.1823V19.337C14.3819 19.9171 13.8976 20.3315 13.3847 20.3591C12.8718 20.3867 12.2734 19.9447 12.2734 19.337V17.2652C12.2734 15.5801 13.6696 14.1713 15.4932 14.1713H55.9536C56.609 14.1713 57.0079 14.6409 57.0364 15.1657C57.0649 15.7182 56.6375 16.2431 55.9536 16.2431H15.4932C14.9233 16.2431 14.4389 16.6298 14.4104 17.2099V17.1823Z" fill="#5370EA"/>
<path d="M58.205 70C57.5497 70 57.1223 69.5304 57.0938 69.0055C57.0653 68.4531 57.5212 67.9282 58.1481 67.9282H64.5305C65.1004 67.9282 65.5848 67.4586 65.5848 66.8785V50.3591C65.5848 49.7514 66.0692 49.337 66.6105 49.3094C67.1804 49.2818 67.7218 49.6961 67.7218 50.3591V66.8785C67.7218 68.6188 66.2971 69.9724 64.5305 69.9724H58.1765L58.205 70Z" fill="#5370EA"/>
<path d="M66.668 43.094C67.2503 43.094 67.7223 42.6364 67.7223 42.0719C67.7223 41.5074 67.2503 41.0498 66.668 41.0498C66.0858 41.0498 65.6138 41.5074 65.6138 42.0719C65.6138 42.6364 66.0858 43.094 66.668 43.094Z" fill="#5370EA"/>
<path d="M17.6023 20.3591C18.1846 20.3591 18.6566 19.9015 18.6566 19.337C18.6566 18.7726 18.1846 18.3149 17.6023 18.3149C17.0201 18.3149 16.5481 18.7726 16.5481 19.337C16.5481 19.9015 17.0201 20.3591 17.6023 20.3591Z" fill="#5370EA"/>
<path d="M21.8755 20.3591C22.4578 20.3591 22.9298 19.9015 22.9298 19.337C22.9298 18.7726 22.4578 18.3149 21.8755 18.3149C21.2933 18.3149 20.8213 18.7726 20.8213 19.337C20.8213 19.9015 21.2933 20.3591 21.8755 20.3591Z" fill="#5370EA"/>
<path d="M26.1504 20.3591C26.7327 20.3591 27.2047 19.9015 27.2047 19.337C27.2047 18.7726 26.7327 18.3149 26.1504 18.3149C25.5682 18.3149 25.0962 18.7726 25.0962 19.337C25.0962 19.9015 25.5682 20.3591 26.1504 20.3591Z" fill="#5370EA"/>
<path d="M13.3277 28.6188C13.9099 28.6188 14.3819 28.1612 14.3819 27.5967C14.3819 27.0322 13.9099 26.5746 13.3277 26.5746C12.7454 26.5746 12.2734 27.0322 12.2734 27.5967C12.2734 28.1612 12.7454 28.6188 13.3277 28.6188Z" fill="#5370EA"/>
<path d="M17.6023 28.6188C18.1846 28.6188 18.6566 28.1612 18.6566 27.5967C18.6566 27.0322 18.1846 26.5746 17.6023 26.5746C17.0201 26.5746 16.5481 27.0322 16.5481 27.5967C16.5481 28.1612 17.0201 28.6188 17.6023 28.6188Z" fill="#5370EA"/>
<path d="M21.8755 28.6188C22.4578 28.6188 22.9298 28.1612 22.9298 27.5967C22.9298 27.0322 22.4578 26.5746 21.8755 26.5746C21.2933 26.5746 20.8213 27.0322 20.8213 27.5967C20.8213 28.1612 21.2933 28.6188 21.8755 28.6188Z" fill="#5370EA"/>
<path d="M37.8897 50.3868C37.8612 47.3205 35.2398 45 32.2196 45.1934C29.1993 45.3868 26.9198 47.9834 27.2617 50.9116C27.6037 53.8398 30.453 55.9669 33.5587 55.4144C34.1571 55.3039 34.67 55.6354 34.8124 56.1326C34.9834 56.7127 34.67 57.3205 34.0146 57.431C29.7691 58.2597 25.7516 55.3868 25.1817 51.326C24.6119 47.2652 27.7461 43.4254 31.9916 43.1216C36.2371 42.8177 39.9982 46.0774 40.0267 50.3315C40.0267 50.9116 39.5423 51.326 39.0295 51.3536C38.5451 51.3812 37.9182 51.0221 37.9182 50.3591L37.8897 50.3868Z" fill="#5370EA"/>
<path d="M37.8604 55.663C38.4426 55.663 38.9147 55.2054 38.9147 54.6409C38.9147 54.0764 38.4426 53.6188 37.8604 53.6188C37.2782 53.6188 36.8062 54.0764 36.8062 54.6409C36.8062 55.2054 37.2782 55.663 37.8604 55.663Z" fill="#5370EA"/>
</svg>
