<svg width="60" height="60" viewBox="0 0 60 60" fill="none" xmlns="http://www.w3.org/2000/svg">
<path d="M30.5957 56.0557L30.5671 57.6214C30.5442 58.898 29.571 60 28.24 60H23.3111C22.0918 60 21.0413 58.9982 21.0069 57.7988L20.9554 56.09H20.0423C17.5206 56.0815 15.5113 54.2124 15.5142 51.685L15.5199 47.526C15.5199 46.9879 15.9349 46.5099 16.5188 46.507L29.9259 46.4985C29.8257 44.9757 29.8572 43.6848 30.0862 42.3166C30.1692 41.81 30.6272 41.478 31.1252 41.478H32.8025L33.9131 38.8103L32.7281 37.6053C32.3589 37.2303 32.2959 36.6836 32.6079 36.2457C33.6297 34.8145 34.8348 33.6038 36.2745 32.5934C36.6895 32.3014 37.2534 32.3701 37.6055 32.7193L38.8191 33.9186L41.4581 32.8252L41.4667 31.228C41.4667 30.9418 41.69 30.5898 41.7701 30.3064C42.1508 28.9382 42.2138 27.5242 42.2424 26.1303C42.4456 16.7448 34.8949 9.2026 25.6811 9.25698C16.4673 9.31136 8.9795 16.9823 9.31153 26.3764C9.37736 28.2741 9.55483 30.1032 10.153 31.9265L10.8371 29.4649C10.9974 28.8867 11.5527 28.6033 12.1223 28.775C12.5832 28.9124 12.918 29.4534 12.7663 30.023L11.3209 35.4099C11.255 35.6589 10.9545 35.9823 10.757 36.0653C10.5137 36.1684 10.0271 36.1484 9.78955 35.9823L5.0152 32.6621C4.5515 32.3386 4.48282 31.7261 4.70322 31.3454C5.01807 30.8044 5.66781 30.6813 6.16872 31.022L8.09791 32.3243C7.59415 30.2692 7.36229 28.4631 7.28787 26.5052C6.90719 16.1666 14.9188 7.61115 25.1229 7.2505C35.2498 6.88985 43.8997 14.8013 44.2489 25.1313C44.3004 26.6827 44.163 28.2455 43.9713 29.8627C45.2307 29.8456 46.3842 29.8885 47.5549 30.0831C48.0558 30.1661 48.3821 30.6413 48.3821 31.1164V32.788L51.0555 33.9072L52.2691 32.7107C52.5839 32.3987 53.1478 32.29 53.5342 32.5562C55.0083 33.578 56.2248 34.8031 57.2638 36.2628C57.5243 36.6292 57.5128 37.2017 57.198 37.5251L55.9472 38.8103L57.0434 41.4608L58.7637 41.478C59.2045 41.4837 59.6682 41.7757 59.754 42.2393C60.0775 44.0054 60.0918 45.7628 59.7798 47.5203C59.6739 48.1185 59.1959 48.3761 58.6234 48.3819L57.0406 48.3933C56.6942 49.3579 56.4137 50.0391 55.9472 51.0152L57.1579 52.2746C57.4642 52.5923 57.5701 53.1419 57.301 53.5283C56.2649 55.0138 55.0226 56.2646 53.5371 57.2922C53.1049 57.5899 52.5553 57.4325 52.2118 57.0919L51.0612 55.9469L48.4078 57.0346L48.3849 58.7377C48.3792 59.2414 48.0472 59.688 47.5377 59.771C45.7917 60.0572 44.0972 60.083 42.3512 59.7796C41.9304 59.7051 41.4982 59.3187 41.4925 58.8779L41.4667 57.0518L38.8191 55.9412L37.6627 57.0861C36.5092 58.2253 35.1296 56.1845 34.0648 55.406C32.9972 56.0299 32.0097 56.1673 30.6014 56.0528L30.5957 56.0557ZM46.3556 57.9362L46.3756 56.1988C46.3813 55.7494 46.7191 55.3516 47.1599 55.2485C48.4222 54.9537 49.5585 54.4814 50.6462 53.8088C51.1127 53.5197 51.6337 53.6514 51.9943 54.012L53.102 55.1226C53.8519 54.4728 54.4788 53.846 55.1285 53.1018L53.892 51.8481C53.6172 51.5676 53.5943 50.9923 53.8033 50.6488C54.4788 49.5382 54.9654 48.4248 55.2545 47.1568C55.3575 46.7103 55.7497 46.384 56.2048 46.3725L57.9308 46.3353C57.9823 45.3077 57.9823 44.4662 57.9164 43.5073L56.199 43.4902C55.7697 43.4844 55.3547 43.1381 55.2573 42.7202C54.9597 41.4522 54.4931 40.3159 53.8147 39.2282C53.5342 38.776 53.6401 38.2407 53.9979 37.8829L55.1228 36.758C54.4817 36.0138 53.8577 35.387 53.102 34.7401L51.9142 35.9108C51.5077 36.3115 50.961 36.2571 50.5002 35.968C48.0386 34.4281 46.3928 34.909 46.3756 33.681L46.347 31.935C45.3366 31.8749 44.4521 31.8721 43.499 31.9522L43.4847 33.6782C43.4818 34.1218 43.1126 34.5083 42.6832 34.6113C41.4295 34.909 40.296 35.3784 39.2084 36.0539C38.759 36.3315 38.2352 36.2113 37.8888 35.8621L36.764 34.7344C36.0083 35.3784 35.3757 36.011 34.7346 36.7638L35.9282 37.9659C36.2258 38.2665 36.2888 38.8275 36.057 39.2024C35.3528 40.3416 34.8891 41.4837 34.5772 42.7889C34.4884 43.161 34.0534 43.4844 33.687 43.493L31.9266 43.5245V46.3496L33.6727 46.3811C34.9235 46.404 34.4255 48.0584 36.014 50.5858C36.3174 51.0667 36.243 51.5962 35.8537 51.9884L34.7374 53.1075C35.39 53.866 36.0112 54.4872 36.7582 55.1312L37.8659 54.0235C38.9193 52.9701 39.5919 54.5444 42.7147 55.2657C43.144 55.3659 43.4847 55.7695 43.4875 56.2074L43.4961 57.9305L46.3556 57.9448V57.9362ZM32.7138 53.7945C32.2902 53.1905 32.3159 52.6782 32.7252 52.2603L33.9131 51.0495L32.8655 48.525H17.5407V51.808C17.5407 53.1218 18.6284 54.0635 19.9135 54.0635H31.7606C32.1041 54.0635 32.4905 53.9233 32.7138 53.7945ZM28.5348 57.962L28.5262 56.0757L23.002 56.0843L22.9905 57.5756C22.9905 57.7387 23.2624 58.0021 23.417 58.0021L28.532 57.9649L28.5348 57.962Z" fill="#5370EA"/>
<path d="M4.03262 26.0125L0.996251 26.0068C0.40672 26.0068 0.0146585 25.526 0.000349541 25.0223C-0.0139595 24.4872 0.412436 23.9978 1.02486 23.9978H4.02404C4.61357 23.995 5.03998 24.4242 5.07432 24.905C5.11725 25.5174 4.68225 26.0125 4.03262 26.0125Z" fill="#5370EA"/>
<path d="M27.5526 4.05254C27.5526 4.70217 27.0231 5.08851 26.5309 5.07707C25.9728 5.06276 25.5378 4.64493 25.5378 4.02965V0.993273C25.5436 0.403742 26.0129 0.0116752 26.528 0.000227983C27.0432 -0.0112192 27.5526 0.409465 27.5526 1.02475V4.0554V4.05254Z" fill="#5370EA"/>
<path d="M50.5822 27.5467H47.4485C46.8504 27.5495 46.4612 27.0144 46.4727 26.5279C46.487 25.9669 46.9048 25.5319 47.5229 25.5348L50.5565 25.5405C51.1403 25.5405 51.5352 26.0127 51.5495 26.5279C51.5609 26.9714 51.2032 27.5467 50.5851 27.5467H50.5822Z" fill="#5370EA"/>
<path d="M11.6175 9.09896C12.0668 9.54826 12.0554 10.1521 11.7177 10.5384C11.38 10.9248 10.696 11.0192 10.2896 10.6157L8.14043 8.48081C7.72261 8.06585 7.6854 7.43911 8.08319 7.02415C8.42947 6.6607 9.08197 6.57485 9.50265 6.99553L11.6146 9.09609L11.6175 9.09896Z" fill="#5370EA"/>
<path d="M42.4514 11.6149C41.9992 12.0699 41.4011 12.0642 41.009 11.7208C40.6169 11.3773 40.5196 10.6905 40.926 10.2841L43.1325 8.07481C43.5217 7.68561 44.1541 7.7314 44.5233 8.0834C44.8925 8.4354 44.9726 9.07645 44.5491 9.50286L42.4514 11.6149Z" fill="#5370EA"/>
<path d="M52.169 44.9299C52.169 48.9286 48.9288 52.1687 44.9302 52.1687C40.9315 52.1687 37.6914 48.9286 37.6914 44.9299C37.6914 40.9313 40.9315 37.6912 44.9302 37.6912C48.9288 37.6912 52.169 40.9313 52.169 44.9299ZM50.1539 44.9271C50.1539 42.0419 47.8154 39.7034 44.9302 39.7034C42.045 39.7034 39.7065 42.0419 39.7065 44.9271C39.7065 47.8123 42.045 50.1508 44.9302 50.1508C47.8154 50.1508 50.1539 47.8123 50.1539 44.9271Z" fill="#5370EA"/>
</svg>
