<svg width="60" height="60" viewBox="0 0 60 60" fill="none" xmlns="http://www.w3.org/2000/svg">
<path d="M38.4733 59.9789H4.12214C1.72301 59.4718 0 57.6549 0 55.162V10.331C0 8.13379 1.50491 6.31691 3.64231 5.78874C4.23119 5.64085 4.71101 6.04225 4.82007 6.50704C4.92912 6.97183 4.62377 7.43662 4.10033 7.58451C2.83533 7.94366 1.94111 8.97886 1.94111 10.331V55.2887C1.94111 56.8732 3.22792 58.1197 4.86369 58.1197H37.7317C38.6914 58.1197 39.4547 57.7183 40.0218 57.0422C40.3708 56.6197 40.9815 56.5563 41.3959 56.8732C41.7448 57.1479 41.8757 57.6972 41.5921 58.1197C40.8288 59.1972 39.6728 59.662 38.4733 60V59.9789Z" fill="#5370EA"/>
<path d="M34.8527 1.85917H10.6651C9.02935 1.85917 7.74254 3.10564 7.74254 4.69014V49.6479C7.74254 51.2324 9.02935 52.4789 10.6651 52.4789H33.6095C34.2202 52.4789 34.591 52.8803 34.6346 53.3662C34.6564 53.8944 34.2638 54.3592 33.6313 54.3592H10.6651C7.98246 54.3592 5.82324 52.2676 5.82324 49.6479V4.81691C5.82324 2.30283 7.61168 0.316901 10.2071 0H35.7905C36.0741 0 36.3794 0.169022 36.5757 0.338036L48.1133 11.5141C48.266 11.662 48.4187 11.9789 48.4187 12.1901V29.9789C48.4187 30.5493 47.9606 30.8873 47.5026 30.9085C46.9792 30.9296 46.4775 30.5704 46.4775 29.9789V13.1197H35.8341C35.2671 13.0775 34.8963 12.7183 34.8527 12.169V1.85917ZM45.0381 11.1972L36.772 3.19015V11.2394L45.0381 11.1972Z" fill="#5370EA"/>
<path d="M47.7426 58.0986H45.2344C43.7949 58.0986 42.639 57.0633 42.5736 55.6267C42.5736 55.3943 42.3773 55.0563 42.2028 54.9929C42.0065 54.9084 41.6139 54.9507 41.4394 55.1197C40.4143 56.0704 38.7786 56.0915 37.7753 55.1197L35.9214 53.3028C34.9182 52.331 35.0054 50.7887 35.9869 49.8169C36.1395 49.6479 36.205 49.2676 36.1177 49.0774C36.0523 48.9084 35.7033 48.7183 35.4634 48.7183C33.9803 48.676 32.9116 47.5563 32.9116 46.1408V43.7957C32.9116 42.4014 33.9803 41.2817 35.4634 41.2394C35.7033 41.2394 36.0523 41.0493 36.1177 40.8803C36.205 40.6901 36.1613 40.2887 35.9869 40.1408C35.0054 39.169 34.9182 37.6267 35.9214 36.6549L37.7753 34.838C38.8004 33.8239 40.5016 33.9507 41.483 34.8802C41.6357 35.0281 42.0501 35.0493 42.2028 34.9859C42.3773 34.9014 42.5736 34.5845 42.5736 34.3521C42.6172 32.9155 43.7731 31.8802 45.2344 31.8802H47.6554C49.1166 31.8802 50.2508 32.9155 50.3162 34.3521C50.3162 34.5422 50.4689 34.8591 50.6215 34.9436C50.7742 35.0493 51.254 35.0493 51.3849 34.9014C52.4318 33.9084 54.0894 33.845 55.1145 34.838L56.9247 36.5915C57.9498 37.5845 57.928 39.1478 56.9247 40.1408C56.772 40.2887 56.7284 40.6901 56.7938 40.8803C56.8593 41.0493 57.2082 41.2394 57.4482 41.2394C58.9312 41.2817 60 42.4014 60 43.7957V46.1408C60 47.5352 58.9312 48.6549 57.4482 48.6971C57.2082 48.6971 56.8811 48.8873 56.7938 49.0563C56.7066 49.2464 56.772 49.6478 56.9247 49.7957C57.9062 50.7676 57.9716 52.3098 56.9901 53.2817L55.2671 54.9929C54.2202 56.0281 52.5845 56.1126 51.4721 55.0774C51.3195 54.9295 50.9269 54.8873 50.7088 54.9507C50.5343 55.014 50.338 55.331 50.338 55.5845C50.2944 56.9366 49.2257 58.0352 47.7644 58.0352L47.7426 58.0986ZM47.7644 56.2183C48.8985 56.2183 47.7644 54.2112 49.9454 53.2817C50.9705 52.838 52.0392 53.0493 52.8462 53.8098C53.1079 54.0422 53.5659 54 53.8058 53.7676L55.5288 52.0986C56.4885 51.169 54.0021 50.6197 55.0272 48.338C56.0087 46.2042 58.0588 47.4084 58.0588 46.1619V43.7957C58.0588 42.5281 55.9214 43.7535 54.9836 41.5352C54.0458 39.3169 56.4667 38.7887 55.507 37.8591L53.8058 36.2112C52.8462 35.2816 52.2791 37.669 49.9236 36.6971C47.5681 35.7253 48.964 33.7605 47.6554 33.7605H45.2126C43.904 33.7605 45.169 35.8309 42.8789 36.7394C40.5888 37.6478 40.0218 35.3239 39.0839 36.2324L37.3609 37.9014C36.4013 38.831 38.8876 39.4014 37.8407 41.6619C36.8593 43.8169 34.8091 42.5915 34.8091 43.838V46.2253C34.8091 47.4718 36.8593 46.2676 37.8407 48.4014C38.8658 50.6619 36.4013 51.2324 37.3609 52.1619L39.0839 53.831C39.3238 54.0633 39.8037 54.1267 40.0436 53.8732C40.8506 53.1126 41.9193 52.9225 42.9443 53.345C45.169 54.2957 43.904 56.2816 45.1908 56.2816H47.7208L47.7644 56.2183Z" fill="#5370EA"/>
<path d="M41.6139 17.7887H24.2093C23.6205 17.7887 23.2715 17.3451 23.2497 16.9014C23.2279 16.4155 23.5987 15.9084 24.2093 15.9084H41.6139C42.2028 15.9084 42.5518 16.3521 42.5736 16.7958C42.5954 17.2817 42.2246 17.7887 41.6139 17.7887Z" fill="#5370EA"/>
<path d="M41.6139 27.169H24.2093C23.6205 27.169 23.2715 26.7253 23.2497 26.2817C23.2279 25.7957 23.5987 25.2887 24.2093 25.2887H41.6139C42.2028 25.2887 42.5518 25.7324 42.5736 26.176C42.5954 26.6619 42.2246 27.169 41.6139 27.169Z" fill="#5370EA"/>
<path d="M14.8092 18.4648L11.9085 15.6549C11.4941 15.2535 11.5595 14.6408 11.9303 14.3028C12.3447 13.9436 12.9335 13.9859 13.3261 14.3873L15.4853 16.4789L19.6293 12.4648C20.0001 12.1056 20.6108 12.1267 20.9597 12.4436C21.3305 12.7817 21.3959 13.3944 20.9815 13.7958L16.1615 18.4648C15.7689 18.8451 15.1582 18.8239 14.7874 18.4648H14.8092Z" fill="#5370EA"/>
<path d="M14.8092 27.8239L11.9085 25.014C11.4941 24.6126 11.5595 24 11.9303 23.6619C12.3447 23.3028 12.9335 23.345 13.3261 23.7464L15.4853 25.838L19.6293 21.8239C20.0001 21.4647 20.6108 21.4859 20.9597 21.8028C21.3305 22.1408 21.3959 22.7535 20.9815 23.1549L16.1615 27.8239C15.7689 28.2042 15.1582 28.1831 14.7874 27.8239H14.8092Z" fill="#5370EA"/>
<path d="M14.8092 37.2043L11.9085 34.3944C11.4941 33.993 11.5595 33.3803 11.9303 33.0423C12.3447 32.6831 12.9335 32.7254 13.3261 33.1268L15.4853 35.2184L19.6293 31.2043C20.0001 30.8451 20.6108 30.8662 20.9597 31.1831C21.3305 31.5212 21.3959 32.1338 20.9815 32.5353L16.1615 37.2043C15.7689 37.5845 15.1582 37.5634 14.7874 37.2043H14.8092Z" fill="#5370EA"/>
<path d="M14.8092 46.5845L11.9085 43.7747C11.4941 43.3732 11.5595 42.7606 11.9303 42.4225C12.3447 42.0634 12.9335 42.1056 13.3261 42.507L15.4853 44.5986L19.6293 40.5845C20.0001 40.2254 20.6108 40.2465 20.9597 40.5634C21.3305 40.9014 21.3959 41.5141 20.9815 41.9155L16.1615 46.5845C15.7689 46.9648 15.1582 46.9437 14.7874 46.5845H14.8092Z" fill="#5370EA"/>
<path d="M31.9302 36.5492H24.1876C23.6205 36.5492 23.2497 36.1056 23.2279 35.6619C23.2061 35.1549 23.5987 34.6689 24.1876 34.6689H31.9302C32.4973 34.6689 32.868 35.1126 32.8899 35.5563C32.9117 36.0633 32.5409 36.5492 31.9302 36.5492Z" fill="#5370EA"/>
<path d="M29.0514 45.9085H24.2095C23.6643 45.9085 23.2717 45.4648 23.2499 45.0212C23.2281 44.5141 23.6207 44.0282 24.2095 44.0282H29.0514C29.5967 44.0282 29.9893 44.4719 30.0111 44.9155C30.0329 45.4226 29.6403 45.9085 29.0514 45.9085Z" fill="#5370EA"/>
<path d="M52.2573 44.9788C52.2573 48.0845 49.6619 50.5986 46.4558 50.5986C43.2497 50.5986 40.6543 48.0845 40.6543 44.9788C40.6543 41.8732 43.2497 39.3591 46.4558 39.3591C49.6619 39.3591 52.2573 41.8732 52.2573 44.9788ZM50.3162 44.9788C50.3162 42.9084 48.5932 41.2394 46.4558 41.2394C44.3184 41.2394 42.5954 42.9084 42.5954 44.9788C42.5954 47.0493 44.3184 48.7183 46.4558 48.7183C48.5932 48.7183 50.3162 47.0493 50.3162 44.9788Z" fill="#5370EA"/>
</svg>
