<svg width="59" height="60" viewBox="0 0 59 60" fill="none" xmlns="http://www.w3.org/2000/svg">
<path d="M50.3297 59.9894H48.3593L47.5776 59.6943L47.1016 58.1786L45.812 57.6388L44.7856 58.2424C43.9905 58.7104 42.6317 57.0272 42.1212 56.3811C41.9856 56.2109 42.0148 55.703 42.1265 55.5142L42.7088 54.5277L42.1478 53.2168L41.007 52.919C40.6108 52.8153 40.4327 52.3898 40.3822 51.9324L29.1529 51.9271C28.7727 51.9271 28.3579 51.5735 28.3552 51.1959L28.334 44.3195L27.3661 45.2183C27.0656 45.4975 26.5072 45.4231 26.2599 45.1412C25.9993 44.8434 25.986 44.3169 26.2865 44.0164L28.5068 41.7828C28.8551 41.4345 29.3816 41.3467 29.7592 41.7216L32.0274 43.9898C32.3811 44.3435 32.3305 44.8886 32.0513 45.1545C31.703 45.4895 31.1924 45.4709 30.8813 45.1439L29.9906 44.3116L29.9826 50.2891H40.3928C40.4061 48.8878 41.2038 49.1936 42.177 48.8134L42.6956 47.4971L42.1212 46.5425C42.0148 46.367 41.9803 45.8485 42.1238 45.665C42.5785 45.088 43.9879 43.349 44.751 43.7957L45.7987 44.41L47.1149 43.8781L47.4154 42.7347C47.652 41.8333 49.6623 42.0567 50.5265 42.1365C50.8376 42.1657 51.1726 42.522 51.2418 42.7986L51.497 43.8569L52.8186 44.4179L53.7918 43.8436C54.0311 43.7026 54.5151 43.692 54.7437 43.8835C55.4564 44.4791 56.0839 45.0375 56.5758 45.8352C56.7487 46.1171 56.4642 46.7047 56.27 46.9334C55.8898 47.3801 55.9909 47.7125 56.1823 48.1858C56.3738 48.6591 56.5306 48.9702 57.1289 49.0128C57.4001 49.0314 58.0117 49.2388 58.0942 49.518C58.3016 50.236 58.5781 52.6823 57.6129 52.9349L56.4775 53.2301L55.9323 54.533L56.504 55.5169C56.6583 55.7801 56.6556 56.2295 56.4429 56.4874C55.9217 57.1203 54.6374 58.7024 53.8503 58.2477L52.8159 57.6494L51.5103 58.2158L51.0822 59.6756L50.3217 60L50.3297 59.9894ZM49.8139 58.1786C50.5478 56.2002 49.4682 57.4181 52.5154 55.9476C53.4408 55.5009 53.7918 56.9953 54.5682 56.171C55.1718 55.5275 53.8024 55.0595 54.2438 54.2006C54.5762 53.5518 54.8129 53.012 55.0176 52.326C55.3341 51.2703 56.6742 52.0521 56.6795 51.031C56.6822 49.9195 55.3101 50.9326 54.9432 49.518C54.8209 49.0474 54.6161 48.5448 54.3688 48.13C53.6083 46.843 55.334 46.5824 54.5071 45.8113C53.7891 45.1412 53.4674 46.508 52.5181 46.1038L50.3643 45.1837C49.9761 45.0189 49.9787 44.2398 49.8085 43.8516C49.7075 43.6202 48.9762 43.6176 48.8513 43.8383C48.6306 44.2345 48.6944 45.0189 48.2477 45.1997C47.4819 45.5081 46.8304 45.7687 46.0725 46.1224C45.2429 46.5053 44.7988 45.1013 44.0995 45.8512C43.448 46.5505 44.7989 46.8935 44.3947 47.8401L43.472 49.9966C43.3045 50.3769 42.5254 50.3663 42.1478 50.5524C41.9191 50.6667 41.9138 51.4246 42.1531 51.515C42.552 51.6665 43.2779 51.7224 43.48 52.0494L44.4266 54.3176C44.6792 54.9212 43.7379 55.7163 43.8841 55.8998L44.158 56.2454C44.7138 56.9474 45.2589 55.5621 46.0725 55.937C46.8862 56.3119 47.5111 56.5566 48.3407 56.8783C48.604 57.1415 48.7077 57.8302 48.8619 58.2211C48.9603 58.4525 49.7287 58.4179 49.8165 58.1839L49.8139 58.1786Z" fill="#5370EA"/>
<path d="M9.94405 59.9892H7.97368L7.25841 59.7047C7.07493 59.2447 6.93666 58.7581 6.79573 58.2076L5.4848 57.6359L4.5169 58.2076C4.32279 58.322 3.81493 58.3698 3.64209 58.2342C3.01455 57.7343 1.31009 56.3622 1.74884 55.5938L2.3604 54.5222L1.82061 53.2219L0.679891 52.9241C-0.216213 52.6901 0.00449727 50.6532 0.0895872 49.7864C0.116178 49.5284 0.453871 49.1854 0.679891 49.1243L1.82859 48.8211L2.3604 47.4916L1.79136 46.5476C1.64511 46.3057 1.63448 45.827 1.83125 45.593C2.37636 44.9469 3.66069 43.3541 4.4265 43.7982L5.48214 44.4071L6.77976 43.8567L7.12545 42.6255C7.2265 42.2665 7.73437 42.1309 8.14652 42.0698V30.9496C8.14652 30.4151 8.48688 30.0508 9.00806 30.0508L14.8447 30.0322L14.0549 29.1653C13.7226 28.8011 13.7119 28.2746 14.0603 27.9634C14.3714 27.6842 14.8899 27.6922 15.209 28.014L17.4931 30.3034C17.8415 30.6518 17.7404 31.1916 17.4213 31.5106L15.1904 33.7336C14.8394 34.082 14.289 34.0367 14.0124 33.7336C13.712 33.4039 13.7199 32.8854 14.047 32.5849L14.8553 31.6968H9.78185L9.78718 42.0698C10.1222 42.1309 10.6966 42.2506 10.771 42.4872L11.2044 43.8753L12.5047 44.4097L13.4673 43.8301C14.3129 43.3195 15.6371 44.9814 16.1875 45.6808C16.3178 45.8456 16.2833 46.3535 16.1716 46.545L15.5946 47.5315L16.1609 48.8398L17.2964 49.1322C18.1739 49.3583 17.9478 51.3924 17.876 52.2407C17.8494 52.5518 17.4878 52.8868 17.2139 52.9533L16.1423 53.2139L15.5972 54.5647L16.1822 55.522C16.6794 56.3356 15.092 57.62 14.4246 58.1677C14.172 58.3751 13.6907 58.3592 13.4381 58.205L12.4967 57.6333L11.1646 58.2209L10.7258 59.6994L9.94405 59.9919V59.9892ZM12.2308 55.9315C12.861 55.6443 13.5391 56.5351 13.8396 56.4553C13.9699 56.4207 14.4246 55.9979 14.4246 55.8331C14.4219 55.5512 13.6428 54.8732 13.8768 54.3148L14.8261 52.0439C15.0574 51.6903 15.7966 51.661 16.2141 51.4882C16.3604 51.2914 16.3577 50.6798 16.1689 50.5469C14.0762 50.0337 15.1159 50.0097 14.0177 48.0872C13.3051 46.8401 15.0122 46.5636 14.1401 45.7765C13.4886 45.1862 13.0738 46.4705 12.2335 46.1169L10.0478 45.1915C9.60635 45.0054 9.67283 44.221 9.44947 43.8327C9.32449 43.6147 8.6039 43.62 8.49754 43.8487C8.3114 44.2449 8.34062 44.9974 7.93645 45.1835C7.31955 45.4681 6.67339 45.6276 6.10967 45.9573C4.75621 46.7497 4.55414 44.9682 3.72983 45.8776C3.13154 46.5343 4.50626 46.9678 4.0489 47.8639C3.70588 48.534 3.47723 49.0844 3.24589 49.8076C2.95339 50.7197 1.59725 50.0177 1.6265 51.0335C1.65575 52.0492 2.94807 51.3286 3.24323 52.2301C3.47989 52.9533 3.71121 53.517 4.05689 54.2004C4.5169 55.1098 3.03582 55.5113 3.80429 56.2426C4.50096 56.9047 4.84131 55.5459 5.78794 55.9474L7.94976 56.8648C8.32734 57.0456 8.32467 57.8061 8.50549 58.205C8.63313 58.4177 9.28196 58.3964 9.45745 58.2262C9.91747 56.4181 9.7393 57.0695 12.2335 55.9288L12.2308 55.9315Z" fill="#5370EA"/>
<path d="M16.1634 13.4584C16.666 14.3146 15.1716 15.5059 14.4217 16.1334C14.2435 16.2823 13.7357 16.3355 13.5469 16.2238L12.5072 15.6069L11.183 16.1387L10.8825 17.2821C10.6432 18.1862 8.64089 17.9655 7.76872 17.8831C7.45229 17.8538 7.1279 17.5002 7.05611 17.2156L6.7902 16.16L5.47927 15.6069L4.42363 16.2158C3.66048 16.6572 2.36552 15.0565 1.83105 14.4183C1.63428 14.1843 1.6449 13.7057 1.79115 13.4637L2.3602 12.5197L1.82838 11.1902L0.677022 10.8844C-0.221741 10.6478 0.00160088 8.59496 0.092009 7.7414C0.126577 7.41966 0.493548 7.12716 0.778068 7.05537L1.81777 6.79212L2.35753 5.48918L1.74597 4.41758C1.30722 3.64911 3.017 2.26905 3.63656 1.77979C3.84928 1.61226 4.36246 1.71065 4.57784 1.84094L5.46866 2.37542L6.77157 1.83829L7.05877 0.74807C7.14652 0.415687 7.50815 0.0939392 7.8884 0.0646895C8.57709 0.0115083 10.6299 -0.177285 10.8453 0.60448L11.1803 1.82765L12.5019 2.37276L13.4804 1.78245C14.3021 1.28786 15.6475 2.95775 16.1767 3.63581C16.3256 3.8246 16.2671 4.36174 16.1395 4.56648L15.589 5.45461L16.1474 6.79744L17.2935 7.09791C17.687 7.20161 17.8625 7.62707 17.9157 8.08708H29.1476C29.5305 8.08974 29.9772 8.40085 29.9772 8.80503L29.9985 15.7026L30.9424 14.8172C31.2695 14.5114 31.812 14.5619 32.1045 14.9023C32.3464 15.1841 32.3464 15.7053 32.0353 16.0191L29.7512 18.3032C29.5252 18.5292 28.9482 18.6489 28.6929 18.3936L26.2838 15.9978C25.9886 15.7053 26.0152 15.1655 26.2652 14.8836C26.5497 14.5619 27.1081 14.5194 27.4325 14.8517L28.3445 15.684L28.3525 9.72241H17.9051C17.9423 10.4217 17.6392 10.8259 17.0169 10.9642L16.1634 11.153L15.5944 12.4799L16.1634 13.4504V13.4584ZM12.1456 13.9211C13.0603 13.4504 13.4857 14.9342 14.2063 14.1657C14.8551 13.4717 13.5043 13.1233 13.9112 12.1767L14.8339 10.0202C14.9987 9.63997 15.7725 9.65327 16.1607 9.46714C16.3894 9.35546 16.3921 8.60028 16.1527 8.50722C15.7539 8.35033 15.0094 8.30779 14.8285 7.96743C14.5148 7.18832 14.2648 6.54217 13.9085 5.79497C13.616 5.17807 14.2515 4.72603 14.4297 4.18358C14.4669 4.06658 13.9112 3.4869 13.7702 3.55072C13.1852 3.81663 12.7625 4.30855 12.2413 4.08785L10.0555 3.16516C9.61413 2.97902 9.65933 2.19726 9.45193 1.79308C9.30568 1.59365 8.61696 1.59099 8.49996 1.81169C8.33244 2.19726 8.31384 2.96839 7.94689 3.14389L5.68136 4.09849C5.11764 4.33515 4.54062 3.57997 4.1524 3.56402C3.9902 3.5587 3.51691 4.05063 3.54616 4.17826C3.6472 4.61701 4.33322 5.19668 4.08592 5.72052C3.74556 6.44644 3.49297 7.02878 3.24302 7.77863C2.91862 8.75451 1.57046 7.88499 1.63162 9.12146C1.66884 9.89259 2.97446 9.36077 3.24568 10.209C3.47702 10.9323 3.70568 11.4854 4.05136 12.1581C4.52467 13.0808 3.04092 13.4797 3.7961 14.2109C4.55127 14.9421 4.78794 13.3015 6.10418 14.0593C7.42041 14.8172 8.21546 14.4609 8.35639 15.6548C8.42021 16.2105 8.55316 16.3727 9.08231 16.3488C9.44129 16.3328 9.54499 16.0776 9.61146 15.6255C9.77366 14.522 10.3427 14.8544 12.1429 13.9264L12.1456 13.9211Z" fill="#5370EA"/>
<path d="M43.1476 32.0745L40.8555 29.7877C40.5204 29.4553 40.5045 28.9129 40.8422 28.5725L43.121 26.3017C43.4321 25.9906 43.9426 26.0145 44.2192 26.2432C44.5888 26.549 44.6127 27.0941 44.2803 27.4424L43.4374 28.3438H48.5215V17.9309C47.8009 17.9256 47.4792 17.5879 47.3303 16.9817L47.1229 16.1414L45.804 15.6122L44.759 16.2238C44.0091 16.6652 42.6716 15.0193 42.1611 14.405C42.0255 14.2428 41.9909 13.7376 42.0946 13.5568L42.7062 12.4905L42.1743 11.2009L41.0044 10.8791C40.1482 10.6451 40.3555 8.75452 40.414 7.85576C40.438 7.49413 40.773 7.14579 41.0974 7.06602L42.1504 6.80543L42.7141 5.4892L42.1424 4.5213C42.0175 4.31123 41.9909 3.80601 42.1265 3.63317C42.6982 2.90459 43.2805 2.31427 44.0277 1.75853C44.2032 1.62824 44.7085 1.71067 44.8893 1.81969L45.7986 2.37543L47.1229 1.83298L47.4233 0.697564C47.66 -0.19854 49.5745 -0.00176919 50.4121 0.0673664C50.7871 0.0966161 51.162 0.418363 51.2418 0.748087L51.5024 1.80905L52.8239 2.37543L53.8769 1.76119C54.6347 1.31978 55.9323 2.91256 56.4535 3.53478C56.653 3.7741 56.6556 4.24741 56.5094 4.50002L55.935 5.4892L56.4801 6.79214L57.6182 7.08729C57.8389 7.14579 58.1819 7.48615 58.2085 7.73876C58.283 8.4833 58.4957 10.6398 57.7059 10.8578L56.4721 11.1982L55.9376 12.5224L56.5067 13.4664C57.0066 14.296 55.5521 15.4554 54.8182 16.0935C54.5549 16.3196 54.079 16.3461 53.7945 16.1786L52.8266 15.6096L51.505 16.1574L51.2737 17.1066C51.1487 17.6225 50.8136 17.9177 50.1569 17.9097L50.1515 29.1868C50.1515 29.5776 49.7979 29.9818 49.4176 29.9845L43.4321 30.0031L44.3335 30.9843C44.6207 31.2954 44.5595 31.8378 44.2192 32.1171C43.9666 32.3271 43.4534 32.383 43.1422 32.0745H43.1476ZM48.8779 16.1972C49.0082 16.3967 49.7181 16.3781 49.8085 16.16C49.9707 15.7771 49.9787 14.9927 50.3589 14.8305C51.0556 14.53 51.6938 14.3332 52.3426 13.9822C53.4966 13.3574 53.7679 15.0113 54.5736 14.1312C55.1612 13.4903 53.7944 13.0143 54.2438 12.1528C54.5922 11.4854 54.8209 10.9243 55.0522 10.2037C55.3447 9.29431 56.6981 9.99631 56.6716 8.97789C56.645 7.95946 55.3527 8.69337 55.0495 7.77067C54.8155 7.05272 54.5842 6.49166 54.2412 5.81094C53.7811 4.90154 55.2676 4.50268 54.4965 3.76878C53.8104 3.11731 53.3717 4.49736 52.5181 4.07457C51.8108 3.72358 51.2444 3.48958 50.4892 3.23697C49.5984 2.93649 50.3935 1.59633 49.2156 1.64153C48.3886 1.67344 48.9815 2.9684 48.0881 3.2609C47.3436 3.50553 46.7692 3.75283 46.0592 4.09585C45.4769 4.37505 44.7404 3.47894 44.4612 3.56137C44.283 3.6119 43.8309 4.08787 43.8682 4.18625C44.0862 4.73402 44.6313 5.20202 44.4239 5.69926L43.472 7.96744C43.2885 8.31312 42.544 8.35301 42.1504 8.50723C41.9111 8.6003 41.9111 9.36079 42.1424 9.46981C42.536 9.65063 43.2832 9.6586 43.472 10.0202C43.7857 10.7914 44.0304 11.4349 44.3894 12.1821C44.8334 13.1074 43.355 13.4903 44.1634 14.2402C44.7989 14.8331 45.2748 13.5355 46.0672 13.8998C46.8596 14.2641 47.4818 14.5141 48.2397 14.8172C48.7157 15.006 48.588 15.7612 48.8752 16.2026L48.8779 16.1972Z" fill="#5370EA"/>
<path d="M31.1473 39.15C30.908 40.0195 28.717 39.7935 27.8421 39.7164C27.5363 39.6898 27.2066 39.3601 27.1295 39.0836L26.7838 37.8152L25.2894 37.193L24.1806 37.8418C23.8828 38.0146 23.4334 37.988 23.1489 37.7514C22.5267 37.2329 20.8116 35.8315 21.2769 35.0338L21.955 33.8691L21.338 32.3721L19.9819 31.9972C19.139 31.7658 19.3597 29.5588 19.4342 28.6999C19.4608 28.3835 19.7905 28.0617 20.0723 27.9846L21.338 27.6416L21.9603 26.1446L21.3115 25.0357C21.1413 24.7459 21.1679 24.2752 21.3965 24.0093C21.8592 23.4642 23.335 21.6986 24.0264 22.0921L25.2921 22.8101L26.7838 22.1985L27.1561 20.8397C27.3874 19.9968 29.6024 20.2175 30.456 20.292C30.7697 20.3186 31.0915 20.643 31.1686 20.9248L31.5116 22.1932L33.0087 22.8128L34.1175 22.1639C34.402 21.9964 34.8807 22.0257 35.1412 22.249C35.7847 22.7995 37.4732 24.1795 37.0238 24.956L36.3378 26.1446L36.9547 27.6363L38.3161 28.0139C39.1511 28.2452 38.9304 30.4576 38.8613 31.2765C38.8214 31.7259 38.4332 31.9759 38.0396 32.0769L36.9574 32.3614L36.3378 33.8612L36.9866 34.97C37.1089 35.1774 37.1542 35.6401 36.9813 35.8661C36.5851 36.3899 34.9923 38.3337 34.2425 37.9003L33.0113 37.1903L31.5143 37.8099L31.1473 39.1447V39.15ZM29.7221 38.0864L30.0279 36.9404C30.222 36.2144 31.0436 36.3899 32.5114 35.5709C32.8199 35.3981 33.2134 35.3875 33.5139 35.5656L34.4685 36.1347C34.7344 35.9592 35.1146 35.5842 35.2715 35.3183L34.6387 34.2201C34.5376 34.0446 34.5802 33.6192 34.6759 33.449C35.5108 31.928 35.3806 31.0691 36.0852 30.8803L37.2525 30.5719C37.3004 30.2555 37.3004 29.7502 37.2499 29.4418L35.9948 29.0988C35.4284 28.9446 35.447 27.9474 34.7185 26.6445C34.5456 26.336 34.535 25.9425 34.7131 25.6447L35.2875 24.6847C35.0907 24.4268 34.7317 24.0652 34.4738 23.8764L33.4341 24.4853C33.139 24.6581 32.7374 24.5731 32.4343 24.4029C31.033 23.6184 30.222 23.8046 30.0279 23.076L29.7167 21.898C29.3897 21.8688 28.919 21.8714 28.5813 21.898L28.3048 22.9803C28.0788 23.8684 27.398 23.5493 25.784 24.4481C25.5686 24.5677 25.1458 24.6369 24.9517 24.5278L23.7817 23.8711L23.0186 24.6847L23.6328 25.7324C23.7791 25.9797 23.7339 26.3892 23.5876 26.6498C22.7713 28.1176 22.9388 28.9446 22.2182 29.136L21.0509 29.4471C21.0057 29.7689 21.0057 30.2555 21.0509 30.5825L22.2182 30.891C22.9388 31.0824 22.7713 31.9067 23.5876 33.3772C23.7339 33.6378 23.7791 34.0473 23.6328 34.2946L23.0239 35.3343C23.2047 35.5975 23.5663 35.9592 23.8322 36.148L24.7895 35.5763C25.0873 35.3981 25.4835 35.4087 25.7893 35.5789C27.2545 36.4006 28.0761 36.2091 28.2729 36.9457L28.584 38.1103C28.8738 38.1715 29.4508 38.1768 29.7194 38.097L29.7221 38.0864Z" fill="#5370EA"/>
<path d="M53.9675 51.0178C53.9675 53.5838 51.8881 55.6632 49.3221 55.6632C46.7561 55.6632 44.6768 53.5838 44.6768 51.0178C44.6768 48.4518 46.7561 46.3724 49.3221 46.3724C51.8881 46.3724 53.9675 48.4518 53.9675 51.0178ZM52.3189 51.0231C52.3189 49.3665 50.9761 48.0264 49.3221 48.0264C47.6682 48.0264 46.3254 49.3692 46.3254 51.0231C46.3254 52.6771 47.6682 54.0199 49.3221 54.0199C50.9761 54.0199 52.3189 52.6771 52.3189 51.0231Z" fill="#5370EA"/>
<path d="M13.6192 51.023C13.6192 53.5863 11.5425 55.6631 8.97916 55.6631C6.41583 55.6631 4.33911 53.5863 4.33911 51.023C4.33911 48.4597 6.41583 46.3829 8.97916 46.3829C11.5425 46.3829 13.6192 48.4597 13.6192 51.023ZM11.9813 51.023C11.9813 49.3664 10.6384 48.0236 8.98182 48.0236C7.32523 48.0236 5.98239 49.3664 5.98239 51.023C5.98239 52.6796 7.32523 54.0224 8.98182 54.0224C10.6384 54.0224 11.9813 52.6796 11.9813 51.023Z" fill="#5370EA"/>
<path d="M13.6161 8.99117C13.6161 11.5518 11.5394 13.6286 8.9787 13.6286C6.41802 13.6286 4.34131 11.5518 4.34131 8.99117C4.34131 6.43049 6.41802 4.35376 8.9787 4.35376C11.5394 4.35376 13.6161 6.43049 13.6161 8.99117ZM11.9781 8.98851C11.9781 7.33191 10.6353 5.98908 8.9787 5.98908C7.3221 5.98908 5.97927 7.33191 5.97927 8.98851C5.97927 10.6451 7.3221 11.9879 8.9787 11.9879C10.6353 11.9879 11.9781 10.6451 11.9781 8.98851Z" fill="#5370EA"/>
<path d="M53.9701 8.97529C53.9701 11.5439 51.8881 13.626 49.3194 13.626C46.7507 13.626 44.6687 11.5439 44.6687 8.97529C44.6687 6.40663 46.7507 4.32458 49.3194 4.32458C51.8881 4.32458 53.9701 6.40663 53.9701 8.97529ZM52.3162 8.99124C52.3162 7.33464 50.9733 5.99182 49.3167 5.99182C47.6601 5.99182 46.3173 7.33464 46.3173 8.99124C46.3173 10.6478 47.6601 11.9907 49.3167 11.9907C50.9733 11.9907 52.3162 10.6478 52.3162 8.99124Z" fill="#5370EA"/>
<path d="M34.1095 29.9979C34.1095 32.7367 31.8892 34.957 29.1503 34.957C26.4115 34.957 24.1912 32.7367 24.1912 29.9979C24.1912 27.259 26.4115 25.0387 29.1503 25.0387C31.8892 25.0387 34.1095 27.259 34.1095 29.9979ZM32.4635 30.0032C32.4635 28.1737 30.9798 26.69 29.1503 26.69C27.3209 26.69 25.8371 28.1737 25.8371 30.0032C25.8371 31.8326 27.3209 33.3164 29.1503 33.3164C30.9798 33.3164 32.4635 31.8326 32.4635 30.0032Z" fill="#5370EA"/>
</svg>
