<svg width="57" height="60" viewBox="0 0 57 60" fill="none" xmlns="http://www.w3.org/2000/svg">
<path d="M24.9441 60H20.9596C19.5286 59.6383 18.3184 58.7392 17.9194 57.1912L12.8843 57.1779C5.79316 57.1593 3.80424e-07 51.2863 3.80424e-07 44.1632V27.9648C-0.00265947 11.8168 13.9429 -1.01166 29.8435 0.0629162C36.4001 0.504452 42.5789 3.14834 47.3321 7.65147L46.0287 8.97874C38.2487 1.75192 27.0507 -0.157851 17.2811 4.22558C8.41843 8.20206 1.95498 17.078 1.88849 27.1269L1.8619 30.9863C2.49228 30.4783 3.06681 30.0261 3.77433 29.707C2.90988 15.5326 14.1504 3.73883 28.1625 3.76809C42.1241 3.79735 53.2928 15.5805 52.4336 29.707C53.1465 30.0261 53.713 30.4757 54.3487 30.989L54.3408 27.7706C54.3275 22.0173 52.3326 16.546 48.8083 12.0243L50.2871 10.8805C54.1227 15.788 56.2186 21.7646 56.216 28.0126V41.2507C56.216 44.8867 53.2875 47.8046 49.6621 47.8099L42.1586 47.8205C41.616 47.8205 41.225 47.4322 41.225 46.8683V30.0182C41.225 29.4516 41.6107 29.0659 42.164 29.0686L50.5771 29.1112C51.1144 16.2135 40.7862 5.60339 28.0455 5.64062C15.3553 5.6752 5.08564 16.2561 5.62825 29.1112L14.0413 29.0686C14.5893 29.0659 14.9803 29.4543 14.9803 30.0182V46.9853C14.9803 47.395 14.5494 47.8152 14.1637 47.8152H6.54589C4.85954 47.8152 3.40993 47.1955 2.05074 46.073C3.02159 51.5018 7.77474 55.332 13.2195 55.3187L17.9088 55.308C18.3929 53.5738 19.8904 52.4886 21.6565 52.4966L24.3642 52.5072C26.3964 52.5152 27.9896 54.0978 28.0933 56.0608C28.1971 58.0237 26.8273 59.5744 24.9388 60H24.9441ZM11.2379 45.9427L13.1131 45.9374V30.9544L11.2379 30.9464V33.7606H9.36267V30.9438L6.54323 30.9544C3.96317 30.9651 1.86988 33.0371 1.86988 35.6278V41.264C1.86988 43.852 3.96317 45.9267 6.54323 45.9374L9.36533 45.948V39.3835H11.2405V45.9453L11.2379 45.9427ZM54.3487 41.2161V35.6251C54.3434 33.0344 52.2528 30.9597 49.6727 30.9491L46.8506 30.9385V33.7552H44.9754V30.9411L43.1002 30.9491V45.932L44.9754 45.9374V39.3782H46.8506V45.94L49.7871 45.9214C52.3219 45.9054 54.3461 43.7962 54.3461 41.2108L54.3487 41.2161ZM24.3669 58.1221C25.4468 58.1221 26.258 57.2072 26.2288 56.1964C26.1995 55.2362 25.4122 54.3797 24.3642 54.3797H21.5395C20.4516 54.3797 19.6457 55.2867 19.6749 56.3081C19.7015 57.2657 20.4941 58.1248 21.5395 58.1248H24.3669V58.1221Z" fill="#5370EA"/>
<path d="M30.051 38.4363L26.2288 38.4443C25.7128 38.4443 25.3085 38.0134 25.3032 37.516L25.2819 34.9147C25.2792 34.4811 24.8324 34.0848 24.5292 33.9704C24.0903 33.8055 23.5716 33.8401 23.2445 34.1673L21.4836 35.9174C21.0847 36.3138 20.4942 36.2712 20.1112 35.8882L17.5417 33.3214C17.1561 32.9357 17.1188 32.3479 17.5125 31.9489L19.2627 30.1855C19.5872 29.8583 19.6217 29.337 19.4568 28.9007C19.3451 28.6002 18.9461 28.1533 18.5152 28.1507L15.9139 28.1294C15.4139 28.1241 14.9883 27.7198 14.9883 27.2038V23.4454C14.9883 22.9267 15.4139 22.5251 15.9139 22.5224L18.5152 22.5011C18.9461 22.4985 19.3425 22.049 19.4568 21.7511C19.6244 21.3148 19.5872 20.7882 19.2627 20.4637L17.5125 18.7002C17.1188 18.3039 17.1561 17.7161 17.5391 17.3304L20.1112 14.761C20.4968 14.3753 21.0847 14.3381 21.4836 14.7317L23.3136 16.5404C23.6062 16.8277 24.1435 16.8224 24.5292 16.6761C24.8297 16.5617 25.2792 16.1654 25.2819 15.7345L25.3032 13.1331C25.3058 12.6331 25.7101 12.2075 26.2288 12.2075H29.9872C30.5032 12.2075 30.9102 12.6331 30.9128 13.1331L30.9314 15.7371C30.9341 16.1255 31.3357 16.5165 31.6044 16.6415C31.9954 16.8224 32.5859 16.8516 32.9024 16.5404L34.735 14.7317C35.1313 14.3407 35.7165 14.3726 36.1048 14.761L38.6716 17.3277C39.0599 17.7161 39.0945 18.3012 38.7009 18.7002L36.8948 20.5302C36.6049 20.8228 36.6102 21.3574 36.7565 21.7484C36.8682 22.0516 37.2672 22.4985 37.7008 22.5011L40.3021 22.5224C40.8021 22.5277 41.2277 22.9294 41.2277 23.4454V27.2038C41.2277 27.7198 40.7995 28.1241 40.3021 28.1294L37.7008 28.1507C37.2645 28.1533 36.8709 28.6002 36.7592 28.9007C36.5889 29.3476 36.6262 29.8556 36.956 30.1881L38.7062 31.9516C39.0998 32.3479 39.0599 32.9411 38.6769 33.3241L36.1102 35.8908C35.7245 36.2765 35.134 36.3138 34.7377 35.9201L32.9742 34.1699C32.647 33.8454 32.1284 33.8082 31.6868 33.9757C31.3863 34.0901 30.9394 34.4864 30.9341 34.9173L30.9155 37.5266C30.9128 37.9363 30.5724 38.4416 30.0537 38.4416L30.051 38.4363ZM29.0376 36.5664C28.9419 34.6327 29.1015 33.0209 30.9474 32.2601C32.0326 31.8133 33.2561 31.8984 34.0993 32.6884L35.4213 33.9279L36.714 32.6139L35.4718 31.3079C34.6526 30.4461 34.594 29.1854 35.0835 28.0868C35.9187 26.2116 37.5757 26.1983 39.3552 26.2542V24.3976L37.5997 24.3604C36.4187 24.3364 35.4904 23.4826 35.0835 22.565C34.5967 21.4691 34.6632 20.2057 35.4771 19.3359L36.714 18.014L35.4026 16.7213L34.219 17.857C33.3439 18.6976 32.0885 18.8598 30.9474 18.3864C29.0243 17.5884 28.9685 15.8861 29.0376 14.0801H27.181L27.1438 15.8382C27.1199 17.0192 26.2661 17.9475 25.3457 18.3571C24.2499 18.8412 22.9865 18.7747 22.1167 17.9608L20.7947 16.7239L19.4994 18.0379C19.9649 18.5193 20.3452 18.8864 20.7442 19.3412C21.5262 20.235 21.6193 21.4638 21.1325 22.5623C20.3027 24.4349 18.6349 24.4561 16.8608 24.3976V26.2542L18.6163 26.2914C19.8345 26.318 20.7681 27.2064 21.1671 28.1666C21.6273 29.2731 21.5049 30.5153 20.6883 31.3797L19.4994 32.6405L20.8134 33.9358L22.114 32.6937C22.9705 31.8771 24.2392 31.8159 25.3378 32.3027C27.2076 33.1273 27.2316 34.8056 27.1731 36.5771H29.0323L29.0376 36.5664Z" fill="#5370EA"/>
<path d="M11.2377 35.6304H9.36255V37.5056H11.2377V35.6304Z" fill="#5370EA"/>
<path d="M46.8535 35.6304H44.9783V37.5056H46.8535V35.6304Z" fill="#5370EA"/>
<path d="M32.7908 25.321C32.7908 27.9063 30.6949 30.005 28.1068 30.005C25.5188 30.005 23.4229 27.909 23.4229 25.321C23.4229 22.7329 25.5188 20.637 28.1068 20.637C30.6949 20.637 32.7908 22.7329 32.7908 25.321ZM30.9156 25.321C30.9156 23.7703 29.6602 22.5148 28.1095 22.5148C26.5588 22.5148 25.3034 23.7703 25.3034 25.321C25.3034 26.8717 26.5588 28.1271 28.1095 28.1271C29.6602 28.1271 30.9156 26.8717 30.9156 25.321Z" fill="#5370EA"/>
</svg>
