<svg width="56" height="56" viewBox="0 0 56 56" fill="none" xmlns="http://www.w3.org/2000/svg">
<rect width="56" height="56" rx="28" fill="#E6D3E1"/>
<path d="M18.625 36.75V19.25C18.625 19.25 18.625 19.7135 18.625 20.6406C18.625 21.5677 18.625 22.7708 18.625 24.25V31.75C18.625 33.2292 18.625 34.4323 18.625 35.3594C18.625 36.2865 18.625 36.75 18.625 36.75ZM18.625 39.25C17.9375 39.25 17.349 39.0052 16.8594 38.5156C16.3698 38.026 16.125 37.4375 16.125 36.75V19.25C16.125 18.5625 16.3698 17.974 16.8594 17.4844C17.349 16.9948 17.9375 16.75 18.625 16.75H36.125C36.8125 16.75 37.401 16.9948 37.8906 17.4844C38.3802 17.974 38.625 18.5625 38.625 19.25V22.375H36.125V19.25H18.625V36.75H36.125V33.625H38.625V36.75C38.625 37.4375 38.3802 38.026 37.8906 38.5156C37.401 39.0052 36.8125 39.25 36.125 39.25H18.625ZM28.625 34.25C27.9375 34.25 27.349 34.0052 26.8594 33.5156C26.3698 33.026 26.125 32.4375 26.125 31.75V24.25C26.125 23.5625 26.3698 22.974 26.8594 22.4844C27.349 21.9948 27.9375 21.75 28.625 21.75H37.375C38.0625 21.75 38.651 21.9948 39.1406 22.4844C39.6302 22.974 39.875 23.5625 39.875 24.25V31.75C39.875 32.4375 39.6302 33.026 39.1406 33.5156C38.651 34.0052 38.0625 34.25 37.375 34.25H28.625ZM37.375 31.75V24.25H28.625V31.75H37.375ZM32.375 29.875C32.8958 29.875 33.3385 29.6927 33.7031 29.3281C34.0677 28.9635 34.25 28.5208 34.25 28C34.25 27.4792 34.0677 27.0365 33.7031 26.6719C33.3385 26.3073 32.8958 26.125 32.375 26.125C31.8542 26.125 31.4115 26.3073 31.0469 26.6719C30.6823 27.0365 30.5 27.4792 30.5 28C30.5 28.5208 30.6823 28.9635 31.0469 29.3281C31.4115 29.6927 31.8542 29.875 32.375 29.875Z" fill="#A94D90"/>
</svg>
