<svg width="40" height="40" viewBox="0 0 40 40" fill="none" xmlns="http://www.w3.org/2000/svg">
<rect width="40" height="40" rx="16" fill="#F3E8FF"/>
<path d="M13.3754 19.5L13.0754 18C12.8754 17.9167 12.6879 17.8292 12.5129 17.7375C12.3379 17.6458 12.1587 17.5333 11.9754 17.4L10.5254 17.85L9.52539 16.15L10.6754 15.15C10.6421 14.9333 10.6254 14.7167 10.6254 14.5C10.6254 14.2833 10.6421 14.0667 10.6754 13.85L9.52539 12.85L10.5254 11.15L11.9754 11.6C12.1587 11.4667 12.3379 11.3542 12.5129 11.2625C12.6879 11.1708 12.8754 11.0833 13.0754 11L13.3754 9.5H15.3754L15.6754 11C15.8754 11.0833 16.0629 11.1708 16.2379 11.2625C16.4129 11.3542 16.5921 11.4667 16.7754 11.6L18.2254 11.15L19.2254 12.85L18.0754 13.85C18.1087 14.0667 18.1254 14.2833 18.1254 14.5C18.1254 14.7167 18.1087 14.9333 18.0754 15.15L19.2254 16.15L18.2254 17.85L16.7754 17.4C16.5921 17.5333 16.4129 17.6458 16.2379 17.7375C16.0629 17.8292 15.8754 17.9167 15.6754 18L15.3754 19.5H13.3754ZM14.3754 16.5C14.9254 16.5 15.3962 16.3042 15.7879 15.9125C16.1796 15.5208 16.3754 15.05 16.3754 14.5C16.3754 13.95 16.1796 13.4792 15.7879 13.0875C15.3962 12.6958 14.9254 12.5 14.3754 12.5C13.8254 12.5 13.3546 12.6958 12.9629 13.0875C12.5712 13.4792 12.3754 13.95 12.3754 14.5C12.3754 15.05 12.5712 15.5208 12.9629 15.9125C13.3546 16.3042 13.8254 16.5 14.3754 16.5ZM22.3254 30.5L21.8754 28.4C21.5921 28.3 21.3296 28.1792 21.0879 28.0375C20.8462 27.8958 20.6087 27.7333 20.3754 27.55L18.3754 28.2L16.9754 25.8L18.5754 24.4C18.5421 24.1 18.5254 23.8 18.5254 23.5C18.5254 23.2 18.5421 22.9 18.5754 22.6L16.9754 21.2L18.3754 18.8L20.3754 19.45C20.6087 19.2667 20.8462 19.1042 21.0879 18.9625C21.3296 18.8208 21.5921 18.7 21.8754 18.6L22.3254 16.5H25.1254L25.5754 18.6C25.8587 18.7 26.1212 18.8208 26.3629 18.9625C26.6046 19.1042 26.8421 19.2667 27.0754 19.45L29.0754 18.8L30.4754 21.2L28.8754 22.6C28.9087 22.9 28.9254 23.2 28.9254 23.5C28.9254 23.8 28.9087 24.1 28.8754 24.4L30.4754 25.8L29.0754 28.2L27.0754 27.55C26.8421 27.7333 26.6046 27.8958 26.3629 28.0375C26.1212 28.1792 25.8587 28.3 25.5754 28.4L25.1254 30.5H22.3254ZM23.7254 26.5C24.5587 26.5 25.2671 26.2083 25.8504 25.625C26.4337 25.0417 26.7254 24.3333 26.7254 23.5C26.7254 22.6667 26.4337 21.9583 25.8504 21.375C25.2671 20.7917 24.5587 20.5 23.7254 20.5C22.8921 20.5 22.1837 20.7917 21.6004 21.375C21.0171 21.9583 20.7254 22.6667 20.7254 23.5C20.7254 24.3333 21.0171 25.0417 21.6004 25.625C22.1837 26.2083 22.8921 26.5 23.7254 26.5Z" fill="#9333EA"/>
</svg>
