<svg width="40" height="40" viewBox="0 0 40 40" fill="none" xmlns="http://www.w3.org/2000/svg">
<rect width="40" height="40" rx="16" fill="#FFEDD5"/>
<path d="M15 16C14.45 16 13.9792 15.8042 13.5875 15.4125C13.1958 15.0208 13 14.55 13 14V12C13 11.45 13.1958 10.9792 13.5875 10.5875C13.9792 10.1958 14.45 10 15 10H25C25.55 10 26.0208 10.1958 26.4125 10.5875C26.8042 10.9792 27 11.45 27 12V14C27 14.55 26.8042 15.0208 26.4125 15.4125C26.0208 15.8042 25.55 16 25 16H15ZM15 14H25V12H15V14ZM12 30C11.45 30 10.9792 29.8042 10.5875 29.4125C10.1958 29.0208 10 28.55 10 28V27H30V28C30 28.55 29.8042 29.0208 29.4125 29.4125C29.0208 29.8042 28.55 30 28 30H12ZM10 26L13.475 18.175C13.6417 17.8083 13.8917 17.5208 14.225 17.3125C14.5583 17.1042 14.9167 17 15.3 17H24.7C25.0833 17 25.4417 17.1042 25.775 17.3125C26.1083 17.5208 26.3583 17.8083 26.525 18.175L30 26H10ZM16.5 24H17.5C17.6333 24 17.75 23.95 17.85 23.85C17.95 23.75 18 23.6333 18 23.5C18 23.3667 17.95 23.25 17.85 23.15C17.75 23.05 17.6333 23 17.5 23H16.5C16.3667 23 16.25 23.05 16.15 23.15C16.05 23.25 16 23.3667 16 23.5C16 23.6333 16.05 23.75 16.15 23.85C16.25 23.95 16.3667 24 16.5 24ZM16.5 22H17.5C17.6333 22 17.75 21.95 17.85 21.85C17.95 21.75 18 21.6333 18 21.5C18 21.3667 17.95 21.25 17.85 21.15C17.75 21.05 17.6333 21 17.5 21H16.5C16.3667 21 16.25 21.05 16.15 21.15C16.05 21.25 16 21.3667 16 21.5C16 21.6333 16.05 21.75 16.15 21.85C16.25 21.95 16.3667 22 16.5 22ZM16.5 20H17.5C17.6333 20 17.75 19.95 17.85 19.85C17.95 19.75 18 19.6333 18 19.5C18 19.3667 17.95 19.25 17.85 19.15C17.75 19.05 17.6333 19 17.5 19H16.5C16.3667 19 16.25 19.05 16.15 19.15C16.05 19.25 16 19.3667 16 19.5C16 19.6333 16.05 19.75 16.15 19.85C16.25 19.95 16.3667 20 16.5 20ZM19.5 24H20.5C20.6333 24 20.75 23.95 20.85 23.85C20.95 23.75 21 23.6333 21 23.5C21 23.3667 20.95 23.25 20.85 23.15C20.75 23.05 20.6333 23 20.5 23H19.5C19.3667 23 19.25 23.05 19.15 23.15C19.05 23.25 19 23.3667 19 23.5C19 23.6333 19.05 23.75 19.15 23.85C19.25 23.95 19.3667 24 19.5 24ZM19.5 22H20.5C20.6333 22 20.75 21.95 20.85 21.85C20.95 21.75 21 21.6333 21 21.5C21 21.3667 20.95 21.25 20.85 21.15C20.75 21.05 20.6333 21 20.5 21H19.5C19.3667 21 19.25 21.05 19.15 21.15C19.05 21.25 19 21.3667 19 21.5C19 21.6333 19.05 21.75 19.15 21.85C19.25 21.95 19.3667 22 19.5 22ZM19.5 20H20.5C20.6333 20 20.75 19.95 20.85 19.85C20.95 19.75 21 19.6333 21 19.5C21 19.3667 20.95 19.25 20.85 19.15C20.75 19.05 20.6333 19 20.5 19H19.5C19.3667 19 19.25 19.05 19.15 19.15C19.05 19.25 19 19.3667 19 19.5C19 19.6333 19.05 19.75 19.15 19.85C19.25 19.95 19.3667 20 19.5 20ZM22.5 24H23.5C23.6333 24 23.75 23.95 23.85 23.85C23.95 23.75 24 23.6333 24 23.5C24 23.3667 23.95 23.25 23.85 23.15C23.75 23.05 23.6333 23 23.5 23H22.5C22.3667 23 22.25 23.05 22.15 23.15C22.05 23.25 22 23.3667 22 23.5C22 23.6333 22.05 23.75 22.15 23.85C22.25 23.95 22.3667 24 22.5 24ZM22.5 22H23.5C23.6333 22 23.75 21.95 23.85 21.85C23.95 21.75 24 21.6333 24 21.5C24 21.3667 23.95 21.25 23.85 21.15C23.75 21.05 23.6333 21 23.5 21H22.5C22.3667 21 22.25 21.05 22.15 21.15C22.05 21.25 22 21.3667 22 21.5C22 21.6333 22.05 21.75 22.15 21.85C22.25 21.95 22.3667 22 22.5 22ZM22.5 20H23.5C23.6333 20 23.75 19.95 23.85 19.85C23.95 19.75 24 19.6333 24 19.5C24 19.3667 23.95 19.25 23.85 19.15C23.75 19.05 23.6333 19 23.5 19H22.5C22.3667 19 22.25 19.05 22.15 19.15C22.05 19.25 22 19.3667 22 19.5C22 19.6333 22.05 19.75 22.15 19.85C22.25 19.95 22.3667 20 22.5 20Z" fill="#EA580C"/>
</svg>
