<svg width="44" height="44" viewBox="0 0 44 44" fill="none" xmlns="http://www.w3.org/2000/svg">
<path d="M22 31.9L18.9 25L12 21.9L18.9 18.75L22 11.9L25.15 18.75L32 21.9L25.15 25L22 31.9ZM22 43.9C18.4 43.9 15.025 43.075 11.875 41.425C8.725 39.775 6.1 37.4667 4 34.5V39.9H0V27.9H12V31.9H7.1C8.8 34.4 10.9583 36.3583 13.575 37.775C16.1917 39.1917 19 39.9 22 39.9C25.8333 39.9 29.3083 38.8 32.425 36.6C35.5417 34.4 37.7333 31.4833 39 27.85L42.9 28.75C41.4 33.2833 38.7333 36.9417 34.9 39.725C31.0667 42.5083 26.7667 43.9 22 43.9ZM0.1 19.9C0.333333 17.6667 0.866667 15.525 1.7 13.475C2.53333 11.425 3.68333 9.53333 5.15 7.8L8 10.65C6.93333 12.0167 6.06667 13.475 5.4 15.025C4.73333 16.575 4.31667 18.2 4.15 19.9H0.1ZM10.8 7.85L7.95 5C9.71667 3.53333 11.6167 2.375 13.65 1.525C15.6833 0.675 17.8 0.166667 20 0V4C18.3 4.16667 16.6833 4.58333 15.15 5.25C13.6167 5.91667 12.1667 6.78333 10.8 7.85ZM33.25 7.85C31.8833 6.78333 30.425 5.91667 28.875 5.25C27.325 4.58333 25.7 4.16667 24 4V0C26.2333 0.2 28.375 0.716667 30.425 1.55C32.475 2.38333 34.3667 3.53333 36.1 5L33.25 7.85ZM39.9 19.9C39.7333 18.2 39.3167 16.575 38.65 15.025C37.9833 13.475 37.1167 12.0167 36.05 10.65L38.9 7.8C40.3667 9.53333 41.5167 11.425 42.35 13.475C43.1833 15.525 43.7 17.6667 43.9 19.9H39.9Z" fill="#A94D90"/>
</svg>
