<svg width="56" height="56" viewBox="0 0 56 56" fill="none" xmlns="http://www.w3.org/2000/svg">
<rect width="56" height="56" rx="28" fill="#D5DAF3"/>
<path d="M19.25 40.5C18.5625 40.5 17.974 40.2552 17.4844 39.7656C16.9948 39.276 16.75 38.6875 16.75 38V23.9062C16.375 23.6771 16.0729 23.3802 15.8438 23.0156C15.6146 22.651 15.5 22.2292 15.5 21.75V18C15.5 17.3125 15.7448 16.724 16.2344 16.2344C16.724 15.7448 17.3125 15.5 18 15.5H38C38.6875 15.5 39.276 15.7448 39.7656 16.2344C40.2552 16.724 40.5 17.3125 40.5 18V21.75C40.5 22.2292 40.3854 22.651 40.1562 23.0156C39.9271 23.3802 39.625 23.6771 39.25 23.9062V38C39.25 38.6875 39.0052 39.276 38.5156 39.7656C38.026 40.2552 37.4375 40.5 36.75 40.5H19.25ZM19.25 24.25V38H36.75V24.25H19.25ZM18 21.75H38V18H18V21.75ZM24.25 30.5H31.75V28H24.25V30.5Z" fill="#5370EA"/>
</svg>
