<svg width="170" height="192" viewBox="0 0 170 192" fill="none" xmlns="http://www.w3.org/2000/svg">
<path d="M13.1684 63.7432C13.5484 63.5832 13.9384 63.4132 14.3184 63.2432C14.5384 63.1432 14.7584 63.0332 14.9884 62.9232C15.3284 62.7632 15.6684 62.6032 16.0084 62.4332C16.2484 62.3132 16.4784 62.1932 16.7084 62.0732C16.9984 61.9232 17.2784 61.7732 17.5684 61.6232C18.3784 61.1832 19.1784 60.7232 19.9584 60.2432C20.1184 60.1432 20.2684 60.0532 20.4284 59.9532C21.2284 59.4532 22.0284 58.9332 22.7984 58.3932C22.7984 58.3932 22.7984 58.3932 22.8084 58.3932C23.4484 57.9432 24.0784 57.4732 24.6984 57.0032C24.8784 56.8632 25.0584 56.7232 25.2384 56.5832C25.6984 56.2232 26.1584 55.8432 26.6184 55.4632C26.7884 55.3132 26.9684 55.1732 27.1384 55.0232C27.5584 54.6632 27.9784 54.2832 28.3884 53.9132C28.5084 53.8032 28.6284 53.6932 28.7484 53.5832C29.2784 53.0932 29.7984 52.5932 30.3084 52.0832C30.4584 51.9332 30.5984 51.7832 30.7484 51.6332C31.0884 51.2832 31.4284 50.9332 31.7584 50.5832C31.9384 50.3932 32.1084 50.1932 32.2884 50.0032C32.5784 49.6832 32.8684 49.3532 33.1584 49.0232C33.3484 48.8032 33.5284 48.5832 33.7184 48.3732C33.9784 48.0632 34.2284 47.7632 34.4784 47.4532C34.6584 47.2232 34.8384 47.0032 35.0184 46.7732C35.2684 46.4532 35.5084 46.1332 35.7484 45.8132C35.9184 45.5832 36.0884 45.3532 36.2584 45.1232C36.4984 44.7932 36.7384 44.4532 36.9684 44.1132C37.1284 43.8832 37.2784 43.6632 37.4384 43.4332C37.6784 43.0732 37.9184 42.7032 38.1584 42.3332C38.2884 42.1232 38.4284 41.9232 38.5584 41.7132C38.8884 41.1832 39.2084 40.6432 39.5284 40.0932C39.5584 40.0332 39.5984 39.9832 39.6284 39.9332C39.9684 39.3332 40.3084 38.7232 40.6284 38.1132C40.7184 37.9432 40.7984 37.7732 40.8884 37.5932C41.1284 37.1232 41.3684 36.6532 41.5884 36.1832C41.6984 35.9532 41.8084 35.7132 41.9184 35.4832C42.1184 35.0632 42.3084 34.6332 42.4884 34.2032C42.5884 33.9632 42.6884 33.7332 42.7884 33.4932C43.0184 32.9532 43.2284 32.4032 43.4384 31.8532C43.5084 31.6732 43.5784 31.5032 43.6384 31.3232C43.8984 30.6032 44.1484 29.8832 44.3884 29.1532C44.4284 29.0332 44.4584 28.9132 44.4984 28.7932C44.7384 28.0232 44.9684 27.2432 45.1684 26.4532C45.2184 26.2732 45.2684 26.1032 45.3084 25.9232C45.5284 25.0632 45.7184 24.2032 45.8984 23.3332C45.9384 23.1332 45.9784 22.9332 46.0084 22.7332C46.1184 22.1432 46.2184 21.5532 46.3184 20.9532C46.3484 20.7232 46.3884 20.5032 46.4184 20.2732C46.5284 19.4932 46.6284 18.7032 46.6984 17.9132L39.5984 12.5732C39.5284 13.3632 39.4284 14.1432 39.3184 14.9332C39.2884 15.1632 39.2484 15.3832 39.2184 15.6132C39.1284 16.2032 39.0284 16.8032 38.9084 17.3932C38.8784 17.5332 38.8684 17.6732 38.8384 17.8132C38.8284 17.8732 38.8084 17.9432 38.7984 18.0032C38.6284 18.8732 38.4284 19.7332 38.2084 20.5932C38.1584 20.7732 38.1184 20.9432 38.0684 21.1232C37.8584 21.9032 37.6384 22.6832 37.3984 23.4532C37.3684 23.5432 37.3484 23.6232 37.3284 23.7132C37.3184 23.7532 37.2984 23.7832 37.2884 23.8232C37.0584 24.5532 36.8084 25.2732 36.5384 25.9832C36.4684 26.1632 36.3984 26.3432 36.3384 26.5132C36.1284 27.0632 35.9184 27.6032 35.6884 28.1432C35.6384 28.2532 35.5984 28.3732 35.5584 28.4832C35.5084 28.6132 35.4484 28.7332 35.3884 28.8632C35.2084 29.2932 35.0084 29.7132 34.8184 30.1432C34.7084 30.3732 34.6084 30.6132 34.4984 30.8432C34.2684 31.3232 34.0384 31.7932 33.7984 32.2632C33.7284 32.4032 33.6584 32.5432 33.5884 32.6832C33.5684 32.7132 33.5484 32.7432 33.5384 32.7732C33.2184 33.3832 32.8884 33.9932 32.5384 34.5932C32.5084 34.6432 32.4684 34.7032 32.4384 34.7532C32.1284 35.3032 31.7984 35.8432 31.4684 36.3732C31.4484 36.4132 31.4184 36.4532 31.3984 36.4832C31.2884 36.6532 31.1784 36.8232 31.0684 36.9932C30.8284 37.3632 30.5984 37.7332 30.3484 38.0932C30.1984 38.3232 30.0384 38.5432 29.8784 38.7732C29.6484 39.1132 29.4084 39.4432 29.1684 39.7832C29.1084 39.8732 29.0484 39.9632 28.9784 40.0532C28.8684 40.1932 28.7584 40.3332 28.6584 40.4732C28.4184 40.7932 28.1784 41.1132 27.9284 41.4332C27.7484 41.6632 27.5684 41.8932 27.3884 42.1132C27.1384 42.4232 26.8884 42.7332 26.6284 43.0432C26.5184 43.1732 26.4184 43.3032 26.3084 43.4332C26.2284 43.5232 26.1484 43.6132 26.0784 43.6932C25.7884 44.0232 25.4984 44.3532 25.2084 44.6732C25.0284 44.8732 24.8584 45.0632 24.6784 45.2532C24.3484 45.6132 24.0084 45.9632 23.6684 46.3132C23.5484 46.4332 23.4284 46.5632 23.3084 46.6932C23.2884 46.7132 23.2584 46.7432 23.2384 46.7632C22.7284 47.2732 22.2084 47.7732 21.6784 48.2632C21.5584 48.3732 21.4384 48.4832 21.3184 48.5932C20.9084 48.9732 20.4884 49.3432 20.0684 49.7032C20.0084 49.7632 19.9384 49.8132 19.8784 49.8732C19.7684 49.9632 19.6584 50.0532 19.5484 50.1432C19.0984 50.5232 18.6384 50.8932 18.1684 51.2632C17.9884 51.4032 17.8084 51.5432 17.6284 51.6832C17.0084 52.1632 16.3784 52.6232 15.7384 53.0732C15.7384 53.0732 15.7384 53.0732 15.7284 53.0732C14.9484 53.6132 14.1584 54.1332 13.3484 54.6332C13.1984 54.7332 13.0384 54.8232 12.8784 54.9232C12.0884 55.4032 11.2984 55.8632 10.4884 56.3032C10.4284 56.3332 10.3784 56.3732 10.3184 56.4032C10.0884 56.5232 9.85839 56.6432 9.62839 56.7532C9.39839 56.8732 9.15839 56.9932 8.92839 57.1132C8.59839 57.2832 8.25839 57.4432 7.91839 57.6032C7.69839 57.7132 7.46839 57.8232 7.24839 57.9232C6.86839 58.0932 6.48839 58.2532 6.10839 58.4232C5.91839 58.5032 5.72839 58.5932 5.52839 58.6732C4.96839 58.9032 4.39839 59.1332 3.82839 59.3432C3.81839 59.3432 3.80839 59.3532 3.78839 59.3532L10.8884 64.6932C11.4784 64.4732 12.0584 64.2432 12.6284 64.0132C12.8184 63.9332 13.0084 63.8532 13.1884 63.7732L13.1684 63.7432Z" fill="url(#paint0_linear_20185_2089)"/>
<path d="M124.618 5.14331C111.348 3.58331 97.0884 3.45331 82.1884 4.75331C67.2984 6.05331 52.9784 8.67331 39.5984 12.5633L46.6984 17.9033C60.0784 14.0133 74.3984 11.3933 89.2884 10.0933C104.188 8.79331 118.448 8.92331 131.718 10.4833L124.618 5.14331Z" fill="url(#paint1_linear_20185_2089)"/>
<path d="M128.478 6.19331C128.528 6.70331 128.578 7.22331 128.638 7.72331C128.678 8.01331 128.718 8.29331 128.758 8.58331C128.828 9.04331 128.898 9.51331 128.988 9.97331C129.038 10.2633 129.098 10.5533 129.158 10.8433C129.248 11.2633 129.338 11.6933 129.438 12.1133C129.518 12.4633 129.608 12.8133 129.698 13.1633C129.798 13.5633 129.918 13.9533 130.028 14.3433C130.128 14.6833 130.228 15.0233 130.338 15.3633C130.458 15.7533 130.598 16.1333 130.728 16.5233C130.848 16.8533 130.958 17.1833 131.088 17.5133C131.238 17.8933 131.388 18.2733 131.548 18.6433C131.678 18.9633 131.808 19.2833 131.948 19.6033C132.078 19.9033 132.218 20.1933 132.358 20.4833C132.588 20.9633 132.818 21.4333 133.058 21.8933C133.208 22.1833 133.368 22.4633 133.518 22.7533C133.768 23.2033 134.028 23.6433 134.288 24.0833C134.468 24.3733 134.638 24.6733 134.828 24.9533C135.018 25.2433 135.208 25.5333 135.398 25.8133C135.618 26.1333 135.838 26.4633 136.068 26.7733C136.268 27.0533 136.478 27.3333 136.688 27.6033C136.938 27.9233 137.188 28.2433 137.438 28.5633C137.618 28.7833 137.798 29.0033 137.978 29.2133C138.258 29.5433 138.548 29.8633 138.838 30.1833C139.018 30.3833 139.208 30.5933 139.398 30.7933C139.758 31.1733 140.128 31.5433 140.498 31.9033C140.618 32.0133 140.728 32.1333 140.848 32.2433C141.338 32.7133 141.838 33.1633 142.358 33.6033C142.958 34.1133 143.568 34.6033 144.188 35.0733L151.288 40.4133C150.658 39.9433 150.048 39.4533 149.458 38.9433C149.428 38.9233 149.398 38.9033 149.378 38.8733C148.888 38.4533 148.418 38.0233 147.948 37.5833C147.828 37.4733 147.728 37.3633 147.608 37.2533C147.318 36.9633 147.018 36.6833 146.728 36.3833C146.648 36.3033 146.578 36.2133 146.498 36.1333C146.308 35.9333 146.128 35.7333 145.948 35.5333C145.658 35.2133 145.368 34.8933 145.088 34.5533C144.908 34.3333 144.728 34.1233 144.548 33.9033C144.418 33.7433 144.288 33.5933 144.168 33.4433C144.038 33.2833 143.918 33.1133 143.798 32.9433C143.588 32.6733 143.388 32.3933 143.178 32.1133C142.948 31.7933 142.728 31.4733 142.508 31.1433C142.318 30.8533 142.118 30.5733 141.938 30.2833C141.858 30.1533 141.768 30.0333 141.688 29.9033C141.588 29.7433 141.498 29.5733 141.398 29.4133C141.138 28.9733 140.878 28.5333 140.628 28.0833C140.468 27.8033 140.318 27.5133 140.168 27.2233C139.928 26.7633 139.698 26.2833 139.468 25.8133C139.378 25.6233 139.278 25.4333 139.188 25.2433C139.138 25.1433 139.098 25.0333 139.058 24.9333C138.918 24.6233 138.788 24.3033 138.658 23.9833C138.498 23.6033 138.348 23.2333 138.198 22.8533C138.078 22.5233 137.958 22.1933 137.838 21.8633C137.698 21.4833 137.568 21.0933 137.448 20.7033C137.338 20.3633 137.238 20.0233 137.138 19.6833C137.028 19.2933 136.908 18.8933 136.808 18.4933C136.718 18.1433 136.638 17.7933 136.548 17.4433C136.498 17.2233 136.438 17.0033 136.388 16.7833C136.348 16.5833 136.308 16.3733 136.268 16.1733C136.208 15.8833 136.148 15.5933 136.098 15.3033C136.018 14.8433 135.938 14.3833 135.868 13.9133C135.828 13.6333 135.778 13.3433 135.748 13.0533C135.688 12.5433 135.628 12.0333 135.588 11.5233C135.568 11.2733 135.538 11.0333 135.518 10.7833C135.458 10.0233 135.418 9.25331 135.398 8.47331L135.358 6.98331L128.258 1.64331L128.298 3.13331C128.318 3.91331 128.358 4.67331 128.418 5.44331C128.438 5.69331 128.468 5.93331 128.488 6.18331L128.478 6.19331Z" fill="url(#paint2_linear_20185_2089)"/>
<path d="M58.5584 170.453C58.2784 170.223 57.9884 169.993 57.7084 169.763C57.0684 169.243 56.4284 168.713 55.7884 168.173C55.6284 168.033 55.4584 167.903 55.3084 167.773C55.2084 167.683 55.1184 167.593 55.0184 167.513C53.7584 166.423 52.5184 165.313 51.2984 164.173C51.1084 163.993 50.9084 163.803 50.7184 163.623C49.4984 162.463 48.2984 161.283 47.1284 160.073C47.0684 160.013 46.9984 159.953 46.9384 159.883C46.6884 159.623 46.4384 159.353 46.1884 159.083C45.8384 158.713 45.4884 158.343 45.1384 157.963C44.7884 157.583 44.4484 157.203 44.1084 156.833C43.7684 156.453 43.4184 156.073 43.0784 155.683C42.7384 155.303 42.4084 154.913 42.0784 154.523C41.7484 154.133 41.4084 153.743 41.0784 153.353C40.7484 152.963 40.4284 152.563 40.0984 152.163C39.7784 151.763 39.4484 151.373 39.1384 150.973C39.0484 150.853 38.9484 150.743 38.8584 150.623C38.6684 150.383 38.4884 150.133 38.2984 149.893C37.8984 149.383 37.5084 148.863 37.1184 148.353C36.8384 147.983 36.5684 147.613 36.2984 147.253C35.9184 146.743 35.5484 146.223 35.1784 145.703C34.9084 145.323 34.6484 144.953 34.3784 144.573C34.0084 144.043 33.6484 143.513 33.2884 142.983C33.0384 142.603 32.7784 142.233 32.5284 141.853C32.1584 141.293 31.8084 140.733 31.4484 140.173C31.2784 139.913 31.1084 139.653 30.9384 139.383C30.8884 139.293 30.8284 139.203 30.7784 139.123C30.1184 138.063 29.4784 136.993 28.8484 135.913C28.7384 135.723 28.6384 135.533 28.5284 135.343C28.0084 134.433 27.4984 133.513 26.9984 132.593C26.8184 132.253 26.6384 131.923 26.4584 131.583C25.9984 130.723 25.5484 129.853 25.1084 128.973C24.9684 128.703 24.8284 128.433 24.6984 128.153C24.1384 127.023 23.5984 125.883 23.0784 124.743C23.0484 124.683 23.0184 124.623 22.9884 124.563C22.8584 124.273 22.7284 123.973 22.5984 123.683C22.3084 123.023 22.0084 122.373 21.7284 121.703C21.5584 121.293 21.3884 120.883 21.2184 120.463C20.9584 119.843 20.7084 119.213 20.4584 118.593C20.2884 118.163 20.1184 117.723 19.9484 117.283C19.7084 116.663 19.4784 116.043 19.2484 115.423C19.0884 114.983 18.9284 114.533 18.7684 114.093C18.5484 113.463 18.3284 112.833 18.1084 112.203C17.9584 111.763 17.8084 111.323 17.6684 110.873C17.4584 110.223 17.2484 109.563 17.0484 108.903C16.9184 108.473 16.7784 108.043 16.6484 107.613C16.4384 106.903 16.2284 106.183 16.0284 105.463C15.9184 105.083 15.8084 104.713 15.7084 104.333C15.4484 103.383 15.2084 102.433 14.9684 101.473C14.9284 101.323 14.8884 101.173 14.8484 101.013C14.5784 99.9033 14.3184 98.7833 14.0784 97.6633C14.0684 97.6133 14.0584 97.5733 14.0484 97.5233C14.0184 97.3833 13.9984 97.2333 13.9584 97.0933C13.6984 95.8933 13.4584 94.6833 13.2384 93.4633C13.1684 93.0933 13.0984 92.7333 13.0384 92.3633C12.7884 90.9733 12.5584 89.5833 12.3484 88.1733C12.1084 86.5533 11.9084 84.9133 11.7284 83.2733C11.7084 83.0933 11.6884 82.9133 11.6684 82.7333C11.4984 81.1733 11.3684 79.6033 11.2484 78.0333C11.2284 77.7733 11.2084 77.5233 11.1884 77.2633C11.0784 75.7233 10.9984 74.1733 10.9484 72.6233C10.9484 72.3533 10.9284 72.0833 10.9184 71.8133C10.8684 70.2533 10.8484 68.6833 10.8484 67.1133C10.8484 67.0233 10.8484 66.9433 10.8484 66.8533C10.8484 66.1333 10.8484 65.4133 10.8684 64.6933L3.76841 59.3533C3.75841 60.1633 3.74841 60.9733 3.74841 61.7733C3.74841 63.3433 3.76841 64.9133 3.81841 66.4733C3.81841 66.7433 3.83841 67.0133 3.84841 67.2733C3.90841 68.8233 3.98841 70.3733 4.08841 71.9233C4.10841 72.1833 4.12841 72.4333 4.14841 72.6933C4.26841 74.2633 4.39841 75.8333 4.56841 77.3933C4.58841 77.5733 4.60841 77.7533 4.62841 77.9333C4.80841 79.5733 5.01841 81.2033 5.24841 82.8333C5.45841 84.2333 5.68841 85.6333 5.93841 87.0233C6.00841 87.3933 6.06841 87.7633 6.13841 88.1233C6.36841 89.3433 6.60841 90.5533 6.85841 91.7533C6.89841 91.9433 6.93841 92.1333 6.97841 92.3233C7.22841 93.4433 7.47841 94.5633 7.74841 95.6733C7.78841 95.8233 7.82841 95.9733 7.86841 96.1333C8.10841 97.0933 8.34841 98.0433 8.60841 98.9933C8.70841 99.3733 8.81841 99.7533 8.92841 100.133C9.12841 100.853 9.32841 101.563 9.54841 102.283C9.67841 102.713 9.81841 103.143 9.94841 103.573C10.1484 104.223 10.3584 104.883 10.5684 105.533C10.7184 105.983 10.8684 106.423 11.0184 106.863C11.2284 107.493 11.4484 108.123 11.6684 108.753C11.8284 109.203 11.9884 109.643 12.1484 110.093C12.3784 110.713 12.6084 111.333 12.8484 111.953C13.0184 112.393 13.1884 112.823 13.3584 113.263C13.6084 113.893 13.8584 114.513 14.1184 115.133C14.2884 115.543 14.4584 115.963 14.6384 116.373C14.9184 117.033 15.2084 117.693 15.5084 118.343C15.6684 118.693 15.8184 119.053 15.9784 119.403C16.4984 120.553 17.0484 121.693 17.5984 122.813C17.7284 123.083 17.8684 123.353 18.0084 123.633C18.4484 124.513 18.8984 125.383 19.3584 126.253C19.5384 126.593 19.7184 126.923 19.8984 127.263C20.3984 128.193 20.9084 129.113 21.4384 130.023C21.5484 130.213 21.6484 130.403 21.7584 130.583C22.3884 131.663 23.0284 132.733 23.6884 133.793C23.9084 134.143 24.1284 134.493 24.3584 134.843C24.7184 135.403 25.0784 135.973 25.4384 136.523C25.6884 136.903 25.9384 137.273 26.1984 137.653C26.5584 138.193 26.9184 138.723 27.2884 139.253C27.5484 139.633 27.8184 140.003 28.0784 140.383C28.4484 140.903 28.8284 141.423 29.2084 141.933C29.4784 142.303 29.7484 142.673 30.0284 143.033C30.4184 143.553 30.8184 144.063 31.2184 144.583C31.4984 144.943 31.7684 145.303 32.0584 145.653C32.3784 146.053 32.6984 146.453 33.0284 146.853C33.3484 147.253 33.6784 147.643 33.9984 148.043C34.3284 148.433 34.6684 148.823 34.9984 149.223C35.3284 149.613 35.6584 149.993 35.9984 150.373C36.3384 150.763 36.6884 151.143 37.0284 151.523C37.3684 151.903 37.7084 152.283 38.0584 152.653C38.4084 153.033 38.7584 153.403 39.1084 153.773C39.4184 154.103 39.7384 154.433 40.0484 154.763C41.2184 155.973 42.4184 157.153 43.6384 158.313C43.8284 158.493 44.0184 158.683 44.2184 158.863C45.4384 160.003 46.6784 161.123 47.9384 162.213C48.1984 162.433 48.4584 162.663 48.7184 162.883C49.3484 163.423 49.9884 163.943 50.6284 164.473C50.9084 164.703 51.1984 164.933 51.4784 165.163C52.3984 165.893 53.3284 166.623 54.2684 167.333L61.3684 172.673C60.4284 171.963 59.4984 171.243 58.5784 170.503L58.5584 170.453Z" fill="url(#paint3_linear_20185_2089)"/>
<path d="M158.698 45.8132C152.398 44.5532 146.688 41.9432 141.808 38.2832L148.908 43.6232C153.778 47.2832 159.498 49.8932 165.788 51.1532L158.688 45.8132H158.698Z" fill="url(#paint4_linear_20185_2089)"/>
<path d="M78.5484 185.773L77.7284 185.423C73.0784 183.443 68.5884 181.193 64.2684 178.693C59.9484 176.203 55.8084 173.453 51.8584 170.483L58.9584 175.823C66.8684 181.763 75.5284 186.793 84.8384 190.763L85.6584 191.113L78.5584 185.773H78.5484Z" fill="url(#paint5_linear_20185_2089)"/>
<path d="M162.468 42.4832V43.9732C162.348 52.5932 161.488 61.3332 159.928 69.9432C159.778 70.7732 159.618 71.5932 159.458 72.4232C159.398 72.7432 159.318 73.0632 159.248 73.3932C159.088 74.1632 158.928 74.9431 158.758 75.7132C158.598 76.4332 158.438 77.1532 158.268 77.8732C158.088 78.6432 157.898 79.4132 157.708 80.1832C157.528 80.8932 157.348 81.6032 157.158 82.3132C156.958 83.0832 156.748 83.8432 156.528 84.6031C156.328 85.3131 156.128 86.0132 155.928 86.7232C155.708 87.4832 155.468 88.2432 155.238 89.0032C155.098 89.4532 154.968 89.9031 154.828 90.3531C154.738 90.6432 154.638 90.9232 154.548 91.2032C154.378 91.7232 154.208 92.2332 154.038 92.7432C153.758 93.5832 153.468 94.4231 153.168 95.2532C152.988 95.7631 152.808 96.2732 152.618 96.7732C152.298 97.6432 151.978 98.5032 151.648 99.3632C151.468 99.8232 151.298 100.283 151.118 100.733C150.698 101.793 150.268 102.843 149.828 103.903C149.728 104.153 149.628 104.403 149.528 104.643C149.508 104.683 149.498 104.713 149.478 104.753C148.958 105.973 148.428 107.183 147.888 108.383C147.728 108.733 147.568 109.083 147.408 109.433C146.988 110.343 146.568 111.253 146.128 112.153C145.938 112.553 145.738 112.953 145.548 113.353C145.088 114.293 144.618 115.223 144.138 116.153C143.988 116.453 143.838 116.753 143.678 117.043C143.628 117.143 143.578 117.233 143.528 117.333C143.418 117.543 143.298 117.743 143.188 117.943C142.398 119.433 141.598 120.903 140.768 122.363C140.518 122.803 140.268 123.253 140.008 123.693C139.028 125.383 138.038 127.053 137.008 128.703C136.998 128.723 136.988 128.743 136.968 128.763C136.908 128.853 136.848 128.943 136.788 129.043C135.838 130.553 134.858 132.053 133.858 133.543C133.568 133.983 133.268 134.423 132.968 134.853C132.048 136.203 131.108 137.533 130.148 138.853C130.008 139.043 129.878 139.243 129.738 139.433C129.698 139.493 129.648 139.543 129.608 139.603C128.478 141.133 127.328 142.643 126.148 144.143C125.848 144.523 125.538 144.903 125.238 145.283C124.278 146.483 123.308 147.663 122.318 148.833C122.118 149.073 121.928 149.313 121.728 149.553C121.628 149.673 121.518 149.783 121.418 149.903C120.158 151.373 118.868 152.823 117.558 154.253C117.298 154.543 117.028 154.823 116.758 155.103C115.648 156.293 114.518 157.473 113.368 158.633C113.158 158.843 112.958 159.063 112.748 159.273C112.618 159.403 112.478 159.523 112.348 159.653C110.908 161.093 109.438 162.513 107.938 163.903C107.668 164.153 107.398 164.393 107.128 164.643C105.788 165.863 104.438 167.063 103.068 168.243C102.858 168.423 102.668 168.613 102.458 168.783C102.298 168.923 102.128 169.053 101.968 169.193C101.558 169.533 101.148 169.873 100.738 170.213C100.048 170.783 99.3584 171.343 98.6684 171.903C98.2284 172.253 97.7884 172.603 97.3484 172.943C96.6584 173.483 95.9584 174.023 95.2584 174.553C94.8184 174.883 94.3784 175.223 93.9384 175.553C93.1984 176.103 92.4484 176.643 91.6984 177.183C91.2884 177.473 90.8884 177.773 90.4784 178.063C90.3484 178.153 90.2284 178.243 90.1084 178.333C89.8684 178.503 89.6184 178.653 89.3784 178.823C88.1184 179.703 86.8384 180.553 85.5484 181.393C85.1084 181.683 84.6584 181.973 84.2184 182.253C82.6184 183.273 80.9984 184.283 79.3584 185.253L78.5184 185.753L85.6184 191.093L86.4584 190.593C88.0984 189.623 89.7184 188.613 91.3184 187.593C91.7684 187.313 92.2084 187.023 92.6484 186.733C93.9384 185.893 95.2084 185.033 96.4784 184.163C96.8484 183.913 97.2184 183.663 97.5784 183.403C97.9884 183.113 98.3884 182.823 98.7984 182.533C99.5484 181.993 100.298 181.453 101.038 180.903C101.478 180.573 101.918 180.243 102.358 179.903C103.058 179.373 103.748 178.833 104.438 178.293C104.878 177.943 105.318 177.603 105.758 177.243C106.458 176.683 107.138 176.123 107.828 175.553C108.238 175.213 108.648 174.873 109.058 174.533C109.428 174.213 109.798 173.893 110.168 173.573C111.538 172.393 112.898 171.193 114.228 169.973C114.498 169.723 114.768 169.483 115.038 169.233C116.528 167.843 117.998 166.433 119.448 164.993C119.788 164.653 120.128 164.303 120.468 163.963C121.618 162.803 122.748 161.623 123.858 160.433C124.118 160.153 124.388 159.873 124.658 159.583C125.968 158.153 127.258 156.703 128.518 155.233C128.818 154.883 129.108 154.523 129.408 154.173C130.398 153.003 131.368 151.813 132.328 150.623C132.628 150.243 132.938 149.863 133.238 149.483C134.418 147.993 135.568 146.483 136.698 144.943C136.878 144.693 137.058 144.443 137.238 144.193C138.198 142.873 139.138 141.543 140.058 140.193C140.358 139.753 140.658 139.323 140.948 138.883C141.948 137.403 142.918 135.903 143.868 134.393C143.938 134.283 144.018 134.163 144.088 134.053C145.118 132.403 146.118 130.723 147.088 129.043C147.348 128.603 147.598 128.153 147.848 127.713C148.678 126.253 149.488 124.783 150.268 123.303C150.428 123.003 150.598 122.693 150.758 122.393C150.908 122.103 151.058 121.803 151.208 121.503C151.688 120.573 152.158 119.643 152.618 118.703C152.818 118.303 153.008 117.903 153.208 117.493C153.638 116.593 154.068 115.683 154.488 114.773C154.648 114.423 154.818 114.073 154.968 113.723C155.528 112.483 156.078 111.243 156.608 109.983C156.708 109.733 156.808 109.483 156.918 109.233C157.358 108.183 157.788 107.133 158.208 106.073C158.388 105.613 158.558 105.153 158.738 104.703C159.068 103.843 159.398 102.973 159.708 102.113C159.888 101.603 160.078 101.103 160.258 100.593C160.558 99.7532 160.838 98.9232 161.128 98.0832C161.298 97.5732 161.468 97.0532 161.638 96.5432C161.878 95.8132 162.108 95.0732 162.328 94.3332C162.558 93.5732 162.798 92.8132 163.018 92.0532C163.228 91.3532 163.428 90.6432 163.618 89.9332C163.828 89.1732 164.038 88.4031 164.248 87.6432C164.438 86.9332 164.618 86.2232 164.798 85.5132C164.988 84.7432 165.178 83.9732 165.358 83.2032C165.528 82.4832 165.688 81.7632 165.848 81.0432C166.018 80.2732 166.188 79.5032 166.338 78.7232C166.568 77.5732 166.808 76.4332 167.018 75.2831C168.588 66.6632 169.438 57.9332 169.548 49.3132V47.8232L162.458 42.4832H162.468Z" fill="url(#paint6_linear_20185_2089)"/>
<path d="M78.4284 181.943C38.8584 164.733 11.3184 127.703 4.75843 82.8933C3.62843 75.1333 3.11843 67.2033 3.25843 59.3333V58.9933L3.58843 58.8733C22.8984 51.7133 37.1784 33.0833 39.1084 12.5133L39.1384 12.1733L39.4684 12.0733C52.8584 8.19328 67.2284 5.56328 82.1584 4.25328C88.9384 3.66328 95.6684 3.36328 102.158 3.36328C109.918 3.36328 117.498 3.79328 124.688 4.63328L125.108 4.68328L125.128 5.10328C126.228 25.3633 139.768 41.5233 158.808 45.3133L159.218 45.3933V45.8133C159.028 53.7533 158.208 61.8033 156.758 69.7233C148.378 115.813 119.268 157.753 78.8984 181.913L78.6784 182.043L78.4384 181.943H78.4284Z" fill="url(#paint7_radial_20185_2089)"/>
<path d="M78.3784 177.543C40.9784 160.593 14.9884 125.123 8.70839 82.3133C7.71839 75.5333 7.22839 68.6133 7.22839 61.7233C26.0584 53.7833 39.9984 35.5833 42.7984 15.2833C55.2984 11.8133 68.6384 9.45328 82.4884 8.24328C89.1584 7.66328 95.7784 7.36328 102.138 7.36328C108.498 7.36328 115.178 7.67328 121.358 8.30328C123.558 27.9933 136.688 43.6633 155.098 48.5633C154.808 55.3733 154.038 62.2333 152.808 69.0133C144.738 113.393 116.968 153.833 78.3684 177.553L78.3784 177.543Z" fill="url(#paint8_linear_20185_2089)" style="mix-blend-mode:screen"/>
<path d="M162.468 42.4832V43.9732C162.348 52.5932 161.488 61.3332 159.928 69.9432C151.268 117.493 121.168 160.603 79.3884 185.273L78.5484 185.773L77.7284 185.423C36.7984 167.983 8.30842 129.983 1.54842 83.7732C0.318421 75.4032 -0.181579 66.7832 0.0584211 58.1532L0.108421 56.6532L1.52842 56.1732C20.5284 49.7732 34.7084 31.2732 35.9984 11.1932L36.0984 9.6932L37.5284 9.2632C51.5484 5.0832 66.6084 2.2732 82.2784 0.903204C97.9484 -0.466796 112.948 -0.276796 126.858 1.4632L128.278 1.6432L128.318 3.1332C128.798 23.0632 142.278 39.1532 161.098 42.2432L162.508 42.4732L162.468 42.4832ZM156.258 69.6332C157.698 61.7332 158.518 53.7232 158.698 45.8032C139.498 41.9732 125.738 25.5532 124.618 5.1332C111.348 3.5732 97.0884 3.4432 82.1884 4.7432C67.2984 6.0432 52.9784 8.6632 39.5984 12.5532C37.6584 33.2432 23.1884 52.1232 3.75842 59.3232C3.61842 67.2332 4.11842 75.1332 5.23842 82.8032C11.7884 127.503 39.1984 164.323 78.6284 181.473C118.898 157.373 147.878 115.633 156.258 69.6232" fill="url(#paint9_linear_20185_2089)"/>
<path d="M146.058 45.0833C132.488 38.1133 123.178 24.5933 121.368 8.30328C115.188 7.68328 108.728 7.36328 102.148 7.36328C95.5684 7.36328 89.1684 7.66328 82.4984 8.24328C68.6584 9.45328 55.3084 11.8233 42.8084 15.2833C40.0084 35.5833 26.0684 53.7833 7.2384 61.7233C7.2384 68.6133 7.7284 75.5233 8.7184 82.3133C11.0184 98.0433 15.9984 112.773 23.2084 125.963C30.9684 127.683 39.0984 128.603 47.4784 128.603C100.768 128.603 144.188 91.4933 146.078 45.0833H146.058Z" fill="url(#paint10_linear_20185_2089)" style="mix-blend-mode:screen"/>
<defs>
<linearGradient id="paint0_linear_20185_2089" x1="45.7184" y1="12.4732" x2="12.4684" y2="63.9732" gradientUnits="userSpaceOnUse">
<stop stop-color="white"/>
<stop offset="0.07" stop-color="#F1E8EF"/>
<stop offset="0.26" stop-color="#CCAEC6"/>
<stop offset="0.35" stop-color="#BE98B6"/>
<stop offset="0.49" stop-color="#985E8D"/>
<stop offset="0.55" stop-color="#8A487D"/>
<stop offset="0.76" stop-color="#6E3B69"/>
<stop offset="1" stop-color="#BE98B6"/>
</linearGradient>
<linearGradient id="paint1_linear_20185_2089" x1="52.1484" y1="11.7333" x2="116.648" y2="8.98331" gradientUnits="userSpaceOnUse">
<stop stop-color="#9B6490"/>
<stop offset="0.28" stop-color="#C09EB9"/>
<stop offset="0.42" stop-color="#CFB5C9"/>
<stop offset="0.55" stop-color="#E3D3DE"/>
<stop offset="0.67" stop-color="#F3EAEF"/>
<stop offset="1" stop-color="#BE98B6"/>
</linearGradient>
<linearGradient id="paint2_linear_20185_2089" x1="137.638" y1="-5.26669" x2="140.388" y2="29.7333" gradientUnits="userSpaceOnUse">
<stop stop-color="white"/>
<stop offset="0.17" stop-color="#EFE5EC"/>
<stop offset="0.35" stop-color="#E1CFDC"/>
<stop offset="0.44" stop-color="#DECBD9"/>
<stop offset="0.52" stop-color="#D7C0D2"/>
<stop offset="0.59" stop-color="#CCAEC5"/>
<stop offset="0.66" stop-color="#BB95B3"/>
<stop offset="0.73" stop-color="#A6759C"/>
<stop offset="0.76" stop-color="#9B6390"/>
<stop offset="1" stop-color="#BE98B6"/>
</linearGradient>
<linearGradient id="paint3_linear_20185_2089" x1="4.37841" y1="53.4333" x2="40.7084" y2="152.103" gradientUnits="userSpaceOnUse">
<stop stop-color="white"/>
<stop offset="0.17" stop-color="#EFE5EC"/>
<stop offset="0.35" stop-color="#E1CFDC"/>
<stop offset="0.44" stop-color="#DECBD9"/>
<stop offset="0.52" stop-color="#D7C0D2"/>
<stop offset="0.59" stop-color="#CCAEC5"/>
<stop offset="0.66" stop-color="#BB95B3"/>
<stop offset="0.73" stop-color="#A6759C"/>
<stop offset="0.76" stop-color="#9B6390"/>
<stop offset="1" stop-color="#BE98B6"/>
</linearGradient>
<linearGradient id="paint4_linear_20185_2089" x1="141.808" y1="44.7132" x2="165.798" y2="44.7132" gradientUnits="userSpaceOnUse">
<stop stop-color="white"/>
<stop offset="0.07" stop-color="#F1E8EF"/>
<stop offset="0.26" stop-color="#CCAEC6"/>
<stop offset="0.35" stop-color="#BE98B6"/>
<stop offset="0.49" stop-color="#985E8D"/>
<stop offset="0.55" stop-color="#8A487D"/>
<stop offset="0.76" stop-color="#6E3B69"/>
<stop offset="1" stop-color="#BE98B6"/>
</linearGradient>
<linearGradient id="paint5_linear_20185_2089" x1="94.2684" y1="201.223" x2="59.2684" y2="173.223" gradientUnits="userSpaceOnUse">
<stop stop-color="white"/>
<stop offset="0.17" stop-color="#EFE5EC"/>
<stop offset="0.35" stop-color="#E1CFDC"/>
<stop offset="0.43" stop-color="#BE98B5"/>
<stop offset="0.51" stop-color="#985E8D"/>
<stop offset="0.55" stop-color="#8A487D"/>
<stop offset="0.76" stop-color="#6E3B69"/>
<stop offset="1" stop-color="#7D4173"/>
</linearGradient>
<linearGradient id="paint6_linear_20185_2089" x1="175.618" y1="46.9232" x2="90.9584" y2="195.923" gradientUnits="userSpaceOnUse">
<stop stop-color="white"/>
<stop offset="0.17" stop-color="#EFE5EC"/>
<stop offset="0.35" stop-color="#E1CFDC"/>
<stop offset="0.43" stop-color="#BE98B5"/>
<stop offset="0.51" stop-color="#985E8D"/>
<stop offset="0.55" stop-color="#8A487D"/>
<stop offset="0.76" stop-color="#6E3B69"/>
<stop offset="1" stop-color="#7D4173"/>
</linearGradient>
<radialGradient id="paint7_radial_20185_2089" cx="0" cy="0" r="1" gradientUnits="userSpaceOnUse" gradientTransform="translate(52.4684 -5.73671) scale(210.44 210.44)">
<stop stop-color="#5070EA"/>
<stop offset="0.27" stop-color="#2C5FE3"/>
<stop offset="0.49" stop-color="#1655E0"/>
<stop offset="0.78" stop-color="#3965E6"/>
<stop offset="1" stop-color="#5070EA"/>
</radialGradient>
<linearGradient id="paint8_linear_20185_2089" x1="37.0784" y1="3.27328" x2="143.078" y2="174.603" gradientUnits="userSpaceOnUse">
<stop stop-color="#5070EA"/>
<stop offset="0.23" stop-color="#3B53AE"/>
<stop offset="0.61" stop-color="#1B2751"/>
<stop offset="0.87" stop-color="#070A16"/>
<stop offset="1"/>
</linearGradient>
<linearGradient id="paint9_linear_20185_2089" x1="131.168" y1="164.523" x2="38.1684" y2="-10.9768" gradientUnits="userSpaceOnUse">
<stop stop-color="#9B6490"/>
<stop offset="0.28" stop-color="#C09EB9"/>
<stop offset="0.42" stop-color="#CFB5C9"/>
<stop offset="0.55" stop-color="#E3D3DE"/>
<stop offset="0.67" stop-color="#F3EAEF"/>
<stop offset="1" stop-color="#BE98B6"/>
</linearGradient>
<linearGradient id="paint10_linear_20185_2089" x1="7.2384" y1="67.9833" x2="146.058" y2="67.9833" gradientUnits="userSpaceOnUse">
<stop offset="0.19" stop-color="#5070EA"/>
<stop offset="0.36" stop-color="#3B53AE"/>
<stop offset="0.63" stop-color="#1B2751"/>
<stop offset="0.83" stop-color="#070A16"/>
<stop offset="0.92"/>
</linearGradient>
</defs>
</svg>
