<svg width="64" height="64" viewBox="0 0 64 64" fill="none" xmlns="http://www.w3.org/2000/svg">
<rect width="64" height="64" rx="24" fill="#A94D90" fill-opacity="0.1"/>
<path d="M32 38.75C33.875 38.75 35.4688 38.0938 36.7812 36.7812C38.0938 35.4688 38.75 33.875 38.75 32C38.75 30.125 38.0938 28.5312 36.7812 27.2188C35.4688 25.9062 33.875 25.25 32 25.25C30.125 25.25 28.5312 25.9062 27.2188 27.2188C25.9062 28.5312 25.25 30.125 25.25 32C25.25 33.875 25.9062 35.4688 27.2188 36.7812C28.5312 38.0938 30.125 38.75 32 38.75ZM32 36.05C30.875 36.05 29.9188 35.6562 29.1313 34.8687C28.3438 34.0812 27.95 33.125 27.95 32C27.95 30.875 28.3438 29.9188 29.1313 29.1313C29.9188 28.3438 30.875 27.95 32 27.95C33.125 27.95 34.0812 28.3438 34.8687 29.1313C35.6562 29.9188 36.05 30.875 36.05 32C36.05 33.125 35.6562 34.0812 34.8687 34.8687C34.0812 35.6562 33.125 36.05 32 36.05ZM32 43.25C28.35 43.25 25.025 42.2313 22.025 40.1938C19.025 38.1562 16.85 35.425 15.5 32C16.85 28.575 19.025 25.8438 22.025 23.8063C25.025 21.7688 28.35 20.75 32 20.75C35.65 20.75 38.975 21.7688 41.975 23.8063C44.975 25.8438 47.15 28.575 48.5 32C47.15 35.425 44.975 38.1562 41.975 40.1938C38.975 42.2313 35.65 43.25 32 43.25ZM32 40.25C34.825 40.25 37.4188 39.5062 39.7812 38.0187C42.1437 36.5312 43.95 34.525 45.2 32C43.95 29.475 42.1437 27.4688 39.7812 25.9812C37.4188 24.4937 34.825 23.75 32 23.75C29.175 23.75 26.5813 24.4937 24.2188 25.9812C21.8562 27.4688 20.05 29.475 18.8 32C20.05 34.525 21.8562 36.5312 24.2188 38.0187C26.5813 39.5062 29.175 40.25 32 40.25Z" fill="#A94D90"/>
</svg>
