<svg width="64" height="64" viewBox="0 0 64 64" fill="none" xmlns="http://www.w3.org/2000/svg">
<rect width="64" height="64" rx="24" fill="#2563EB" fill-opacity="0.1"/>
<path d="M22.3648 28.9404L25.2898 30.1779C25.6398 29.4779 26.0023 28.8029 26.3773 28.1529C26.7523 27.5029 27.1648 26.8529 27.6148 26.2029L25.5148 25.7904L22.3648 28.9404ZM27.6898 32.0529L31.9648 36.2904C33.0148 35.8904 34.1398 35.2779 35.3398 34.4529C36.5398 33.6279 37.6648 32.6904 38.7148 31.6404C40.4648 29.8904 41.8336 27.9467 42.8211 25.8092C43.8086 23.6717 44.2398 21.7029 44.1148 19.9029C42.3148 19.7779 40.3398 20.2092 38.1898 21.1967C36.0398 22.1842 34.0898 23.5529 32.3398 25.3029C31.2898 26.3529 30.3523 27.4779 29.5273 28.6779C28.7023 29.8779 28.0898 31.0029 27.6898 32.0529ZM34.3648 29.6154C33.7898 29.0404 33.5023 28.3342 33.5023 27.4967C33.5023 26.6592 33.7898 25.9529 34.3648 25.3779C34.9398 24.8029 35.6523 24.5154 36.5023 24.5154C37.3523 24.5154 38.0648 24.8029 38.6398 25.3779C39.2148 25.9529 39.5023 26.6592 39.5023 27.4967C39.5023 28.3342 39.2148 29.0404 38.6398 29.6154C38.0648 30.1904 37.3523 30.4779 36.5023 30.4779C35.6523 30.4779 34.9398 30.1904 34.3648 29.6154ZM35.0773 41.6529L38.2273 38.5029L37.8148 36.4029C37.1648 36.8529 36.5148 37.2592 35.8648 37.6217C35.2148 37.9842 34.5398 38.3404 33.8398 38.6904L35.0773 41.6529ZM46.8148 17.1654C47.2898 20.1904 46.9961 23.1342 45.9336 25.9967C44.8711 28.8592 43.0398 31.5904 40.4398 34.1904L41.1898 37.9029C41.2898 38.4029 41.2648 38.8904 41.1148 39.3654C40.9648 39.8404 40.7148 40.2529 40.3648 40.6029L34.0648 46.9029L30.9148 39.5154L24.5023 33.1029L17.1148 29.9529L23.3773 23.6529C23.7273 23.3029 24.1461 23.0529 24.6336 22.9029C25.1211 22.7529 25.6148 22.7279 26.1148 22.8279L29.8273 23.5779C32.4273 20.9779 35.1523 19.1404 38.0023 18.0654C40.8523 16.9904 43.7898 16.6904 46.8148 17.1654ZM19.7773 37.8654C20.6523 36.9904 21.7211 36.5467 22.9836 36.5342C24.2461 36.5217 25.3148 36.9529 26.1898 37.8279C27.0648 38.7029 27.4961 39.7717 27.4836 41.0342C27.4711 42.2967 27.0273 43.3654 26.1523 44.2404C25.5273 44.8654 24.4836 45.4029 23.0211 45.8529C21.5586 46.3029 19.5398 46.7029 16.9648 47.0529C17.3148 44.4779 17.7148 42.4592 18.1648 40.9967C18.6148 39.5342 19.1523 38.4904 19.7773 37.8654ZM21.9148 39.9654C21.6648 40.2154 21.4148 40.6717 21.1648 41.3342C20.9148 41.9967 20.7398 42.6654 20.6398 43.3404C21.3148 43.2404 21.9836 43.0717 22.6461 42.8342C23.3086 42.5967 23.7648 42.3529 24.0148 42.1029C24.3148 41.8029 24.4773 41.4404 24.5023 41.0154C24.5273 40.5904 24.3898 40.2279 24.0898 39.9279C23.7898 39.6279 23.4273 39.4842 23.0023 39.4967C22.5773 39.5092 22.2148 39.6654 21.9148 39.9654Z" fill="#5370EA"/>
</svg>
