<svg width="296" height="192" viewBox="0 0 296 192" fill="none" xmlns="http://www.w3.org/2000/svg">
<g opacity="0.2">
<path d="M112.63 1L279.248 1.05176H279.264C287.098 1.12702 290.499 3.6903 292.121 5.46582V5.4668C294.146 7.70426 294.831 10.3859 294.911 14.6299C294.951 16.7585 294.838 19.2341 294.685 22.2021C294.533 25.1603 294.342 28.5889 294.231 32.582C293.971 41.6685 294.281 49.0981 294.568 53.9141C294.564 58.1776 293.278 61.2134 290.855 63.2129C288.392 65.2458 284.589 66.3477 279.274 66.3477H233.774C230.961 66.3477 228.661 68.632 228.661 71.4434V302.521C228.661 306.795 227.374 309.837 224.945 311.84C222.479 313.873 218.668 314.975 213.34 314.975H108.127L107.833 314.962C104.868 314.697 103.976 310.438 106.927 309.082C109.622 307.854 112.158 306.252 115.133 304.273C118.118 302.287 121.557 299.911 126.121 297.07H126.122C141.353 287.577 146.643 270.516 148.048 266.035L148.05 266.03C150.273 258.806 150.696 252.506 150.696 248.291C150.748 153.224 150.514 83.9746 150.696 67.335C150.749 63.3376 150.779 55.7302 147.238 47.0859C144.779 41.0837 139.507 34.0724 134.922 28.6201C132.617 25.8803 130.464 23.5089 128.887 21.8223C128.099 20.9788 127.453 20.3054 127.005 19.8428C126.78 19.6116 126.605 19.4329 126.485 19.3115C126.425 19.2509 126.38 19.2042 126.348 19.1729C126.333 19.1572 126.321 19.1448 126.313 19.1367C126.309 19.1327 126.306 19.1301 126.303 19.1279C126.302 19.1269 126.301 19.1256 126.301 19.125L125.593 19.8311L126.3 19.124L126.266 19.0908L126.229 19.0596H126.228L126.226 19.0576C126.225 19.0563 126.222 19.0542 126.219 19.0518C126.213 19.0461 126.202 19.0375 126.188 19.0264C126.161 19.0042 126.122 18.9706 126.07 18.9277C125.966 18.8418 125.813 18.7163 125.618 18.5557C125.228 18.2343 124.671 17.7745 124 17.2217C122.657 16.116 120.858 14.6365 119.035 13.1436C117.212 11.651 115.363 10.1433 113.921 8.98047C113.2 8.39932 112.577 7.90194 112.109 7.53516C111.876 7.35221 111.677 7.19829 111.522 7.08203C111.456 7.03243 111.383 6.97906 111.313 6.92969L111.117 6.80273C108.403 5.24481 109.378 1.2596 112.337 1.01172L112.63 1Z" stroke="#F4F4F4" stroke-width="2"/>
<path d="M-14.916 1.05078H60.2324C81.6415 1.05078 100.261 7.58661 116.162 20.6289L116.169 20.6348C132.047 33.4024 139.926 48.967 139.926 67.373V250.069C139.425 267.46 131.555 282.567 116.188 295.422C100.287 308.464 81.6418 315 60.2588 315H-14.8906C-36.5641 315 -55.4716 308.487 -71.6318 295.417C-87.2531 282.13 -95 266.433 -95 248.289V67.3467C-95 49.2016 -87.2523 33.6356 -71.6328 20.6084C-55.4976 7.58934 -36.5891 1.05078 -14.916 1.05078ZM1.30078 66.3467C-4.22651 66.3467 -8.55293 67.487 -11.5078 69.9404C-14.4984 72.4236 -15.916 76.1087 -15.916 80.8008V234.835C-15.916 239.529 -14.4905 243.213 -11.4971 245.695C-8.53937 248.148 -4.214 249.289 1.30078 249.289H44.0156C49.5304 249.289 53.8558 248.148 56.8135 245.695C59.807 243.213 61.2324 239.529 61.2324 234.835V80.8008C61.2324 76.1072 59.807 72.4229 56.8135 69.9404C53.8558 67.4876 49.5304 66.3467 44.0156 66.3467H1.30078Z" stroke="#F4F4F4" stroke-width="2"/>
</g>
</svg>
