<svg width="191" height="54" viewBox="0 0 191 54" fill="none" xmlns="http://www.w3.org/2000/svg">
<path d="M64.1247 0.00885974L35.6519 0C34.9268 0 34.6822 0.952422 35.3094 1.31124C35.4428 1.38655 37.8671 3.38885 37.8671 3.38885C37.8671 3.38885 40.5894 6.11322 41.4078 8.11109C41.9994 9.55523 41.995 10.8266 41.9861 11.5044C41.955 14.3484 41.995 26.185 41.9861 42.4293C41.9861 43.1381 41.9149 44.1968 41.5413 45.4106C41.3011 46.177 40.4114 49.0342 37.8671 50.6201C36.3013 51.5947 35.5006 52.2548 34.6066 52.6623C33.9304 52.9724 34.1395 53.9957 34.8823 53.9957C34.8912 53.9957 34.9001 53.9957 34.9135 53.9957H52.8619C54.7212 53.9957 55.6509 53.2293 55.6509 51.6966V12.2087C55.6509 11.8233 55.9667 11.5088 56.3537 11.5088H64.1291C65.984 11.5088 66.9137 10.7424 66.9137 9.2097C66.8648 8.39018 66.8114 7.12323 66.8559 5.57278C66.9315 2.85284 67.2251 1.67449 66.4511 0.819526C66.1397 0.478426 65.5125 0.0221494 64.1291 0.00885974H64.1247Z" fill="white"/>
<path d="M40.4918 42.4292C40.4918 45.5877 39.1173 48.3165 36.3683 50.6156C33.6194 52.8704 30.3944 54.0001 26.7024 54.0001H13.8605C10.1196 54.0001 6.8502 52.8749 4.05674 50.6156C1.35225 48.3165 0 45.5877 0 42.4292V11.5087C0 8.35024 1.35225 5.64359 4.05674 3.38878C6.84575 1.13841 10.1152 0.00878906 13.8561 0.00878906H26.698C30.3944 0.00878906 33.6149 1.13841 36.3639 3.39321C39.1129 5.60372 40.4873 8.31037 40.4873 11.5132V42.4337L40.4918 42.4292ZM26.698 40.1301V13.8078C26.698 12.2751 25.7728 11.5087 23.9268 11.5087H16.6273C14.7769 11.5087 13.8561 12.2751 13.8561 13.8078V40.1301C13.8561 41.6629 14.7813 42.4292 16.6273 42.4292H23.9268C25.7728 42.4292 26.698 41.6629 26.698 40.1301Z" fill="white"/>
<path d="M76.0637 17.5774C76.0637 9.31567 77.0735 7.38867 84.1505 7.38867C91.2276 7.38867 92.3886 9.40426 92.3886 17.5774C92.3886 25.7505 91.3788 27.7041 84.1505 27.7041C76.9222 27.7041 76.0637 25.5999 76.0637 17.5774ZM89.1191 17.5774C89.1191 10.7642 88.7321 9.49286 84.155 9.49286C79.5778 9.49286 79.3376 10.9148 79.3376 17.5774C79.3376 24.2399 79.5733 25.6043 84.155 25.6043C88.7366 25.6043 89.1191 24.4215 89.1191 17.5774Z" fill="white"/>
<path d="M104.701 12.3682V14.6495C103.153 14.7692 101.014 15.2697 99.3499 15.8943V27.443H96.1072V12.6384H98.9318L99.1097 13.675C100.715 13.0548 102.379 12.5498 104.701 12.3726V12.3682Z" fill="white"/>
<path d="M119.064 27.4425H116.329C116.24 27.0571 116.151 26.6717 116.031 26.2863C114.425 26.9951 112.343 27.7393 110.679 27.7393C107.201 27.7393 106.04 25.5465 106.04 22.8842C106.04 19.5396 108.687 18.9771 112.196 18.915H115.884V16.3368C115.884 14.6801 114.932 14.5295 113.179 14.5295C111.187 14.5295 108.749 14.8263 107.561 14.9724C107.503 14.8838 107.085 13.0189 107.085 12.8683C109.434 12.5139 111.605 12.3057 113.686 12.3057C117.343 12.3057 119.069 13.0144 119.069 16.3944V27.4381L119.064 27.4425ZM115.879 20.8952C110.706 20.8952 109.158 20.9838 109.158 23.026C109.158 24.3593 109.576 25.3959 111.031 25.3959C112.281 25.3959 114.598 24.5365 115.879 24.1201V20.8908V20.8952Z" fill="white"/>
<path d="M142.346 27.4428V16.1023C142.346 15.2429 141.87 14.8 140.98 14.8C140.091 14.8 137.738 15.0657 135.896 15.5397C135.896 19.4469 135.927 23.5357 135.927 27.4428H132.658V16.0403C132.658 15.2119 132.213 14.7645 131.319 14.7645C130.278 14.7645 127.898 15.1189 126.026 15.8011V27.4384H122.783V12.6603H125.43L125.759 13.6393C127.72 12.9305 129.713 12.3945 131.737 12.3945C133.045 12.3945 134.144 12.8375 135.007 13.6083C137.057 12.9261 139.348 12.3945 141.367 12.3945C144.161 12.3945 145.589 13.6393 145.589 16.0093V27.4384H142.346V27.4428Z" fill="white"/>
<path d="M152.813 21.7854V14.6489H148.978V12.6333H152.813V8.90332H155.904V12.6333H159.89V14.6489H155.904V22.7644C155.904 25.192 156.589 25.7546 158.404 25.7546C158.88 25.7546 159.623 25.7545 160.246 25.666C160.246 26.1399 160.277 26.9993 160.277 27.4423C159.267 27.6195 158.493 27.7081 158.048 27.7081C153.111 27.7081 152.813 25.3692 152.813 21.7854Z" fill="white"/>
<path d="M175.801 20.8063H174.969C171.758 20.8063 168.604 20.8374 165.392 20.8374C165.539 25.6039 166.58 25.6039 169.969 25.6039C170.832 25.6039 172.736 25.4843 174.756 25.3381V27.1721C172.643 27.4689 170.503 27.7037 168.421 27.7037C163.217 27.7037 162.265 25.8077 162.265 20.0045C162.265 14.2014 163.066 12.2744 169.013 12.2744C174.96 12.2744 175.792 13.9932 175.792 20.0045V20.8019L175.801 20.8063ZM165.423 18.7332H172.678C172.589 15.0608 172.171 14.3786 169.022 14.3786C165.575 14.3786 165.575 15.681 165.423 18.7332Z" fill="white"/>
<path d="M186.775 25.5155C187.993 25.5155 189.657 25.3959 190.996 25.2763V27.1103C189.359 27.4647 186.775 27.7039 185.017 27.7039C180.467 27.7039 178.448 26.9951 178.448 20.7756C178.448 14.082 179.133 12.3057 185.195 12.3057C185.88 12.3057 189.03 12.5139 190.845 12.7487V14.8528C186.739 14.587 185.76 14.525 185.431 14.525C181.744 14.525 181.686 15.6812 181.686 20.8642C181.686 25.3339 182.873 25.5155 186.77 25.5155H186.775Z" fill="white"/>
<path d="M80.7299 43.2933C80.7299 44.4406 79.907 44.9412 78.7949 44.9412C77.6829 44.9412 76.9267 44.8836 76.5664 44.8659V44.2014C76.5664 44.2014 77.7362 44.2856 78.7193 44.2856C79.5022 44.2856 79.8536 44.0109 79.8536 43.3598C79.8536 41.8359 76.1438 42.1282 76.1438 40.0639C76.1438 38.9077 76.9756 38.416 78.0966 38.416C79.2842 38.416 80.0137 38.4736 80.3251 38.4913V39.1558C80.3251 39.1558 79.1463 39.0628 78.1722 39.0628C77.3715 39.0628 77.0201 39.3374 77.0201 39.9709C77.0201 41.5036 80.7299 41.136 80.7299 43.2933Z" fill="white"/>
<path d="M84.106 44.3028C84.493 44.3028 84.9645 44.2674 85.3826 44.2275V44.7591C84.8933 44.8521 84.0882 44.9274 83.5411 44.9274C82.1443 44.9274 81.5127 44.7015 81.5127 42.7214C81.5127 40.5419 81.7307 40.0059 83.6567 40.0059C83.9192 40.0059 84.8577 40.0723 85.3292 40.1388V40.7368C83.977 40.6526 83.7813 40.6438 83.6968 40.6438C82.3934 40.6438 82.3756 41.0336 82.3756 42.7568C82.3756 44.263 82.7537 44.3117 84.1149 44.3117L84.106 44.3028Z" fill="white"/>
<path d="M90.0265 44.8433H89.3015L89.217 44.4535C88.6698 44.6927 87.9403 44.9363 87.3932 44.9363C86.3568 44.9363 86.0054 44.2452 86.0054 43.4036C86.0054 42.3537 86.8194 42.1809 87.9047 42.1543H89.1814V41.2639C89.1814 40.6969 88.8433 40.6393 88.2161 40.6393C87.5889 40.6393 86.7794 40.7412 86.4591 40.7811C86.4502 40.7545 86.3345 40.2141 86.3345 40.1742C87.0507 40.059 87.7224 40.0059 88.3629 40.0059C89.4972 40.0059 90.0265 40.2229 90.0265 41.295V44.8477V44.8433ZM89.1769 42.7125C87.3443 42.7125 86.8372 42.7391 86.8372 43.4434C86.8372 43.9174 86.9617 44.2763 87.5089 44.2763C87.9804 44.2763 88.7855 43.9529 89.1814 43.8333V42.7169L89.1769 42.7125Z" fill="white"/>
<path d="M92.6511 44.9011C92.4821 44.9189 92.4242 44.9189 92.3664 44.9189C91.6858 44.9189 91.1965 44.6708 91.1965 43.5943V38.3184H92.055V43.7627C92.055 44.1126 92.055 44.3961 92.6511 44.4715V44.8967V44.9011Z" fill="white"/>
<path d="M93.8742 38.5C94.3368 38.5 94.3946 38.5487 94.3946 38.9164C94.3946 39.2486 94.3368 39.3417 93.8742 39.3417C93.4116 39.3417 93.376 39.2575 93.376 38.9164C93.376 38.5576 93.4116 38.5 93.8742 38.5ZM93.4516 44.8436V40.1169H94.319V44.8436H93.4516Z" fill="white"/>
<path d="M98.7006 44.844V41.1318C98.7006 40.8572 98.5227 40.7065 98.1891 40.7065C97.8288 40.7065 97.0103 40.7907 96.3386 41.0565V44.844H95.489V40.1085H96.1874L96.263 40.4496C96.9525 40.1927 97.6241 40.0332 98.2914 40.0332C99.0831 40.0332 99.5547 40.392 99.5547 41.1584V44.844H98.6962H98.7006Z" fill="white"/>
<path d="M102.455 43.8518C102.7 43.8518 102.984 43.834 103.269 43.834C104.243 43.834 105.28 43.9669 105.28 45.0655C105.28 46.1641 104.465 46.6116 103.371 46.6116C102.277 46.6116 101.539 46.554 101.192 46.5363V45.8939C101.192 45.8939 102.335 45.9692 103.296 45.9692C104.07 45.9692 104.421 45.7787 104.421 45.1364C104.421 44.596 103.949 44.5029 103.353 44.5029C103.069 44.5029 102.748 44.5207 102.455 44.5207C101.654 44.5207 100.916 44.3523 100.916 43.4619C100.916 43.3024 100.943 43.081 101.116 42.9038C100.711 42.6645 100.587 42.2703 100.587 41.6058C100.587 40.4983 100.965 40.0509 102.419 40.0421L105.32 40.0332V40.5559C105.11 40.5825 104.875 40.6047 104.67 40.6312C104.781 40.8483 104.848 41.154 104.848 41.6058C104.848 42.7974 104.301 43.1696 103.273 43.1696H102.037C101.828 43.1696 101.725 43.1961 101.725 43.3778C101.725 43.7764 101.81 43.8606 102.464 43.8606L102.455 43.8518ZM104.052 41.5394C104.052 40.7553 103.816 40.6224 103.002 40.6224H102.464C101.605 40.6711 101.361 40.7464 101.361 41.5969C101.361 42.4475 101.654 42.5715 102.7 42.5715H103.02C103.803 42.5715 104.047 42.257 104.047 41.5394H104.052Z" fill="white"/>
<path d="M109.443 44.8434V42.655L107.156 38.5264H108.184L109.883 41.8311L111.631 38.5264H112.65L110.328 42.655V44.8434H109.438H109.443Z" fill="white"/>
<path d="M112.583 42.4777C112.583 40.5374 112.895 40.0146 114.718 40.0146C116.542 40.0146 116.871 40.5728 116.871 42.4777C116.871 44.3825 116.578 44.9318 114.718 44.9318C112.859 44.9318 112.583 44.3736 112.583 42.4777ZM116.031 42.4777C116.031 40.8785 115.897 40.5817 114.718 40.5817C113.54 40.5817 113.433 40.9139 113.433 42.4777C113.433 44.0414 113.544 44.3426 114.718 44.3426C115.893 44.3426 116.031 44.0281 116.031 42.4777Z" fill="white"/>
<path d="M118.757 40.1299V43.8333C118.757 44.1168 118.935 44.2674 119.269 44.2674C119.629 44.2674 120.448 44.1832 121.119 43.9174V40.1299H121.96V44.8654H121.262L121.186 44.5243C120.506 44.7812 119.834 44.9319 119.158 44.9319C118.366 44.9319 117.903 44.5819 117.903 43.8155V40.1299H118.762H118.757Z" fill="white"/>
<path d="M125.772 40.0244V40.6889C125.292 40.7288 124.585 40.8705 124.033 41.0787V44.8485H123.183V40.113H123.908L123.966 40.4364C124.531 40.2282 125.101 40.0864 125.768 40.0288L125.772 40.0244Z" fill="white"/>
<path d="M128.406 44.8434V38.5264H130.229C131.559 38.5264 132.742 38.6593 132.742 40.0502V40.4667C132.742 41.1843 132.431 41.4146 131.893 41.6804C132.498 41.8311 132.742 42.4291 132.742 42.9297V43.3195C132.742 44.5333 131.969 44.8434 130.229 44.8434H128.406ZM129.264 39.1155V41.3881H130.71C131.426 41.3881 131.88 41.14 131.88 40.4711V40.13C131.88 39.1731 131.275 39.1155 130.292 39.1155H129.264ZM129.264 44.2675H130.292C131.377 44.2675 131.88 44.0105 131.88 43.2708V42.9208C131.88 42.212 131.426 42.0038 130.71 42.0038H129.264V44.2675Z" fill="white"/>
<path d="M134.726 40.1299V43.8333C134.726 44.1168 134.904 44.2674 135.238 44.2674C135.598 44.2674 136.417 44.1832 137.088 43.9174V40.1299H137.929V44.8654H137.231L137.155 44.5243C136.475 44.7812 135.803 44.9319 135.127 44.9319C134.335 44.9319 133.872 44.5819 133.872 43.8155V40.1299H134.731H134.726Z" fill="white"/>
<path d="M142.626 43.6126C142.626 44.4853 141.928 44.8707 141.02 44.8707C139.908 44.8707 139.179 44.7954 139.179 44.7954V44.1708C139.179 44.1708 139.926 44.2461 140.918 44.2461C141.505 44.2461 141.759 44.0866 141.759 43.6791C141.759 42.607 138.859 42.9304 138.859 41.2825C138.859 40.4098 139.548 40.0244 140.464 40.0244C141.576 40.0244 142.306 40.0997 142.306 40.0997V40.7243C142.306 40.7243 141.514 40.649 140.522 40.649C139.966 40.649 139.73 40.8174 139.73 41.216C139.73 42.2571 142.631 41.9736 142.631 43.6126H142.626Z" fill="white"/>
<path d="M143.947 38.5C144.41 38.5 144.468 38.5487 144.468 38.9164C144.468 39.2486 144.41 39.3417 143.947 39.3417C143.485 39.3417 143.449 39.2575 143.449 38.9164C143.449 38.5576 143.485 38.5 143.947 38.5ZM143.525 44.8436V40.1169H144.392V44.8436H143.525Z" fill="white"/>
<path d="M148.774 44.844V41.1318C148.774 40.8572 148.596 40.7065 148.262 40.7065C147.902 40.7065 147.083 40.7907 146.412 41.0565V44.844H145.562V40.1085H146.26L146.336 40.4496C147.025 40.1927 147.697 40.0332 148.364 40.0332C149.156 40.0332 149.628 40.392 149.628 41.1584V44.844H148.769H148.774Z" fill="white"/>
<path d="M154.89 42.6865H154.739C153.662 42.6865 152.586 42.6954 151.509 42.6954C151.527 43.3864 151.545 43.7275 151.763 44.0199C151.99 44.3211 152.639 44.3211 153.075 44.3211C153.369 44.3211 153.951 44.2946 154.547 44.2458V44.7686C153.907 44.8616 153.235 44.928 152.581 44.928C150.984 44.928 150.682 44.3211 150.682 42.465C150.682 40.6089 150.935 39.9932 152.777 39.9932C154.619 39.9932 154.881 40.5336 154.881 42.465V42.6821L154.89 42.6865ZM151.518 42.0974H154.058C154.022 40.8393 153.88 40.5823 152.781 40.5823C151.554 40.5823 151.563 41.0386 151.518 42.0974Z" fill="white"/>
<path d="M159.316 43.6126C159.316 44.4853 158.618 44.8707 157.71 44.8707C156.598 44.8707 155.869 44.7954 155.869 44.7954V44.1708C155.869 44.1708 156.616 44.2461 157.608 44.2461C158.195 44.2461 158.449 44.0866 158.449 43.6791C158.449 42.607 155.548 42.9304 155.548 41.2825C155.548 40.4098 156.238 40.0244 157.154 40.0244C158.266 40.0244 158.996 40.0997 158.996 40.0997V40.7243C158.996 40.7243 158.204 40.649 157.212 40.649C156.656 40.649 156.42 40.8174 156.42 41.216C156.42 42.2571 159.32 41.9736 159.32 43.6126H159.316Z" fill="white"/>
<path d="M163.706 43.6126C163.706 44.4853 163.008 44.8707 162.1 44.8707C160.988 44.8707 160.259 44.7954 160.259 44.7954V44.1708C160.259 44.1708 161.006 44.2461 161.998 44.2461C162.585 44.2461 162.839 44.0866 162.839 43.6791C162.839 42.607 159.938 42.9304 159.938 41.2825C159.938 40.4098 160.628 40.0244 161.544 40.0244C162.656 40.0244 163.386 40.0997 163.386 40.0997V40.7243C163.386 40.7243 162.594 40.649 161.602 40.649C161.046 40.649 160.81 40.8174 160.81 41.216C160.81 42.2571 163.711 41.9736 163.711 43.6126H163.706Z" fill="white"/>
<path d="M166.669 44.8433V38.5352H169.209C170.463 38.5352 171.464 38.8497 171.464 40.0502V40.8165C171.464 41.5652 170.859 42.2164 169.952 42.3227C169.623 42.3626 169.582 42.3626 167.536 42.3626V44.8433H166.669ZM167.536 41.738H169.169C169.916 41.738 170.632 41.6316 170.632 40.821V40.0635C170.632 39.2484 169.894 39.1376 169.169 39.1376H167.536V41.7424V41.738Z" fill="white"/>
<path d="M176.419 42.6865H176.268C175.191 42.6865 174.115 42.6954 173.039 42.6954C173.056 43.3864 173.074 43.7275 173.292 44.0199C173.519 44.3211 174.168 44.3211 174.604 44.3211C174.898 44.3211 175.481 44.2946 176.077 44.2458V44.7686C175.436 44.8616 174.764 44.928 174.111 44.928C172.514 44.928 172.211 44.3211 172.211 42.465C172.211 40.6089 172.465 39.9932 174.306 39.9932C176.148 39.9932 176.41 40.5336 176.41 42.465V42.6821L176.419 42.6865ZM173.047 42.0974H175.587C175.552 40.8393 175.409 40.5823 174.311 40.5823C173.083 40.5823 173.092 41.0386 173.047 42.0974Z" fill="white"/>
<path d="M181.112 44.8433H180.387L180.302 44.4535C179.755 44.6927 179.026 44.9363 178.479 44.9363C177.442 44.9363 177.091 44.2452 177.091 43.4036C177.091 42.3537 177.905 42.1809 178.99 42.1543H180.267V41.2639C180.267 40.6969 179.929 40.6393 179.302 40.6393C178.674 40.6393 177.865 40.7412 177.545 40.7811C177.536 40.7545 177.42 40.2141 177.42 40.1742C178.136 40.059 178.808 40.0059 179.448 40.0059C180.583 40.0059 181.112 40.2229 181.112 41.295V44.8477V44.8433ZM180.262 42.7125C178.43 42.7125 177.923 42.7391 177.923 43.4434C177.923 43.9174 178.047 44.2763 178.594 44.2763C179.066 44.2763 179.871 43.9529 180.267 43.8333V42.7169L180.262 42.7125Z" fill="white"/>
<path d="M182.291 44.8436V38.3096H183.131V41.7959H184.039L185.493 39.3993H186.401L184.786 42.0971L186.663 44.8436H185.72L184.048 42.4294H183.131V44.8436H182.291Z" fill="white"/>
<path d="M190.738 43.6126C190.738 44.4853 190.039 44.8707 189.132 44.8707C188.02 44.8707 187.29 44.7954 187.29 44.7954V44.1708C187.29 44.1708 188.038 44.2461 189.03 44.2461C189.617 44.2461 189.87 44.0866 189.87 43.6791C189.87 42.607 186.97 42.9304 186.97 41.2825C186.97 40.4098 187.66 40.0244 188.576 40.0244C189.688 40.0244 190.418 40.0997 190.418 40.0997V40.7243C190.418 40.7243 189.626 40.649 188.634 40.649C188.078 40.649 187.842 40.8174 187.842 41.216C187.842 42.2571 190.742 41.9736 190.742 43.6126H190.738Z" fill="white"/>
</svg>
