<svg width="26" height="26" viewBox="0 0 26 26" fill="none" xmlns="http://www.w3.org/2000/svg">
<rect width="26" height="26" rx="13" fill="white"/>
<path fill-rule="evenodd" clip-rule="evenodd" d="M13 7C13.6412 7 14.299 7.0165 14.9365 7.0435L15.6895 7.0795L16.4103 7.12225L17.0853 7.168L17.7017 7.216C18.3708 7.26721 19.0003 7.55271 19.4796 8.02228C19.959 8.49185 20.2573 9.11541 20.3223 9.78325L20.3522 10.102L20.4085 10.7845C20.461 11.4917 20.5 12.2628 20.5 13C20.5 13.7372 20.461 14.5083 20.4085 15.2155L20.3522 15.898C20.3425 16.0075 20.3328 16.1132 20.3223 16.2167C20.2573 16.8847 19.9588 17.5084 19.4794 17.9779C18.9999 18.4475 18.3702 18.733 17.701 18.784L17.086 18.8312L16.411 18.8778L15.6895 18.9205L14.9365 18.9565C14.2914 18.9845 13.6457 18.999 13 19C12.3543 18.999 11.7086 18.9845 11.0635 18.9565L10.3105 18.9205L9.58975 18.8778L8.91475 18.8312L8.29825 18.784C7.62921 18.7328 6.99966 18.4473 6.52035 17.9777C6.04105 17.5082 5.74268 16.8846 5.67775 16.2167L5.64775 15.898L5.5915 15.2155C5.53415 14.4784 5.50363 13.7394 5.5 13C5.5 12.2628 5.539 11.4917 5.5915 10.7845L5.64775 10.102C5.6575 9.9925 5.66725 9.88675 5.67775 9.78325C5.74266 9.11552 6.04091 8.49206 6.52007 8.02251C6.99923 7.55295 7.6286 7.26738 8.2975 7.216L8.91325 7.168L9.58825 7.12225L10.3098 7.0795L11.0627 7.0435C11.7081 7.01547 12.354 7.00097 13 7ZM11.5 11.1812V14.8188C11.5 15.1652 11.875 15.3812 12.175 15.2087L15.325 13.39C15.3935 13.3505 15.4505 13.2937 15.4901 13.2253C15.5297 13.1568 15.5505 13.0791 15.5505 13C15.5505 12.9209 15.5297 12.8432 15.4901 12.7747C15.4505 12.7063 15.3935 12.6495 15.325 12.61L12.175 10.792C12.1066 10.7525 12.0289 10.7317 11.9499 10.7317C11.8709 10.7317 11.7933 10.7525 11.7249 10.7921C11.6565 10.8316 11.5997 10.8885 11.5602 10.9569C11.5207 11.0253 11.4999 11.103 11.5 11.182" fill="#9057AA"/>
</svg>
