<svg width="22" height="21" viewBox="0 0 22 21" fill="none" xmlns="http://www.w3.org/2000/svg">
<path d="M8.49258 4.32261C7.51062 4.50472 6.60816 4.96123 5.90071 5.6337C5.19326 6.30617 4.71301 7.16402 4.52143 8.09743M8.49258 0.5C6.45244 0.715439 4.54999 1.58388 3.0976 2.96272C1.64521 4.34157 0.729211 6.14887 0.5 8.08788M1.50536 15.714V18.5809C1.50422 18.8471 1.56157 19.1105 1.67374 19.3544C1.78591 19.5983 1.95043 19.8172 2.15675 19.9971C2.36307 20.177 2.60665 20.314 2.87189 20.3993C3.13712 20.4845 3.41817 20.5162 3.69703 20.4922C6.79068 20.1727 9.76235 19.1678 12.3733 17.5584C14.8024 16.0911 16.8618 14.1335 18.4054 11.8245C20.1045 9.33138 21.1618 6.49289 21.4918 3.53897C21.517 3.2747 21.4839 3.00836 21.3948 2.75689C21.3057 2.50543 21.1625 2.27435 20.9743 2.07838C20.7861 1.8824 20.5571 1.72582 20.3017 1.61861C20.0464 1.5114 19.7703 1.4559 19.4912 1.45565H16.4751C15.9872 1.45109 15.5142 1.61532 15.1443 1.91774C14.7743 2.22016 14.5327 2.64013 14.4644 3.09937C14.3371 4.01686 14.101 4.91772 13.7606 5.78476C13.6254 6.12681 13.5961 6.49855 13.6763 6.85593C13.7565 7.21331 13.9428 7.54135 14.2131 7.80118L15.4899 9.01486C14.0587 11.4074 11.9747 13.3883 9.45772 14.7488L8.18092 13.5351C7.90758 13.2782 7.56247 13.1011 7.1865 13.0249C6.81054 12.9486 6.41946 12.9765 6.05962 13.1051C5.14749 13.4286 4.19978 13.653 3.23457 13.774C2.7462 13.8395 2.30019 14.0733 1.98136 14.431C1.66253 14.7887 1.49312 15.2453 1.50536 15.714Z" stroke="white" stroke-linecap="round" stroke-linejoin="round"/>
</svg>
