<svg width="26" height="26" viewBox="0 0 26 26" fill="none" xmlns="http://www.w3.org/2000/svg">
<rect width="26" height="26" rx="13" fill="white"/>
<path d="M13.7196 6C14.5071 6.0021 14.9067 6.0063 15.2518 6.0161L15.3876 6.021C15.5444 6.0266 15.6991 6.0336 15.886 6.042C16.6308 6.077 17.1389 6.1946 17.5848 6.36749C18.0468 6.54529 18.436 6.78608 18.8251 7.17457C19.1811 7.52449 19.4565 7.94777 19.6322 8.41494C19.8051 8.86083 19.9227 9.36902 19.9577 10.1145C19.9661 10.3007 19.9731 10.4554 19.9787 10.6129L19.9829 10.7487C19.9934 11.0931 19.9976 11.4928 19.999 12.2803L19.9997 12.8024V13.7194C20.0014 14.23 19.996 14.7406 19.9836 15.251L19.9794 15.3868C19.9738 15.5443 19.9668 15.699 19.9584 15.8852C19.9234 16.6307 19.8044 17.1381 19.6322 17.5847C19.457 18.0522 19.1815 18.4755 18.8251 18.8251C18.4751 19.1809 18.0519 19.4563 17.5848 19.6322C17.1389 19.8051 16.6308 19.9227 15.886 19.9577C15.7199 19.9655 15.5538 19.9725 15.3876 19.9787L15.2518 19.9829C14.9067 19.9927 14.5071 19.9976 13.7196 19.999L13.1974 19.9997H12.2812C11.7704 20.0014 11.2596 19.9961 10.749 19.9836L10.6132 19.9794C10.447 19.9731 10.2809 19.9658 10.1148 19.9577C9.37003 19.9227 8.86186 19.8051 8.41528 19.6322C7.94817 19.4567 7.52508 19.1813 7.17564 18.8251C6.81939 18.4753 6.54373 18.052 6.36789 17.5847C6.19499 17.1388 6.0774 16.6307 6.0424 15.8852C6.0346 15.7191 6.0276 15.5529 6.0214 15.3868L6.0179 15.251C6.005 14.7406 5.99917 14.23 6.0004 13.7194V12.2803C5.99845 11.7697 6.00358 11.2591 6.0158 10.7487L6.0207 10.6129C6.0263 10.4554 6.0333 10.3007 6.0417 10.1145C6.0767 9.36902 6.19429 8.86153 6.36719 8.41494C6.54296 7.94729 6.81917 7.52388 7.17634 7.17457C7.52569 6.81861 7.9485 6.54318 8.41528 6.36749C8.86186 6.1946 9.36933 6.077 10.1148 6.042C10.301 6.0336 10.4564 6.0266 10.6132 6.021L10.749 6.0168C11.2594 6.00436 11.7699 5.999 12.2805 6.0007L13.7196 6ZM13 9.49992C12.0718 9.49992 11.1816 9.86866 10.5253 10.525C9.86895 11.1814 9.50022 12.0716 9.50022 12.9998C9.50022 13.9281 9.86895 14.8183 10.5253 15.4747C11.1816 16.131 12.0718 16.4998 13 16.4998C13.9283 16.4998 14.8184 16.131 15.4748 15.4747C16.1311 14.8183 16.4999 13.9281 16.4999 12.9998C16.4999 12.0716 16.1311 11.1814 15.4748 10.525C14.8184 9.86866 13.9283 9.49992 13 9.49992ZM13 10.8999C13.2758 10.8998 13.5489 10.9541 13.8037 11.0596C14.0585 11.1651 14.29 11.3197 14.485 11.5147C14.68 11.7097 14.8347 11.9411 14.9403 12.1959C15.0459 12.4507 15.1002 12.7237 15.1003 12.9995C15.1003 13.2753 15.0461 13.5483 14.9406 13.8031C14.8351 14.0579 14.6805 14.2894 14.4855 14.4845C14.2905 14.6795 14.0591 14.8342 13.8043 14.9398C13.5496 15.0454 13.2765 15.0997 13.0007 15.0998C12.4438 15.0998 11.9097 14.8785 11.5159 14.4847C11.1221 14.0909 10.9009 13.5568 10.9009 12.9998C10.9009 12.4429 11.1221 11.9088 11.5159 11.5149C11.9097 11.1211 12.4438 10.8999 13.0007 10.8999M16.6756 8.44994C16.4435 8.44994 16.221 8.54213 16.0569 8.70622C15.8928 8.87031 15.8006 9.09286 15.8006 9.32492C15.8006 9.55698 15.8928 9.77954 16.0569 9.94363C16.221 10.1077 16.4435 10.1999 16.6756 10.1999C16.9076 10.1999 17.1302 10.1077 17.2942 9.94363C17.4583 9.77954 17.5505 9.55698 17.5505 9.32492C17.5505 9.09286 17.4583 8.87031 17.2942 8.70622C17.1302 8.54213 16.9076 8.44994 16.6756 8.44994Z" fill="#9256A8"/>
</svg>
