<svg width="169" height="38" viewBox="0 0 169 38" fill="none" xmlns="http://www.w3.org/2000/svg">
<path d="M1.00014 24.227C11.8319 30.0873 19.8558 31.9152 31.7882 29.0877C42.5639 26.5343 53.3919 19.0495 62.7758 13.3119C74.3938 6.20815 98.2599 -2.15029 108.389 11.5203C116.254 22.1352 110.443 37.7166 96.4013 36.4414C90.988 35.9498 87.0134 29.4934 88.3714 24.2331C89.8382 18.5515 96.705 14.6434 101.556 12.4762C114.583 6.65576 126.133 17.9037 138.908 17.8394C150.843 17.7794 158.411 10.9094 165.797 2.15917C166.43 1.40965 166.814 5.52464 167.006 6.53564C167.709 10.2419 168.127 8.45845 167.595 5.65616C167.253 3.8539 167.461 -0.155453 165.26 1.32278C163.673 2.38928 160.073 3.24566 158.134 3.61364" stroke="#5370EA" stroke-width="2" stroke-linecap="round"/>
</svg>
