<svg width="42" height="53" viewBox="0 0 42 53" fill="none" xmlns="http://www.w3.org/2000/svg">
<path d="M5.07766 1.00018C9.24464 2.16936 21.1709 5.36783 20.769 11.9672C20.6019 14.7133 18.817 18.3881 16.3654 19.9002C11.1005 23.1472 3.59175 17.2335 10.7829 13.3618C14.8158 11.1905 19.9493 13.8663 23.5582 15.8111C28.8781 18.678 31.0474 23.3863 32.7864 28.889C33.6696 31.6834 34.8132 45.4903 34.0586 45.0044" stroke="#A94D90" stroke-width="2" stroke-linecap="round"/>
<path d="M35.1461 50.0249C34.3873 49.498 28.7077 45.2763 29.3332 45.8822C30.152 46.6753 31.0786 47.4087 31.7936 48.2984C32.6396 49.351 33.7378 50.1741 34.4614 51.3121C35.0963 52.3107 37.1702 46.4406 37.2882 45.356" stroke="#A94D90" stroke-width="2" stroke-linecap="round"/>
</svg>
