<svg width="181" height="52" viewBox="0 0 181 52" fill="none" xmlns="http://www.w3.org/2000/svg">
<path d="M60.6383 0.008378L33.7136 0C33.028 0 32.7967 0.900635 33.3898 1.23994C33.5159 1.31116 35.8084 3.20459 35.8084 3.20459C35.8084 3.20459 38.3827 5.78082 39.1566 7.67006C39.7161 9.03568 39.7119 10.2379 39.7034 10.8788C39.674 13.5682 39.7119 24.7612 39.7034 40.1223C39.7034 40.7925 39.6361 41.7937 39.2828 42.9415C39.0557 43.6662 38.2144 46.3681 35.8084 47.8677C34.3278 48.7893 33.5706 49.4135 32.7252 49.7989C32.0858 50.0921 32.2835 51.0597 32.986 51.0597C32.9944 51.0597 33.0028 51.0597 33.0154 51.0597H49.9879C51.7461 51.0597 52.6252 50.335 52.6252 48.8856V11.5449C52.6252 11.1804 52.9239 10.883 53.2898 10.883H60.6425C62.3965 10.883 63.2756 10.1583 63.2756 8.70893C63.2294 7.93397 63.1789 6.73591 63.221 5.26976C63.2925 2.69772 63.5701 1.58344 62.8382 0.774965C62.5437 0.452412 61.9506 0.020945 60.6425 0.008378H60.6383Z" fill="#5370EA"/>
<path d="M38.2901 40.1219C38.2901 43.1087 36.9903 45.6891 34.3908 47.8632C31.7913 49.9954 28.7418 51.0636 25.2505 51.0636H13.1069C9.56937 51.0636 6.47773 49.9996 3.83616 47.8632C1.27872 45.6891 0 43.1087 0 40.1219V10.8827C0 7.89595 1.27872 5.33647 3.83616 3.20427C6.47352 1.07625 9.56516 0.00805664 13.1027 0.00805664H25.2463C28.7418 0.00805664 31.7871 1.07625 34.3866 3.20845C36.9861 5.29877 38.2859 7.85825 38.2859 10.8869V40.1261L38.2901 40.1219ZM25.2463 37.9478V13.0568C25.2463 11.6074 24.3714 10.8827 22.6258 10.8827H15.7232C13.9734 10.8827 13.1027 11.6074 13.1027 13.0568V37.9478C13.1027 39.3972 13.9776 40.1219 15.7232 40.1219H22.6258C24.3714 40.1219 25.2463 39.3972 25.2463 37.9478Z" fill="#A94D90"/>
<path d="M72.3174 16.6218C72.3174 8.80928 73.2722 6.98706 79.9645 6.98706C86.6567 6.98706 87.7546 8.89306 87.7546 16.6218C87.7546 24.3505 86.7997 26.1978 79.9645 26.1978C73.1292 26.1978 72.3174 24.208 72.3174 16.6218ZM84.6629 16.6218C84.6629 10.1791 84.297 8.97684 79.9687 8.97684C75.6404 8.97684 75.4132 10.3215 75.4132 16.6218C75.4132 22.922 75.6362 24.2122 79.9687 24.2122C84.3012 24.2122 84.6629 23.0938 84.6629 16.6218Z" fill="#5370EA"/>
<path d="M99.3976 11.6956V13.8529C97.9338 13.966 95.9106 14.4394 94.3374 15.03V25.9507H91.271V11.9511H93.942L94.1103 12.9313C95.6287 12.3449 97.2019 11.8673 99.3976 11.6997V11.6956Z" fill="#5370EA"/>
<path d="M112.98 25.9505H110.393C110.309 25.5861 110.225 25.2217 110.111 24.8572C108.592 25.5274 106.624 26.2312 105.051 26.2312C101.761 26.2312 100.664 24.1576 100.664 21.6401C100.664 18.4774 103.166 17.9454 106.485 17.8867H109.972V15.4487C109.972 13.882 109.072 13.7396 107.415 13.7396C105.53 13.7396 103.225 14.0203 102.102 14.1585C102.047 14.0747 101.652 12.3111 101.652 12.1687C103.873 11.8336 105.926 11.6367 107.894 11.6367C111.352 11.6367 112.984 12.307 112.984 15.5032V25.9463L112.98 25.9505ZM109.968 19.7592C105.076 19.7592 103.612 19.843 103.612 21.7741C103.612 23.035 104.008 24.0152 105.383 24.0152C106.565 24.0152 108.757 23.2026 109.968 22.8088V19.755V19.7592Z" fill="#5370EA"/>
<path d="M134.996 25.9505V15.2267C134.996 14.414 134.546 13.9951 133.705 13.9951C132.863 13.9951 130.638 14.2464 128.897 14.6946C128.897 18.3893 128.926 22.2558 128.926 25.9505H125.835V15.168C125.835 14.3847 125.414 13.9616 124.569 13.9616C123.584 13.9616 121.334 14.2967 119.563 14.9418V25.9463H116.497V11.9718H118.999L119.311 12.8976C121.166 12.2273 123.05 11.7205 124.964 11.7205C126.201 11.7205 127.24 12.1394 128.056 12.8682C129.995 12.2231 132.161 11.7205 134.071 11.7205C136.712 11.7205 138.062 12.8976 138.062 15.1387V25.9463H134.996V25.9505Z" fill="#5370EA"/>
<path d="M144.893 20.6011V13.8526H141.267V11.9466H144.893V8.41943H147.816V11.9466H151.585V13.8526H147.816V21.5268C147.816 23.8224 148.464 24.3544 150.18 24.3544C150.63 24.3544 151.333 24.3544 151.922 24.2706C151.922 24.7188 151.951 25.5315 151.951 25.9504C150.996 26.118 150.264 26.2017 149.844 26.2017C145.175 26.2017 144.893 23.99 144.893 20.6011Z" fill="#5370EA"/>
<path d="M166.631 19.6754H165.845C162.808 19.6754 159.826 19.7048 156.789 19.7048C156.927 24.2121 157.912 24.2121 161.117 24.2121C161.933 24.2121 163.733 24.099 165.643 23.9608V25.695C163.645 25.9757 161.622 26.1977 159.653 26.1977C154.732 26.1977 153.832 24.4048 153.832 18.9172C153.832 13.4296 154.589 11.6074 160.213 11.6074C165.836 11.6074 166.623 13.2328 166.623 18.9172V19.6713L166.631 19.6754ZM156.818 17.715H163.679C163.594 14.2423 163.199 13.5972 160.221 13.5972C156.961 13.5972 156.961 14.8288 156.818 17.715Z" fill="#5370EA"/>
<path d="M177.008 24.1283C178.161 24.1283 179.734 24.0152 181 23.9021V25.6364C179.452 25.9715 177.008 26.1977 175.347 26.1977C171.043 26.1977 169.134 25.5274 169.134 19.6461C169.134 13.3165 169.782 11.6367 175.515 11.6367C176.163 11.6367 179.141 11.8336 180.857 12.0556V14.0454C176.974 13.7941 176.049 13.7354 175.738 13.7354C172.251 13.7354 172.196 14.8287 172.196 19.7299C172.196 23.9566 173.319 24.1283 177.004 24.1283H177.008Z" fill="#5370EA"/>
<path d="M76.7298 40.939C76.7298 42.0239 75.9516 42.4973 74.9 42.4973C73.8484 42.4973 73.1334 42.4428 72.7927 42.4261V41.7977C72.7927 41.7977 73.8989 41.8773 74.8285 41.8773C75.5688 41.8773 75.9011 41.6176 75.9011 41.0018C75.9011 39.5608 72.3931 39.8373 72.3931 37.8852C72.3931 36.7919 73.1796 36.3269 74.2396 36.3269C75.3627 36.3269 76.0526 36.3814 76.347 36.3981V37.0265C76.347 37.0265 75.2323 36.9385 74.3111 36.9385C73.554 36.9385 73.2217 37.1982 73.2217 37.7972C73.2217 39.2466 76.7298 38.899 76.7298 40.939Z" fill="#2B2B2B"/>
<path d="M79.9225 41.8939C80.2884 41.8939 80.7343 41.8604 81.1297 41.8227V42.3254C80.667 42.4133 79.9057 42.4845 79.3883 42.4845C78.0675 42.4845 77.4702 42.2709 77.4702 40.3984C77.4702 38.3374 77.6763 37.8306 79.4977 37.8306C79.7458 37.8306 80.6334 37.8934 81.0792 37.9562V38.5218C79.8005 38.4422 79.6154 38.4338 79.5355 38.4338C78.3031 38.4338 78.2862 38.8024 78.2862 40.4319C78.2862 41.8562 78.6438 41.9023 79.9309 41.9023L79.9225 41.8939Z" fill="#2B2B2B"/>
<path d="M85.5208 42.405H84.8351L84.7552 42.0363C84.2378 42.2625 83.548 42.4929 83.0306 42.4929C82.0506 42.4929 81.7183 41.8394 81.7183 41.0435C81.7183 40.0507 82.488 39.8874 83.5144 39.8622H84.7216V39.0202C84.7216 38.484 84.4019 38.4296 83.8088 38.4296C83.2157 38.4296 82.4502 38.5259 82.1473 38.5636C82.1389 38.5385 82.0295 38.0274 82.0295 37.9897C82.7067 37.8808 83.3419 37.8306 83.9476 37.8306C85.0202 37.8306 85.5208 38.0358 85.5208 39.0496V42.4091V42.405ZM84.7174 40.39C82.9844 40.39 82.5048 40.4152 82.5048 41.0812C82.5048 41.5295 82.6226 41.8688 83.14 41.8688C83.5859 41.8688 84.3472 41.563 84.7216 41.4499V40.3942L84.7174 40.39Z" fill="#2B2B2B"/>
<path d="M88.0024 42.4595C87.8426 42.4762 87.7879 42.4762 87.7332 42.4762C87.0897 42.4762 86.627 42.2416 86.627 41.2237V36.2346H87.4388V41.3829C87.4388 41.7138 87.4388 41.9819 88.0024 42.0531V42.4553V42.4595Z" fill="#2B2B2B"/>
<path d="M89.1596 36.4065C89.597 36.4065 89.6517 36.4526 89.6517 36.8003C89.6517 37.1144 89.597 37.2024 89.1596 37.2024C88.7221 37.2024 88.6885 37.1228 88.6885 36.8003C88.6885 36.461 88.7221 36.4065 89.1596 36.4065ZM88.76 42.4051V37.9355H89.5802V42.4051H88.76Z" fill="#2B2B2B"/>
<path d="M93.7235 42.4052V38.8948C93.7235 38.6351 93.5552 38.4927 93.2398 38.4927C92.899 38.4927 92.1251 38.5723 91.4899 38.8236V42.4052H90.6865V37.9272H91.3469L91.4184 38.2497C92.0704 38.0068 92.7056 37.856 93.3365 37.856C94.0852 37.856 94.5311 38.1953 94.5311 38.92V42.4052H93.7193H93.7235Z" fill="#2B2B2B"/>
<path d="M97.2735 41.4669C97.5048 41.4669 97.774 41.4501 98.0432 41.4501C98.9644 41.4501 99.9445 41.5758 99.9445 42.6147C99.9445 43.6535 99.1747 44.0766 98.14 44.0766C97.1052 44.0766 96.407 44.0222 96.0789 44.0054V43.398C96.0789 43.398 97.1599 43.4692 98.0685 43.4692C98.8004 43.4692 99.1327 43.2891 99.1327 42.6817C99.1327 42.1706 98.6868 42.0827 98.1232 42.0827C97.854 42.0827 97.5511 42.0994 97.2735 42.0994C96.5164 42.0994 95.8181 41.9402 95.8181 41.0982C95.8181 40.9474 95.8433 40.738 96.0074 40.5704C95.6246 40.3442 95.5068 39.9714 95.5068 39.3431C95.5068 38.2958 95.8644 37.8727 97.2398 37.8643L99.9824 37.856V38.3503C99.7847 38.3754 99.5617 38.3963 99.3682 38.4215C99.4734 38.6267 99.5365 38.9158 99.5365 39.3431C99.5365 40.4699 99.0191 40.8218 98.0474 40.8218H96.8781C96.6804 40.8218 96.5837 40.8469 96.5837 41.0187C96.5837 41.3957 96.6636 41.4753 97.2819 41.4753L97.2735 41.4669ZM98.7836 39.2802C98.7836 38.5388 98.5606 38.4131 97.7909 38.4131H97.2819C96.4701 38.4592 96.2387 38.5304 96.2387 39.3347C96.2387 40.139 96.5164 40.2563 97.5048 40.2563H97.8077C98.548 40.2563 98.7793 39.9588 98.7793 39.2802H98.7836Z" fill="#2B2B2B"/>
<path d="M103.882 42.4052V40.3358L101.72 36.4316H102.691L104.298 39.5566L105.951 36.4316H106.915L104.719 40.3358V42.4052H103.878H103.882Z" fill="#2B2B2B"/>
<path d="M106.851 40.1682C106.851 38.3334 107.146 37.8391 108.87 37.8391C110.595 37.8391 110.906 38.3669 110.906 40.1682C110.906 41.9695 110.628 42.4889 108.87 42.4889C107.112 42.4889 106.851 41.9611 106.851 40.1682ZM110.111 40.1682C110.111 38.656 109.985 38.3753 108.87 38.3753C107.755 38.3753 107.654 38.6895 107.654 40.1682C107.654 41.6469 107.76 41.9318 108.87 41.9318C109.981 41.9318 110.111 41.6343 110.111 40.1682Z" fill="#2B2B2B"/>
<path d="M112.689 37.948V41.45C112.689 41.7181 112.858 41.8605 113.173 41.8605C113.514 41.8605 114.288 41.7809 114.923 41.5296V37.948H115.718V42.426H115.058L114.986 42.1035C114.343 42.3464 113.707 42.4889 113.068 42.4889C112.319 42.4889 111.882 42.1579 111.882 41.4332V37.948H112.694H112.689Z" fill="#2B2B2B"/>
<path d="M119.323 37.8474V38.4758C118.868 38.5135 118.2 38.6475 117.678 38.8444V42.4092H116.875V37.9312H117.56L117.615 38.237C118.149 38.0401 118.687 37.9061 119.318 37.8516L119.323 37.8474Z" fill="#2B2B2B"/>
<path d="M121.813 42.4052V36.4316H123.538C124.795 36.4316 125.914 36.5573 125.914 37.8727V38.2664C125.914 38.945 125.62 39.1629 125.111 39.4142C125.683 39.5566 125.914 40.1222 125.914 40.5955V40.9641C125.914 42.1119 125.182 42.4052 123.538 42.4052H121.813ZM122.625 36.9888V39.1377H123.992C124.669 39.1377 125.098 38.9032 125.098 38.2706V37.9481C125.098 37.0432 124.526 36.9888 123.596 36.9888H122.625ZM122.625 41.8606H123.596C124.623 41.8606 125.098 41.6176 125.098 40.9181V40.5871C125.098 39.9169 124.669 39.72 123.992 39.72H122.625V41.8606Z" fill="#2B2B2B"/>
<path d="M127.79 37.948V41.45C127.79 41.7181 127.958 41.8605 128.274 41.8605C128.614 41.8605 129.388 41.7809 130.024 41.5296V37.948H130.819V42.426H130.158L130.087 42.1035C129.443 42.3464 128.808 42.4889 128.169 42.4889C127.42 42.4889 126.982 42.1579 126.982 41.4332V37.948H127.794H127.79Z" fill="#2B2B2B"/>
<path d="M135.261 41.2405C135.261 42.0657 134.6 42.4302 133.742 42.4302C132.69 42.4302 132.001 42.359 132.001 42.359V41.7683C132.001 41.7683 132.707 41.8395 133.645 41.8395C134.201 41.8395 134.44 41.6887 134.44 41.3033C134.44 40.2896 131.698 40.5954 131.698 39.0371C131.698 38.2119 132.35 37.8474 133.216 37.8474C134.268 37.8474 134.958 37.9186 134.958 37.9186V38.5093C134.958 38.5093 134.209 38.4381 133.271 38.4381C132.745 38.4381 132.522 38.5972 132.522 38.9743C132.522 39.9587 135.265 39.6906 135.265 41.2405H135.261Z" fill="#2B2B2B"/>
<path d="M136.51 36.4065C136.947 36.4065 137.002 36.4526 137.002 36.8003C137.002 37.1144 136.947 37.2024 136.51 37.2024C136.072 37.2024 136.039 37.1228 136.039 36.8003C136.039 36.461 136.072 36.4065 136.51 36.4065ZM136.11 42.4051V37.9355H136.93V42.4051H136.11Z" fill="#2B2B2B"/>
<path d="M141.074 42.4052V38.8948C141.074 38.6351 140.905 38.4927 140.59 38.4927C140.249 38.4927 139.475 38.5723 138.84 38.8236V42.4052H138.037V37.9272H138.697L138.769 38.2497C139.42 38.0068 140.056 37.856 140.687 37.856C141.435 37.856 141.881 38.1953 141.881 38.92V42.4052H141.069H141.074Z" fill="#2B2B2B"/>
<path d="M146.858 40.365H146.715C145.697 40.365 144.679 40.3734 143.661 40.3734C143.678 41.0269 143.694 41.3494 143.901 41.6259C144.115 41.9108 144.729 41.9108 145.141 41.9108C145.419 41.9108 145.97 41.8856 146.534 41.8396V42.3339C145.928 42.4218 145.293 42.4847 144.675 42.4847C143.164 42.4847 142.878 41.9108 142.878 40.1556C142.878 38.4004 143.118 37.8181 144.86 37.8181C146.601 37.8181 146.849 38.3292 146.849 40.1556V40.3608L146.858 40.365ZM143.669 39.8079H146.071C146.037 38.6182 145.903 38.3753 144.864 38.3753C143.703 38.3753 143.711 38.8067 143.669 39.8079Z" fill="#2B2B2B"/>
<path d="M151.043 41.2405C151.043 42.0657 150.382 42.4302 149.524 42.4302C148.473 42.4302 147.783 42.359 147.783 42.359V41.7683C147.783 41.7683 148.489 41.8395 149.427 41.8395C149.983 41.8395 150.222 41.6887 150.222 41.3033C150.222 40.2896 147.48 40.5954 147.48 39.0371C147.48 38.2119 148.132 37.8474 148.998 37.8474C150.05 37.8474 150.74 37.9186 150.74 37.9186V38.5093C150.74 38.5093 149.991 38.4381 149.053 38.4381C148.527 38.4381 148.304 38.5972 148.304 38.9743C148.304 39.9587 151.047 39.6906 151.047 41.2405H151.043Z" fill="#2B2B2B"/>
<path d="M155.194 41.2405C155.194 42.0657 154.534 42.4302 153.676 42.4302C152.624 42.4302 151.934 42.359 151.934 42.359V41.7683C151.934 41.7683 152.641 41.8395 153.579 41.8395C154.134 41.8395 154.374 41.6887 154.374 41.3033C154.374 40.2896 151.631 40.5954 151.631 39.0371C151.631 38.2119 152.283 37.8474 153.15 37.8474C154.201 37.8474 154.891 37.9186 154.891 37.9186V38.5093C154.891 38.5093 154.143 38.4381 153.205 38.4381C152.679 38.4381 152.456 38.5972 152.456 38.9743C152.456 39.9587 155.198 39.6906 155.198 41.2405H155.194Z" fill="#2B2B2B"/>
<path d="M157.996 42.4048V36.4397H160.397C161.584 36.4397 162.53 36.7371 162.53 37.8723V38.597C162.53 39.305 161.958 39.9208 161.1 40.0213C160.789 40.059 160.751 40.059 158.816 40.059V42.4048H157.996ZM158.816 39.4683H160.36C161.066 39.4683 161.743 39.3678 161.743 38.6012V37.8849C161.743 37.1141 161.045 37.0094 160.36 37.0094H158.816V39.4725V39.4683Z" fill="#2B2B2B"/>
<path d="M167.216 40.365H167.073C166.055 40.365 165.037 40.3734 164.019 40.3734C164.036 41.0269 164.053 41.3494 164.259 41.6259C164.473 41.9108 165.088 41.9108 165.5 41.9108C165.777 41.9108 166.328 41.8856 166.892 41.8396V42.3339C166.286 42.4218 165.651 42.4847 165.033 42.4847C163.523 42.4847 163.237 41.9108 163.237 40.1556C163.237 38.4004 163.477 37.8181 165.218 37.8181C166.959 37.8181 167.208 38.3292 167.208 40.1556V40.3608L167.216 40.365ZM164.028 39.8079H166.429C166.396 38.6182 166.261 38.3753 165.222 38.3753C164.061 38.3753 164.07 38.8067 164.028 39.8079Z" fill="#2B2B2B"/>
<path d="M171.654 42.405H170.968L170.888 42.0363C170.371 42.2625 169.681 42.4929 169.163 42.4929C168.183 42.4929 167.851 41.8394 167.851 41.0435C167.851 40.0507 168.621 39.8874 169.647 39.8622H170.854V39.0202C170.854 38.484 170.535 38.4296 169.942 38.4296C169.349 38.4296 168.583 38.5259 168.28 38.5636C168.272 38.5385 168.162 38.0274 168.162 37.9897C168.84 37.8808 169.475 37.8306 170.08 37.8306C171.153 37.8306 171.654 38.0358 171.654 39.0496V42.4091V42.405ZM170.85 40.39C169.117 40.39 168.638 40.4152 168.638 41.0812C168.638 41.5295 168.755 41.8688 169.273 41.8688C169.719 41.8688 170.48 41.563 170.854 41.4499V40.3942L170.85 40.39Z" fill="#2B2B2B"/>
<path d="M172.768 42.4051V36.2263H173.563V39.5231H174.421L175.797 37.2568H176.655L175.128 39.8079L176.903 42.4051H176.011L174.43 40.1221H173.563V42.4051H172.768Z" fill="#2B2B2B"/>
<path d="M180.756 41.2405C180.756 42.0657 180.096 42.4302 179.238 42.4302C178.186 42.4302 177.496 42.359 177.496 42.359V41.7683C177.496 41.7683 178.203 41.8395 179.141 41.8395C179.696 41.8395 179.936 41.6887 179.936 41.3033C179.936 40.2896 177.193 40.5954 177.193 39.0371C177.193 38.2119 177.845 37.8474 178.712 37.8474C179.763 37.8474 180.453 37.9186 180.453 37.9186V38.5093C180.453 38.5093 179.705 38.4381 178.767 38.4381C178.241 38.4381 178.018 38.5972 178.018 38.9743C178.018 39.9587 180.76 39.6906 180.76 41.2405H180.756Z" fill="#2B2B2B"/>
</svg>
