<svg width="259" height="207" viewBox="0 0 259 207" fill="none" xmlns="http://www.w3.org/2000/svg">
<path d="M190.829 0.017782L133.84 0C132.389 0 131.899 1.91156 133.155 2.63173C133.422 2.78288 138.274 6.80161 138.274 6.80161C138.274 6.80161 143.723 12.2696 145.361 16.2794C146.545 19.1779 146.536 21.7296 146.518 23.0899C146.456 28.7979 146.536 52.5546 146.518 85.1579C146.518 86.5804 146.376 88.7054 145.628 91.1415C145.147 92.6797 143.366 98.4143 138.274 101.597C135.14 103.553 133.537 104.878 131.748 105.696C130.395 106.318 130.813 108.372 132.3 108.372C132.318 108.372 132.336 108.372 132.362 108.372H168.286C172.008 108.372 173.868 106.834 173.868 103.758V24.5036C173.868 23.73 174.501 23.0988 175.275 23.0988H190.838C194.55 23.0988 196.411 21.5606 196.411 18.4844C196.313 16.8395 196.206 14.2967 196.295 11.1849C196.447 5.7258 197.034 3.36079 195.485 1.64483C194.862 0.960227 193.607 0.0444549 190.838 0.017782H190.829Z" fill="#5370EA"/>
<path d="M143.527 85.1579C143.527 91.4972 140.776 96.9741 135.274 101.588C129.772 106.114 123.317 108.381 115.927 108.381H90.224C82.7365 108.381 76.1927 106.123 70.6016 101.588C65.1885 96.9741 62.4819 91.4972 62.4819 85.1579V23.0988C62.4819 16.7596 65.1885 11.3272 70.6016 6.80165C76.1838 2.28502 82.7276 0.0178223 90.2151 0.0178223H115.918C123.317 0.0178223 129.763 2.28502 135.265 6.81054C140.767 11.2471 143.518 16.6795 143.518 23.1077V85.1668L143.527 85.1579ZM115.918 80.5435V27.7133C115.918 24.637 114.066 23.0988 110.372 23.0988H95.7617C92.058 23.0988 90.2151 24.637 90.2151 27.7133V80.5435C90.2151 83.6198 92.0669 85.1579 95.7617 85.1579H110.372C114.066 85.1579 115.918 83.6198 115.918 80.5435Z" fill="#A94D90"/>
<path d="M0 141.402C0 122.731 2.27919 118.384 18.2246 118.384C34.1701 118.384 36.7876 122.936 36.7876 141.402C36.7876 159.869 34.5084 164.288 18.2246 164.288C1.94087 164.288 0 159.54 0 141.402ZM29.4158 141.402C29.4158 126.012 28.5433 123.131 18.2246 123.131C7.90595 123.131 7.37176 126.341 7.37176 141.402C7.37176 156.464 7.90595 159.54 18.2246 159.54C28.5433 159.54 29.4158 156.864 29.4158 141.402Z" fill="#5370EA"/>
<path d="M64.5296 129.622V134.779C61.0485 135.045 56.223 136.183 52.4659 137.588V163.692H45.1565V130.226H51.5222L51.9228 132.565C55.5375 131.16 59.2946 130.022 64.5207 129.622H64.5296Z" fill="#5370EA"/>
<path d="M96.9012 163.692H90.7403C90.5355 162.821 90.3397 161.949 90.0726 161.078C86.4579 162.687 81.766 164.359 78.0089 164.359C70.1653 164.359 67.5566 159.407 67.5566 153.387C67.5566 145.821 73.5217 144.55 81.4277 144.416H89.7343V138.593C89.7343 134.85 87.5886 134.512 83.6356 134.512C79.1485 134.512 73.6464 135.179 70.9665 135.517C70.833 135.312 69.8982 131.098 69.8982 130.769C75.1955 129.969 80.0833 129.497 84.7752 129.497C93.0195 129.497 96.9012 131.107 96.9012 138.735V163.701V163.692ZM89.7254 148.897C78.0623 148.897 74.5812 149.102 74.5812 153.716C74.5812 156.73 75.516 159.069 78.8013 159.069C81.6146 159.069 86.8408 157.131 89.7254 156.188V148.889V148.897Z" fill="#5370EA"/>
<path d="M149.367 163.692V138.059C149.367 136.121 148.299 135.116 146.287 135.116C144.275 135.116 138.986 135.721 134.829 136.788C134.829 145.626 134.9 154.854 134.9 163.692H127.528V137.926C127.528 136.05 126.522 135.045 124.51 135.045C122.168 135.045 116.8 135.846 112.58 137.384V163.683H105.27V130.289H111.235L111.974 132.494C116.399 130.884 120.886 129.684 125.445 129.684C128.392 129.684 130.876 130.689 132.816 132.431C137.437 130.893 142.601 129.684 147.159 129.684C153.463 129.684 156.677 132.494 156.677 137.846V163.674H149.376L149.367 163.692Z" fill="#5370EA"/>
<path d="M172.952 150.907V134.778H164.307V130.226H172.952V121.798H179.923V130.226H188.906V134.778H179.923V153.112C179.923 158.597 181.463 159.869 185.549 159.869C186.627 159.869 188.3 159.869 189.707 159.664C189.707 160.731 189.778 162.678 189.778 163.683C187.499 164.083 185.754 164.288 184.748 164.288C173.619 164.288 172.952 158.997 172.952 150.907Z" fill="#5370EA"/>
<path d="M224.759 148.702H222.88C215.642 148.702 208.537 148.773 201.299 148.773C201.637 159.549 203.979 159.549 211.618 159.549C213.559 159.549 217.85 159.282 222.408 158.944V163.096C217.654 163.763 212.829 164.297 208.137 164.297C196.411 164.297 194.266 160.011 194.266 146.897C194.266 133.783 196.073 129.426 209.481 129.426C222.889 129.426 224.759 133.312 224.759 146.897V148.702ZM201.37 144.016H217.725C217.521 135.721 216.586 134.183 209.481 134.183C201.709 134.183 201.709 137.126 201.37 144.016Z" fill="#5370EA"/>
<path d="M249.483 159.344C252.234 159.344 255.982 159.078 259 158.811V162.963C255.314 163.763 249.483 164.305 245.53 164.305C235.273 164.305 230.715 162.696 230.715 148.648C230.715 133.525 232.255 129.506 245.93 129.506C247.47 129.506 254.575 129.977 258.662 130.511V135.259C249.411 134.654 247.203 134.521 246.464 134.521C238.158 134.521 238.024 137.135 238.024 148.844C238.024 158.953 240.704 159.353 249.483 159.353V159.344Z" fill="#5370EA"/>
<path d="M10.5145 199.505C10.5145 202.092 8.66263 203.23 6.15196 203.23C3.64128 203.23 1.94079 203.106 1.13061 203.061V201.568C1.13061 201.568 3.76593 201.763 5.9828 201.763C7.74561 201.763 8.53799 201.141 8.53799 199.665C8.53799 196.224 0.177979 196.882 0.177979 192.223C0.177979 189.609 2.04763 188.498 4.58501 188.498C7.26484 188.498 8.90301 188.622 9.60636 188.667V190.16C9.60636 190.16 6.94433 189.947 4.75417 189.947C2.94684 189.947 2.15447 190.569 2.15447 192.001C2.15447 195.468 10.5145 194.633 10.5145 199.514V199.505Z" fill="#2B2B2B"/>
<path d="M18.1267 201.799C18.9992 201.799 20.0587 201.71 21.0024 201.63V202.83C19.8984 203.043 18.0911 203.212 16.8535 203.212C13.7018 203.212 12.2773 202.697 12.2773 198.224C12.2773 193.308 12.767 192.081 17.1028 192.081C17.6993 192.081 19.8094 192.232 20.8688 192.383V193.735C17.824 193.539 17.3788 193.521 17.1919 193.521C14.2538 193.521 14.2093 194.401 14.2093 198.296C14.2093 201.701 15.064 201.808 18.1267 201.808V201.799Z" fill="#2B2B2B"/>
<path d="M31.4634 203.017H29.8252L29.6383 202.137C28.4007 202.67 26.7626 203.23 25.5339 203.23C23.1924 203.23 22.4089 201.665 22.4089 199.763C22.4089 197.389 24.243 197.006 26.6824 196.935H29.5581V194.926C29.5581 193.646 28.7925 193.512 27.3858 193.512C25.9791 193.512 24.1539 193.743 23.4328 193.832C23.415 193.77 23.1568 192.552 23.1568 192.463C24.7772 192.205 26.2818 192.081 27.733 192.081C30.2882 192.081 31.4812 192.57 31.4812 194.988V203.008L31.4634 203.017ZM29.5492 198.207C25.4182 198.207 24.2697 198.269 24.2697 199.852C24.2697 200.918 24.5457 201.736 25.7832 201.736C26.8427 201.736 28.6589 201.007 29.5492 200.732V198.207Z" fill="#2B2B2B"/>
<path d="M37.3752 203.141C36.9924 203.186 36.8677 203.186 36.7342 203.186C35.2029 203.186 34.0989 202.626 34.0989 200.19V188.276H36.0309V200.581C36.0309 201.372 36.0309 202.012 37.3663 202.181V203.141H37.3752Z" fill="#2B2B2B"/>
<path d="M40.1439 188.685C41.1855 188.685 41.3102 188.791 41.3102 189.627C41.3102 190.374 41.1855 190.587 40.1439 190.587C39.1022 190.587 39.0132 190.392 39.0132 189.627C39.0132 188.818 39.1022 188.685 40.1439 188.685ZM39.1823 203.017V192.339H41.141V203.017H39.1823Z" fill="#2B2B2B"/>
<path d="M51.0057 203.017V194.633C51.0057 194.01 50.605 193.672 49.8572 193.672C49.047 193.672 47.1952 193.868 45.6905 194.464V203.026H43.7764V192.33H45.3522L45.5214 193.103C47.0705 192.525 48.584 192.161 50.0976 192.161C51.8871 192.161 52.9466 192.97 52.9466 194.704V203.026H51.0146L51.0057 203.017Z" fill="#2B2B2B"/>
<path d="M59.4726 200.768C60.0246 200.768 60.6657 200.723 61.3067 200.723C63.4968 200.723 65.8384 201.025 65.8384 203.506C65.8384 205.987 64.0132 206.991 61.5382 206.991C59.0631 206.991 57.4071 206.867 56.6236 206.822V205.364C56.6236 205.364 59.1966 205.533 61.369 205.533C63.114 205.533 63.8975 205.106 63.8975 203.648C63.8975 202.43 62.8291 202.217 61.4936 202.217C60.8526 202.217 60.1315 202.261 59.4726 202.261C57.6653 202.261 56.0093 201.879 56.0093 199.87C56.0093 199.505 56.0717 199.016 56.4545 198.607C55.5375 198.074 55.2615 197.176 55.2615 195.673C55.2615 193.166 56.1162 192.161 59.3925 192.143L65.9274 192.125V193.299C65.4555 193.361 64.9302 193.406 64.4584 193.468C64.7166 193.957 64.859 194.642 64.859 195.673C64.859 198.367 63.6215 199.203 61.3067 199.203H58.52C58.0481 199.203 57.8167 199.265 57.8167 199.674C57.8167 200.572 58.0036 200.768 59.4726 200.768ZM63.0695 195.549C63.0695 193.77 62.5353 193.477 60.7102 193.477H59.4994C57.5674 193.584 57.0065 193.753 57.0065 195.682C57.0065 197.611 57.6653 197.887 60.0246 197.887H60.7458C62.5086 197.887 63.0606 197.184 63.0606 195.557L63.0695 195.549Z" fill="#2B2B2B"/>
<path d="M75.2134 203.017V198.073L70.0674 188.747H72.3822L76.2105 196.215L80.1457 188.747H82.4427L77.2077 198.073V203.017H75.2045H75.2134Z" fill="#2B2B2B"/>
<path d="M82.3 197.664C82.3 193.281 83.0034 192.099 87.1077 192.099C91.212 192.099 91.9599 193.361 91.9599 197.664C91.9599 201.968 91.3011 203.203 87.1077 203.203C82.9144 203.203 82.3 201.941 82.3 197.664ZM90.0636 197.664C90.0636 194.046 89.7697 193.388 87.1077 193.388C84.4457 193.388 84.2142 194.135 84.2142 197.664C84.2142 201.194 84.4724 201.879 87.1077 201.879C89.743 201.879 90.0636 201.176 90.0636 197.664Z" fill="#2B2B2B"/>
<path d="M96.2067 192.365V200.732C96.2067 201.372 96.6074 201.719 97.3552 201.719C98.1654 201.719 100.017 201.523 101.522 200.928V192.374H103.418V203.07H101.842L101.673 202.297C100.142 202.875 98.6284 203.221 97.0971 203.221C95.3075 203.221 94.2659 202.43 94.2659 200.696V192.374H96.1978L96.2067 192.365Z" fill="#2B2B2B"/>
<path d="M112.01 192.125V193.619C110.924 193.708 109.33 194.028 108.092 194.499V203.017H106.178V192.321H107.816L107.941 193.05C109.214 192.579 110.496 192.259 112.001 192.134L112.01 192.125Z" fill="#2B2B2B"/>
<path d="M117.948 203.017V188.747H122.053C125.053 188.747 127.715 189.049 127.715 192.188V193.13C127.715 194.757 127.012 195.273 125.801 195.869C127.163 196.215 127.715 197.558 127.715 198.696V199.576C127.715 202.314 125.97 203.017 122.053 203.017H117.948ZM119.88 190.072V195.202H123.139C124.759 195.202 125.774 194.642 125.774 193.13V192.357C125.774 190.196 124.412 190.072 122.204 190.072H119.889H119.88ZM119.88 201.71H122.195C124.643 201.71 125.765 201.132 125.765 199.46V198.669C125.765 197.069 124.741 196.598 123.13 196.598H119.871V201.71H119.88Z" fill="#2B2B2B"/>
<path d="M132.202 192.365V200.732C132.202 201.372 132.603 201.719 133.351 201.719C134.161 201.719 136.013 201.523 137.517 200.928V192.374H139.414V203.07H137.838L137.669 202.297C136.137 202.875 134.624 203.221 133.092 203.221C131.303 203.221 130.261 202.43 130.261 200.696V192.374H132.193L132.202 192.365Z" fill="#2B2B2B"/>
<path d="M149.999 200.234C149.999 202.199 148.423 203.079 146.385 203.079C143.874 203.079 142.236 202.91 142.236 202.91V201.497C142.236 201.497 143.918 201.666 146.153 201.666C147.471 201.666 148.05 201.301 148.05 200.385C148.05 197.967 141.515 198.696 141.515 194.971C141.515 193.006 143.064 192.125 145.129 192.125C147.64 192.125 149.278 192.294 149.278 192.294V193.708C149.278 193.708 147.489 193.539 145.254 193.539C143.999 193.539 143.464 193.921 143.464 194.819C143.464 197.176 149.999 196.535 149.999 200.234Z" fill="#2B2B2B"/>
<path d="M152.982 188.685C154.023 188.685 154.148 188.791 154.148 189.627C154.148 190.374 154.023 190.587 152.982 190.587C151.94 190.587 151.851 190.392 151.851 189.627C151.851 188.818 151.94 188.685 152.982 188.685ZM152.02 203.017V192.339H153.979V203.017H152.02Z" fill="#2B2B2B"/>
<path d="M163.853 203.017V194.633C163.853 194.01 163.452 193.672 162.704 193.672C161.894 193.672 160.042 193.868 158.537 194.464V203.026H156.623V192.33H158.199L158.368 193.103C159.917 192.525 161.431 192.161 162.944 192.161C164.734 192.161 165.793 192.97 165.793 194.704V203.026H163.862L163.853 203.017Z" fill="#2B2B2B"/>
<path d="M177.634 198.136H177.296C174.874 198.136 172.444 198.153 170.022 198.153C170.067 199.718 170.102 200.483 170.592 201.15C171.1 201.834 172.569 201.834 173.548 201.834C174.207 201.834 175.524 201.772 176.869 201.665V202.839C175.426 203.052 173.913 203.204 172.444 203.204C168.847 203.204 168.17 201.834 168.17 197.638C168.17 193.441 168.74 192.054 172.889 192.054C177.038 192.054 177.634 193.272 177.634 197.638V198.127V198.136ZM170.04 196.811H175.765C175.676 193.966 175.364 193.388 172.889 193.388C170.12 193.388 170.147 194.419 170.04 196.811Z" fill="#2B2B2B"/>
<path d="M187.606 200.234C187.606 202.199 186.03 203.079 183.991 203.079C181.481 203.079 179.842 202.91 179.842 202.91V201.497C179.842 201.497 181.525 201.666 183.76 201.666C185.078 201.666 185.656 201.301 185.656 200.385C185.656 197.967 179.121 198.696 179.121 194.971C179.121 193.006 180.67 192.125 182.736 192.125C185.247 192.125 186.885 192.294 186.885 192.294V193.708C186.885 193.708 185.095 193.539 182.861 193.539C181.605 193.539 181.071 193.921 181.071 194.819C181.071 197.176 187.606 196.535 187.606 200.234Z" fill="#2B2B2B"/>
<path d="M197.497 200.234C197.497 202.199 195.921 203.079 193.883 203.079C191.372 203.079 189.734 202.91 189.734 202.91V201.497C189.734 201.497 191.417 201.666 193.651 201.666C194.969 201.666 195.548 201.301 195.548 200.385C195.548 197.967 189.013 198.696 189.013 194.971C189.013 193.006 190.562 192.125 192.627 192.125C195.138 192.125 196.776 192.294 196.776 192.294V193.708C196.776 193.708 194.987 193.539 192.752 193.539C191.497 193.539 190.962 193.921 190.962 194.819C190.962 197.176 197.497 196.535 197.497 200.234Z" fill="#2B2B2B"/>
<path d="M204.175 203.017V188.765H209.899C212.73 188.765 214.983 189.467 214.983 192.188V193.921C214.983 195.611 213.621 197.087 211.582 197.327C210.834 197.416 210.754 197.416 206.133 197.416V203.017H204.175ZM206.133 196.002H209.81C211.493 196.002 213.104 195.771 213.104 193.93V192.223C213.104 190.383 211.448 190.125 209.81 190.125H206.133V196.011V196.002Z" fill="#2B2B2B"/>
<path d="M226.148 198.136H225.809C223.388 198.136 220.957 198.153 218.535 198.153C218.58 199.718 218.616 200.483 219.105 201.15C219.613 201.834 221.082 201.834 222.061 201.834C222.72 201.834 224.038 201.772 225.382 201.665V202.839C223.94 203.052 222.426 203.204 220.957 203.204C217.36 203.204 216.684 201.834 216.684 197.638C216.684 193.441 217.253 192.054 221.402 192.054C225.551 192.054 226.148 193.272 226.148 197.638V198.127V198.136ZM218.553 196.811H224.278C224.189 193.966 223.877 193.388 221.402 193.388C218.633 193.388 218.66 194.419 218.553 196.811Z" fill="#2B2B2B"/>
<path d="M236.724 203.017H235.086L234.899 202.137C233.662 202.67 232.024 203.23 230.795 203.23C228.453 203.23 227.67 201.665 227.67 199.763C227.67 197.389 229.504 197.006 231.943 196.935H234.819V194.926C234.819 193.646 234.053 193.512 232.647 193.512C231.24 193.512 229.415 193.743 228.694 193.832C228.676 193.77 228.418 192.552 228.418 192.463C230.038 192.205 231.543 192.081 232.994 192.081C235.549 192.081 236.742 192.57 236.742 194.988V203.008L236.724 203.017ZM234.81 198.207C230.679 198.207 229.531 198.269 229.531 199.852C229.531 200.918 229.807 201.736 231.044 201.736C232.104 201.736 233.92 201.007 234.81 200.732V198.207Z" fill="#2B2B2B"/>
<path d="M239.377 203.017V188.258H241.274V196.126H243.313L246.589 190.712H248.628L244.986 196.811L249.215 203.017H247.088L243.321 197.558H241.256V203.017H239.36H239.377Z" fill="#2B2B2B"/>
<path d="M258.412 200.234C258.412 202.199 256.837 203.079 254.798 203.079C252.287 203.079 250.649 202.91 250.649 202.91V201.497C250.649 201.497 252.332 201.666 254.566 201.666C255.884 201.666 256.463 201.301 256.463 200.385C256.463 197.967 249.928 198.696 249.928 194.971C249.928 193.006 251.477 192.125 253.542 192.125C256.053 192.125 257.691 192.294 257.691 192.294V193.708C257.691 193.708 255.902 193.539 253.667 193.539C252.412 193.539 251.878 193.921 251.878 194.819C251.878 197.176 258.412 196.535 258.412 200.234Z" fill="#2B2B2B"/>
</svg>
