<svg width="104" height="15" viewBox="0 0 104 15" fill="none" xmlns="http://www.w3.org/2000/svg">
<path d="M102.711 4.31038C81.5722 3.27319 60.6156 1.33924 39.4385 0.90885C27.2656 0.661454 -9.13757 -0.0627453 2.91184 1.33404C22.7172 3.6299 43.1863 3.55613 63.1273 5.10004C70.8536 5.69823 78.5178 6.50006 86.2049 7.34749C89.1631 7.6736 91.4734 8.22468 86.7398 8.01564C65.6127 7.08267 44.5952 5.00932 23.4676 4.00668C21.213 3.89969 14.5331 3.84754 16.7049 4.34076C24.6652 6.14864 33.2052 6.86089 41.3489 7.86379C51.1554 9.07148 61.1206 9.82572 70.8453 11.4172C74.3386 11.9889 79.0172 12.1672 82.2695 13.3306C88.0247 15.3892 69.6666 14.1231 63.3566 14.0291C52.8552 13.8727 42.3658 13.3908 31.8734 13.0572" stroke="#5370EA" stroke-linecap="round"/>
</svg>
