<svg width="181" height="26" viewBox="0 0 181 26" fill="none" xmlns="http://www.w3.org/2000/svg">
<path opacity="0.5" d="M172.2 21.1286C177.284 20.9689 178.658 16.9544 176.222 14.8885C176.255 14.7288 176.272 14.5691 176.287 14.4094C182.664 13.8024 182.631 6.89138 175.814 7.0192C175.093 7.02988 174.375 7.02988 173.639 7.05118C178.086 5.49649 177.318 -0.115328 171.284 0.00180681C118.343 1.00278 65.417 2.00375 12.4753 3.00473C5.93516 3.13251 5.68988 9.03181 11.1181 10.2458C9.13979 10.2458 7.17774 10.2458 5.19939 10.2351C-1.76579 10.2032 -1.70039 17.4549 5.19939 17.6785C12.6387 17.9234 20.0617 18.147 27.501 18.3281C25.1466 18.4026 22.7922 18.4772 20.4214 18.5517C13.5216 18.7753 13.4726 26.2186 20.4214 25.9951C71.0249 24.3765 121.612 22.7473 172.216 21.1286H172.2Z" fill="#D7B2CD"/>
</svg>
