<svg width="36" height="48" viewBox="0 0 36 48" fill="none" xmlns="http://www.w3.org/2000/svg">
<rect width="35.3" height="48" rx="16" fill="#FFEDD5"/>
<path d="M5.6499 30V28.425C5.6499 27.7083 6.01657 27.125 6.7499 26.675C7.48324 26.225 8.4499 26 9.6499 26C9.86657 26 10.0749 26.0042 10.2749 26.0125C10.4749 26.0208 10.6666 26.0417 10.8499 26.075C10.6166 26.425 10.4416 26.7917 10.3249 27.175C10.2082 27.5583 10.1499 27.9583 10.1499 28.375V30H5.6499ZM11.6499 30V28.375C11.6499 27.8417 11.7957 27.3542 12.0874 26.9125C12.3791 26.4708 12.7916 26.0833 13.3249 25.75C13.8582 25.4167 14.4957 25.1667 15.2374 25C15.9791 24.8333 16.7832 24.75 17.6499 24.75C18.5332 24.75 19.3457 24.8333 20.0874 25C20.8291 25.1667 21.4666 25.4167 21.9999 25.75C22.5332 26.0833 22.9416 26.4708 23.2249 26.9125C23.5082 27.3542 23.6499 27.8417 23.6499 28.375V30H11.6499ZM25.1499 30V28.375C25.1499 27.9417 25.0957 27.5333 24.9874 27.15C24.8791 26.7667 24.7166 26.4083 24.4999 26.075C24.6832 26.0417 24.8707 26.0208 25.0624 26.0125C25.2541 26.0042 25.4499 26 25.6499 26C26.8499 26 27.8166 26.2208 28.5499 26.6625C29.2832 27.1042 29.6499 27.6917 29.6499 28.425V30H25.1499ZM13.7749 28H21.5499C21.3832 27.6667 20.9207 27.375 20.1624 27.125C19.4041 26.875 18.5666 26.75 17.6499 26.75C16.7332 26.75 15.8957 26.875 15.1374 27.125C14.3791 27.375 13.9249 27.6667 13.7749 28ZM9.6499 25C9.0999 25 8.62907 24.8042 8.2374 24.4125C7.84574 24.0208 7.6499 23.55 7.6499 23C7.6499 22.4333 7.84574 21.9583 8.2374 21.575C8.62907 21.1917 9.0999 21 9.6499 21C10.2166 21 10.6916 21.1917 11.0749 21.575C11.4582 21.9583 11.6499 22.4333 11.6499 23C11.6499 23.55 11.4582 24.0208 11.0749 24.4125C10.6916 24.8042 10.2166 25 9.6499 25ZM25.6499 25C25.0999 25 24.6291 24.8042 24.2374 24.4125C23.8457 24.0208 23.6499 23.55 23.6499 23C23.6499 22.4333 23.8457 21.9583 24.2374 21.575C24.6291 21.1917 25.0999 21 25.6499 21C26.2166 21 26.6916 21.1917 27.0749 21.575C27.4582 21.9583 27.6499 22.4333 27.6499 23C27.6499 23.55 27.4582 24.0208 27.0749 24.4125C26.6916 24.8042 26.2166 25 25.6499 25ZM17.6499 24C16.8166 24 16.1082 23.7083 15.5249 23.125C14.9416 22.5417 14.6499 21.8333 14.6499 21C14.6499 20.15 14.9416 19.4375 15.5249 18.8625C16.1082 18.2875 16.8166 18 17.6499 18C18.4999 18 19.2124 18.2875 19.7874 18.8625C20.3624 19.4375 20.6499 20.15 20.6499 21C20.6499 21.8333 20.3624 22.5417 19.7874 23.125C19.2124 23.7083 18.4999 24 17.6499 24ZM17.6499 22C17.9332 22 18.1707 21.9042 18.3624 21.7125C18.5541 21.5208 18.6499 21.2833 18.6499 21C18.6499 20.7167 18.5541 20.4792 18.3624 20.2875C18.1707 20.0958 17.9332 20 17.6499 20C17.3666 20 17.1291 20.0958 16.9374 20.2875C16.7457 20.4792 16.6499 20.7167 16.6499 21C16.6499 21.2833 16.7457 21.5208 16.9374 21.7125C17.1291 21.9042 17.3666 22 17.6499 22Z" fill="#EA580C"/>
</svg>
