<svg width="36" height="48" viewBox="0 0 36 48" fill="none" xmlns="http://www.w3.org/2000/svg">
<rect width="35.3" height="48" rx="16" fill="#FFE4E6"/>
<path d="M12.6499 20C12.0999 20 11.6291 19.8042 11.2374 19.4125C10.8457 19.0208 10.6499 18.55 10.6499 18V16C10.6499 15.45 10.8457 14.9792 11.2374 14.5875C11.6291 14.1958 12.0999 14 12.6499 14H22.6499C23.1999 14 23.6707 14.1958 24.0624 14.5875C24.4541 14.9792 24.6499 15.45 24.6499 16V18C24.6499 18.55 24.4541 19.0208 24.0624 19.4125C23.6707 19.8042 23.1999 20 22.6499 20H12.6499ZM12.6499 18H22.6499V16H12.6499V18ZM9.6499 34C9.0999 34 8.62907 33.8042 8.2374 33.4125C7.84574 33.0208 7.6499 32.55 7.6499 32V31H27.6499V32C27.6499 32.55 27.4541 33.0208 27.0624 33.4125C26.6707 33.8042 26.1999 34 25.6499 34H9.6499ZM7.6499 30L11.1249 22.175C11.2916 21.8083 11.5416 21.5208 11.8749 21.3125C12.2082 21.1042 12.5666 21 12.9499 21H22.3499C22.7332 21 23.0916 21.1042 23.4249 21.3125C23.7582 21.5208 24.0082 21.8083 24.1749 22.175L27.6499 30H7.6499ZM14.1499 28H15.1499C15.2832 28 15.3999 27.95 15.4999 27.85C15.5999 27.75 15.6499 27.6333 15.6499 27.5C15.6499 27.3667 15.5999 27.25 15.4999 27.15C15.3999 27.05 15.2832 27 15.1499 27H14.1499C14.0166 27 13.8999 27.05 13.7999 27.15C13.6999 27.25 13.6499 27.3667 13.6499 27.5C13.6499 27.6333 13.6999 27.75 13.7999 27.85C13.8999 27.95 14.0166 28 14.1499 28ZM14.1499 26H15.1499C15.2832 26 15.3999 25.95 15.4999 25.85C15.5999 25.75 15.6499 25.6333 15.6499 25.5C15.6499 25.3667 15.5999 25.25 15.4999 25.15C15.3999 25.05 15.2832 25 15.1499 25H14.1499C14.0166 25 13.8999 25.05 13.7999 25.15C13.6999 25.25 13.6499 25.3667 13.6499 25.5C13.6499 25.6333 13.6999 25.75 13.7999 25.85C13.8999 25.95 14.0166 26 14.1499 26ZM14.1499 24H15.1499C15.2832 24 15.3999 23.95 15.4999 23.85C15.5999 23.75 15.6499 23.6333 15.6499 23.5C15.6499 23.3667 15.5999 23.25 15.4999 23.15C15.3999 23.05 15.2832 23 15.1499 23H14.1499C14.0166 23 13.8999 23.05 13.7999 23.15C13.6999 23.25 13.6499 23.3667 13.6499 23.5C13.6499 23.6333 13.6999 23.75 13.7999 23.85C13.8999 23.95 14.0166 24 14.1499 24ZM17.1499 28H18.1499C18.2832 28 18.3999 27.95 18.4999 27.85C18.5999 27.75 18.6499 27.6333 18.6499 27.5C18.6499 27.3667 18.5999 27.25 18.4999 27.15C18.3999 27.05 18.2832 27 18.1499 27H17.1499C17.0166 27 16.8999 27.05 16.7999 27.15C16.6999 27.25 16.6499 27.3667 16.6499 27.5C16.6499 27.6333 16.6999 27.75 16.7999 27.85C16.8999 27.95 17.0166 28 17.1499 28ZM17.1499 26H18.1499C18.2832 26 18.3999 25.95 18.4999 25.85C18.5999 25.75 18.6499 25.6333 18.6499 25.5C18.6499 25.3667 18.5999 25.25 18.4999 25.15C18.3999 25.05 18.2832 25 18.1499 25H17.1499C17.0166 25 16.8999 25.05 16.7999 25.15C16.6999 25.25 16.6499 25.3667 16.6499 25.5C16.6499 25.6333 16.6999 25.75 16.7999 25.85C16.8999 25.95 17.0166 26 17.1499 26ZM17.1499 24H18.1499C18.2832 24 18.3999 23.95 18.4999 23.85C18.5999 23.75 18.6499 23.6333 18.6499 23.5C18.6499 23.3667 18.5999 23.25 18.4999 23.15C18.3999 23.05 18.2832 23 18.1499 23H17.1499C17.0166 23 16.8999 23.05 16.7999 23.15C16.6999 23.25 16.6499 23.3667 16.6499 23.5C16.6499 23.6333 16.6999 23.75 16.7999 23.85C16.8999 23.95 17.0166 24 17.1499 24ZM20.1499 28H21.1499C21.2832 28 21.3999 27.95 21.4999 27.85C21.5999 27.75 21.6499 27.6333 21.6499 27.5C21.6499 27.3667 21.5999 27.25 21.4999 27.15C21.3999 27.05 21.2832 27 21.1499 27H20.1499C20.0166 27 19.8999 27.05 19.7999 27.15C19.6999 27.25 19.6499 27.3667 19.6499 27.5C19.6499 27.6333 19.6999 27.75 19.7999 27.85C19.8999 27.95 20.0166 28 20.1499 28ZM20.1499 26H21.1499C21.2832 26 21.3999 25.95 21.4999 25.85C21.5999 25.75 21.6499 25.6333 21.6499 25.5C21.6499 25.3667 21.5999 25.25 21.4999 25.15C21.3999 25.05 21.2832 25 21.1499 25H20.1499C20.0166 25 19.8999 25.05 19.7999 25.15C19.6999 25.25 19.6499 25.3667 19.6499 25.5C19.6499 25.6333 19.6999 25.75 19.7999 25.85C19.8999 25.95 20.0166 26 20.1499 26ZM20.1499 24H21.1499C21.2832 24 21.3999 23.95 21.4999 23.85C21.5999 23.75 21.6499 23.6333 21.6499 23.5C21.6499 23.3667 21.5999 23.25 21.4999 23.15C21.3999 23.05 21.2832 23 21.1499 23H20.1499C20.0166 23 19.8999 23.05 19.7999 23.15C19.6999 23.25 19.6499 23.3667 19.6499 23.5C19.6499 23.6333 19.6999 23.75 19.7999 23.85C19.8999 23.95 20.0166 24 20.1499 24Z" fill="#E11D48"/>
</svg>
