<svg width="38" height="48" viewBox="0 0 38 48" fill="none" xmlns="http://www.w3.org/2000/svg">
<rect width="37.97" height="48" rx="16" fill="#7F13EC" fill-opacity="0.1"/>
<path d="M20.9851 25C20.1518 25 19.4434 24.7083 18.8601 24.125C18.2768 23.5417 17.9851 22.8333 17.9851 22C17.9851 21.1667 18.2768 20.4583 18.8601 19.875C19.4434 19.2917 20.1518 19 20.9851 19C21.8184 19 22.5268 19.2917 23.1101 19.875C23.6934 20.4583 23.9851 21.1667 23.9851 22C23.9851 22.8333 23.6934 23.5417 23.1101 24.125C22.5268 24.7083 21.8184 25 20.9851 25ZM13.9851 28C13.4351 28 12.9643 27.8042 12.5726 27.4125C12.1809 27.0208 11.9851 26.55 11.9851 26V18C11.9851 17.45 12.1809 16.9792 12.5726 16.5875C12.9643 16.1958 13.4351 16 13.9851 16H27.9851C28.5351 16 29.0059 16.1958 29.3976 16.5875C29.7893 16.9792 29.9851 17.45 29.9851 18V26C29.9851 26.55 29.7893 27.0208 29.3976 27.4125C29.0059 27.8042 28.5351 28 27.9851 28H13.9851ZM15.9851 26H25.9851C25.9851 25.45 26.1809 24.9792 26.5726 24.5875C26.9643 24.1958 27.4351 24 27.9851 24V20C27.4351 20 26.9643 19.8042 26.5726 19.4125C26.1809 19.0208 25.9851 18.55 25.9851 18H15.9851C15.9851 18.55 15.7893 19.0208 15.3976 19.4125C15.0059 19.8042 14.5351 20 13.9851 20V24C14.5351 24 15.0059 24.1958 15.3976 24.5875C15.7893 24.9792 15.9851 25.45 15.9851 26ZM26.9851 32H9.98511C9.43511 32 8.96427 31.8042 8.57261 31.4125C8.18094 31.0208 7.98511 30.55 7.98511 30V19H9.98511V30H26.9851V32ZM13.9851 26V18V26Z" fill="#7F13EC"/>
</svg>
