<svg width="562" height="659" viewBox="0 0 562 659" fill="none" xmlns="http://www.w3.org/2000/svg">
<rect opacity="0.2" x="83" y="17" width="434" height="578" rx="217" stroke="#A94D90" stroke-opacity="0.3" stroke-width="2" stroke-dasharray="6 4"/>
<rect x="159" y="19" width="282" height="574" rx="45" fill="#393D46"/>
<rect x="159" y="19" width="282" height="574" rx="45" stroke="#393D46" stroke-width="6"/>
<g filter="url(#filter0_d_20393_2092)">
<rect x="156" y="16" width="288" height="580" rx="48" fill="white" fill-opacity="0.01" shape-rendering="crispEdges"/>
</g>
<rect x="174" y="34" width="252" height="544" rx="35.2" fill="white"/>
<path d="M190 77V75H192V68C192 66.6167 192.417 65.3875 193.25 64.3125C194.083 63.2375 195.167 62.5333 196.5 62.2V61.5C196.5 61.0833 196.646 60.7292 196.938 60.4375C197.229 60.1458 197.583 60 198 60C198.417 60 198.771 60.1458 199.062 60.4375C199.354 60.7292 199.5 61.0833 199.5 61.5V62.2C200.833 62.5333 201.917 63.2375 202.75 64.3125C203.583 65.3875 204 66.6167 204 68V75H206V77H190ZM198 80C197.45 80 196.979 79.8042 196.588 79.4125C196.196 79.0208 196 78.55 196 78H200C200 78.55 199.804 79.0208 199.413 79.4125C199.021 79.8042 198.55 80 198 80ZM194 75H202V68C202 66.9 201.608 65.9583 200.825 65.175C200.042 64.3917 199.1 64 198 64C196.9 64 195.958 64.3917 195.175 65.175C194.392 65.9583 194 66.9 194 68V75Z" fill="#94A3B8"/>
<rect x="370" y="50" width="40" height="40" rx="20" fill="#F1F5F9"/>
<rect x="190" y="114" width="220" height="128" rx="16" fill="#A94D90" fill-opacity="0.1"/>
<rect x="268.67" y="150" width="125.33" height="16" rx="8" fill="#A94D90" fill-opacity="0.2"/>
<rect x="206" y="174" width="188" height="32" rx="16" fill="#A94D90" fill-opacity="0.3"/>
<rect x="190" y="258" width="104" height="96" rx="16" fill="#F8FAFC"/>
<path d="M209 279.333V275.25H211.333V279.333H209ZM205.5 279.333V270H207.833V279.333H205.5ZM202 279.333V272.917H204.333V279.333H202Z" fill="#A94D90"/>
<rect x="202" y="334" width="80" height="8" rx="4" fill="#E2E8F0"/>
<rect x="306" y="258" width="104" height="96" rx="16" fill="#F8FAFC"/>
<path d="M323.833 273.5V270H328.5V273.5H323.833ZM318 275.833V270H322.667V275.833H318ZM323.833 280.5V274.667H328.5V280.5H323.833ZM318 280.5V277H322.667V280.5H318ZM319.167 274.667H321.5V271.167H319.167V274.667ZM325 279.333H327.333V275.833H325V279.333ZM325 272.333H327.333V271.167H325V272.333ZM319.167 279.333H321.5V278.167H319.167V279.333Z" fill="#5370EA"/>
<rect x="318" y="334" width="80" height="8" rx="4" fill="#E2E8F0"/>
<rect x="190" y="370" width="220" height="120" rx="16" fill="#F8FAFC"/>
<rect x="206" y="386" width="188" height="16" rx="8" fill="#E2E8F0"/>
<rect x="243.61" y="414" width="150.39" height="16" rx="8" fill="#E2E8F0"/>
<rect x="253" y="442" width="141" height="16" rx="8" fill="#E2E8F0"/>
<rect x="190" y="506" width="220" height="56" rx="24" fill="#A94D90"/>
<path d="M236 22H364V30C364 38.8366 356.837 46 348 46H252C243.163 46 236 38.8366 236 30V22Z" fill="#393D46"/>
<rect x="279.94" width="242.06" height="101" rx="16" fill="white"/>
<rect x="280.44" y="0.5" width="241.06" height="100" rx="15.5" stroke="#A94D90" stroke-opacity="0.2"/>
<g filter="url(#filter1_dd_20393_2092)">
<rect x="279.94" width="242.06" height="101" rx="16" fill="white" fill-opacity="0.01" shape-rendering="crispEdges"/>
</g>
<path d="M359.249 15.67H360.069L361.529 20.92L363.069 15.67H363.869L361.879 22H361.199C360.739 20.52 360.226 18.7633 359.659 16.73C359.093 18.7567 358.583 20.5133 358.129 22H357.459L355.449 15.67H356.249L357.799 20.92L359.249 15.67ZM365.51 17.46V22H364.85V17.46H365.51ZM364.75 15.98C364.75 15.8667 364.793 15.7667 364.88 15.68C364.967 15.5933 365.07 15.55 365.19 15.55C365.31 15.55 365.413 15.5933 365.5 15.68C365.587 15.7667 365.63 15.8667 365.63 15.98C365.63 16.1067 365.587 16.2133 365.5 16.3C365.413 16.38 365.31 16.42 365.19 16.42C365.063 16.42 364.957 16.38 364.87 16.3C364.79 16.2133 364.75 16.1067 364.75 15.98ZM370.394 22L370.284 21.52C369.964 21.92 369.501 22.12 368.894 22.12C368.234 22.12 367.711 21.8733 367.324 21.38C366.991 20.9533 366.824 20.4233 366.824 19.79C366.824 18.99 367.058 18.3633 367.524 17.91C367.911 17.53 368.388 17.34 368.954 17.34C369.488 17.34 369.914 17.5167 370.234 17.87V15.93L370.894 15.56V22H370.394ZM370.234 20.79V18.62C370.148 18.4133 369.991 18.24 369.764 18.1C369.538 17.9533 369.298 17.88 369.044 17.88C368.604 17.88 368.244 18.0533 367.964 18.4C367.684 18.74 367.544 19.18 367.544 19.72C367.544 20.3333 367.698 20.81 368.004 21.15C368.271 21.43 368.604 21.57 369.004 21.57C369.271 21.57 369.514 21.5 369.734 21.36C369.961 21.2133 370.128 21.0233 370.234 20.79ZM375.656 17.92L375.756 17.46H376.276V21.63C376.276 23.15 375.613 23.91 374.286 23.91C373.66 23.91 373.106 23.7 372.626 23.28L372.856 22.91C373.27 23.1967 373.71 23.34 374.176 23.34C374.67 23.34 375.033 23.2033 375.266 22.93C375.5 22.6567 375.616 22.2233 375.616 21.63V21.54C375.29 21.9267 374.843 22.12 374.276 22.12C373.616 22.12 373.093 21.8733 372.706 21.38C372.373 20.9533 372.206 20.4233 372.206 19.79C372.206 18.99 372.44 18.3633 372.906 17.91C373.293 17.53 373.77 17.34 374.336 17.34C374.59 17.34 374.84 17.3967 375.086 17.51C375.34 17.6167 375.53 17.7533 375.656 17.92ZM375.616 20.79V18.62C375.53 18.4133 375.373 18.24 375.146 18.1C374.92 17.9533 374.68 17.88 374.426 17.88C373.986 17.88 373.626 18.0533 373.346 18.4C373.066 18.74 372.926 19.18 372.926 19.72C372.926 20.3333 373.08 20.81 373.386 21.15C373.653 21.43 373.986 21.57 374.386 21.57C374.653 21.57 374.896 21.5 375.116 21.36C375.343 21.2133 375.51 21.0233 375.616 20.79ZM381.527 19.96H378.287C378.314 20.4467 378.48 20.8367 378.787 21.13C379.1 21.4233 379.504 21.57 379.997 21.57C380.41 21.57 380.814 21.4467 381.207 21.2L381.437 21.6C380.997 21.9467 380.467 22.12 379.847 22.12C379.127 22.12 378.554 21.8833 378.127 21.41C377.734 20.9833 377.537 20.43 377.537 19.75C377.537 19.0433 377.747 18.4533 378.167 17.98C378.547 17.5533 379.017 17.34 379.577 17.34C380.25 17.34 380.764 17.6133 381.117 18.16C381.39 18.5867 381.527 19.1133 381.527 19.74V19.96ZM378.277 19.42H380.837C380.817 18.9333 380.697 18.5533 380.477 18.28C380.264 18.0067 379.967 17.87 379.587 17.87C379.227 17.87 378.924 18.0133 378.677 18.3C378.437 18.5867 378.304 18.96 378.277 19.42ZM383.788 18.01L383.778 20.85C383.778 21.3367 383.975 21.58 384.368 21.58C384.588 21.58 384.805 21.5233 385.018 21.41L385.258 21.78C384.932 22.0067 384.588 22.12 384.228 22.12C383.875 22.12 383.602 22.01 383.408 21.79C383.215 21.57 383.118 21.2633 383.118 20.87V18.01H382.428V17.46H383.128V16.47L383.788 16.13V17.46H385.178V18.01H383.788ZM389.372 22H388.862V15.91L389.532 15.55V17.93C389.846 17.5367 390.282 17.34 390.842 17.34C391.529 17.34 392.062 17.5867 392.442 18.08C392.769 18.4933 392.932 19.0133 392.932 19.64C392.932 20.4667 392.696 21.1067 392.222 21.56C391.842 21.9333 391.372 22.12 390.812 22.12C390.226 22.12 389.776 21.92 389.462 21.52L389.372 22ZM389.532 18.68V20.85C389.619 21.0633 389.772 21.2367 389.992 21.37C390.219 21.5033 390.466 21.57 390.732 21.57C391.166 21.57 391.519 21.4033 391.792 21.07C392.072 20.73 392.212 20.2867 392.212 19.74C392.212 19.1267 392.059 18.6533 391.752 18.32C391.492 18.0333 391.159 17.89 390.752 17.89C390.492 17.89 390.246 17.9667 390.012 18.12C389.786 18.2667 389.626 18.4533 389.532 18.68ZM397.854 17.46V22H397.334L397.274 21.48L397.244 21.49C396.838 21.91 396.344 22.12 395.764 22.12C395.278 22.12 394.894 21.95 394.614 21.61C394.334 21.2633 394.194 20.7867 394.194 20.18V17.46H394.864V20.06C394.864 21.04 395.231 21.53 395.964 21.53C396.191 21.53 396.418 21.4733 396.644 21.36C396.878 21.2467 397.061 21.1 397.194 20.92V17.46H397.854ZM400.129 17.46V22H399.469V17.46H400.129ZM399.369 15.98C399.369 15.8667 399.412 15.7667 399.499 15.68C399.586 15.5933 399.689 15.55 399.809 15.55C399.929 15.55 400.032 15.5933 400.119 15.68C400.206 15.7667 400.249 15.8667 400.249 15.98C400.249 16.1067 400.206 16.2133 400.119 16.3C400.032 16.38 399.929 16.42 399.809 16.42C399.682 16.42 399.576 16.38 399.489 16.3C399.409 16.2133 399.369 16.1067 399.369 15.98ZM402.413 15.55V22H401.743V15.91L402.413 15.55ZM407.24 22L407.13 21.52C406.81 21.92 406.347 22.12 405.74 22.12C405.08 22.12 404.557 21.8733 404.17 21.38C403.837 20.9533 403.67 20.4233 403.67 19.79C403.67 18.99 403.903 18.3633 404.37 17.91C404.757 17.53 405.233 17.34 405.8 17.34C406.333 17.34 406.76 17.5167 407.08 17.87V15.93L407.74 15.56V22H407.24ZM407.08 20.79V18.62C406.993 18.4133 406.837 18.24 406.61 18.1C406.383 17.9533 406.143 17.88 405.89 17.88C405.45 17.88 405.09 18.0533 404.81 18.4C404.53 18.74 404.39 19.18 404.39 19.72C404.39 20.3333 404.543 20.81 404.85 21.15C405.117 21.43 405.45 21.57 405.85 21.57C406.117 21.57 406.36 21.5 406.58 21.36C406.807 21.2133 406.973 21.0233 407.08 20.79ZM410.842 15.55H411.442C410.569 16.79 410.132 18.0933 410.132 19.46C410.132 20.9 410.569 22.2133 411.442 23.4H410.842C410.442 23 410.105 22.42 409.832 21.66C409.565 20.9 409.432 20.1667 409.432 19.46C409.432 18.76 409.565 18.04 409.832 17.3C410.099 16.5533 410.435 15.97 410.842 15.55ZM413.104 21.99V15.67C413.644 15.59 414.187 15.55 414.734 15.55C415.5 15.55 416.067 15.7333 416.434 16.1C416.72 16.3933 416.864 16.78 416.864 17.26C416.864 17.5933 416.76 17.8833 416.554 18.13C416.354 18.3767 416.087 18.54 415.754 18.62V18.63C416.16 18.6967 416.48 18.8833 416.714 19.19C416.947 19.49 417.064 19.87 417.064 20.33C417.064 20.9367 416.827 21.3967 416.354 21.71C415.947 21.9833 415.407 22.12 414.734 22.12C414.24 22.12 413.697 22.0767 413.104 21.99ZM413.844 16.21V18.34H414.884C415.244 18.34 415.534 18.25 415.754 18.07C415.98 17.8833 416.094 17.6367 416.094 17.33C416.094 16.5367 415.634 16.14 414.714 16.14C414.36 16.14 414.07 16.1633 413.844 16.21ZM413.844 18.96V21.46C414.124 21.5 414.45 21.52 414.824 21.52C415.79 21.52 416.274 21.12 416.274 20.32C416.274 19.8933 416.15 19.56 415.904 19.32C415.664 19.08 415.324 18.96 414.884 18.96H413.844ZM422.005 17.46V22H421.485L421.425 21.48L421.395 21.49C420.988 21.91 420.495 22.12 419.915 22.12C419.428 22.12 419.045 21.95 418.765 21.61C418.485 21.2633 418.345 20.7867 418.345 20.18V17.46H419.015V20.06C419.015 21.04 419.382 21.53 420.115 21.53C420.342 21.53 420.568 21.4733 420.795 21.36C421.028 21.2467 421.212 21.1 421.345 20.92V17.46H422.005ZM424.279 17.46V22H423.619V17.46H424.279ZM423.519 15.98C423.519 15.8667 423.563 15.7667 423.649 15.68C423.736 15.5933 423.839 15.55 423.959 15.55C424.079 15.55 424.183 15.5933 424.269 15.68C424.356 15.7667 424.399 15.8667 424.399 15.98C424.399 16.1067 424.356 16.2133 424.269 16.3C424.183 16.38 424.079 16.42 423.959 16.42C423.833 16.42 423.726 16.38 423.639 16.3C423.559 16.2133 423.519 16.1067 423.519 15.98ZM426.564 15.55V22H425.894V15.91L426.564 15.55ZM431.39 22L431.28 21.52C430.96 21.92 430.497 22.12 429.89 22.12C429.23 22.12 428.707 21.8733 428.32 21.38C427.987 20.9533 427.82 20.4233 427.82 19.79C427.82 18.99 428.054 18.3633 428.52 17.91C428.907 17.53 429.384 17.34 429.95 17.34C430.484 17.34 430.91 17.5167 431.23 17.87V15.93L431.89 15.56V22H431.39ZM431.23 20.79V18.62C431.144 18.4133 430.987 18.24 430.76 18.1C430.534 17.9533 430.294 17.88 430.04 17.88C429.6 17.88 429.24 18.0533 428.96 18.4C428.68 18.74 428.54 19.18 428.54 19.72C428.54 20.3333 428.694 20.81 429 21.15C429.267 21.43 429.6 21.57 430 21.57C430.267 21.57 430.51 21.5 430.73 21.36C430.957 21.2133 431.124 21.0233 431.23 20.79ZM437.652 16.18L437.352 16.61C436.906 16.33 436.449 16.19 435.982 16.19C435.342 16.19 434.839 16.4533 434.472 16.98C434.132 17.46 433.962 18.1 433.962 18.9C433.962 19.7333 434.182 20.3833 434.622 20.85C434.996 21.2567 435.476 21.46 436.062 21.46C436.542 21.46 436.999 21.3033 437.432 20.99L437.732 21.44C437.212 21.8933 436.622 22.12 435.962 22.12C435.049 22.12 434.332 21.7667 433.812 21.06C433.386 20.48 433.172 19.76 433.172 18.9C433.172 17.94 433.432 17.1333 433.952 16.48C434.446 15.86 435.076 15.55 435.842 15.55C436.522 15.55 437.126 15.76 437.652 16.18ZM442.825 19.74C442.825 20.46 442.598 21.05 442.145 21.51C441.738 21.9167 441.238 22.12 440.645 22.12C439.958 22.12 439.405 21.86 438.985 21.34C438.632 20.9 438.455 20.3667 438.455 19.74C438.455 19.0067 438.675 18.4133 439.115 17.96C439.515 17.5467 440.025 17.34 440.645 17.34C441.345 17.34 441.902 17.6033 442.315 18.13C442.655 18.57 442.825 19.1067 442.825 19.74ZM439.175 19.74C439.175 20.32 439.325 20.78 439.625 21.12C439.892 21.42 440.228 21.57 440.635 21.57C441.075 21.57 441.428 21.4033 441.695 21.07C441.968 20.73 442.105 20.2867 442.105 19.74C442.105 19.1667 441.958 18.7067 441.665 18.36C441.398 18.04 441.058 17.88 440.645 17.88C440.205 17.88 439.848 18.0533 439.575 18.4C439.308 18.74 439.175 19.1867 439.175 19.74ZM447.907 22H447.247V19.34C447.247 18.3933 446.834 17.92 446.007 17.92C445.767 17.92 445.53 17.9767 445.297 18.09C445.064 18.2033 444.884 18.3467 444.757 18.52V22H444.087V17.46H444.647L444.707 17.94H444.737C445.13 17.54 445.624 17.34 446.217 17.34C447.344 17.34 447.907 17.99 447.907 19.29V22ZM450.321 18.01L450.311 20.85C450.311 21.3367 450.508 21.58 450.901 21.58C451.121 21.58 451.338 21.5233 451.551 21.41L451.791 21.78C451.465 22.0067 451.121 22.12 450.761 22.12C450.408 22.12 450.135 22.01 449.941 21.79C449.748 21.57 449.651 21.2633 449.651 20.87V18.01H448.961V17.46H449.661V16.47L450.321 16.13V17.46H451.711V18.01H450.321ZM456.586 19.96H453.346C453.372 20.4467 453.539 20.8367 453.846 21.13C454.159 21.4233 454.562 21.57 455.056 21.57C455.469 21.57 455.872 21.4467 456.266 21.2L456.496 21.6C456.056 21.9467 455.526 22.12 454.906 22.12C454.186 22.12 453.612 21.8833 453.186 21.41C452.792 20.9833 452.596 20.43 452.596 19.75C452.596 19.0433 452.806 18.4533 453.226 17.98C453.606 17.5533 454.076 17.34 454.636 17.34C455.309 17.34 455.822 17.6133 456.176 18.16C456.449 18.5867 456.586 19.1133 456.586 19.74V19.96ZM453.336 19.42H455.896C455.876 18.9333 455.756 18.5533 455.536 18.28C455.322 18.0067 455.026 17.87 454.646 17.87C454.286 17.87 453.982 18.0133 453.736 18.3C453.496 18.5867 453.362 18.96 453.336 19.42ZM461.137 17.46L459.627 19.63L461.207 22H460.467L459.227 20.12L457.947 22H457.197L458.847 19.66L457.437 17.46H458.177L459.237 19.15L460.397 17.46H461.137ZM463.114 18.01L463.104 20.85C463.104 21.3367 463.301 21.58 463.694 21.58C463.914 21.58 464.131 21.5233 464.344 21.41L464.584 21.78C464.258 22.0067 463.914 22.12 463.554 22.12C463.201 22.12 462.928 22.01 462.734 21.79C462.541 21.57 462.444 21.2633 462.444 20.87V18.01H461.754V17.46H462.454V16.47L463.114 16.13V17.46H464.504V18.01H463.114ZM471.619 17.82L471.399 18.2C471.059 17.9867 470.689 17.88 470.289 17.88C469.742 17.88 469.315 18.08 469.009 18.48C468.742 18.8267 468.609 19.26 468.609 19.78C468.609 20.3333 468.779 20.7767 469.119 21.11C469.432 21.4167 469.842 21.57 470.349 21.57C470.775 21.57 471.152 21.4467 471.479 21.2L471.699 21.6C471.325 21.9467 470.825 22.12 470.199 22.12C469.465 22.12 468.882 21.8733 468.449 21.38C468.075 20.9467 467.889 20.4033 467.889 19.75C467.889 19.0167 468.132 18.4167 468.619 17.95C469.039 17.5433 469.545 17.34 470.139 17.34C470.719 17.34 471.212 17.5 471.619 17.82ZM476.966 19.74C476.966 20.46 476.739 21.05 476.286 21.51C475.879 21.9167 475.379 22.12 474.786 22.12C474.099 22.12 473.546 21.86 473.126 21.34C472.772 20.9 472.596 20.3667 472.596 19.74C472.596 19.0067 472.816 18.4133 473.256 17.96C473.656 17.5467 474.166 17.34 474.786 17.34C475.486 17.34 476.042 17.6033 476.456 18.13C476.796 18.57 476.966 19.1067 476.966 19.74ZM473.316 19.74C473.316 20.32 473.466 20.78 473.766 21.12C474.032 21.42 474.369 21.57 474.776 21.57C475.216 21.57 475.569 21.4033 475.836 21.07C476.109 20.73 476.246 20.2867 476.246 19.74C476.246 19.1667 476.099 18.7067 475.806 18.36C475.539 18.04 475.199 17.88 474.786 17.88C474.346 17.88 473.989 18.0533 473.716 18.4C473.449 18.74 473.316 19.1867 473.316 19.74ZM482.048 22H481.388V19.34C481.388 18.3933 480.974 17.92 480.148 17.92C479.908 17.92 479.671 17.9767 479.438 18.09C479.204 18.2033 479.024 18.3467 478.898 18.52V22H478.228V17.46H478.788L478.848 17.94H478.878C479.271 17.54 479.764 17.34 480.358 17.34C481.484 17.34 482.048 17.99 482.048 19.29V22ZM484.462 18.01L484.452 20.85C484.452 21.3367 484.649 21.58 485.042 21.58C485.262 21.58 485.479 21.5233 485.692 21.41L485.932 21.78C485.605 22.0067 485.262 22.12 484.902 22.12C484.549 22.12 484.275 22.01 484.082 21.79C483.889 21.57 483.792 21.2633 483.792 20.87V18.01H483.102V17.46H483.802V16.47L484.462 16.13V17.46H485.852V18.01H484.462ZM490.726 19.96H487.486C487.513 20.4467 487.68 20.8367 487.986 21.13C488.3 21.4233 488.703 21.57 489.196 21.57C489.61 21.57 490.013 21.4467 490.406 21.2L490.636 21.6C490.196 21.9467 489.666 22.12 489.046 22.12C488.326 22.12 487.753 21.8833 487.326 21.41C486.933 20.9833 486.736 20.43 486.736 19.75C486.736 19.0433 486.946 18.4533 487.366 17.98C487.746 17.5533 488.216 17.34 488.776 17.34C489.45 17.34 489.963 17.6133 490.316 18.16C490.59 18.5867 490.726 19.1133 490.726 19.74V19.96ZM487.476 19.42H490.036C490.016 18.9333 489.896 18.5533 489.676 18.28C489.463 18.0067 489.166 17.87 488.786 17.87C488.426 17.87 488.123 18.0133 487.876 18.3C487.636 18.5867 487.503 18.96 487.476 19.42ZM495.277 17.46L493.767 19.63L495.347 22H494.607L493.367 20.12L492.087 22H491.337L492.987 19.66L491.577 17.46H492.317L493.377 19.15L494.537 17.46H495.277ZM497.255 18.01L497.245 20.85C497.245 21.3367 497.442 21.58 497.835 21.58C498.055 21.58 498.272 21.5233 498.485 21.41L498.725 21.78C498.398 22.0067 498.055 22.12 497.695 22.12C497.342 22.12 497.068 22.01 496.875 21.79C496.682 21.57 496.585 21.2633 496.585 20.87V18.01H495.895V17.46H496.595V16.47L497.255 16.13V17.46H498.645V18.01H497.255ZM499.887 15.55H500.487C500.887 15.97 501.22 16.5533 501.487 17.3C501.76 18.04 501.897 18.76 501.897 19.46C501.897 20.36 501.7 21.24 501.307 22.1C501.047 22.68 500.774 23.1133 500.487 23.4H499.887C500.76 22.2133 501.197 20.9 501.197 19.46C501.197 18.0933 500.76 16.79 499.887 15.55ZM505.711 19.74V19.16C506.038 19.14 506.294 19 506.481 18.74C506.674 18.48 506.771 18.1367 506.771 17.71V17.23C506.771 16.5967 506.874 16.16 507.081 15.92C507.294 15.6733 507.678 15.55 508.231 15.55H508.431V16.13H508.231C507.898 16.13 507.681 16.2 507.581 16.34C507.481 16.48 507.431 16.7767 507.431 17.23V17.71C507.431 18.5567 507.088 19.14 506.401 19.46C506.768 19.6267 507.031 19.8467 507.191 20.12C507.351 20.3867 507.431 20.75 507.431 21.21V21.71C507.431 22.17 507.481 22.47 507.581 22.61C507.681 22.75 507.898 22.82 508.231 22.82H508.431V23.39H508.231C507.618 23.39 507.211 23.2367 507.011 22.93C506.851 22.69 506.771 22.2833 506.771 21.71V21.21C506.771 20.7967 506.674 20.46 506.481 20.2C506.288 19.9333 506.031 19.78 505.711 19.74ZM439.059 32.85L438.509 33.23C438.282 33.03 438.039 32.93 437.779 32.93C437.399 32.93 437.062 33.1267 436.769 33.52V37H436.099V32.46H436.669L436.729 32.94H436.749C437.142 32.54 437.545 32.34 437.959 32.34C438.445 32.34 438.812 32.51 439.059 32.85ZM443.451 34.96H440.211C440.238 35.4467 440.404 35.8367 440.711 36.13C441.024 36.4233 441.428 36.57 441.921 36.57C442.334 36.57 442.738 36.4467 443.131 36.2L443.361 36.6C442.921 36.9467 442.391 37.12 441.771 37.12C441.051 37.12 440.478 36.8833 440.051 36.41C439.658 35.9833 439.461 35.43 439.461 34.75C439.461 34.0433 439.671 33.4533 440.091 32.98C440.471 32.5533 440.941 32.34 441.501 32.34C442.174 32.34 442.688 32.6133 443.041 33.16C443.314 33.5867 443.451 34.1133 443.451 34.74V34.96ZM440.201 34.42H442.761C442.741 33.9333 442.621 33.5533 442.401 33.28C442.188 33.0067 441.891 32.87 441.511 32.87C441.151 32.87 440.848 33.0133 440.601 33.3C440.361 33.5867 440.228 33.96 440.201 34.42ZM445.712 33.01L445.702 35.85C445.702 36.3367 445.899 36.58 446.292 36.58C446.512 36.58 446.729 36.5233 446.942 36.41L447.182 36.78C446.855 37.0067 446.512 37.12 446.152 37.12C445.799 37.12 445.525 37.01 445.332 36.79C445.139 36.57 445.042 36.2633 445.042 35.87V33.01H444.352V32.46H445.052V31.47L445.712 31.13V32.46H447.102V33.01H445.712ZM452.044 32.46V37H451.524L451.464 36.48L451.434 36.49C451.027 36.91 450.534 37.12 449.954 37.12C449.467 37.12 449.084 36.95 448.804 36.61C448.524 36.2633 448.384 35.7867 448.384 35.18V32.46H449.054V35.06C449.054 36.04 449.421 36.53 450.154 36.53C450.381 36.53 450.607 36.4733 450.834 36.36C451.067 36.2467 451.251 36.1 451.384 35.92V32.46H452.044ZM456.569 32.85L456.019 33.23C455.792 33.03 455.549 32.93 455.289 32.93C454.909 32.93 454.572 33.1267 454.279 33.52V37H453.609V32.46H454.179L454.239 32.94H454.259C454.652 32.54 455.055 32.34 455.469 32.34C455.955 32.34 456.322 32.51 456.569 32.85ZM461.247 37H460.587V34.34C460.587 33.3933 460.174 32.92 459.347 32.92C459.107 32.92 458.87 32.9767 458.637 33.09C458.404 33.2033 458.224 33.3467 458.097 33.52V37H457.427V32.46H457.987L458.047 32.94H458.077C458.47 32.54 458.964 32.34 459.557 32.34C460.684 32.34 461.247 32.99 461.247 34.29V37ZM469.361 31.18L469.061 31.61C468.615 31.33 468.158 31.19 467.691 31.19C467.051 31.19 466.548 31.4533 466.181 31.98C465.841 32.46 465.671 33.1 465.671 33.9C465.671 34.7333 465.891 35.3833 466.331 35.85C466.705 36.2567 467.185 36.46 467.771 36.46C468.251 36.46 468.708 36.3033 469.141 35.99L469.441 36.44C468.921 36.8933 468.331 37.12 467.671 37.12C466.758 37.12 466.041 36.7667 465.521 36.06C465.095 35.48 464.881 34.76 464.881 33.9C464.881 32.94 465.141 32.1333 465.661 31.48C466.155 30.86 466.785 30.55 467.551 30.55C468.231 30.55 468.835 30.76 469.361 31.18ZM474.534 34.74C474.534 35.46 474.307 36.05 473.854 36.51C473.447 36.9167 472.947 37.12 472.354 37.12C471.667 37.12 471.114 36.86 470.694 36.34C470.341 35.9 470.164 35.3667 470.164 34.74C470.164 34.0067 470.384 33.4133 470.824 32.96C471.224 32.5467 471.734 32.34 472.354 32.34C473.054 32.34 473.611 32.6033 474.024 33.13C474.364 33.57 474.534 34.1067 474.534 34.74ZM470.884 34.74C470.884 35.32 471.034 35.78 471.334 36.12C471.601 36.42 471.937 36.57 472.344 36.57C472.784 36.57 473.137 36.4033 473.404 36.07C473.677 35.73 473.814 35.2867 473.814 34.74C473.814 34.1667 473.667 33.7067 473.374 33.36C473.107 33.04 472.767 32.88 472.354 32.88C471.914 32.88 471.557 33.0533 471.284 33.4C471.017 33.74 470.884 34.1867 470.884 34.74ZM479.616 37H478.956V34.34C478.956 33.3933 478.543 32.92 477.716 32.92C477.476 32.92 477.239 32.9767 477.006 33.09C476.773 33.2033 476.593 33.3467 476.466 33.52V37H475.796V32.46H476.356L476.416 32.94H476.446C476.839 32.54 477.333 32.34 477.926 32.34C479.053 32.34 479.616 32.99 479.616 34.29V37ZM482.03 33.01L482.02 35.85C482.02 36.3367 482.217 36.58 482.61 36.58C482.83 36.58 483.047 36.5233 483.26 36.41L483.5 36.78C483.174 37.0067 482.83 37.12 482.47 37.12C482.117 37.12 481.844 37.01 481.65 36.79C481.457 36.57 481.36 36.2633 481.36 35.87V33.01H480.67V32.46H481.37V31.47L482.03 31.13V32.46H483.42V33.01H482.03ZM488.032 37H487.532L487.432 36.51C487.026 36.9167 486.519 37.12 485.912 37.12C485.452 37.12 485.086 36.9933 484.812 36.74C484.539 36.48 484.402 36.1367 484.402 35.71C484.402 34.67 485.162 34.15 486.682 34.15H487.372V34.09C487.372 33.2967 486.986 32.9 486.212 32.9C485.772 32.9 485.349 33.0467 484.942 33.34L484.722 32.97C485.182 32.55 485.742 32.34 486.402 32.34C486.929 32.34 487.332 32.5033 487.612 32.83C487.892 33.1567 488.032 33.6267 488.032 34.24V37ZM487.372 34.64H486.762C485.669 34.64 485.122 34.9767 485.122 35.65C485.122 35.9367 485.206 36.1633 485.372 36.33C485.546 36.49 485.786 36.57 486.092 36.57C486.359 36.57 486.616 36.5033 486.862 36.37C487.109 36.2367 487.279 36.07 487.372 35.87V34.64ZM490.285 32.46V37H489.625V32.46H490.285ZM489.525 30.98C489.525 30.8667 489.569 30.7667 489.655 30.68C489.742 30.5933 489.845 30.55 489.965 30.55C490.085 30.55 490.189 30.5933 490.275 30.68C490.362 30.7667 490.405 30.8667 490.405 30.98C490.405 31.1067 490.362 31.2133 490.275 31.3C490.189 31.38 490.085 31.42 489.965 31.42C489.839 31.42 489.732 31.38 489.645 31.3C489.565 31.2133 489.525 31.1067 489.525 30.98ZM495.72 37H495.06V34.34C495.06 33.3933 494.646 32.92 493.82 32.92C493.58 32.92 493.343 32.9767 493.11 33.09C492.876 33.2033 492.696 33.3467 492.57 33.52V37H491.9V32.46H492.46L492.52 32.94H492.55C492.943 32.54 493.436 32.34 494.03 32.34C495.156 32.34 495.72 32.99 495.72 34.29V37ZM500.922 34.96H497.682C497.708 35.4467 497.875 35.8367 498.182 36.13C498.495 36.4233 498.898 36.57 499.392 36.57C499.805 36.57 500.208 36.4467 500.602 36.2L500.832 36.6C500.392 36.9467 499.862 37.12 499.242 37.12C498.522 37.12 497.948 36.8833 497.522 36.41C497.128 35.9833 496.932 35.43 496.932 34.75C496.932 34.0433 497.142 33.4533 497.562 32.98C497.942 32.5533 498.412 32.34 498.972 32.34C499.645 32.34 500.158 32.6133 500.512 33.16C500.785 33.5867 500.922 34.1133 500.922 34.74V34.96ZM497.672 34.42H500.232C500.212 33.9333 500.092 33.5533 499.872 33.28C499.658 33.0067 499.362 32.87 498.982 32.87C498.622 32.87 498.318 33.0133 498.072 33.3C497.832 33.5867 497.698 33.96 497.672 34.42ZM505.143 32.85L504.593 33.23C504.366 33.03 504.123 32.93 503.863 32.93C503.483 32.93 503.146 33.1267 502.853 33.52V37H502.183V32.46H502.753L502.813 32.94H502.833C503.226 32.54 503.629 32.34 504.043 32.34C504.529 32.34 504.896 32.51 505.143 32.85ZM507.639 30.55H508.239C507.365 31.79 506.929 33.0933 506.929 34.46C506.929 35.9 507.365 37.2133 508.239 38.4H507.639C507.239 38 506.902 37.42 506.629 36.66C506.362 35.9 506.229 35.1667 506.229 34.46C506.229 33.76 506.362 33.04 506.629 32.3C506.895 31.5533 507.232 30.97 507.639 30.55ZM403.796 47.82L403.576 48.2C403.236 47.9867 402.866 47.88 402.466 47.88C401.92 47.88 401.493 48.08 401.186 48.48C400.92 48.8267 400.786 49.26 400.786 49.78C400.786 50.3333 400.956 50.7767 401.296 51.11C401.61 51.4167 402.02 51.57 402.526 51.57C402.953 51.57 403.33 51.4467 403.656 51.2L403.876 51.6C403.503 51.9467 403.003 52.12 402.376 52.12C401.643 52.12 401.06 51.8733 400.626 51.38C400.253 50.9467 400.066 50.4033 400.066 49.75C400.066 49.0167 400.31 48.4167 400.796 47.95C401.216 47.5433 401.723 47.34 402.316 47.34C402.896 47.34 403.39 47.5 403.796 47.82ZM408.893 52H408.233V49.34C408.233 48.3933 407.813 47.92 406.973 47.92C406.747 47.92 406.513 47.98 406.273 48.1C406.033 48.2133 405.857 48.3533 405.743 48.52V52H405.073V45.9L405.743 45.55V47.94C406.157 47.54 406.637 47.34 407.183 47.34C408.323 47.34 408.893 47.99 408.893 49.29V52ZM411.115 47.46V52H410.455V47.46H411.115ZM410.355 45.98C410.355 45.8667 410.399 45.7667 410.485 45.68C410.572 45.5933 410.675 45.55 410.795 45.55C410.915 45.55 411.019 45.5933 411.105 45.68C411.192 45.7667 411.235 45.8667 411.235 45.98C411.235 46.1067 411.192 46.2133 411.105 46.3C411.019 46.38 410.915 46.42 410.795 46.42C410.669 46.42 410.562 46.38 410.475 46.3C410.395 46.2133 410.355 46.1067 410.355 45.98ZM413.4 45.55V52H412.73V45.91L413.4 45.55ZM418.226 52L418.116 51.52C417.796 51.92 417.333 52.12 416.726 52.12C416.066 52.12 415.543 51.8733 415.156 51.38C414.823 50.9533 414.656 50.4233 414.656 49.79C414.656 48.99 414.89 48.3633 415.356 47.91C415.743 47.53 416.22 47.34 416.786 47.34C417.32 47.34 417.746 47.5167 418.066 47.87V45.93L418.726 45.56V52H418.226ZM418.066 50.79V48.62C417.98 48.4133 417.823 48.24 417.596 48.1C417.37 47.9533 417.13 47.88 416.876 47.88C416.436 47.88 416.076 48.0533 415.796 48.4C415.516 48.74 415.376 49.18 415.376 49.72C415.376 50.3333 415.53 50.81 415.836 51.15C416.103 51.43 416.436 51.57 416.836 51.57C417.103 51.57 417.346 51.5 417.566 51.36C417.793 51.2133 417.96 51.0233 418.066 50.79ZM421.248 49.2C421.248 49.2067 421.248 49.2133 421.248 49.22C421.248 49.5067 421.112 49.65 420.838 49.65C420.552 49.65 420.408 49.5033 420.408 49.21C420.422 48.9367 420.565 48.8 420.838 48.8C421.112 48.8 421.248 48.9333 421.248 49.2ZM421.248 51.6C421.248 51.6067 421.248 51.6133 421.248 51.62C421.248 51.9067 421.112 52.05 420.838 52.05C420.552 52.05 420.408 51.9033 420.408 51.61C420.422 51.3367 420.565 51.2 420.838 51.2C421.112 51.2 421.248 51.3333 421.248 51.6ZM424.397 46.3V45.67H429.157V46.3H427.067V52H426.327V46.3H424.397ZM433.226 49.96H429.986C430.013 50.4467 430.18 50.8367 430.486 51.13C430.8 51.4233 431.203 51.57 431.696 51.57C432.11 51.57 432.513 51.4467 432.906 51.2L433.136 51.6C432.696 51.9467 432.166 52.12 431.546 52.12C430.826 52.12 430.253 51.8833 429.826 51.41C429.433 50.9833 429.236 50.43 429.236 49.75C429.236 49.0433 429.446 48.4533 429.866 47.98C430.246 47.5533 430.716 47.34 431.276 47.34C431.95 47.34 432.463 47.6133 432.816 48.16C433.09 48.5867 433.226 49.1133 433.226 49.74V49.96ZM429.976 49.42H432.536C432.516 48.9333 432.396 48.5533 432.176 48.28C431.963 48.0067 431.666 47.87 431.286 47.87C430.926 47.87 430.623 48.0133 430.376 48.3C430.136 48.5867 430.003 48.96 429.976 49.42ZM437.777 47.46L436.267 49.63L437.847 52H437.107L435.867 50.12L434.587 52H433.837L435.487 49.66L434.077 47.46H434.817L435.877 49.15L437.037 47.46H437.777ZM439.755 48.01L439.745 50.85C439.745 51.3367 439.942 51.58 440.335 51.58C440.555 51.58 440.772 51.5233 440.985 51.41L441.225 51.78C440.898 52.0067 440.555 52.12 440.195 52.12C439.842 52.12 439.568 52.01 439.375 51.79C439.182 51.57 439.085 51.2633 439.085 50.87V48.01H438.395V47.46H439.095V46.47L439.755 46.13V47.46H441.145V48.01H439.755ZM443.967 45.55H444.567C443.694 46.79 443.257 48.0933 443.257 49.46C443.257 50.9 443.694 52.2133 444.567 53.4H443.967C443.567 53 443.23 52.42 442.957 51.66C442.69 50.9 442.557 50.1667 442.557 49.46C442.557 48.76 442.69 48.04 442.957 47.3C443.224 46.5533 443.56 45.97 443.967 45.55ZM446.029 47.15V45.82L446.529 45.55V46.88L446.029 47.15ZM448.133 52V45.67C448.726 45.59 449.24 45.55 449.673 45.55C451.166 45.55 451.913 46.19 451.913 47.47C451.913 48.1167 451.703 48.6133 451.283 48.96C450.903 49.2667 450.393 49.42 449.753 49.42C449.466 49.42 449.173 49.4 448.873 49.36V52H448.133ZM448.873 46.21V48.76C449.113 48.8 449.393 48.82 449.713 48.82C450.66 48.82 451.133 48.37 451.133 47.47C451.133 46.5833 450.646 46.14 449.673 46.14C449.366 46.14 449.1 46.1633 448.873 46.21ZM456.576 49.96H453.336C453.363 50.4467 453.529 50.8367 453.836 51.13C454.149 51.4233 454.553 51.57 455.046 51.57C455.459 51.57 455.863 51.4467 456.256 51.2L456.486 51.6C456.046 51.9467 455.516 52.12 454.896 52.12C454.176 52.12 453.603 51.8833 453.176 51.41C452.783 50.9833 452.586 50.43 452.586 49.75C452.586 49.0433 452.796 48.4533 453.216 47.98C453.596 47.5533 454.066 47.34 454.626 47.34C455.299 47.34 455.813 47.6133 456.166 48.16C456.439 48.5867 456.576 49.1133 456.576 49.74V49.96ZM453.326 49.42H455.886C455.866 48.9333 455.746 48.5533 455.526 48.28C455.313 48.0067 455.016 47.87 454.636 47.87C454.276 47.87 453.973 48.0133 453.726 48.3C453.486 48.5867 453.353 48.96 453.326 49.42ZM460.797 47.85L460.247 48.23C460.02 48.03 459.777 47.93 459.517 47.93C459.137 47.93 458.8 48.1267 458.507 48.52V52H457.837V47.46H458.407L458.467 47.94H458.487C458.88 47.54 459.284 47.34 459.697 47.34C460.184 47.34 460.55 47.51 460.797 47.85ZM461.393 47.46H462.043V46.8C462.043 46.4067 462.14 46.1 462.333 45.88C462.526 45.66 462.8 45.55 463.153 45.55C463.513 45.55 463.856 45.6633 464.183 45.89L463.943 46.26C463.723 46.1467 463.506 46.09 463.293 46.09C462.9 46.09 462.703 46.3367 462.703 46.83V47.46H463.843V48H462.703V52H462.043V48H461.393V47.46ZM468.987 49.74C468.987 50.46 468.76 51.05 468.307 51.51C467.9 51.9167 467.4 52.12 466.807 52.12C466.12 52.12 465.567 51.86 465.147 51.34C464.794 50.9 464.617 50.3667 464.617 49.74C464.617 49.0067 464.837 48.4133 465.277 47.96C465.677 47.5467 466.187 47.34 466.807 47.34C467.507 47.34 468.064 47.6033 468.477 48.13C468.817 48.57 468.987 49.1067 468.987 49.74ZM465.337 49.74C465.337 50.32 465.487 50.78 465.787 51.12C466.054 51.42 466.39 51.57 466.797 51.57C467.237 51.57 467.59 51.4033 467.857 51.07C468.13 50.73 468.267 50.2867 468.267 49.74C468.267 49.1667 468.12 48.7067 467.827 48.36C467.56 48.04 467.22 47.88 466.807 47.88C466.367 47.88 466.01 48.0533 465.737 48.4C465.47 48.74 465.337 49.1867 465.337 49.74ZM473.209 47.85L472.659 48.23C472.433 48.03 472.189 47.93 471.929 47.93C471.549 47.93 471.213 48.1267 470.919 48.52V52H470.249V47.46H470.819L470.879 47.94H470.899C471.293 47.54 471.696 47.34 472.109 47.34C472.596 47.34 472.963 47.51 473.209 47.85ZM480.858 52H480.188V49.4C480.188 48.4133 479.774 47.92 478.948 47.92C478.501 47.92 478.088 48.1133 477.708 48.5C477.774 48.7333 477.808 48.9933 477.808 49.28V52H477.148V49.36C477.148 48.4 476.744 47.92 475.938 47.92C475.724 47.92 475.501 47.98 475.268 48.1C475.041 48.2133 474.864 48.3567 474.738 48.53V52H474.068V47.46H474.628L474.688 47.93H474.718C475.138 47.5367 475.621 47.34 476.168 47.34C476.821 47.34 477.278 47.5833 477.538 48.07C477.978 47.5833 478.528 47.34 479.188 47.34C479.734 47.34 480.154 47.5167 480.448 47.87C480.721 48.2033 480.858 48.6733 480.858 49.28V52ZM485.698 52H485.198L485.098 51.51C484.692 51.9167 484.185 52.12 483.578 52.12C483.118 52.12 482.752 51.9933 482.478 51.74C482.205 51.48 482.068 51.1367 482.068 50.71C482.068 49.67 482.828 49.15 484.348 49.15H485.038V49.09C485.038 48.2967 484.652 47.9 483.878 47.9C483.438 47.9 483.015 48.0467 482.608 48.34L482.388 47.97C482.848 47.55 483.408 47.34 484.068 47.34C484.595 47.34 484.998 47.5033 485.278 47.83C485.558 48.1567 485.698 48.6267 485.698 49.24V52ZM485.038 49.64H484.428C483.335 49.64 482.788 49.9767 482.788 50.65C482.788 50.9367 482.872 51.1633 483.038 51.33C483.212 51.49 483.452 51.57 483.758 51.57C484.025 51.57 484.282 51.5033 484.528 51.37C484.775 51.2367 484.945 51.07 485.038 50.87V49.64ZM491.061 52H490.401V49.34C490.401 48.3933 489.988 47.92 489.161 47.92C488.921 47.92 488.685 47.9767 488.451 48.09C488.218 48.2033 488.038 48.3467 487.911 48.52V52H487.241V47.46H487.801L487.861 47.94H487.891C488.285 47.54 488.778 47.34 489.371 47.34C490.498 47.34 491.061 47.99 491.061 49.29V52ZM496.003 47.82L495.783 48.2C495.443 47.9867 495.073 47.88 494.673 47.88C494.127 47.88 493.7 48.08 493.393 48.48C493.127 48.8267 492.993 49.26 492.993 49.78C492.993 50.3333 493.163 50.7767 493.503 51.11C493.817 51.4167 494.227 51.57 494.733 51.57C495.16 51.57 495.537 51.4467 495.863 51.2L496.083 51.6C495.71 51.9467 495.21 52.12 494.583 52.12C493.85 52.12 493.267 51.8733 492.833 51.38C492.46 50.9467 492.273 50.4033 492.273 49.75C492.273 49.0167 492.517 48.4167 493.003 47.95C493.423 47.5433 493.93 47.34 494.523 47.34C495.103 47.34 495.597 47.5 496.003 47.82ZM500.97 49.96H497.73C497.757 50.4467 497.924 50.8367 498.23 51.13C498.544 51.4233 498.947 51.57 499.44 51.57C499.854 51.57 500.257 51.4467 500.65 51.2L500.88 51.6C500.44 51.9467 499.91 52.12 499.29 52.12C498.57 52.12 497.997 51.8833 497.57 51.41C497.177 50.9833 496.98 50.43 496.98 49.75C496.98 49.0433 497.19 48.4533 497.61 47.98C497.99 47.5533 498.46 47.34 499.02 47.34C499.694 47.34 500.207 47.6133 500.56 48.16C500.834 48.5867 500.97 49.1133 500.97 49.74V49.96ZM497.72 49.42H500.28C500.26 48.9333 500.14 48.5533 499.92 48.28C499.707 48.0067 499.41 47.87 499.03 47.87C498.67 47.87 498.367 48.0133 498.12 48.3C497.88 48.5867 497.747 48.96 497.72 49.42ZM502.152 47.15V45.82L502.652 45.55V46.88L502.152 47.15ZM504.096 45.55H504.696C505.096 45.97 505.429 46.5533 505.696 47.3C505.969 48.04 506.106 48.76 506.106 49.46C506.106 50.36 505.909 51.24 505.516 52.1C505.256 52.68 504.983 53.1133 504.696 53.4H504.096C504.969 52.2133 505.406 50.9 505.406 49.46C505.406 48.0933 504.969 46.79 504.096 45.55ZM507.688 52.74C507.941 52.54 508.068 52.33 508.068 52.11C508.068 52.0833 508.061 52.0433 508.048 51.99C507.981 52.0367 507.921 52.06 507.868 52.06C507.768 52.06 507.678 52.0167 507.598 51.93C507.524 51.8433 507.488 51.7433 507.488 51.63C507.488 51.5033 507.528 51.4 507.608 51.32C507.694 51.2333 507.801 51.19 507.928 51.19C508.281 51.19 508.458 51.43 508.458 51.91C508.458 52.39 508.238 52.7467 507.798 52.98L507.688 52.74ZM504.203 60.55H504.803C505.203 60.97 505.537 61.5533 505.803 62.3C506.077 63.04 506.213 63.76 506.213 64.46C506.213 65.36 506.017 66.24 505.623 67.1C505.363 67.68 505.09 68.1133 504.803 68.4H504.203C505.077 67.2133 505.513 65.9 505.513 64.46C505.513 63.0933 505.077 61.79 504.203 60.55ZM507.795 67.74C508.042 67.54 508.165 67.33 508.165 67.11C508.165 67.0833 508.162 67.0433 508.155 66.99C508.088 67.0367 508.028 67.06 507.975 67.06C507.868 67.06 507.778 67.0167 507.705 66.93C507.632 66.8433 507.595 66.7433 507.595 66.63C507.595 66.5033 507.635 66.4 507.715 66.32C507.802 66.2333 507.908 66.19 508.035 66.19C508.388 66.19 508.565 66.43 508.565 66.91C508.565 67.39 508.345 67.7467 507.905 67.98L507.795 67.74ZM508.005 64.7C507.712 64.68 507.565 64.5267 507.565 64.24C507.565 64.12 507.608 64.0167 507.695 63.93C507.782 63.8433 507.885 63.8 508.005 63.8C508.132 63.8 508.238 63.8433 508.325 63.93C508.418 64.01 508.465 64.1133 508.465 64.24C508.472 64.5333 508.318 64.6867 508.005 64.7ZM508.521 79.16V79.74C508.194 79.78 507.934 79.9333 507.741 80.2C507.554 80.46 507.461 80.7967 507.461 81.21V81.71C507.461 82.35 507.354 82.79 507.141 83.03C506.934 83.27 506.554 83.39 506.001 83.39H505.801V82.82H506.001C506.334 82.82 506.551 82.75 506.651 82.61C506.751 82.47 506.801 82.17 506.801 81.71V81.21C506.801 80.75 506.878 80.3867 507.031 80.12C507.191 79.8467 507.458 79.6267 507.831 79.46C507.144 79.14 506.801 78.5567 506.801 77.71V77.23C506.801 76.7767 506.751 76.48 506.651 76.34C506.551 76.2 506.334 76.13 506.001 76.13H505.801V75.55H506.001C506.608 75.55 507.014 75.7033 507.221 76.01C507.381 76.25 507.461 76.6567 507.461 77.23V77.71C507.461 78.1367 507.554 78.48 507.741 78.74C507.928 79 508.188 79.14 508.521 79.16Z" fill="#A94D90"/>
<rect x="38" y="483" width="139.42" height="73" rx="8" fill="white"/>
<rect x="38.5" y="483.5" width="138.42" height="72" rx="7.5" stroke="#5370EA" stroke-opacity="0.2"/>
<g filter="url(#filter2_d_20393_2092)">
<rect x="38" y="483" width="139.44" height="73" rx="8" fill="white" fill-opacity="0.01" shape-rendering="crispEdges"/>
</g>
<path d="M61.99 507.38H62.34V508H61.91C61.4833 508 61.1267 507.893 60.84 507.68C60.7867 508.387 60.5033 508.943 59.99 509.35C59.53 509.717 58.95 509.9 58.25 509.9C57.3833 509.9 56.7167 509.603 56.25 509.01C55.8833 508.55 55.7 508 55.7 507.36C55.7 506.78 55.8467 506.29 56.14 505.89L56.8 505.74C56.4733 506.22 56.31 506.747 56.31 507.32C56.31 507.907 56.5 508.387 56.88 508.76C57.24 509.113 57.6967 509.29 58.25 509.29C58.89 509.29 59.3867 509.097 59.74 508.71C60.04 508.39 60.19 507.973 60.19 507.46V501.9L60.85 501.55V506.25V506.27C60.85 507.01 61.23 507.38 61.99 507.38ZM62.14 508V507.38H62.49C63.2233 507.38 63.59 507 63.59 506.24V504.07L64.26 503.72V506.26C64.26 506.82 64.0967 507.257 63.77 507.57C63.47 507.857 63.07 508 62.57 508H62.14ZM62.47 509.87C62.1967 509.87 62.06 509.73 62.06 509.45C62.06 509.183 62.1967 509.05 62.47 509.05C62.73 509.05 62.86 509.183 62.86 509.45C62.86 509.73 62.73 509.87 62.47 509.87ZM63.61 509.87C63.3367 509.87 63.2 509.73 63.2 509.45C63.2 509.183 63.3367 509.05 63.61 509.05C63.87 509.05 64 509.183 64 509.45C64 509.73 63.87 509.87 63.61 509.87ZM70.45 507.38V508H69.39C69.3833 508.44 69.2417 508.828 68.965 509.165C68.6883 509.502 68.33 509.723 67.89 509.83C67.73 509.877 67.5567 509.9 67.37 509.9C66.9833 509.9 66.6067 509.807 66.24 509.62V509.03C66.5867 509.217 66.93 509.31 67.27 509.31C67.5433 509.31 67.7833 509.25 67.99 509.13C68.1967 509.023 68.37 508.862 68.51 508.645C68.65 508.428 68.72 508.213 68.72 508L67.87 507.97C67.13 507.937 66.5767 507.703 66.21 507.27C65.91 506.903 65.76 506.413 65.76 505.8C65.76 505.08 65.9467 504.523 66.32 504.13C66.6533 503.777 67.1 503.6 67.66 503.6C68.24 503.6 68.6833 503.773 68.99 504.12C69.2567 504.42 69.39 504.82 69.39 505.32V507.38H70.45ZM68.72 505.39C68.72 504.603 68.3667 504.21 67.66 504.21C67.2667 504.21 66.9617 504.348 66.745 504.625C66.5283 504.902 66.42 505.29 66.42 505.79C66.42 506.783 66.91 507.303 67.89 507.35C68.1833 507.37 68.46 507.38 68.72 507.38V505.39ZM76.57 507.38H76.92V508H76.56C76.0067 508 75.565 507.937 75.235 507.81C74.905 507.683 74.6 507.46 74.32 507.14C73.4667 507.713 72.48 508 71.36 508H70.25V507.38H71.37C72.8233 507.38 73.9567 506.887 74.77 505.9C74.1767 504.767 73.46 504.2 72.62 504.2C72.0467 504.2 71.4867 504.49 70.94 505.07V504.41C71.4867 503.87 72.0567 503.6 72.65 503.6H72.67C73.7167 503.6 74.6233 504.307 75.39 505.72V506.13C75.1833 506.397 74.9633 506.627 74.73 506.82C74.9433 507.027 75.185 507.172 75.455 507.255C75.725 507.338 76.0967 507.38 76.57 507.38ZM77.73 502.43C77.4633 502.43 77.33 502.293 77.33 502.02C77.33 501.747 77.4633 501.61 77.73 501.61C77.9967 501.61 78.13 501.747 78.13 502.02C78.13 502.293 77.9967 502.43 77.73 502.43ZM78.87 502.43C78.6033 502.43 78.47 502.293 78.47 502.02C78.47 501.747 78.6033 501.61 78.87 501.61C79.1367 501.61 79.27 501.747 79.27 502.02C79.27 502.293 79.1367 502.43 78.87 502.43ZM79.94 507.38H80.29V508H79.86C79.26 508 78.81 507.797 78.51 507.39C78.1967 507.797 77.7433 508 77.15 508H76.72V507.38H77.07C77.8033 507.38 78.17 507 78.17 506.24V504.07L78.84 503.72V506.24C78.84 507 79.2067 507.38 79.94 507.38ZM80.09 508V507.38H80.37C81.13 507.38 81.51 506.987 81.51 506.2V501.9L82.18 501.55V506.21C82.18 506.777 82.0133 507.223 81.68 507.55C81.3667 507.85 80.9533 508 80.44 508H80.09ZM83.98 508V501.9L84.65 501.55V508H83.98ZM93.8 507.46C93.8 508.233 93.5367 508.847 93.01 509.3C92.5367 509.7 91.9333 509.9 91.2 509.9C90.3333 509.9 89.6667 509.603 89.2 509.01C88.8333 508.55 88.65 508 88.65 507.36C88.65 506.78 88.7967 506.29 89.09 505.89L89.75 505.74C89.4233 506.22 89.26 506.747 89.26 507.32C89.26 507.907 89.45 508.387 89.83 508.76C90.19 509.113 90.6467 509.29 91.2 509.29C91.84 509.29 92.3367 509.097 92.69 508.71C92.99 508.39 93.14 507.973 93.14 507.46V501.9L93.8 501.55V507.46ZM94.8 508L95.12 507.38H97C97.3067 507.38 97.5217 507.303 97.645 507.15C97.7683 506.997 97.83 506.73 97.83 506.35C97.83 505.37 97.4 504.64 96.54 504.16L96.87 503.61C97.93 504.223 98.47 505.087 98.49 506.2C98.4967 506.987 98.88 507.38 99.64 507.38H99.95V508H99.57C98.99 508 98.5467 507.807 98.24 507.42C98.0133 507.807 97.6367 508 97.11 508H94.8ZM106.89 508H104.42C104.06 508 103.693 507.923 103.32 507.77C102.94 507.923 102.57 508 102.21 508H99.75V507.38H102.17C102.303 507.38 102.44 507.37 102.58 507.35C102.053 506.97 101.48 506.343 100.86 505.47V505.06C101.553 504.087 102.37 503.6 103.31 503.6C104.243 503.6 105.063 504.093 105.77 505.08V505.47C105.15 506.343 104.58 506.97 104.06 507.35C104.193 507.37 104.327 507.38 104.46 507.38H106.88L106.89 508ZM101.44 505.27C102.14 506.203 102.763 506.81 103.31 507.09C103.85 506.81 104.477 506.2 105.19 505.26C104.657 504.56 104.03 504.21 103.31 504.21H103.28C102.6 504.21 101.987 504.563 101.44 505.27ZM108.14 505.32C108.14 504.753 108.31 504.313 108.65 504C108.943 503.733 109.33 503.6 109.81 503.6C110.43 503.6 110.907 503.827 111.24 504.28C111.527 504.667 111.67 505.173 111.67 505.8C111.67 506.513 111.487 507.07 111.12 507.47C110.8 507.823 110.383 508 109.87 508C109.243 508 108.777 507.8 108.47 507.4C108.17 507.8 107.72 508 107.12 508H106.69V507.38H107.04C107.773 507.38 108.14 507 108.14 506.24V505.32ZM108.81 506.28C108.81 507.013 109.17 507.38 109.89 507.38C110.237 507.38 110.51 507.24 110.71 506.96C110.91 506.68 111.01 506.29 111.01 505.79C111.01 505.297 110.905 504.91 110.695 504.63C110.485 504.35 110.19 504.21 109.81 504.21C109.143 504.21 108.81 504.6 108.81 505.38V506.28Z" fill="#94A3B8"/>
<path d="M65.332 525.184H62.804V523.584H65.332V520.736H67.204V523.584H69.748V525.184H67.204V528H65.332V525.184ZM70.772 524.352C72.212 522.155 73.6307 519.995 75.028 517.872H77.092V524.352H78.756V526.032H77.092V528H75.012V526.032H70.772V524.352ZM72.58 524.352H75.012V520.56L72.58 524.352ZM79.908 528V526.224C80.164 525.936 80.5054 525.547 80.932 525.056C81.604 524.309 82.1 523.744 82.42 523.36C83.1347 522.507 83.5827 521.923 83.764 521.608C83.9454 521.293 84.036 520.944 84.036 520.56C84.036 520.24 83.9187 519.973 83.684 519.76C83.4494 519.547 83.1507 519.44 82.788 519.44C82.1587 519.44 81.4654 519.696 80.708 520.208L79.828 518.928C80.8947 518.085 82.0094 517.664 83.172 517.664C84.1 517.664 84.8414 517.915 85.396 518.416C85.94 518.907 86.212 519.584 86.212 520.448C86.212 521.088 86.0014 521.757 85.58 522.456C85.1587 523.155 84.34 524.192 83.124 525.568C82.8254 525.909 82.6067 526.16 82.468 526.32H86.1V528H79.908ZM90.548 526.896C90.548 526.907 90.548 526.917 90.548 526.928C90.548 527.269 90.4414 527.547 90.228 527.76C90.0147 527.973 89.732 528.08 89.38 528.08C89.0174 528.08 88.7267 527.971 88.508 527.752C88.2894 527.533 88.18 527.243 88.18 526.88V526.848C88.2014 526.517 88.3214 526.251 88.54 526.048C88.7587 525.845 89.0387 525.744 89.38 525.744C89.732 525.744 90.0147 525.851 90.228 526.064C90.4414 526.277 90.548 526.555 90.548 526.896ZM98.66 519.552H95.124V521.6C95.252 521.547 95.428 521.52 95.652 521.52C96.8254 521.52 97.7374 521.813 98.388 522.4C99.0067 522.965 99.316 523.739 99.316 524.72C99.316 525.755 98.932 526.613 98.164 527.296C97.492 527.893 96.676 528.192 95.716 528.192C94.436 528.192 93.3214 527.728 92.372 526.8L93.236 525.472C94.0147 526.059 94.7667 526.352 95.492 526.352C96.612 526.352 97.172 525.851 97.172 524.848C97.172 523.728 96.452 523.168 95.012 523.168C94.5107 523.168 93.8547 523.259 93.044 523.44V517.872H98.66V519.552ZM103.012 528L107.86 518.576H109.428L104.58 528H103.012ZM104.804 521.136C104.804 521.936 104.623 522.576 104.26 523.056C103.897 523.536 103.412 523.776 102.804 523.776C102.164 523.776 101.663 523.544 101.3 523.08C100.937 522.616 100.756 521.973 100.756 521.152C100.756 520.373 100.94 519.76 101.308 519.312C101.676 518.864 102.175 518.64 102.804 518.64C103.391 518.64 103.871 518.872 104.244 519.336C104.617 519.8 104.804 520.4 104.804 521.136ZM103.636 521.168C103.636 520.752 103.553 520.403 103.388 520.12C103.223 519.837 103.017 519.696 102.772 519.696C102.527 519.696 102.321 519.835 102.156 520.112C101.991 520.389 101.908 520.741 101.908 521.168C101.908 521.627 101.988 522.003 102.148 522.296C102.308 522.589 102.516 522.736 102.772 522.736C103.028 522.736 103.236 522.589 103.396 522.296C103.556 522.003 103.636 521.627 103.636 521.168ZM111.588 525.408C111.588 526.208 111.407 526.848 111.044 527.328C110.681 527.808 110.196 528.048 109.588 528.048C108.948 528.048 108.447 527.813 108.084 527.344C107.721 526.875 107.54 526.235 107.54 525.424C107.54 524.645 107.724 524.029 108.092 523.576C108.46 523.123 108.959 522.896 109.588 522.896C110.175 522.896 110.655 523.131 111.028 523.6C111.401 524.069 111.588 524.672 111.588 525.408ZM110.404 525.44C110.404 525.024 110.324 524.675 110.164 524.392C110.004 524.109 109.801 523.968 109.556 523.968C109.3 523.968 109.092 524.104 108.932 524.376C108.772 524.648 108.692 525.003 108.692 525.44C108.692 525.899 108.772 526.275 108.932 526.568C109.092 526.861 109.3 527.008 109.556 527.008C109.801 527.008 110.004 526.861 110.164 526.568C110.324 526.275 110.404 525.899 110.404 525.44Z" fill="#393D46"/>
<rect x="124.42" y="505.5" width="36" height="28" rx="14" fill="#5370EA" fill-opacity="0.1"/>
<path d="M133.82 525.5L132.42 524.1L139.82 516.65L143.82 520.65L149.02 515.5H146.42V513.5H152.42V519.5H150.42V516.9L143.82 523.5L139.82 519.5L133.82 525.5Z" fill="#5370EA"/>
<defs>
<filter id="filter0_d_20393_2092" x="118" y="3" width="364" height="656" filterUnits="userSpaceOnUse" color-interpolation-filters="sRGB">
<feFlood flood-opacity="0" result="BackgroundImageFix"/>
<feColorMatrix in="SourceAlpha" type="matrix" values="0 0 0 0 0 0 0 0 0 0 0 0 0 0 0 0 0 0 127 0" result="hardAlpha"/>
<feMorphology radius="12" operator="erode" in="SourceAlpha" result="effect1_dropShadow_20393_2092"/>
<feOffset dy="25"/>
<feGaussianBlur stdDeviation="25"/>
<feComposite in2="hardAlpha" operator="out"/>
<feColorMatrix type="matrix" values="0 0 0 0 0 0 0 0 0 0 0 0 0 0 0 0 0 0 0.25 0"/>
<feBlend mode="normal" in2="BackgroundImageFix" result="effect1_dropShadow_20393_2092"/>
<feBlend mode="normal" in="SourceGraphic" in2="effect1_dropShadow_20393_2092" result="shape"/>
</filter>
<filter id="filter1_dd_20393_2092" x="259.94" y="0" width="282.06" height="141" filterUnits="userSpaceOnUse" color-interpolation-filters="sRGB">
<feFlood flood-opacity="0" result="BackgroundImageFix"/>
<feColorMatrix in="SourceAlpha" type="matrix" values="0 0 0 0 0 0 0 0 0 0 0 0 0 0 0 0 0 0 127 0" result="hardAlpha"/>
<feMorphology radius="6" operator="erode" in="SourceAlpha" result="effect1_dropShadow_20393_2092"/>
<feOffset dy="8"/>
<feGaussianBlur stdDeviation="5"/>
<feComposite in2="hardAlpha" operator="out"/>
<feColorMatrix type="matrix" values="0 0 0 0 0 0 0 0 0 0 0 0 0 0 0 0 0 0 0.1 0"/>
<feBlend mode="normal" in2="BackgroundImageFix" result="effect1_dropShadow_20393_2092"/>
<feColorMatrix in="SourceAlpha" type="matrix" values="0 0 0 0 0 0 0 0 0 0 0 0 0 0 0 0 0 0 127 0" result="hardAlpha"/>
<feMorphology radius="5" operator="erode" in="SourceAlpha" result="effect2_dropShadow_20393_2092"/>
<feOffset dy="20"/>
<feGaussianBlur stdDeviation="12.5"/>
<feComposite in2="hardAlpha" operator="out"/>
<feColorMatrix type="matrix" values="0 0 0 0 0 0 0 0 0 0 0 0 0 0 0 0 0 0 0.1 0"/>
<feBlend mode="normal" in2="effect1_dropShadow_20393_2092" result="effect2_dropShadow_20393_2092"/>
<feBlend mode="normal" in="SourceGraphic" in2="effect2_dropShadow_20393_2092" result="shape"/>
</filter>
<filter id="filter2_d_20393_2092" x="0" y="470" width="215.44" height="149" filterUnits="userSpaceOnUse" color-interpolation-filters="sRGB">
<feFlood flood-opacity="0" result="BackgroundImageFix"/>
<feColorMatrix in="SourceAlpha" type="matrix" values="0 0 0 0 0 0 0 0 0 0 0 0 0 0 0 0 0 0 127 0" result="hardAlpha"/>
<feMorphology radius="12" operator="erode" in="SourceAlpha" result="effect1_dropShadow_20393_2092"/>
<feOffset dy="25"/>
<feGaussianBlur stdDeviation="25"/>
<feComposite in2="hardAlpha" operator="out"/>
<feColorMatrix type="matrix" values="0 0 0 0 0 0 0 0 0 0 0 0 0 0 0 0 0 0 0.25 0"/>
<feBlend mode="normal" in2="BackgroundImageFix" result="effect1_dropShadow_20393_2092"/>
<feBlend mode="normal" in="SourceGraphic" in2="effect1_dropShadow_20393_2092" result="shape"/>
</filter>
</defs>
</svg>
