<svg width="60" height="60" viewBox="0 0 60 60" fill="none" xmlns="http://www.w3.org/2000/svg">
<g clip-path="url(#clip0_20101_441)">
<path d="M30.6251 25C30.6251 30.875 25.8751 35.625 20.0001 35.625C17.0501 35.625 14.4001 34.45 12.4751 32.525L20.0001 25V14.375C25.8751 14.375 30.6251 19.125 30.6251 25Z" fill="#506EEA"/>
<path d="M20 14.375V25L12.475 32.525C10.55 30.6 9.375 27.95 9.375 25C9.375 19.125 14.125 14.375 20 14.375Z" fill="#B4C0F1"/>
<path d="M43.75 60C34.79 60 27.5 52.71 27.5 43.75C27.5 34.79 34.79 27.5 43.75 27.5C52.71 27.5 60 34.79 60 43.75C60 52.71 52.71 60 43.75 60ZM43.75 31.25C36.8575 31.25 31.25 36.8575 31.25 43.75C31.25 50.6425 36.8575 56.25 43.75 56.25C50.6425 56.25 56.25 50.6425 56.25 43.75C56.25 36.8575 50.6425 31.25 43.75 31.25Z" fill="#5370EA"/>
<path d="M39.3751 50C38.8951 50 38.4151 49.8175 38.0501 49.45C37.3176 48.7175 37.3176 47.53 38.0501 46.7975L46.8001 38.0475C47.5326 37.315 48.7201 37.315 49.4526 38.0475C50.1851 38.78 50.1851 39.9675 49.4526 40.7L40.7026 49.45C40.3351 49.8175 39.8551 50 39.3751 50Z" fill="#A94D90"/>
<path d="M48.1251 50C47.6451 50 47.1651 49.8175 46.8001 49.45L38.0501 40.7C37.3176 39.9675 37.3176 38.78 38.0501 38.0475C38.7826 37.315 39.9701 37.315 40.7026 38.0475L49.4526 46.7975C50.1851 47.53 50.1851 48.7175 49.4526 49.45C49.0851 49.8175 48.6051 50 48.1251 50Z" fill="#A94D90"/>
<path d="M20.625 52.5H6.875C3.0825 52.5 0 49.4175 0 45.625V6.875C0 3.0825 3.0825 0 6.875 0H33.125C36.9175 0 40 3.0825 40 6.875V20.625C40 21.66 39.16 22.5 38.125 22.5C37.09 22.5 36.25 21.66 36.25 20.625V6.875C36.25 5.1525 34.8475 3.75 33.125 3.75H6.875C5.1525 3.75 3.75 5.1525 3.75 6.875V45.625C3.75 47.3475 5.1525 48.75 6.875 48.75H20.625C21.66 48.75 22.5 49.59 22.5 50.625C22.5 51.66 21.66 52.5 20.625 52.5Z" fill="#5370EA"/>
<path d="M20 37.5C13.1075 37.5 7.5 31.8925 7.5 25C7.5 18.1075 13.1075 12.5 20 12.5C26.8925 12.5 32.5 18.1075 32.5 25C32.5 25.5625 32.465 26.125 32.37 26.655C32.19 27.675 31.2275 28.36 30.195 28.17C29.1775 27.99 28.4975 27.015 28.68 25.995C28.735 25.6775 28.75 25.3375 28.75 25C28.75 20.175 24.825 16.25 20 16.25C15.175 16.25 11.25 20.175 11.25 25C11.25 29.825 15.175 33.75 20 33.75C21.0925 33.75 22.1175 33.5675 23.045 33.205C24 32.83 25.095 33.3025 25.4725 34.27C25.85 35.235 25.375 36.32 24.4075 36.6975C23.045 37.23 21.5625 37.5 20 37.5Z" fill="#A94D90"/>
<path d="M12.475 34.4C11.995 34.4 11.515 34.2175 11.15 33.85C10.4175 33.1175 10.4175 31.93 11.15 31.1975L18.125 24.2225V14.375C18.125 13.34 18.965 12.5 20 12.5C21.035 12.5 21.875 13.34 21.875 14.375V25C21.875 25.4975 21.6775 25.975 21.325 26.325L13.8 33.85C13.435 34.2175 12.9575 34.4 12.475 34.4Z" fill="#A94D90"/>
</g>
<defs>
<clipPath id="clip0_20101_441">
<rect width="60" height="60" fill="white"/>
</clipPath>
</defs>
</svg>
