<svg width="60" height="60" viewBox="0 0 60 60" fill="none" xmlns="http://www.w3.org/2000/svg">
<path d="M33.0469 12.2186C24.9094 12.2187 18.3125 18.8155 18.3125 26.953C18.3125 29.9555 19.2325 32.882 20.9404 35.3456L24.7012 34.7147L25.3906 34.5995L25.2764 35.2899L24.6523 39.0575C27.1164 40.7664 30.0434 41.6874 33.0469 41.6874C41.1844 41.6874 47.7812 35.0905 47.7812 26.953C47.7812 18.8155 41.1844 12.2186 33.0469 12.2186Z" stroke="black"/>
<path d="M29.8398 1.67188L29.541 5.34961L29.5098 5.73242L29.1328 5.80176C26.1061 6.35821 23.3015 7.54872 20.8604 9.23047L20.5449 9.44824L20.2529 9.2002L17.4385 6.80859L12.9033 11.3438L15.2939 14.1582L15.542 14.4502L15.3242 14.7656C13.6419 17.2065 12.4514 20.0121 11.8945 23.0391L11.8252 23.416L11.4434 23.4473L7.76562 23.7451V30.1602L11.4434 30.459L11.8252 30.4902L11.8945 30.8672C12.0758 31.8531 12.3257 32.8151 12.6367 33.749C12.9145 33.731 13.1944 33.7188 13.4766 33.7188C15.755 33.7188 17.8958 34.3144 19.75 35.3584C18.1633 32.8485 17.3125 29.936 17.3125 26.9531C17.3125 18.2633 24.3571 11.2188 33.0469 11.2188C41.7367 11.2188 48.7812 18.2634 48.7812 26.9531C48.7811 35.6428 41.7366 42.6875 33.0469 42.6875C30.0636 42.6875 27.1508 41.8361 24.6406 40.249C25.6852 42.1035 26.2812 44.2445 26.2812 46.5234C26.2812 46.8053 26.2689 47.0849 26.251 47.3623C27.1849 47.6732 28.1468 47.9231 29.1328 48.1045L29.5098 48.1738L29.541 48.5557L29.8398 52.2344H36.2539L36.5527 48.5557L36.584 48.1738L36.9609 48.1045C39.9878 47.548 42.7922 46.3567 45.2334 44.6748L45.5488 44.458L45.8408 44.7061L48.6562 47.0967L53.1914 42.5615L50.7998 39.748L50.5518 39.4561L50.7695 39.1396C52.4517 36.6989 53.6424 33.894 54.1992 30.8672L54.2686 30.4902L54.6504 30.459L58.3281 30.1602V23.7451L54.6504 23.4473L54.2686 23.416L54.1992 23.0391C53.6428 20.0122 52.4514 17.2069 50.7695 14.7656L50.5518 14.4502L50.7998 14.1582L53.1914 11.3428L48.6572 6.80859L45.8418 9.2002L45.5498 9.44824L45.2344 9.23047C42.7934 7.54818 39.9879 6.35761 36.9609 5.80078L36.584 5.73145L36.5527 5.34863L36.2539 1.67188H29.8398Z" fill="#5370EA" stroke="black"/>
<path d="M13.4766 34.7186C13.0914 34.7186 12.7104 34.7373 12.335 34.7733C6.35142 35.3473 1.67188 40.389 1.67188 46.5233C1.67188 53.0428 6.95706 58.3279 13.4766 58.328C19.4194 58.328 24.337 53.9363 25.1602 48.2216L25.2266 47.6639C25.2624 47.2888 25.2812 46.9083 25.2812 46.5233C25.2812 44.2644 24.6466 42.1555 23.5469 40.3622L23.4492 40.203L23.4805 40.0184L23.6143 39.2069L24.1758 35.8163L20.793 36.3846L19.9834 36.5204L19.7988 36.5507L19.6387 36.453C17.8451 35.3532 15.7357 34.7186 13.4766 34.7186Z" fill="#A94D90" stroke="black"/>
<path d="M11.8503 42.2904C11.1305 41.5706 9.96377 41.5707 9.2439 42.2904H9.24292C8.52343 43.0101 8.52354 44.1771 9.24292 44.8969L10.8699 46.5238L9.2439 48.1498H9.24292C8.52343 48.8695 8.52354 50.0364 9.24292 50.7562L9.2439 50.7572C9.96368 51.4766 11.1306 51.4767 11.8503 50.7572V50.7562L13.4763 49.1302L15.1023 50.7562V50.7572C15.8221 51.4771 16.9897 51.4762 17.7097 50.7562C18.4293 50.0364 18.4294 48.8696 17.7097 48.1498L16.0837 46.5238L16.4373 46.1703L17.7097 44.8969C18.4294 44.177 18.4295 43.0103 17.7097 42.2904C16.9899 41.5706 15.8231 41.5707 15.1033 42.2904L13.8298 43.5629L13.4763 43.9164L11.8503 42.2904Z" fill="white" stroke="black"/>
<path d="M28.8594 22.7654V31.1404H37.2344V22.7654H28.8594Z" fill="#94A5EE" stroke="black"/>
<mask id="path-6-inside-1_20101_454" fill="white">
<path fill-rule="evenodd" clip-rule="evenodd" d="M12.195 34.0083C11.8609 33.0208 11.5948 32.0021 11.4029 30.9574L7.26583 30.6211V23.2851L11.4025 22.9487C11.9724 19.8507 13.1912 16.9798 14.9126 14.4822L12.2232 11.3168L17.4107 6.12936L20.5764 8.81891C23.0742 7.09802 25.9446 5.87893 29.0426 5.3094L29.3789 1.17188H36.7149L37.0513 5.30858C40.1493 5.87846 43.0202 7.09732 45.5178 8.81868L48.6832 6.12936L53.8706 11.3168L51.1811 14.4824C52.902 16.9803 54.1211 19.8506 54.6906 22.9486L58.8281 23.285V30.621L54.6914 30.9573C54.1215 34.0554 52.9027 36.9262 51.1813 39.4238L53.8708 42.5893L48.6834 47.7767L45.5177 45.087C43.0198 46.8079 40.1495 48.027 37.0515 48.5965L36.7152 52.7341H29.379L29.0426 48.5965C27.9965 48.4042 26.9763 48.1377 25.9876 47.8031"/>
</mask>
<path d="M13.1422 33.6878C13.3192 34.2109 13.0386 34.7785 12.5155 34.9555C11.9923 35.1325 11.4247 34.8519 11.2477 34.3288L12.195 34.0083L13.1422 33.6878ZM11.4029 30.9574L11.4839 29.9607C11.9347 29.9974 12.3047 30.3319 12.3864 30.7767L11.4029 30.9574ZM7.26583 30.6211L7.1848 31.6178C6.66565 31.5756 6.26583 31.142 6.26583 30.6211H7.26583ZM7.26583 23.2851H6.26583C6.26583 22.7642 6.66565 22.3306 7.1848 22.2884L7.26583 23.2851ZM11.4025 22.9487L12.386 23.1297C12.3042 23.5743 11.9342 23.9088 11.4836 23.9455L11.4025 22.9487ZM14.9126 14.4822L15.6747 13.8347C15.9675 14.1793 15.9926 14.6774 15.736 15.0497L14.9126 14.4822ZM12.2232 11.3168L11.4611 11.9642C11.1239 11.5673 11.1478 10.9779 11.5161 10.6096L12.2232 11.3168ZM17.4107 6.12936L16.7036 5.42224C17.0719 5.05395 17.6612 5.03003 18.0582 5.36726L17.4107 6.12936ZM20.5764 8.81891L21.1437 9.6424C20.7715 9.89887 20.2734 9.8737 19.9289 9.58101L20.5764 8.81891ZM29.0426 5.3094L30.0393 5.39042C30.0027 5.84112 29.6681 6.21116 29.2234 6.29292L29.0426 5.3094ZM29.3789 1.17188L28.3822 1.09086C28.4244 0.571698 28.858 0.171875 29.3789 0.171875V1.17188ZM36.7149 1.17188V0.171875C37.2358 0.171875 37.6694 0.571689 37.7116 1.09084L36.7149 1.17188ZM37.0513 5.30858L36.8703 6.29208C36.4257 6.21028 36.0912 5.84027 36.0545 5.38961L37.0513 5.30858ZM45.5178 8.81868L46.1653 9.58078C45.8207 9.87351 45.3226 9.89864 44.9503 9.64207L45.5178 8.81868ZM48.6832 6.12936L48.0358 5.36726C48.4327 5.03002 49.022 5.05395 49.3904 5.42225L48.6832 6.12936ZM53.8706 11.3168L54.5778 10.6096C54.9461 10.978 54.97 11.5673 54.6327 11.9642L53.8706 11.3168ZM51.1811 14.4824L50.3576 15.0498C50.1011 14.6775 50.1263 14.1795 50.419 13.835L51.1811 14.4824ZM54.6906 22.9486L54.6096 23.9453C54.1589 23.9087 53.7888 23.5742 53.7071 23.1294L54.6906 22.9486ZM58.8281 23.285L58.9091 22.2882C59.4283 22.3304 59.8281 22.7641 59.8281 23.285H58.8281ZM58.8281 30.621H59.8281C59.8281 31.1418 59.4283 31.5755 58.9092 31.6177L58.8281 30.621ZM54.6914 30.9573L53.7079 30.7764C53.7897 30.3317 54.1597 29.9972 54.6104 29.9606L54.6914 30.9573ZM51.1813 39.4238L50.4192 40.0713C50.1265 39.7268 50.1014 39.2286 50.3579 38.8564L51.1813 39.4238ZM53.8708 42.5893L54.6328 41.9418C54.9701 42.3387 54.9462 42.9281 54.5779 43.2964L53.8708 42.5893ZM48.6834 47.7767L49.3905 48.4838C49.0222 48.8521 48.4328 48.876 48.0359 48.5388L48.6834 47.7767ZM45.5177 45.087L44.9503 44.2635C45.3226 44.0071 45.8206 44.0322 46.1652 44.3249L45.5177 45.087ZM37.0515 48.5965L36.0548 48.5155C36.0914 48.0648 36.4259 47.6948 36.8707 47.613L37.0515 48.5965ZM36.7152 52.7341L37.7119 52.8151C37.6697 53.3342 37.236 53.7341 36.7152 53.7341V52.7341ZM29.379 52.7341V53.7341C28.8582 53.7341 28.4245 53.3342 28.3823 52.8151L29.379 52.7341ZM29.0426 48.5965L29.2234 47.613C29.6681 47.6948 30.0026 48.0648 30.0393 48.5155L29.0426 48.5965ZM25.667 48.7503C25.1439 48.5732 24.8633 48.0055 25.0404 47.4824C25.2175 46.9593 25.7851 46.6788 26.3083 46.8559L25.9876 47.8031L25.667 48.7503ZM12.195 34.0083L11.2477 34.3288C10.8983 33.2962 10.6201 32.2308 10.4193 31.1381L11.4029 30.9574L12.3864 30.7767C12.5696 31.7735 12.8234 32.7455 13.1422 33.6878L12.195 34.0083ZM11.4029 30.9574L11.3219 31.9541L7.1848 31.6178L7.26583 30.6211L7.34686 29.6244L11.4839 29.9607L11.4029 30.9574ZM7.26583 30.6211H6.26583V23.2851H7.26583H8.26583V30.6211H7.26583ZM7.26583 23.2851L7.1848 22.2884L11.3215 21.952L11.4025 22.9487L11.4836 23.9455L7.34687 24.2818L7.26583 23.2851ZM11.4025 22.9487L10.419 22.7678C11.015 19.5278 12.2897 16.5257 14.0893 13.9147L14.9126 14.4822L15.736 15.0497C14.0926 17.434 12.9298 20.1736 12.386 23.1297L11.4025 22.9487ZM14.9126 14.4822L14.1506 15.1297L11.4611 11.9642L12.2232 11.3168L12.9853 10.6693L15.6747 13.8347L14.9126 14.4822ZM12.2232 11.3168L11.5161 10.6096L16.7036 5.42224L17.4107 6.12936L18.1178 6.83647L12.9303 12.0239L12.2232 11.3168ZM17.4107 6.12936L18.0582 5.36726L21.2239 8.05682L20.5764 8.81891L19.9289 9.58101L16.7632 6.89145L17.4107 6.12936ZM20.5764 8.81891L20.0091 7.99543C22.6201 6.19659 25.6216 4.92155 28.8618 4.32588L29.0426 5.3094L29.2234 6.29292C26.2676 6.8363 23.5284 7.99946 21.1437 9.6424L20.5764 8.81891ZM29.0426 5.3094L28.0459 5.22838L28.3822 1.09086L29.3789 1.17188L30.3756 1.25289L30.0393 5.39042L29.0426 5.3094ZM29.3789 1.17188V0.171875H36.7149V1.17188V2.17188H29.3789V1.17188ZM36.7149 1.17188L37.7116 1.09084L38.048 5.22754L37.0513 5.30858L36.0545 5.38961L35.7182 1.25291L36.7149 1.17188ZM37.0513 5.30858L37.2322 4.32508C40.4723 4.92108 43.4744 6.19584 46.0853 7.99529L45.5178 8.81868L44.9503 9.64207C42.566 7.9988 39.8264 6.83583 36.8703 6.29208L37.0513 5.30858ZM45.5178 8.81868L44.8703 8.05659L48.0358 5.36726L48.6832 6.12936L49.3307 6.89145L46.1653 9.58078L45.5178 8.81868ZM48.6832 6.12936L49.3904 5.42225L54.5778 10.6096L53.8706 11.3168L53.1635 12.0239L47.9761 6.83646L48.6832 6.12936ZM53.8706 11.3168L54.6327 11.9642L51.9432 15.1299L51.1811 14.4824L50.419 13.835L53.1086 10.6693L53.8706 11.3168ZM51.1811 14.4824L52.0046 13.9151C53.8034 16.5261 55.0785 19.5275 55.6741 22.7678L54.6906 22.9486L53.7071 23.1294C53.1637 20.1736 52.0005 17.4345 50.3576 15.0498L51.1811 14.4824ZM54.6906 22.9486L54.7716 21.9519L58.9091 22.2882L58.8281 23.285L58.7471 24.2817L54.6096 23.9453L54.6906 22.9486ZM58.8281 23.285H59.8281V30.621H58.8281H57.8281V23.285H58.8281ZM58.8281 30.621L58.9092 31.6177L54.7725 31.954L54.6914 30.9573L54.6104 29.9606L58.7471 29.6243L58.8281 30.621ZM54.6914 30.9573L55.6749 31.1382C55.0789 34.3783 53.8042 37.3804 52.0047 39.9913L51.1813 39.4238L50.3579 38.8564C52.0012 36.4721 53.1642 33.7324 53.7079 30.7764L54.6914 30.9573ZM51.1813 39.4238L51.9434 38.7764L54.6328 41.9418L53.8708 42.5893L53.1087 43.2368L50.4192 40.0713L51.1813 39.4238ZM53.8708 42.5893L54.5779 43.2964L49.3905 48.4838L48.6834 47.7767L47.9763 47.0696L53.1637 41.8822L53.8708 42.5893ZM48.6834 47.7767L48.0359 48.5388L44.8702 45.8491L45.5177 45.087L46.1652 44.3249L49.3308 47.0146L48.6834 47.7767ZM45.5177 45.087L46.085 45.9105C43.474 47.7093 40.4725 48.9844 37.2323 49.58L37.0515 48.5965L36.8707 47.613C39.8265 47.0696 42.5656 45.9065 44.9503 44.2635L45.5177 45.087ZM37.0515 48.5965L38.0482 48.6776L37.7119 52.8151L36.7152 52.7341L35.7185 52.653L36.0548 48.5155L37.0515 48.5965ZM36.7152 52.7341V53.7341H29.379V52.7341V51.7341H36.7152V52.7341ZM29.379 52.7341L28.3823 52.8151L28.0459 48.6776L29.0426 48.5965L30.0393 48.5155L30.3757 52.653L29.379 52.7341ZM29.0426 48.5965L28.8618 49.5801C27.7677 49.3789 26.7009 49.1003 25.667 48.7503L25.9876 47.8031L26.3083 46.8559C27.2518 47.1752 28.2252 47.4295 29.2234 47.613L29.0426 48.5965Z" fill="black" mask="url(#path-6-inside-1_20101_454)"/>
<mask id="path-8-inside-2_20101_454" fill="white">
<path fill-rule="evenodd" clip-rule="evenodd" d="M24.3242 39.4429C26.8822 41.2293 29.9269 42.1873 33.0469 42.1873C41.4606 42.1873 48.2812 35.3667 48.2812 26.953C48.2812 20.3637 44.0974 14.7517 38.2416 12.6278M27.8514 12.628C21.996 14.7523 17.8126 20.3639 17.8126 26.953C17.8126 30.0725 18.7703 33.1169 20.5563 35.6747"/>
</mask>
<path d="M23.7517 40.2628C23.2989 39.9465 23.1882 39.3231 23.5044 38.8703C23.8206 38.4175 24.444 38.3068 24.8968 38.623L24.3242 39.4429L23.7517 40.2628ZM37.9006 13.5679C37.3814 13.3796 37.1132 12.806 37.3015 12.2868C37.4898 11.7677 38.0634 11.4994 38.5826 11.6877L38.2416 12.6278L37.9006 13.5679ZM27.5104 11.688C28.0296 11.4996 28.6032 11.7678 28.7915 12.287C28.9798 12.8062 28.7117 13.3797 28.1925 13.5681L27.8514 12.628L27.5104 11.688ZM21.3762 35.1022C21.6924 35.5551 21.5816 36.1785 21.1288 36.4946C20.676 36.8108 20.0526 36.7001 19.7364 36.2473L20.5563 35.6747L21.3762 35.1022ZM24.3242 39.4429L24.8968 38.623C27.2869 40.2922 30.1318 41.1873 33.0469 41.1873V42.1873V43.1873C29.7221 43.1873 26.4775 42.1664 23.7517 40.2628L24.3242 39.4429ZM33.0469 42.1873V41.1873C40.9083 41.1873 47.2812 34.8144 47.2812 26.953H48.2812H49.2812C49.2812 35.9189 42.0129 43.1873 33.0469 43.1873V42.1873ZM48.2812 26.953H47.2812C47.2812 20.7978 43.3736 15.5529 37.9006 13.5679L38.2416 12.6278L38.5826 11.6877C44.8213 13.9505 49.2812 19.9295 49.2812 26.953H48.2812ZM27.8514 12.628L28.1925 13.5681C22.7198 15.5535 18.8126 20.7981 18.8126 26.953H17.8126H16.8126C16.8126 19.9298 21.2721 13.9511 27.5104 11.688L27.8514 12.628ZM17.8126 26.953H18.8126C18.8126 29.8677 19.7074 32.7123 21.3762 35.1022L20.5563 35.6747L19.7364 36.2473C17.8331 33.5215 16.8126 30.2773 16.8126 26.953H17.8126Z" fill="black" mask="url(#path-8-inside-2_20101_454)"/>
<path d="M13.4766 34.7189C6.957 34.7189 1.67188 40.004 1.67188 46.5236C1.67188 53.0431 6.957 58.3282 13.4766 58.3282C19.9961 58.3282 25.2812 53.043 25.2812 46.5236C25.2812 44.2645 24.6466 42.1556 23.5469 40.3624C23.484 40.2599 23.4608 40.1374 23.4805 40.0187L24.1768 35.8165L19.9834 36.5206C19.8644 36.5406 19.7415 36.5163 19.6387 36.4532C17.8452 35.3534 15.7358 34.7189 13.4766 34.7189Z" stroke="black" stroke-miterlimit="22.9256" stroke-linecap="round" stroke-linejoin="round"/>
<path d="M33.0469 11.7188H33.0452" stroke="black" stroke-miterlimit="2.6131" stroke-linecap="round" stroke-linejoin="round"/>
<path d="M28.8594 22.7655V31.1405H37.2344V22.7655H28.8594Z" stroke="black" stroke-miterlimit="22.9256" stroke-linecap="round" stroke-linejoin="round"/>
<path d="M35.3906 21.6796V19.9216" stroke="black" stroke-miterlimit="22.9256" stroke-linecap="round" stroke-linejoin="round"/>
<path d="M30.7031 21.6796V19.9216" stroke="black" stroke-miterlimit="22.9256" stroke-linecap="round" stroke-linejoin="round"/>
<path d="M38.3204 29.2968H40.0784" stroke="black" stroke-miterlimit="22.9256" stroke-linecap="round" stroke-linejoin="round"/>
<path d="M38.3204 24.6093H40.0784" stroke="black" stroke-miterlimit="22.9256" stroke-linecap="round" stroke-linejoin="round"/>
<path d="M30.7031 32.2264V33.9844" stroke="black" stroke-miterlimit="22.9256" stroke-linecap="round" stroke-linejoin="round"/>
<path d="M35.3906 32.2264V33.9844" stroke="black" stroke-miterlimit="22.9256" stroke-linecap="round" stroke-linejoin="round"/>
<path d="M27.7737 24.6093H26.0158" stroke="black" stroke-miterlimit="22.9256" stroke-linecap="round" stroke-linejoin="round"/>
<path d="M27.7737 29.2968H26.0158" stroke="black" stroke-miterlimit="22.9256" stroke-linecap="round" stroke-linejoin="round"/>
<path d="M33.0474 26.953H33.0462" stroke="black" stroke-miterlimit="22.9256" stroke-linecap="round" stroke-linejoin="round"/>
<path d="M11.8503 42.2904C11.1305 41.5706 9.96377 41.5707 9.2439 42.2904C8.52407 43.0102 8.52346 44.177 9.24292 44.8969L10.5164 46.1703C10.7112 46.3656 10.7114 46.6822 10.5164 46.8773L9.2439 48.1498H9.24292C8.52343 48.8695 8.52354 50.0364 9.24292 50.7562L9.2439 50.7572C9.96368 51.4766 11.1306 51.4767 11.8503 50.7572V50.7562L13.1228 49.4838C13.2165 49.3901 13.3438 49.3373 13.4763 49.3373C13.5756 49.3373 13.6722 49.3671 13.7537 49.4213L13.8298 49.4838L15.1023 50.7562C15.8222 51.4761 16.9899 51.4769 17.7097 50.7572V50.7562C18.4293 50.0364 18.4294 48.8696 17.7097 48.1498L16.4373 46.8773C16.3435 46.7836 16.2908 46.6563 16.2908 46.5238C16.2908 46.3913 16.3436 46.264 16.4373 46.1703L17.7097 44.8969C18.4294 44.177 18.4295 43.0102 17.7097 42.2904C16.9898 41.5706 15.8231 41.5707 15.1033 42.2904L13.8298 43.5629C13.7361 43.6565 13.6088 43.7093 13.4763 43.7094C13.3438 43.7093 13.2165 43.6565 13.1228 43.5629L11.8503 42.2904Z" stroke="black" stroke-miterlimit="22.9256" stroke-linecap="round" stroke-linejoin="round"/>
</svg>
