<svg width="60" height="60" viewBox="0 0 60 60" fill="none" xmlns="http://www.w3.org/2000/svg">
<path d="M12.4468 10.7157H17.6149V28.3387H12.4468V10.7157Z" fill="#5370EA"/>
<path d="M42.385 10.7157H47.5531V28.3387H42.385V10.7157Z" fill="#5370EA"/>
<path d="M26.1057 3.0759V9.39957C26.1057 10.1265 25.5165 10.7157 24.7896 10.7157H5.27268C4.54576 10.7157 3.95654 10.1265 3.95654 9.39957V3.0759C3.95654 2.34898 4.54576 1.75977 5.27268 1.75977H24.7896C25.5165 1.75977 26.1057 2.34898 26.1057 3.0759Z" fill="#F4F4F4"/>
<path d="M26.1057 16.3653V22.689C26.1057 23.4159 25.5165 24.0051 24.7896 24.0051H5.27268C4.54576 24.0051 3.95654 23.4159 3.95654 22.689V16.3653C3.95654 15.6384 4.54576 15.0492 5.27268 15.0492H24.7896C25.5165 15.0492 26.1057 15.6384 26.1057 16.3653Z" fill="#A94D90"/>
<path d="M26.1057 29.6549V35.9785C26.1057 36.7055 25.5165 37.2947 24.7896 37.2947H5.27268C4.54576 37.2947 3.95654 36.7055 3.95654 35.9785V29.6549C3.95654 28.928 4.54576 28.3387 5.27268 28.3387H24.7896C25.5165 28.3387 26.1057 28.928 26.1057 29.6549Z" fill="#F4F4F4"/>
<path d="M56.0434 3.0759V9.39957C56.0434 10.1265 55.4542 10.7157 54.7273 10.7157H35.2104C34.4835 10.7157 33.8943 10.1265 33.8943 9.39957V3.0759C33.8943 2.34898 34.4835 1.75977 35.2104 1.75977H54.7273C55.4542 1.75977 56.0434 2.34898 56.0434 3.0759Z" fill="#A94D90"/>
<path d="M56.0434 16.3653V22.689C56.0434 23.4159 55.4542 24.0051 54.7273 24.0051H35.2104C34.4835 24.0051 33.8943 23.4159 33.8943 22.689V16.3653C33.8943 15.6384 34.4835 15.0492 35.2104 15.0492H54.7273C55.4542 15.0492 56.0434 15.6384 56.0434 16.3653Z" fill="#F4F4F4"/>
<path d="M56.0434 29.6549V35.9785C56.0434 36.7055 55.4542 37.2947 54.7273 37.2947H35.2104C34.4835 37.2947 33.8943 36.7055 33.8943 35.9785V29.6549C33.8943 28.928 34.4835 28.3387 35.2104 28.3387H54.7273C55.4542 28.3387 56.0434 28.928 56.0434 29.6549Z" fill="#A94D90"/>
<path d="M9.14062 6.23779C9.14062 7.00818 8.51063 7.63818 7.74023 7.63818C6.96586 7.63818 6.33984 7.00818 6.33984 6.23779C6.33984 5.4633 6.96574 4.8374 7.74023 4.8374C8.51063 4.8374 9.14062 5.4633 9.14062 6.23779Z" fill="#F4F4F4"/>
<path d="M14.1604 6.23779C14.1604 7.00818 13.5304 7.63818 12.76 7.63818C11.9856 7.63818 11.3596 7.00818 11.3596 6.23779C11.3596 5.4633 11.9855 4.8374 12.76 4.8374C13.5304 4.8374 14.1604 5.4633 14.1604 6.23779Z" fill="#F4F4F4"/>
<path d="M9.14062 19.5271C9.14062 20.2975 8.51063 20.9275 7.74023 20.9275C6.96586 20.9275 6.33984 20.2975 6.33984 19.5271C6.33984 18.7526 6.96574 18.1267 7.74023 18.1267C8.51063 18.1267 9.14062 18.7527 9.14062 19.5271Z" fill="#F4F4F4"/>
<path d="M14.1604 19.5271C14.1604 20.2975 13.5304 20.9275 12.76 20.9275C11.9856 20.9275 11.3596 20.2975 11.3596 19.5271C11.3596 18.7526 11.9855 18.1267 12.76 18.1267C13.5304 18.1267 14.1604 18.7527 14.1604 19.5271Z" fill="#F4F4F4"/>
<path d="M9.14062 32.8167C9.14062 33.587 8.51063 34.217 7.74023 34.217C6.96586 34.217 6.33984 33.587 6.33984 32.8167C6.33984 32.0422 6.96574 31.4163 7.74023 31.4163C8.51063 31.4163 9.14062 32.0422 9.14062 32.8167Z" fill="#F4F4F4"/>
<path d="M14.1604 32.8167C14.1604 33.587 13.5304 34.217 12.76 34.217C11.9856 34.217 11.3596 33.587 11.3596 32.8167C11.3596 32.0422 11.9855 31.4163 12.76 31.4163C13.5304 31.4163 14.1604 32.0422 14.1604 32.8167Z" fill="#F4F4F4"/>
<path d="M39.0786 6.23779C39.0786 7.00818 38.4486 7.63818 37.6782 7.63818C36.9038 7.63818 36.2778 7.00818 36.2778 6.23779C36.2778 5.4633 36.9037 4.8374 37.6782 4.8374C38.4486 4.8374 39.0786 5.4633 39.0786 6.23779Z" fill="#F4F4F4"/>
<path d="M44.0981 6.23779C44.0981 7.00818 43.4681 7.63818 42.6978 7.63818C41.9234 7.63818 41.2974 7.00818 41.2974 6.23779C41.2974 5.4633 41.9233 4.8374 42.6978 4.8374C43.4683 4.8374 44.0981 5.4633 44.0981 6.23779Z" fill="#F4F4F4"/>
<path d="M39.0786 19.5271C39.0786 20.2975 38.4486 20.9275 37.6782 20.9275C36.9038 20.9275 36.2778 20.2975 36.2778 19.5271C36.2778 18.7526 36.9037 18.1267 37.6782 18.1267C38.4486 18.1267 39.0786 18.7527 39.0786 19.5271Z" fill="#F4F4F4"/>
<path d="M44.0981 19.5271C44.0981 20.2975 43.4681 20.9275 42.6978 20.9275C41.9234 20.9275 41.2974 20.2975 41.2974 19.5271C41.2974 18.7526 41.9233 18.1267 42.6978 18.1267C43.4683 18.1267 44.0981 18.7527 44.0981 19.5271Z" fill="#F4F4F4"/>
<path d="M39.0786 32.8167C39.0786 33.587 38.4486 34.217 37.6782 34.217C36.9038 34.217 36.2778 33.587 36.2778 32.8167C36.2778 32.0422 36.9037 31.4163 37.6782 31.4163C38.4486 31.4163 39.0786 32.0422 39.0786 32.8167Z" fill="#F4F4F4"/>
<path d="M44.0981 32.8167C44.0981 33.587 43.4681 34.217 42.6978 34.217C41.9234 34.217 41.2974 33.587 41.2974 32.8167C41.2974 32.0422 41.9233 31.4163 42.6978 31.4163C43.4683 31.4163 44.0981 32.0422 44.0981 32.8167Z" fill="#F4F4F4"/>
<path d="M29.5647 58.24C34.1519 58.24 37.8706 54.5213 37.8706 49.9341C37.8706 45.3469 34.1519 41.6282 29.5647 41.6282C24.9775 41.6282 21.2588 45.3469 21.2588 49.9341C21.2588 54.5213 24.9775 58.24 29.5647 58.24Z" fill="#F4F4F4"/>
<path d="M33.4014 53.7708C32.8321 54.3401 31.9092 54.3401 31.3399 53.7708L29.5647 51.9957L27.7896 53.7708C27.2203 54.3401 26.2973 54.3401 25.728 53.7708C25.1587 53.2015 25.1587 52.2786 25.728 51.7093L27.5032 49.9341L25.728 48.1589C25.1587 47.5896 25.1587 46.6667 25.728 46.0974C26.2973 45.5281 27.2203 45.5281 27.7896 46.0974L29.5647 47.8725L31.3399 46.0974C31.9092 45.5281 32.8321 45.5281 33.4014 46.0974C33.9707 46.6667 33.9707 47.5896 33.4014 48.1589L31.6263 49.9341L33.4014 51.7093C33.9706 52.2784 33.9706 53.2015 33.4014 53.7708Z" fill="#A94D90"/>
<path d="M7.74013 4.17554C6.60317 4.17554 5.67798 5.10073 5.67798 6.23792C5.67798 7.37464 6.60317 8.29983 7.74013 8.29983C8.87732 8.29983 9.80251 7.37464 9.80251 6.23792C9.80251 5.10073 8.87732 4.17554 7.74013 4.17554ZM7.74013 6.97608C7.3329 6.97608 7.00173 6.64515 7.00173 6.23792C7.00173 5.83069 7.3329 5.49929 7.74013 5.49929C8.14735 5.49929 8.47876 5.83069 8.47876 6.23792C8.47876 6.64515 8.14735 6.97608 7.74013 6.97608Z" fill="#4D1958"/>
<path d="M12.7599 4.17554C11.6229 4.17554 10.6978 5.10073 10.6978 6.23792C10.6978 7.37464 11.6229 8.29983 12.7599 8.29983C13.8971 8.29983 14.8223 7.37464 14.8223 6.23792C14.8222 5.10073 13.8971 4.17554 12.7599 4.17554ZM12.7599 6.97608C12.3527 6.97608 12.0215 6.64515 12.0215 6.23792C12.0215 5.83069 12.3527 5.49929 12.7599 5.49929C13.1671 5.49929 13.4985 5.83069 13.4985 6.23792C13.4985 6.64515 13.1671 6.97608 12.7599 6.97608Z" fill="#4D1958"/>
<path d="M7.74013 17.4647C6.60317 17.4647 5.67798 18.3899 5.67798 19.5271C5.67798 20.6643 6.60317 21.5895 7.74013 21.5895C8.87732 21.5895 9.80251 20.6643 9.80251 19.5271C9.80251 18.3899 8.87732 17.4647 7.74013 17.4647ZM7.74013 20.2656C7.3329 20.2656 7.00173 19.9342 7.00173 19.527C7.00173 18.5493 8.47864 18.5508 8.47864 19.527C8.47876 19.9343 8.14735 20.2656 7.74013 20.2656Z" fill="#4D1958"/>
<path d="M12.7599 21.5894C13.8971 21.5894 14.8223 20.6642 14.8223 19.527C14.8223 18.3898 13.8971 17.4646 12.7599 17.4646C11.6229 17.4646 10.6978 18.3898 10.6978 19.527C10.6978 20.6643 11.6229 21.5894 12.7599 21.5894ZM13.4984 19.5271C13.4984 19.9343 13.167 20.2657 12.7598 20.2657C12.3526 20.2657 12.0214 19.9343 12.0214 19.5271C12.0215 18.5494 13.4984 18.5509 13.4984 19.5271Z" fill="#4D1958"/>
<path d="M7.74013 30.7545C6.60317 30.7545 5.67798 31.6797 5.67798 32.8169C5.67798 33.9536 6.60317 34.8788 7.74013 34.8788C8.87732 34.8788 9.80251 33.9536 9.80251 32.8169C9.80251 31.6796 8.87732 30.7545 7.74013 30.7545ZM7.74013 33.5549C7.3329 33.5549 7.00173 33.224 7.00173 32.8168C7.00173 32.4096 7.3329 32.0782 7.74013 32.0782C8.14735 32.0782 8.47876 32.4096 8.47876 32.8168C8.47876 33.224 8.14735 33.5549 7.74013 33.5549Z" fill="#4D1958"/>
<path d="M14.8223 32.8168C14.8223 31.6796 13.8971 30.7544 12.7599 30.7544C11.6229 30.7544 10.6978 31.6796 10.6978 32.8168C10.6978 33.9535 11.6229 34.8787 12.7599 34.8787C13.8972 34.8787 14.8223 33.9535 14.8223 32.8168ZM12.0216 32.8168C12.0216 32.4096 12.3528 32.0781 12.76 32.0781C13.1672 32.0781 13.4987 32.4096 13.4987 32.8168C13.4987 33.224 13.1672 33.5549 12.76 33.5549C12.3528 33.5549 12.0216 33.224 12.0216 32.8168Z" fill="#4D1958"/>
<path d="M54.7274 1.09802H35.2105C34.1199 1.09802 33.2324 1.98525 33.2324 3.07591V9.39947C33.2324 10.4901 34.1199 11.3778 35.2105 11.3778H41.7239V14.3873H35.2105C34.1199 14.3873 33.2324 15.275 33.2324 16.3657V22.6892C33.2324 23.7799 34.1199 24.6671 35.2105 24.6671H41.7239V27.6771H35.2105C34.1199 27.6771 33.2324 28.5643 33.2324 29.655V35.9785C33.2324 37.0692 34.1199 37.9564 35.2105 37.9564H44.3053V46.9926C44.3053 48.3698 43.1869 49.4901 41.8123 49.4901H40.515C40.1494 49.4901 39.8532 49.7866 39.8532 50.152C39.8532 50.5174 40.1494 50.8139 40.515 50.8139H41.8123C43.9169 50.8139 45.6291 49.0997 45.6291 46.9925V37.9563H54.7273C55.818 37.9563 56.7054 37.0691 56.7054 35.9784V29.6549C56.7054 28.5642 55.818 27.677 54.7273 27.677H48.215V24.667H54.7273C55.818 24.667 56.7054 23.7798 56.7054 22.6891V16.3656C56.7054 15.2749 55.818 14.3872 54.7273 14.3872H48.215V11.3777H54.7273C55.818 11.3777 56.7054 10.49 56.7054 9.39935V3.0758C56.7054 1.98525 55.818 1.09802 54.7274 1.09802ZM55.3817 29.6549V35.9784C55.3817 36.3391 55.0882 36.6326 54.7273 36.6326C42.8028 36.6326 47.2589 36.6326 35.2105 36.6326C34.8496 36.6326 34.5562 36.3391 34.5562 35.9784V29.6549C34.5562 29.2942 34.8496 29.0007 35.2105 29.0007C38.8123 29.0041 54.1923 29.0008 54.7273 29.0007C55.0882 29.0007 55.3817 29.2942 55.3817 29.6549ZM46.8913 27.677H43.0478V24.667H46.8913V27.677ZM55.3817 16.3656V22.6891C55.3817 23.0498 55.0882 23.3433 54.7273 23.3433C48.7217 23.3433 41.182 23.3433 35.2105 23.3433C34.8496 23.3433 34.5562 23.0498 34.5562 22.6891V16.3656C34.5562 16.0045 34.8496 15.711 35.2105 15.711H54.7273C55.0882 15.711 55.3817 16.0045 55.3817 16.3656ZM43.0478 14.3872V11.379H46.8913V14.3872H43.0478ZM55.3817 9.39947C55.3817 9.76052 55.0882 10.0541 54.7273 10.0541H35.2105C34.8496 10.0541 34.5562 9.76064 34.5562 9.39947V3.0758C34.5562 2.71509 34.8496 2.42166 35.2105 2.42166H54.7273C55.0882 2.42166 55.3817 2.71509 55.3817 3.0758V9.39947Z" fill="#4D1958"/>
<path d="M37.6781 4.17554C36.5412 4.17554 35.616 5.10073 35.616 6.23792C35.616 7.37464 36.5412 8.29983 37.6781 8.29983C38.8153 8.29983 39.7405 7.37464 39.7405 6.23792C39.7405 5.10073 38.8153 4.17554 37.6781 4.17554ZM37.6781 6.97608C37.2709 6.97608 36.9397 6.64515 36.9397 6.23792C36.9397 5.83069 37.2709 5.49929 37.6781 5.49929C38.0853 5.49929 38.4167 5.83069 38.4167 6.23792C38.4167 6.64515 38.0853 6.97608 37.6781 6.97608Z" fill="#4D1958"/>
<path d="M42.6979 4.17554C41.5609 4.17554 40.6357 5.10073 40.6357 6.23792C40.6357 7.37464 41.5609 8.29983 42.6979 8.29983C43.8351 8.29983 44.7603 7.37464 44.7603 6.23792C44.7603 5.10073 43.8351 4.17554 42.6979 4.17554ZM42.6979 6.97608C42.2907 6.97608 41.9595 6.64515 41.9595 6.23792C41.9595 5.83069 42.2907 5.49929 42.6979 5.49929C43.1051 5.49929 43.4365 5.83069 43.4365 6.23792C43.4365 6.64515 43.1051 6.97608 42.6979 6.97608Z" fill="#4D1958"/>
<path d="M37.6781 17.4647C36.5412 17.4647 35.616 18.3899 35.616 19.5271C35.616 20.6643 36.5412 21.5895 37.6781 21.5895C38.8153 21.5895 39.7405 20.6643 39.7405 19.5271C39.7405 18.3899 38.8153 17.4647 37.6781 17.4647ZM37.6781 20.2656C37.2709 20.2656 36.9397 19.9342 36.9397 19.527C36.9397 19.1198 37.2709 18.7884 37.6781 18.7884C38.0853 18.7884 38.4167 19.1198 38.4167 19.527C38.4167 19.9343 38.0853 20.2656 37.6781 20.2656Z" fill="#4D1958"/>
<path d="M42.6979 17.4647C41.5609 17.4647 40.6357 18.3899 40.6357 19.5271C40.6357 20.6643 41.5609 21.5895 42.6979 21.5895C43.8351 21.5895 44.7603 20.6643 44.7603 19.5271C44.7603 18.3899 43.8351 17.4647 42.6979 17.4647ZM42.6979 20.2656C42.2907 20.2656 41.9595 19.9342 41.9595 19.527C41.9595 19.1198 42.2907 18.7884 42.6979 18.7884C43.1051 18.7884 43.4365 19.1198 43.4365 19.527C43.4364 19.9343 43.1051 20.2656 42.6979 20.2656Z" fill="#4D1958"/>
<path d="M37.6781 30.7545C36.5412 30.7545 35.616 31.6797 35.616 32.8169C35.616 33.9536 36.5412 34.8788 37.6781 34.8788C38.8153 34.8788 39.7405 33.9536 39.7405 32.8169C39.7405 31.6796 38.8153 30.7545 37.6781 30.7545ZM37.6781 33.5549C37.2709 33.5549 36.9397 33.224 36.9397 32.8168C36.9397 32.4096 37.2709 32.0782 37.6781 32.0782C38.0853 32.0782 38.4167 32.4096 38.4167 32.8168C38.4167 33.224 38.0853 33.5549 37.6781 33.5549Z" fill="#4D1958"/>
<path d="M42.6979 30.7545C41.5609 30.7545 40.6357 31.6797 40.6357 32.8169C40.6357 33.9536 41.5609 34.8788 42.6979 34.8788C43.8351 34.8788 44.7603 33.9536 44.7603 32.8169C44.7603 31.6796 43.8351 30.7545 42.6979 30.7545ZM42.6979 33.5549C42.2907 33.5549 41.9595 33.224 41.9595 32.8168C41.9595 32.4096 42.2907 32.0782 42.6979 32.0782C43.1051 32.0782 43.4365 32.4096 43.4365 32.8168C43.4365 33.224 43.1051 33.5549 42.6979 33.5549Z" fill="#4D1958"/>
<path d="M18.6158 49.49H17.3185C15.9413 49.49 14.821 48.3697 14.821 46.9925V37.9563H24.7894C25.8801 37.9563 26.7676 37.0691 26.7676 35.9784V29.6549C26.7676 28.5642 25.8801 27.677 24.7894 27.677H18.276V24.667H24.7894C25.8801 24.667 26.7676 23.7798 26.7676 22.6891V16.3656C26.7676 15.2749 25.8801 14.3872 24.7894 14.3872H18.276V11.3777H24.7894C25.8801 11.3777 26.7676 10.49 26.7676 9.39935V3.07579C26.7676 1.98513 25.8801 1.0979 24.7894 1.0979H5.27256C4.18189 1.0979 3.29443 1.98513 3.29443 3.07579V9.39935C3.29443 10.49 4.18189 11.3777 5.27256 11.3777H11.7851V14.3872H5.27256C4.18189 14.3872 3.29443 15.2749 3.29443 16.3656V22.6891C3.29443 23.7798 4.18189 24.667 5.27256 24.667H11.7851V27.677H5.27256C4.18189 27.677 3.29443 28.5642 3.29443 29.6549V35.9784C3.29443 37.0691 4.18189 37.9563 5.27256 37.9563H13.4971V46.9925C13.4971 49.0997 15.2113 50.8139 17.3185 50.8139H18.6158C18.9814 50.8139 19.2776 50.5174 19.2776 50.152C19.2776 49.7865 18.9814 49.49 18.6158 49.49ZM4.6183 9.39946V3.07579C4.6183 2.71509 4.91174 2.42165 5.27268 2.42165H24.7894C25.1504 2.42165 25.4438 2.71509 25.4438 3.07579V9.39935C25.4438 9.7604 25.1504 10.054 24.7894 10.054H5.27256C4.91174 10.054 4.6183 9.76052 4.6183 9.39946ZM13.1089 11.3791H16.9522V14.3873H13.1089V11.3791ZM4.6183 22.6891V16.3656C4.6183 16.0045 4.91174 15.7109 5.27268 15.7109H24.7894C25.1504 15.7109 25.4438 16.0044 25.4438 16.3656V22.6891C25.4438 23.0498 25.1504 23.3433 24.7894 23.3433C18.7853 23.3433 11.2447 23.3433 5.27268 23.3433C4.91174 23.3433 4.6183 23.0498 4.6183 22.6891ZM13.1089 24.667H16.9522V27.677H13.1089V24.667ZM4.6183 35.9784V29.6549C4.6183 29.2941 4.91174 29.0007 5.27268 29.0007C9.074 29.0043 22.2187 29.0012 24.7894 29.0007C25.1504 29.0007 25.4438 29.2941 25.4438 29.6549V35.9784C25.4438 36.3391 25.1504 36.6325 24.7894 36.6325C17.8485 36.6325 11.0113 36.6325 5.27268 36.6325C4.91174 36.6325 4.6183 36.3391 4.6183 35.9784Z" fill="#4D1958"/>
<path d="M29.5648 40.9662C24.6199 40.9662 20.5969 44.9891 20.5969 49.9338C20.5969 54.8789 24.6199 58.902 29.5648 58.902C34.5095 58.902 38.5325 54.879 38.5325 49.9338C38.5325 44.9892 34.5095 40.9662 29.5648 40.9662ZM29.5648 57.5782C25.3498 57.5782 21.9207 54.1491 21.9207 49.9338C21.9207 45.7191 25.3498 42.2899 29.5648 42.2899C33.7798 42.2899 37.2087 45.7191 37.2087 49.9338C37.2087 54.1491 33.7798 57.5782 29.5648 57.5782Z" fill="#4D1958"/>
<path d="M33.8693 45.6295C33.0428 44.803 31.698 44.803 30.8719 45.6295L29.5648 46.9365L28.2575 45.6295C27.4309 44.803 26.0866 44.803 25.26 45.6295C24.4335 46.4561 24.4335 47.8004 25.26 48.627L26.5671 49.9339L25.26 51.2413C24.4335 52.0678 24.4335 53.4122 25.26 54.2387C26.0884 55.0671 27.4326 55.0636 28.2575 54.2387L29.5648 52.9317L30.8719 54.2387C31.6984 55.0652 33.0428 55.0652 33.8693 54.2387C34.6959 53.4122 34.6959 52.0678 33.8693 51.2413L32.5622 49.9339L33.8693 48.627C34.6957 47.8004 34.6957 46.4561 33.8693 45.6295ZM32.9334 47.691L31.1582 49.4659C31.0341 49.59 30.9642 49.7585 30.9642 49.9338C30.9642 50.1091 31.0341 50.2777 31.1582 50.4018L32.9334 52.1772C33.2435 52.4875 33.2435 52.9924 32.9334 53.3027C32.623 53.6131 32.1181 53.6131 31.8078 53.3027L30.0326 51.5278C29.7741 51.2693 29.3553 51.2693 29.0966 51.5278L27.3212 53.3027C27.0109 53.6131 26.506 53.6131 26.1957 53.3027C25.8853 52.9925 25.8853 52.4875 26.1957 52.1772L27.9708 50.4018C28.0949 50.2777 28.1648 50.1091 28.1648 49.9338C28.1648 49.7585 28.0949 49.59 27.9708 49.4659L26.1957 47.691C25.8853 47.3807 25.8853 46.8757 26.1957 46.5654C26.5059 46.2552 27.0109 46.2551 27.3212 46.5654L29.0966 48.3403C29.3551 48.5988 29.774 48.5988 30.0326 48.3403L31.8078 46.5654C32.118 46.2551 32.623 46.2551 32.9334 46.5654C33.2435 46.8757 33.2435 47.3808 32.9334 47.691Z" fill="#4D1958"/>
</svg>
