<svg width="26" height="26" viewBox="0 0 26 26" fill="none" xmlns="http://www.w3.org/2000/svg">
<path d="M14.7425 16.5034C14.1736 16.5842 13.8661 16.7162 13.5951 16.6553C9.93667 15.8061 6.26909 15.0049 2.6381 14.0109C1.77638 13.7798 0.938076 13.0179 0.360776 12.2877C-0.402718 11.2949 0.0990147 10.3444 1.36303 10.2707C2.04809 10.2296 2.81182 10.3245 3.42308 10.611C6.94508 12.2603 10.4293 13.9864 13.9133 15.6933C14.1656 15.8118 14.3231 16.1031 14.7231 16.5031L14.7425 16.5034Z" fill="#A94D90"/>
<path d="M21.9725 11.7779C21.882 11.4967 21.6561 11.1944 21.7012 10.9341C22.1361 7.78023 22.5224 4.6161 23.1413 1.51279C23.269 0.896051 24.3944 0.494412 25.0454 0C25.3848 0.892984 26.1703 1.92669 25.967 2.67777C25.4776 4.53638 24.5425 6.2736 23.8109 8.06161C23.295 9.32089 22.8276 10.6098 22.3409 11.8791L21.9629 11.7875L21.9725 11.7779Z" fill="#A94D90"/>
<path d="M16.9153 13.497C16.7802 13.4575 16.5586 13.4462 16.5097 13.3591C14.9855 10.4776 13.4036 7.61493 12.0331 4.6768C11.8275 4.24187 12.5625 3.37103 12.856 2.70874C13.5809 3.05131 14.8056 3.26283 14.9345 3.75499C15.8057 6.88194 16.4367 10.0745 17.1445 13.2484C17.1642 13.3063 17.0109 13.4014 16.925 13.5067L16.9153 13.497Z" fill="#A94D90"/>
<path d="M11.454 22.3669C11.3211 23.0106 11.3337 23.1747 11.2766 23.2123C8.15259 24.8236 4.85881 25.5832 1.29414 24.7082C0.838808 24.5937 0.325937 23.9672 0.191918 23.4923C0.119649 23.2306 0.791 22.5003 1.15721 22.4878C4.52084 22.3851 7.90587 22.3985 11.454 22.3669Z" fill="#A94D90"/>
</svg>
