<svg width="60" height="60" viewBox="0 0 60 60" fill="none" xmlns="http://www.w3.org/2000/svg">
<path d="M23.161 23.3021V54.2743C23.161 55.7246 21.9854 56.9002 20.5351 56.9002H4.19869C2.74838 56.9002 1.57275 55.7246 1.57275 54.2743V23.3021C1.57275 21.8518 2.74838 20.6761 4.19869 20.6761H20.5351C21.9853 20.6761 23.161 21.8518 23.161 23.3021Z" fill="#5370EA"/>
<path opacity="0.2" d="M8.55971 56.9001H4.19904C2.75096 56.9001 1.57275 55.7218 1.57275 54.2738V23.303C1.57275 21.8495 2.75107 20.6768 4.19904 20.6768H8.55971C7.11162 20.6768 5.93342 21.8496 5.93342 23.303V54.2738C5.93342 55.7219 7.11162 56.9001 8.55971 56.9001Z" fill="white"/>
<path d="M14.8555 20.6761V27.3693L12.367 25.1451L9.87842 27.3693V20.6761H14.8555Z" fill="#FDFDFF"/>
<path d="M47.238 38.573V54.8006C47.238 55.9603 46.2979 56.9003 45.1382 56.9003H25.2609C24.1012 56.9003 23.1611 55.9603 23.1611 54.8006V38.573C23.1611 37.4133 24.1012 36.4733 25.2609 36.4733H45.1382C46.2979 36.4733 47.238 37.4133 47.238 38.573Z" fill="#5370EA"/>
<path d="M37.6881 36.4733V43.1665L35.1995 40.9423L32.7109 43.1665V36.4733H37.6881Z" fill="#FDFDFF"/>
<path d="M47.2391 18.144V34.3754C47.2391 35.5317 46.2976 36.4732 45.1358 36.4732H25.2594C24.1031 36.4732 23.1616 35.5317 23.1616 34.3754V18.144C23.1616 16.9877 24.1031 16.0463 25.2594 16.0463H45.1358C46.2976 16.0463 47.2391 16.9877 47.2391 18.144Z" fill="#A94D90"/>
<path opacity="0.2" d="M29.2236 36.4732H25.2594C24.1031 36.4732 23.1616 35.5317 23.1616 34.3754V18.144C23.1616 16.9877 24.1031 16.0463 25.2594 16.0463H29.2236C28.0673 16.0463 27.1258 16.9877 27.1258 18.144V34.3754C27.1258 35.5317 28.0673 36.4732 29.2236 36.4732Z" fill="white"/>
<path opacity="0.2" d="M29.2236 56.9002H25.2594C24.1031 56.9002 23.1616 55.9587 23.1616 54.8024V38.571C23.1616 37.4148 24.1031 36.4733 25.2594 36.4733H29.2236C28.0673 36.4733 27.1258 37.4148 27.1258 38.571V54.8024C27.1258 55.9587 28.0673 56.9002 29.2236 56.9002Z" fill="white"/>
<path d="M37.6881 16.0463V22.7394L35.1995 20.5153L32.7109 22.7394V16.0463H37.6881Z" fill="#FDFDFF"/>
<path opacity="0.1" d="M47.2389 18.144V23.7271C42.9717 23.0994 39.4866 20.0602 38.2092 16.0464H45.1357C46.2974 16.0463 47.2389 16.9878 47.2389 18.144Z" fill="black"/>
<path d="M48.8798 22.1944C54.1526 22.1944 58.4271 17.9199 58.4271 12.6471C58.4271 7.37431 54.1526 3.09985 48.8798 3.09985C43.607 3.09985 39.3325 7.37431 39.3325 12.6471C39.3325 17.9199 43.607 22.1944 48.8798 22.1944Z" fill="#A94D90"/>
<path opacity="0.2" d="M50.1022 22.1138C49.7057 22.1688 49.2928 22.1963 48.8798 22.1963C43.6052 22.1963 39.3325 17.9237 39.3325 12.6491C39.3325 7.36896 43.6052 3.10181 48.8798 3.10181C49.2928 3.10181 49.7057 3.12935 50.1022 3.18431C45.4056 3.77903 41.7772 7.78181 41.7772 12.6491C41.7772 17.5108 45.4055 21.5191 50.1022 22.1138Z" fill="white"/>
<path d="M50.7078 8.14817L50.4172 12.9144C50.3676 13.7272 49.694 14.361 48.8797 14.361C48.0653 14.361 47.3918 13.7272 47.3422 12.9144L47.0516 8.14817C46.9873 7.09477 47.8243 6.2052 48.8797 6.2052C49.9351 6.2052 50.7721 7.09477 50.7078 8.14817Z" fill="#FDFDFF"/>
<path d="M50.3386 17.6301C50.3386 18.4353 49.6851 19.089 48.8799 19.089C48.0747 19.089 47.4211 18.4354 47.4211 17.6301C47.4211 16.8249 48.0747 16.1714 48.8799 16.1714C49.685 16.1714 50.3386 16.8251 50.3386 17.6301Z" fill="#FDFDFF"/>
<path d="M48.8798 2.53149C43.3018 2.53149 38.7637 7.06923 38.7637 12.647C38.7637 13.6302 38.9115 14.5781 39.1744 15.4775C37.2684 15.4775 27.2831 15.4775 25.2593 15.4775C23.789 15.4775 22.5931 16.674 22.5931 18.1443V20.8627C22.0367 20.3925 21.3191 20.1076 20.5352 20.1076C15.1039 20.1076 9.10076 20.1076 4.19881 20.1076C2.43736 20.1076 1.00439 21.5406 1.00439 23.3024V54.2746C1.00439 56.0357 2.43736 57.4688 4.19881 57.4688H20.5352C21.5458 57.4688 22.4467 56.9957 23.0324 56.2609C23.5098 56.9868 24.329 57.4688 25.2609 57.4688H45.1383C46.6095 57.4688 47.8066 56.2717 47.8066 54.801V38.5729C47.8066 37.7166 47.3941 36.9617 46.7652 36.4731C47.3947 35.9849 47.8074 35.2309 47.8074 34.3754V22.7047C48.1601 22.7421 48.5175 22.7631 48.8798 22.7631C54.4578 22.7631 58.9956 18.2254 58.9956 12.647C58.9957 7.06923 54.4578 2.53149 48.8798 2.53149ZM37.1196 16.6145V21.4688L35.5786 20.0918C35.4705 19.9952 35.3351 19.9468 35.1996 19.9468C35.0641 19.9468 34.9286 19.9951 34.8206 20.0918L33.2796 21.4688V16.6145H37.1196ZM14.287 21.2445V26.0981L12.746 24.7212C12.53 24.5279 12.2041 24.5285 11.9881 24.7206L10.4469 26.0986V21.2443L14.287 21.2445ZM20.5352 56.3315H4.19881C3.06455 56.3315 2.14146 55.4087 2.14146 54.2743V23.3022C2.14146 22.1673 3.06455 21.2446 4.19881 21.2446H9.30982V27.3692C9.30982 27.5934 9.44143 27.7966 9.64627 27.8883C9.85088 27.9804 10.0899 27.9427 10.2573 27.7934L12.3671 25.9074L14.4766 27.7929C14.645 27.9442 14.8857 27.9788 15.0876 27.8884C15.2925 27.7968 15.4241 27.5936 15.4241 27.3693V21.2447H20.5351C21.6694 21.2447 22.5924 22.1674 22.5924 23.3023V54.2745C22.5926 55.4087 21.6695 56.3315 20.5352 56.3315ZM45.1383 37.0416C45.9827 37.0416 46.6696 37.7284 46.6696 38.5729V54.8008C46.6696 55.6447 45.9827 56.3315 45.1383 56.3315H25.2609C24.4165 56.3315 23.7296 55.6446 23.7296 54.8008C23.7296 51.0913 23.7296 42.9452 23.7296 38.5729C23.7296 37.7284 24.4165 37.0416 25.2609 37.0416H32.1425V43.1667C32.1425 43.391 32.2741 43.5942 32.479 43.6859C32.6838 43.7775 32.9229 43.7408 33.09 43.5904L35.1995 41.7048L37.309 43.5904C37.4774 43.7417 37.7181 43.7762 37.92 43.6859C38.1248 43.5942 38.2564 43.391 38.2564 43.1667V37.0416H45.1356H45.1383ZM33.2797 37.0416H37.1196V41.8958L35.5786 40.5189C35.4705 40.4223 35.3351 40.3739 35.1996 40.3739C35.0641 40.3739 34.9286 40.4222 34.8206 40.5189L33.2796 41.8958V37.0416H33.2797ZM46.6704 34.3754C46.6704 35.2188 45.9819 35.9045 45.1358 35.9045C38.132 35.9045 32.341 35.9045 25.2609 35.9045H25.2593C24.4162 35.9045 23.7302 35.2188 23.7302 34.3754V18.1441C23.7302 17.3008 24.4162 16.6145 25.2593 16.6145H32.1426V22.7397C32.1426 22.964 32.2742 23.1672 32.4791 23.2588C32.6839 23.3509 32.923 23.3138 33.0901 23.1633L35.1996 21.2777L37.3091 23.1633C37.4775 23.3146 37.7182 23.3491 37.9201 23.2588C38.1249 23.1672 38.2565 22.964 38.2565 22.7397V16.6145H39.5762C40.8405 19.568 43.4726 21.7963 46.6704 22.5124V34.3754ZM48.8798 21.6259C43.9286 21.6259 39.9008 17.5978 39.9008 12.6469C39.9008 7.69595 43.9286 3.66845 48.8798 3.66845C53.8306 3.66845 57.8585 7.69595 57.8585 12.6469C57.8585 17.5978 53.8308 21.6259 48.8798 21.6259Z" fill="#2E2E6D"/>
<path d="M48.8798 5.63684C47.4992 5.63684 46.4002 6.80321 46.484 8.1825L46.7746 12.949C46.8423 14.0595 47.7671 14.9295 48.8798 14.9295C49.9921 14.9295 50.9168 14.0595 50.9846 12.949L51.2752 8.1825C51.3591 6.80379 50.2613 5.63684 48.8798 5.63684ZM49.8497 12.8802C49.8183 13.3916 49.3922 13.7924 48.8798 13.7924C48.3671 13.7924 47.9409 13.3915 47.9096 12.8802L47.6189 8.11372C47.5748 7.38762 48.1499 6.77403 48.8799 6.77403C49.6071 6.77403 50.1849 7.38504 50.1405 8.11372L49.8497 12.8802Z" fill="#2E2E6D"/>
<path d="M48.8799 15.6029C47.7619 15.6029 46.8525 16.5124 46.8525 17.63C46.8525 18.7482 47.762 19.6577 48.8799 19.6577C49.9975 19.6577 50.907 18.7482 50.907 17.63C50.907 16.5124 49.9976 15.6029 48.8799 15.6029ZM48.8799 18.5205C48.3891 18.5205 47.9896 18.1208 47.9896 17.6299C47.9896 17.1391 48.3891 16.7399 48.8799 16.7399C49.3707 16.7399 49.7699 17.1391 49.7699 17.6299C49.7699 18.1208 49.3708 18.5205 48.8799 18.5205Z" fill="#2E2E6D"/>
<path d="M28.6805 7.55067C28.4701 7.78329 28.4885 8.14305 28.7213 8.35352L33.683 12.8352C33.9155 13.0452 34.2748 13.0279 34.4861 12.7941C34.6966 12.5615 34.6782 12.2017 34.4453 11.9913L29.4836 7.50954C29.2503 7.2986 28.8916 7.31747 28.6805 7.55067Z" fill="#2E2E6D"/>
<path d="M36.2833 10.0059C36.5584 9.85434 36.6588 9.50899 36.5073 9.2336L34.8536 6.22879C34.7023 5.95399 34.3569 5.85462 34.0815 6.00508C33.8064 6.15661 33.7059 6.50196 33.8575 6.77735L35.5112 9.78215C35.6625 10.0571 36.0081 10.157 36.2833 10.0059Z" fill="#2E2E6D"/>
</svg>
