<svg width="112" height="33" viewBox="0 0 112 33" fill="none" xmlns="http://www.w3.org/2000/svg">
<path d="M110.177 26.5657C107.434 27.0513 57.8029 35.3303 57.5175 29.9294C57.2957 25.7316 72.0339 20.1009 75.3409 18.2537C78.0303 16.7514 85.5298 13.8076 78.5122 12.9666C67.7242 11.6737 56.798 15.4755 46.2388 16.9822C46.1026 17.0017 34.4615 18.4607 35.4697 16.0424C37.6341 10.8507 46.8015 7.79789 51.0322 4.49135C56.507 0.212518 49.8485 0.77923 45.9076 1.49881C33.0003 3.85561 20.7224 8.17608 7.73696 10.3641C-1.17297 11.8653 6.93471 8.75419 8.17388 4.89715C8.84709 2.80173 3.40341 9.93749 1.86856 11.3784C-0.0309422 13.1616 1.45945 12.5669 3.7171 13.0142C7.52204 13.768 10.8966 15.5961 13.5345 18.4059" stroke="#A94D90" stroke-width="2" stroke-linecap="round"/>
</svg>
