<svg width="60" height="60" viewBox="0 0 60 60" fill="none" xmlns="http://www.w3.org/2000/svg">
<path d="M49.6875 52.5H38.4375L38.43 52.4991C38.3512 52.5 38.2734 52.5056 38.1947 52.5066C38.1816 52.5066 38.1684 52.5066 38.1553 52.5066C35.3503 52.5084 32.5631 52.1878 29.8406 51.57L29.7797 51.5625H15C13.9641 51.5625 13.125 52.4016 13.125 53.4375C13.125 54.4734 13.9641 55.3125 15 55.3125H23.0231C23.8303 55.3125 24.5466 55.8291 24.8016 56.595L24.8841 56.8434C25.14 57.6084 25.8572 58.125 26.6644 58.125H49.6875C51.2409 58.125 52.5 56.8659 52.5 55.3125C52.5 53.7591 51.2409 52.5 49.6875 52.5Z" fill="#A94D90"/>
<path d="M31.875 49.6875C30.3244 49.6875 29.0625 48.4256 29.0625 46.875C29.0625 45.3244 30.3244 44.0625 31.875 44.0625C33.4256 44.0625 34.6875 45.3244 34.6875 46.875C34.6875 48.4256 33.4256 49.6875 31.875 49.6875Z" fill="#A94D90"/>
<path d="M42.1875 49.6875C40.1194 49.6875 38.4375 48.0056 38.4375 45.9375C38.4375 43.8694 40.1194 42.1875 42.1875 42.1875C44.2556 42.1875 45.9375 43.8694 45.9375 45.9375C45.9375 48.0056 44.2556 49.6875 42.1875 49.6875Z" fill="#A94D90"/>
<path d="M49.6875 43.125C48.1369 43.125 46.875 41.8631 46.875 40.3125C46.875 38.7619 48.1369 37.5 49.6875 37.5C51.2381 37.5 52.5 38.7619 52.5 40.3125C52.5 41.8631 51.2381 43.125 49.6875 43.125Z" fill="#A94D90"/>
<path d="M55.4541 19.8066L56.5706 14.9672C57.9694 14.8059 59.0625 13.6284 59.0625 12.1875C59.0625 10.6369 57.8006 9.375 56.25 9.375C54.6994 9.375 53.4375 10.6369 53.4375 12.1875C53.4375 13.1822 53.9597 14.0531 54.7416 14.5538L53.5481 19.7259C53.2903 19.7522 53.0363 19.7906 52.7869 19.8422L51.4697 16.2206C52.0931 15.7041 52.5 14.9334 52.5 14.0625C52.5 12.5119 51.2381 11.25 49.6875 11.25C48.1369 11.25 46.875 12.5119 46.875 14.0625C46.875 15.6131 48.1369 16.875 49.6875 16.875C49.6959 16.875 49.7034 16.8722 49.7119 16.8722L51.0159 20.46C48.5672 21.6722 46.875 24.1912 46.875 27.1041V27.6366C46.875 30.7434 45.7378 33.7341 43.6725 36.0572C41.2697 38.7619 37.8169 40.3125 34.1991 40.3125H33.8887C40.9912 37.0509 45.9375 29.8753 45.9375 21.5625C45.9375 10.1897 36.6853 0.9375 25.3125 0.9375C13.9397 0.9375 4.6875 10.1897 4.6875 21.5625C4.6875 30.1294 9.93844 37.4916 17.3906 40.6031C11.5059 41.4544 6.07406 44.1628 1.79438 48.4425C1.24969 48.9872 0.9375 49.7409 0.9375 50.5116C0.9375 52.125 2.25 53.4375 3.86344 53.4375H4.1175C4.66688 53.4375 5.20312 53.2838 5.66813 52.9922L9.10031 50.8472C11.2969 49.4747 13.8263 48.7481 16.4147 48.7444H16.5759H16.5947C18.5044 48.7444 20.3541 49.1447 22.0922 49.935L22.2216 49.9941C27.2578 52.2834 32.6081 53.445 38.1637 53.445H38.1975C42.18 53.4412 46.1653 52.4981 49.7241 50.7197L50.4441 50.3587C54.0244 48.5672 56.25 44.9663 56.25 40.9613C56.25 39.1659 55.9125 37.4119 55.245 35.7459C54.6684 34.3022 54.375 32.7816 54.375 31.2262V29.0625C56.9137 29.0822 59.0625 27.0103 59.0625 24.4397V24.3066C59.0625 22.1081 57.5147 20.2706 55.4541 19.8066ZM48.75 14.0625C48.75 13.545 49.1709 13.125 49.6875 13.125C50.2041 13.125 50.625 13.545 50.625 14.0625C50.625 14.58 50.2041 15 49.6875 15C49.1709 15 48.75 14.58 48.75 14.0625ZM56.25 11.25C56.7666 11.25 57.1875 11.67 57.1875 12.1875C57.1875 12.705 56.7666 13.125 56.25 13.125C55.7334 13.125 55.3125 12.705 55.3125 12.1875C55.3125 11.67 55.7334 11.25 56.25 11.25ZM6.61031 22.5H10.3537C10.5497 25.5778 11.6953 28.5338 13.6237 30.9375H9.09938C7.64438 28.4316 6.76219 25.5628 6.61031 22.5ZM10.3603 20.625H6.61031C6.8325 16.1625 8.61375 12.1153 11.43 9.00469L14.0803 11.655C11.9381 14.0803 10.5741 17.1956 10.3603 20.625ZM15.405 10.3294L12.7547 7.67906C15.8653 4.86281 19.9134 3.0825 24.375 2.86031V6.61031C20.9456 6.82406 17.8303 8.18812 15.405 10.3294ZM26.25 2.86031C30.7116 3.0825 34.7597 4.86375 37.8703 7.67906L35.22 10.3294C32.7947 8.18812 29.6794 6.82313 26.25 6.60938V2.86031ZM39.1959 9.00469C42.0122 12.1153 43.7934 16.1625 44.0156 20.625H40.2656C40.0519 17.1956 38.6878 14.0803 36.5456 11.655L39.1959 9.00469ZM40.2722 22.5H44.0156C43.8628 25.5628 42.9806 28.4316 41.5266 30.9375H37.0022C38.9297 28.5338 40.0753 25.5778 40.2722 22.5ZM10.3481 32.8125H18.1678L16.4109 31.1869C13.6875 28.6659 12.1875 25.2488 12.1875 21.5625C12.1875 14.325 18.075 8.4375 25.3125 8.4375C32.55 8.4375 38.4375 14.325 38.4375 21.5625C38.4375 25.2488 36.9375 28.6659 34.2141 31.1869L32.4572 32.8125H40.2769C36.8522 37.3566 31.4278 40.3125 25.3125 40.3125C19.1972 40.3125 13.7728 37.3566 10.3481 32.8125ZM57.1875 24.4397C57.1875 25.9556 55.9556 27.1875 54.4397 27.1875C53.1759 27.1875 52.08 26.3316 51.7744 25.1053L51.5344 24.1472L49.7156 24.6028L49.9556 25.56C50.3044 26.9541 51.2606 28.065 52.5 28.6369V31.2253C52.5 33.0206 52.8375 34.7747 53.505 36.4406C54.0825 37.8853 54.375 39.4059 54.375 40.9613C54.375 44.2519 52.5469 47.2087 49.6041 48.6797L48.8841 49.0406C45.5841 50.6906 41.8875 51.5644 38.1553 51.5681C32.9072 51.5325 27.7969 50.4684 22.9978 48.2859L22.8684 48.2269C20.8837 47.325 18.7734 46.8684 16.5956 46.8684C16.5891 46.8684 16.5816 46.8684 16.575 46.8684H16.4137C13.4737 46.8722 10.6012 47.6981 8.1075 49.2572L4.67438 51.4031C4.5075 51.5072 4.31531 51.5625 4.1175 51.5625H3.86344C3.28406 51.5625 2.8125 51.0909 2.8125 50.5116C2.8125 50.235 2.925 49.9641 3.12 49.7681C8.00813 44.88 14.5078 42.1875 21.4209 42.1875H34.1991C38.3522 42.1875 42.3159 40.4081 45.075 37.3031C47.4441 34.6369 48.75 31.2038 48.75 27.6366V27.1041C48.75 24.0478 51.2362 21.5625 54.2916 21.5625H54.4425C55.9566 21.5625 57.1875 22.7934 57.1875 24.3075V24.4397Z" fill="#5370EA"/>
<path d="M30.9375 32.8125C30.9375 30.3338 29.3241 28.2281 27.0928 27.481L22.7353 18.2203C21.8241 16.2853 20.1375 14.7863 18.1088 14.1103L17.2191 13.8141L16.9228 14.7028C16.2394 16.7541 16.395 18.9488 17.3616 20.8828L21.3375 28.8356C20.3194 29.8538 19.6875 31.261 19.6875 32.8125C19.6875 35.9147 22.2103 38.4375 25.3125 38.4375C28.4147 38.4375 30.9375 35.9147 30.9375 32.8125ZM19.0397 20.0447C18.4519 18.8691 18.2541 17.5688 18.4566 16.2966C19.5769 16.9013 20.4919 17.8566 21.0394 19.0191L24.8935 27.2091C24.18 27.2625 23.505 27.4491 22.89 27.7444L19.0397 20.0447ZM21.5625 32.8125C21.5625 30.7444 23.2444 29.0625 25.3125 29.0625C27.3807 29.0625 29.0625 30.7444 29.0625 32.8125C29.0625 34.8806 27.3807 36.5625 25.3125 36.5625C23.2444 36.5625 21.5625 34.8806 21.5625 32.8125Z" fill="#5370EA"/>
</svg>
