<svg width="60" height="60" viewBox="0 0 60 60" fill="none" xmlns="http://www.w3.org/2000/svg">
<path d="M26.5417 33.8441C30.5747 33.8441 33.8441 30.5747 33.8441 26.5417C33.8441 22.5087 30.5747 19.2393 26.5417 19.2393C22.5087 19.2393 19.2393 22.5087 19.2393 26.5417C19.2393 30.5747 22.5087 33.8441 26.5417 33.8441Z" fill="#D5DAF3"/>
<path d="M21.0145 2.46228L20.6971 8.15947C19.6497 8.49322 18.641 8.91393 17.6793 9.41361L13.4235 5.60666C12.8603 5.10299 12.0018 5.12689 11.4674 5.66103L5.66103 11.4674C5.12666 12.0016 5.10275 12.8601 5.60666 13.4233L9.41361 17.6793C8.91393 18.641 8.49322 19.6497 8.15947 20.6971L2.46228 21.0145C1.70783 21.0564 1.11768 21.6803 1.11768 22.436V30.6475C1.11768 31.4031 1.70783 32.0271 2.46228 32.069L8.15947 32.3863C8.49322 33.4338 8.91393 34.4425 9.41361 35.4042L5.60666 39.6602C5.10299 40.2234 5.12689 41.0819 5.66103 41.616L11.4674 47.4224C12.0018 47.9568 12.8603 47.9807 13.4235 47.4768L17.6793 43.6699C18.641 44.1695 19.6497 44.5903 20.6971 44.924L21.0145 50.6212C21.0564 51.3756 21.6803 51.9658 22.436 51.9658H30.6475C31.4031 51.9658 32.0271 51.3756 32.069 50.6212L32.3863 44.924C33.4338 44.5903 34.4425 44.1695 35.4042 43.6699L39.6599 47.4768C40.2231 47.9805 41.0817 47.9566 41.616 47.4224L47.4224 41.616C47.9568 41.0819 47.9807 40.2231 47.4768 39.6602L43.6699 35.4042C44.1695 34.4425 44.5903 33.4338 44.924 32.3863L50.6212 32.069C51.3756 32.0271 51.9658 31.4031 51.9658 30.6475V22.436C51.9658 21.6803 51.3756 21.0564 50.6212 21.0145L44.924 20.6971C44.5903 19.6497 44.1695 18.641 43.6699 17.6793L47.4768 13.4233C47.9805 12.8601 47.9566 12.0016 47.4224 11.4674L41.616 5.66103C41.0817 5.12666 40.2231 5.10275 39.6599 5.60666L35.4042 9.41361C34.4425 8.91393 33.4338 8.49322 32.3863 8.15947L32.069 2.46228C32.0271 1.70783 31.4031 1.11768 30.6475 1.11768H22.436C21.6803 1.11768 21.0564 1.70783 21.0145 2.46228ZM37.0842 26.5417C37.0842 32.3641 32.3641 37.0842 26.5415 37.0842C20.7189 37.0842 15.9988 32.3641 15.9988 26.5417C15.9988 20.7194 20.7189 15.9993 26.5415 15.9993C32.3641 15.9993 37.0842 20.7192 37.0842 26.5417Z" fill="#5370EA"/>
<path d="M30.6475 52.4345H22.436C21.4319 52.4345 20.602 51.6494 20.5462 50.6472L20.2469 45.2697C19.395 44.9826 18.5585 44.635 17.7527 44.2333L13.736 47.826C12.9881 48.4952 11.8457 48.4638 11.1361 47.7538L5.32965 41.9474C4.61996 41.238 4.58809 40.0959 5.25723 39.3475L8.85043 35.3306C8.44895 34.525 8.10137 33.6885 7.81402 32.8363L2.43652 32.537C1.43434 32.481 0.649414 31.6511 0.649414 30.6473V22.436C0.649414 21.4324 1.43457 20.6024 2.43652 20.5462L7.81402 20.2469C8.10137 19.3945 8.44895 18.5582 8.85043 17.7527L5.25723 13.7357C4.58809 12.9876 4.61996 11.8455 5.32965 11.1358L11.1361 5.32963C11.8455 4.61994 12.9876 4.58807 13.736 5.25721L17.7527 8.84994C18.0871 8.6833 18.4282 8.52486 18.7706 8.37791C19.2527 8.17096 19.7479 7.98182 20.2469 7.81353L20.5462 2.43604C20.6018 1.43408 21.4319 0.648926 22.436 0.648926H30.6475C31.6514 0.648926 32.4815 1.43408 32.5371 2.43604L32.8364 7.81353C33.6883 8.10064 34.5248 8.44822 35.3308 8.84994L39.3475 5.25721C40.0959 4.58807 41.2378 4.61971 41.9477 5.32963L47.7539 11.1358C48.4636 11.8453 48.4954 12.9874 47.8263 13.7357L44.2331 17.7527C44.6346 18.5582 44.9821 19.3945 45.2695 20.2469L50.6472 20.5462C51.6494 20.6022 52.4343 21.4321 52.4343 22.436V30.6475C52.4343 31.6511 51.6494 32.481 50.6472 32.5373L45.2695 32.8366C44.9821 33.6888 44.6346 34.5252 44.2331 35.3308L47.8263 39.3478C48.4954 40.0959 48.4636 41.238 47.7539 41.9477L41.9475 47.7541C41.2378 48.4638 40.0954 48.4949 39.3475 47.8265L35.3308 44.2335C34.5248 44.6353 33.6883 44.9828 32.8364 45.2699L32.5371 50.6474C32.4813 51.6494 31.6514 52.4345 30.6475 52.4345ZM17.6796 43.2011C17.7532 43.2011 17.8272 43.2185 17.8954 43.2541C18.8386 43.7439 19.829 44.1555 20.8394 44.4775C21.0248 44.5366 21.1544 44.7039 21.1652 44.898L21.4825 50.5952C21.5107 51.101 21.9295 51.4973 22.436 51.4973H30.6475C31.154 51.4973 31.5729 51.1012 31.601 50.5952L31.9183 44.898C31.9291 44.7039 32.0587 44.5366 32.2441 44.4775C33.2545 44.1555 34.245 43.7439 35.1883 43.2538C35.3611 43.1643 35.5718 43.1903 35.7168 43.3206L39.9726 47.1274C40.3502 47.4651 40.9265 47.4487 41.2846 47.091L47.0911 41.2846C47.4492 40.9265 47.4651 40.3502 47.1276 39.9724L43.3207 35.7166C43.1908 35.5715 43.1643 35.3608 43.2541 35.1881C43.7437 34.2456 44.1555 33.2549 44.4775 32.2438C44.5366 32.0587 44.7039 31.9288 44.898 31.9181L50.5954 31.6007C51.1012 31.5726 51.4973 31.1538 51.4973 30.6473V22.436C51.4973 21.9295 51.1012 21.5106 50.5954 21.4825L44.898 21.1652C44.7037 21.1544 44.5366 21.0245 44.4775 20.8394C44.1555 19.8285 43.7439 18.8378 43.2541 17.8952C43.1643 17.7224 43.1908 17.5117 43.3207 17.3667L47.1276 13.1109C47.4651 12.7333 47.4494 12.157 47.0911 11.7986L41.2846 5.99244C40.9265 5.63455 40.3502 5.61838 39.9726 5.95611L35.7168 9.7626C35.5718 9.89291 35.3615 9.91892 35.1883 9.82939C34.2452 9.33932 33.2545 8.92775 32.2441 8.60572C32.0587 8.54666 31.9291 8.37932 31.9183 8.18525L31.601 2.48807C31.5729 1.98229 31.154 1.58619 30.6475 1.58619H22.436C21.9293 1.58619 21.5104 1.98205 21.4825 2.48807L21.1652 8.18525C21.1544 8.37932 21.0248 8.54666 20.8394 8.60572C20.2654 8.78853 19.6938 9.00182 19.1404 9.23947C18.7197 9.42018 18.3007 9.61846 17.8952 9.82916C17.722 9.91893 17.5115 9.89267 17.3667 9.7626L13.1109 5.95588C12.7333 5.61861 12.157 5.63432 11.7989 5.99244L5.99246 11.7988C5.63434 12.157 5.6184 12.7333 5.9559 13.1111L9.76285 17.3669C9.8927 17.512 9.91918 17.7227 9.82941 17.8954C9.3398 18.8378 8.92801 19.8285 8.60598 20.8396C8.54691 21.0248 8.37957 21.1546 8.18551 21.1654L2.48832 21.4828C1.98254 21.5109 1.58645 21.9297 1.58645 22.4362V30.6478C1.58645 31.1542 1.98254 31.5731 2.48832 31.6012L8.18551 31.9185C8.3798 31.9293 8.54691 32.0592 8.60598 32.2443C8.92801 33.2552 9.33957 34.2459 9.82941 35.1885C9.91918 35.3613 9.8927 35.572 9.76285 35.717L5.9559 39.9728C5.6184 40.3504 5.6341 40.9267 5.99246 41.2851L11.7989 47.0915C12.157 47.4492 12.7333 47.4656 13.1109 47.1278L17.3669 43.3211C17.4548 43.2419 17.5666 43.2011 17.6796 43.2011ZM26.5418 37.5529C20.47 37.5529 15.5306 32.6135 15.5306 26.542C15.5306 20.4705 20.4703 15.5308 26.5418 15.5308C32.6132 15.5308 37.5529 20.4705 37.5529 26.542C37.5529 32.6135 32.6132 37.5529 26.5418 37.5529ZM26.5418 16.4681C20.9871 16.4681 16.4681 20.9871 16.4681 26.5417C16.4681 32.0962 20.9871 36.6152 26.5418 36.6152C32.0964 36.6152 36.6154 32.0962 36.6154 26.5417C36.6154 20.9871 32.0964 16.4681 26.5418 16.4681Z" fill="#4D1958"/>
<path d="M13.0471 26.5417C13.0471 33.9944 19.0888 40.0361 26.5415 40.0361C33.9942 40.0361 40.0359 33.9944 40.0359 26.5417C40.0359 19.0891 33.9942 13.0474 26.5415 13.0474C19.0888 13.0474 13.0471 19.0891 13.0471 26.5417ZM33.8439 26.5417C33.8439 30.5685 30.5683 33.8442 26.5417 33.8442C22.5152 33.8442 19.2395 30.5685 19.2395 26.5417C19.2395 22.5149 22.5152 19.2393 26.5417 19.2393C30.5683 19.2393 33.8439 22.5149 33.8439 26.5417Z" fill="#A4C9FF"/>
<path d="M26.5417 40.5046C18.8423 40.5046 12.5786 34.2407 12.5786 26.5417C12.5786 18.8423 18.8425 12.5786 26.5417 12.5786C34.241 12.5786 40.5051 18.8425 40.5051 26.5417C40.5049 34.241 34.241 40.5046 26.5417 40.5046ZM26.5417 13.5161C19.3593 13.5161 13.5161 19.3596 13.5161 26.5417C13.5161 33.7239 19.3593 39.5671 26.5417 39.5671C33.7242 39.5671 39.5676 33.7239 39.5676 26.5417C39.5676 19.3596 33.7242 13.5161 26.5417 13.5161ZM26.5417 34.3127C22.2569 34.3127 18.7708 30.8266 18.7708 26.5417C18.7708 22.2567 22.2569 18.7706 26.5417 18.7706C30.8266 18.7706 34.3127 22.2567 34.3127 26.5417C34.3127 30.8266 30.8266 34.3127 26.5417 34.3127ZM26.5417 19.7081C22.7737 19.7081 19.7083 22.7737 19.7083 26.5417C19.7083 30.3098 22.7739 33.3752 26.5417 33.3752C30.3096 33.3752 33.3752 30.3098 33.3752 26.5417C33.3752 22.7737 30.3096 19.7081 26.5417 19.7081Z" fill="#4D1958"/>
<path d="M56.0698 58.8822H30.1836C28.6304 58.8822 27.3711 57.6229 27.3711 56.0697V30.1835C27.3711 28.6303 28.6304 27.371 30.1836 27.371H56.0698C57.6231 27.371 58.8823 28.6303 58.8823 30.1835V56.0697C58.8823 57.6229 57.6231 58.8822 56.0698 58.8822Z" fill="#A94D90"/>
<path d="M52.6501 55.5367C53.0125 55.6858 53.3985 55.3816 53.3383 54.9946L52.7954 51.4982C52.7364 51.118 52.2897 50.9423 51.9873 51.1804L51.4989 51.5652L44.4086 42.7265C44.0432 42.2709 43.3872 42.1776 42.9088 42.5125L39.55 44.8684L31.6525 36.4096C31.235 35.9624 30.5343 35.9387 30.0873 36.3559C29.6401 36.7734 29.6162 37.4741 30.0336 37.9211L38.5883 47.0835C38.965 47.4869 39.5814 47.5511 40.0337 47.2345L43.3307 44.9219L49.7591 52.9359L49.258 53.3308C48.9559 53.5689 49.022 54.0442 49.378 54.1907L52.6501 55.5367Z" fill="#E6D3E1"/>
<path d="M56.597 36.9027C56.597 33.4647 53.81 30.6777 50.372 30.6777C46.9339 30.6777 44.147 33.4647 44.147 36.9027C44.147 39.8697 46.2233 42.3501 49.0016 42.9745L50.004 44.8881C50.1596 45.1851 50.5846 45.1851 50.7402 44.8881L51.7426 42.9745C54.5209 42.3501 56.597 39.8697 56.597 36.9027Z" fill="#E6D3E1"/>
<path d="M50.372 45.5798C50.042 45.5798 49.7417 45.3981 49.5887 45.1059L48.6847 43.3802C45.7707 42.6217 43.6782 39.9327 43.6782 36.903C43.6782 33.212 46.681 30.209 50.372 30.209C54.0631 30.209 57.066 33.212 57.066 36.903C57.066 39.9327 54.9735 42.6217 52.0595 43.3802L51.1555 45.1059C51.0022 45.3979 50.702 45.5798 50.372 45.5798ZM50.372 31.1465C47.1981 31.1465 44.6157 33.7288 44.6157 36.903C44.6157 39.5718 46.5034 41.9329 49.1042 42.5174C49.2385 42.5477 49.3529 42.6353 49.4167 42.7572L50.372 44.5809L51.3273 42.7572C51.391 42.6351 51.5054 42.5474 51.6397 42.5174C54.2406 41.9329 56.1282 39.5718 56.1282 36.903C56.1282 33.7286 53.5461 31.1465 50.372 31.1465Z" fill="#4D1958"/>
<path d="M50.3721 38.3631C50.1133 38.3631 49.9033 38.1531 49.9033 37.8943V33.7942C49.9033 33.5354 50.1133 33.3254 50.3721 33.3254C50.6308 33.3254 50.8408 33.5354 50.8408 33.7942V37.8943C50.8408 38.1531 50.6311 38.3631 50.3721 38.3631Z" fill="#4D1958"/>
<path d="M50.3722 40.5125C50.7528 40.5125 51.0615 40.2039 51.0615 39.8232C51.0615 39.4425 50.7528 39.1339 50.3722 39.1339C49.9915 39.1339 49.6829 39.4425 49.6829 39.8232C49.6829 40.2039 49.9915 40.5125 50.3722 40.5125Z" fill="#4D1958"/>
<path d="M52.8448 56.0449C52.7199 56.0449 52.5935 56.0205 52.4719 55.9703L49.1998 54.6245C48.8768 54.4917 48.6553 54.2059 48.6073 53.86C48.559 53.5143 48.694 53.1789 48.9682 52.9628L49.0981 52.8604L43.2403 45.5582L40.3032 47.6186C39.6635 48.0665 38.779 47.9744 38.2463 47.4037L29.6916 38.2413C29.4042 37.9335 29.254 37.5323 29.2685 37.1116C29.2831 36.6906 29.4605 36.3009 29.7682 36.0135C30.076 35.7264 30.4789 35.5785 30.8977 35.5902C31.3184 35.6045 31.7084 35.782 31.996 36.0899L39.6153 44.2506L42.6406 42.1284C43.3198 41.6528 44.2573 41.7869 44.7753 42.4331L51.5747 50.9092L51.698 50.812C51.9722 50.5959 52.3301 50.5429 52.6549 50.6711C52.9798 50.7988 53.2057 51.081 53.2592 51.426L53.802 54.9224C53.8566 55.2735 53.7225 55.6145 53.4434 55.8346C53.2669 55.9734 53.0576 56.0449 52.8448 56.0449ZM52.8284 55.1031C52.8352 55.1059 52.8467 55.1106 52.8626 55.0982C52.8781 55.0858 52.8764 55.0738 52.8753 55.0663L52.3325 51.5697C52.3313 51.5627 52.3294 51.5505 52.3114 51.5434C52.2924 51.5364 52.2832 51.5439 52.2776 51.5484L51.7892 51.9332C51.5871 52.0924 51.2944 52.0591 51.1334 51.8582L44.0431 43.0197C43.8331 42.7579 43.4532 42.7035 43.1778 42.8964L39.8192 45.2524C39.6279 45.3862 39.3671 45.359 39.2074 45.1886L31.3099 36.7298C31.1935 36.6051 31.0355 36.5331 30.8651 36.5273C30.6959 36.5224 30.5323 36.5824 30.4074 36.6988C30.2827 36.8153 30.2107 36.9733 30.2049 37.1437C30.199 37.3141 30.2599 37.4767 30.3762 37.6012L38.9309 46.7636C39.147 46.9947 39.5053 47.0322 39.7646 46.8508L43.0613 44.5382C43.264 44.3964 43.5413 44.4358 43.696 44.6289L50.1244 52.6427C50.2027 52.7402 50.2385 52.8649 50.2245 52.9891C50.2102 53.1133 50.1469 53.2267 50.0487 53.3043L49.5476 53.6992C49.542 53.7037 49.5321 53.7114 49.535 53.7309C49.5378 53.7503 49.549 53.755 49.5558 53.7576L52.8284 55.1031Z" fill="#4D1958"/>
<path d="M56.0698 59.3507H30.1836C28.3742 59.3507 26.9023 57.8789 26.9023 56.0695V30.1835C26.9023 28.3741 28.3742 26.9022 30.1836 26.9022H56.0698C57.8792 26.9022 59.3511 28.3741 59.3511 30.1835V56.0695C59.3511 57.8789 57.8792 59.3507 56.0698 59.3507ZM30.1836 27.8397C28.8913 27.8397 27.8398 28.8911 27.8398 30.1835V56.0695C27.8398 57.3618 28.8913 58.4132 30.1836 58.4132H56.0698C57.3622 58.4132 58.4136 57.3618 58.4136 56.0695V30.1835C58.4136 28.8911 57.3622 27.8397 56.0698 27.8397H30.1836Z" fill="#4D1958"/>
</svg>
