<svg width="70" height="71" viewBox="0 0 70 71" fill="none" xmlns="http://www.w3.org/2000/svg">
<path d="M3.2049 48.4968C2.94679 48.5375 2.21322 48.3473 2.26756 48.0756L7.90513 38.9061C8.16324 38.4986 7.91872 37.9688 7.74212 37.5748C5.82671 33.513 8.50286 27.6989 10.6356 24.194C10.7851 23.9495 10.7715 23.3111 10.6356 23.1073C10.2145 22.496 8.63867 22.4552 8.51641 21.3413C8.3534 19.8742 9.30433 18.3391 10.785 17.918C14.317 16.9127 17.8082 16.2063 21.4761 15.7716C30.4554 14.7256 40.3722 16.0162 44.8007 24.9412C48.0882 31.5704 47.735 39.531 44.8415 46.2689C42.6 51.4718 40.3857 57.2452 39.8967 62.9099C39.6929 65.2329 39.8424 67.4879 40.4129 69.743C40.5623 70.3135 41.1193 70.5988 41.6219 70.558C42.1246 70.5173 42.6272 69.9332 42.5049 69.3218C42.2332 68.0177 41.948 66.7408 41.9887 65.4231C44.3388 66.7408 43.9177 64.3363 45.3305 64.7439C46.3765 65.0427 45.2898 67.094 47.1373 67.2842C48.9848 67.4743 50.7372 67.2706 52.4488 66.7C53.6307 66.3061 52.2722 64.4178 53.4677 63.9967C54.3914 63.6707 54.9619 65.5861 56.1574 64.7167C57.5837 63.6571 58.6841 62.2851 59.5535 60.75C60.4772 59.1334 58.1407 59.0927 58.5483 57.8157C58.9015 56.729 60.9391 57.9244 61.075 55.8867L64.8379 55.8596C67.6907 55.846 70 53.5638 70 50.6567V5.42023C70 2.56748 67.8265 0.027169 64.8787 0.027169L38.3073 0C37.9677 0 37.4243 0.122261 37.207 0.339613L27.3989 10.1476C27.1273 10.4193 26.9642 10.8676 26.9506 11.2072L26.9235 13.4351C21.5168 13.3808 14.9691 14.4268 9.88846 15.9754C7.40249 16.7361 5.89462 19.1949 6.16631 21.7217C6.28857 22.8763 7.06289 23.6507 7.94588 24.2756C5.78594 28.3373 3.59883 33.7847 5.52784 38.2948L0.43364 46.6629C-0.0825729 47.5187 -0.150505 48.6326 0.297783 49.4884C1.1672 51.1186 3.06905 50.6839 3.58526 50.7925C3.92487 50.8741 3.2864 51.9337 4.6041 52.708L5.6365 53.3193C3.82975 55.9683 6.12557 56.3486 5.54144 57.6935C4.56335 59.9349 5.07955 62.7469 7.52477 63.3447C8.54361 63.5892 9.60321 63.7522 10.6764 63.7658L16.6264 63.7929C17.6724 63.7929 18.2973 64.4586 18.5146 65.4503C18.8543 67.0261 19.2074 68.5611 19.6421 70.1233C19.778 70.626 20.5523 70.6803 20.9055 70.5037C21.2044 70.3543 21.6663 69.8652 21.5712 69.4305L20.498 64.7167C20.0497 62.7062 18.3516 61.5243 16.3547 61.5651C14.3578 61.6058 12.3608 61.5922 10.3096 61.5243C9.42658 61.4972 8.32625 61.4157 7.60627 60.9402C6.88629 60.4647 7.11723 59.378 7.40251 58.7803C7.98664 57.5169 8.00023 56.2535 7.0629 55.126L8.23115 53.4687C8.54359 53.034 8.29907 52.3004 7.85078 52.0016L6.08481 50.8605C6.0033 49.3254 4.8622 48.1436 3.15054 48.4696L3.2049 48.4968ZM49.8949 42.0305L48.618 41.8811C49.8813 35.6322 49.3108 29.3018 46.4308 23.7322C42.9532 16.9942 36.4734 14.0328 29.097 13.5709L29.0698 12.2397H35.0334C37.0983 12.1582 38.9458 10.528 38.9593 8.38165L39.0001 2.29579L65.259 2.33654C66.7669 2.33654 67.908 3.98027 67.908 5.40664V50.7654C67.908 52.477 66.536 53.7404 64.9058 53.7404H61.1972C61.0342 52.64 60.8984 51.7299 60.5316 50.711C60.1648 49.6922 58.426 50.7246 57.869 49.7194C57.3121 48.7141 59.5671 48.13 58.4668 46.8123C57.2849 45.3859 55.8178 44.109 54.0925 43.3618C53.1416 42.9543 52.802 44.8697 51.6065 44.5437C50.642 44.2856 51.6337 42.2343 49.9085 42.0305H49.8949ZM50.6692 65.0699C49.6504 65.1786 48.8761 65.2329 48.0338 65.2193C47.8301 63.8744 47.0286 63.0594 46.0233 62.7198C44.8822 62.3394 43.7004 62.7198 42.8717 63.4669C42.6815 63.6299 42.0023 63.2767 42.0159 62.9915C42.111 61.5515 42.3555 60.0029 42.7766 58.5629C45.3033 61.9726 49.8813 62.4209 52.8835 59.7855C55.8857 57.1501 55.9943 52.5721 53.0465 49.7058C51.2941 48.0077 48.9576 47.3692 46.4716 48.1164L47.9115 44.3535C48.1561 44.272 48.6315 44.2856 48.8489 44.3806C49.0934 45.5761 49.8949 46.527 50.9409 46.8123C52.0956 47.1383 53.196 46.7987 54.1061 45.9293C54.8805 46.3912 55.5868 46.9617 56.1981 47.6002C55.5325 48.6054 55.288 49.733 55.8314 50.7654C56.4155 51.8793 57.543 52.3548 58.7656 52.477C58.915 53.4279 58.9829 54.2838 58.915 55.126C57.6381 55.3569 56.7415 56.1856 56.4562 57.1365C56.0894 58.3591 56.4291 59.4323 57.2985 60.3968C56.7551 61.1575 56.1845 61.8368 55.5325 62.5024C54.4457 61.7553 53.2367 61.6058 52.1771 62.2035C51.199 62.7605 50.71 63.7522 50.6556 65.0971L50.6692 65.0699Z" fill="#D5DAF3"/>
<path d="M22.5084 56.9056C22.7258 59.3237 24.5868 60.7908 26.9098 60.8451C29.2327 60.8995 31.2161 59.378 31.4878 56.9464C32.4115 57.0415 33.1858 56.729 33.7836 56.1856C34.9382 55.1261 35.0605 51.7027 33.1451 50.6839C32.6832 48.3881 33.77 46.1467 35.4137 44.5165C38.7963 41.1747 39.883 36.1213 38.2257 31.6792C35.9299 25.5118 29.1105 22.2787 22.9024 24.3435C18.9765 25.6476 16.0829 28.9894 15.132 32.6844C13.9773 37.0994 15.2271 41.46 18.3244 44.5709C19.9409 46.1874 21.0277 48.4425 20.5251 50.6975C18.6233 51.7571 18.7863 55.1125 19.8323 56.1177C20.4843 56.7562 21.2994 57.123 22.5084 56.9328V56.9056ZM24.8857 38.879C24.4646 38.4307 23.7718 38.4171 23.3235 38.8518C22.9703 39.205 22.8345 39.8978 23.2827 40.3461L25.7551 42.8321V50.4258H22.8888C22.9839 47.6138 21.9786 45.0463 19.9409 43.0902C16.7893 40.0608 15.7433 35.5236 17.6451 31.5297C19.7643 27.074 24.8178 24.8461 29.5452 26.2182C32.9142 27.1963 35.4137 29.9403 36.2831 33.0512C37.2884 36.6239 36.2967 40.2782 33.7564 42.8321C31.7187 44.8697 30.5504 47.3829 30.727 50.3307H27.8471V42.7098L30.1701 40.3868C30.6319 39.925 30.5504 39.205 30.1293 38.8246C29.6539 38.3899 29.0018 38.4442 28.5535 38.9197L26.7332 40.8215L24.8857 38.879Z" fill="#D5DAF3"/>
<path d="M40.9834 36.3115H43.1297C43.7818 36.3115 44.2165 35.9176 44.2708 35.3606C44.3116 34.858 44.0671 34.1787 43.4014 34.138C42.5049 34.0972 41.5947 34.0972 40.6981 34.138C40.0868 34.1787 39.8287 34.8716 39.8831 35.3334C39.9374 35.8361 40.3857 36.2979 40.9834 36.2979V36.3115Z" fill="#D5DAF3"/>
<path d="M25.7416 21.0017C25.7416 21.6809 26.217 22.102 26.7197 22.1564C27.1951 22.2243 27.8879 21.9526 27.9151 21.3413C28.0102 19.6025 28.2955 17.7821 26.8419 17.7686C26.4344 17.7686 25.7959 18.0674 25.7823 18.6244L25.7416 21.0017Z" fill="#D5DAF3"/>
<path d="M36.1882 24.4387C35.6855 24.9413 35.7263 25.5662 36.0523 25.9602C36.5006 26.5035 37.2206 26.49 37.696 26.0145L39.1903 24.5202C39.6386 24.0719 39.625 23.4334 39.2582 23.0123C38.8371 22.5369 38.1171 22.5097 37.6417 22.9851L36.1882 24.4387Z" fill="#D5DAF3"/>
<path d="M16.2323 26.1231C16.6806 26.5714 17.4142 26.3812 17.7674 25.9601C18.107 25.5661 18.1206 24.9277 17.6587 24.4658L16.178 22.9851C15.7297 22.5504 15.0504 22.5096 14.6293 22.9307C14.2082 23.3519 14.1403 24.0447 14.6293 24.5201L16.2323 26.1095V26.1231Z" fill="#D5DAF3"/>
<path d="M10.1736 36.3249L12.9721 36.2842C13.5154 36.2842 13.8279 35.6321 13.8279 35.2246C13.8279 33.771 11.9804 34.0699 10.2416 34.1514C9.7933 34.165 9.44009 34.7491 9.41292 35.0887C9.37216 35.6185 9.63027 36.0397 10.1736 36.3385V36.3249Z" fill="#D5DAF3"/>
<path d="M38.8507 48.7411C39.299 49.1894 40.0326 49.0128 40.3858 48.5917C40.739 48.1706 40.7389 47.5457 40.2771 47.0838L38.7964 45.6031C38.3481 45.1548 37.696 45.1548 37.2749 45.5488C36.8266 45.9563 36.7587 46.6627 37.2477 47.1517L38.8507 48.7411Z" fill="#D5DAF3"/>
<path d="M13.4338 47.0703C12.9583 47.5457 12.9583 48.1978 13.3523 48.6325C13.7598 49.0944 14.4798 49.1215 14.9552 48.6461L16.4495 47.1518C16.8978 46.7035 16.9114 46.0514 16.5174 45.6167C16.1235 45.182 15.3899 45.1277 14.9145 45.6167L13.4609 47.0703H13.4338Z" fill="#D5DAF3"/>
<path d="M58.562 12.7016H64.1996C64.7973 12.7016 65.2184 12.1718 65.2727 11.6284V6.181C65.232 5.62404 64.8109 5.09424 64.1996 5.09424H58.6435C58.0458 5.09424 57.5432 5.52894 57.5432 6.14025V11.6556C57.5432 12.1854 58.0186 12.6065 58.562 12.7152V12.7016Z" fill="#D5DAF3"/>
<path d="M58.562 31.3395H64.1996C64.8109 31.2852 65.2184 30.8505 65.2727 30.2528V24.8054C65.2184 24.2076 64.8109 23.7729 64.1996 23.7322H58.6435C58.0322 23.7322 57.6111 24.2076 57.5432 24.7782V30.2799C57.5975 30.8233 57.9507 31.2444 58.562 31.3395Z" fill="#D5DAF3"/>
<path d="M58.7656 22.0749H64.05C64.7156 22.0749 65.259 21.5587 65.259 20.893V15.5679C65.259 14.9973 64.77 14.4675 64.1859 14.4675H58.6298C58.0321 14.4675 57.5294 14.9022 57.5294 15.5135V20.9066C57.5294 21.5858 58.1136 22.0749 58.7656 22.0749Z" fill="#D5DAF3"/>
<path d="M58.7793 40.7401H64.0637C64.7429 40.7401 65.2727 40.2103 65.2727 39.531V34.2059C65.2184 33.6082 64.8109 33.1735 64.1996 33.1191H58.6435C58.0322 33.1191 57.6111 33.6082 57.5432 34.1787V39.5582C57.5432 40.2374 58.1137 40.7401 58.7793 40.7401Z" fill="#D5DAF3"/>
<path d="M42.3555 12.3484H53.7937C54.5136 12.362 54.9619 11.9409 54.9891 11.316C55.0163 10.6096 54.5544 10.1477 53.7801 10.1477H42.5728C41.9751 10.1477 41.5404 10.5824 41.4453 11.0579C41.3502 11.5333 41.6219 12.362 42.3555 12.362V12.3484Z" fill="#D5DAF3"/>
<path d="M48.1698 7.62102H53.8889C54.5002 7.62102 54.9349 7.11839 54.9757 6.61576C55.0164 6.11313 54.7312 5.43391 54.0791 5.43391L48.2513 5.40674C47.5313 5.40674 47.0831 5.82786 47.0559 6.47992C47.0423 7.09122 47.4498 7.62102 48.1698 7.62102Z" fill="#D5DAF3"/>
<path d="M48.2377 16.8718L53.7802 16.899C54.4866 16.899 54.9484 16.4779 54.9756 15.8666C55.0164 15.1738 54.5409 14.6711 53.7938 14.6711L48.292 14.6983C47.803 14.6983 47.409 15.3775 47.3819 15.7307C47.3547 16.1247 47.6264 16.8718 48.2377 16.8718Z" fill="#D5DAF3"/>
<path d="M48.4956 21.7216L53.8071 21.7488C54.4456 21.7488 54.9074 21.382 54.9754 20.8386C55.0433 20.2952 54.758 19.5481 54.0652 19.5481H48.5906C48.0608 19.5481 47.6533 20.173 47.6125 20.6077C47.5718 21.0016 47.8843 21.7216 48.4956 21.7216Z" fill="#D5DAF3"/>
<path d="M51.0904 26.2453H54.0653C54.6902 26.2725 55.0706 25.7427 55.0978 25.2536C55.1385 24.6695 54.7717 24.0718 54.0789 24.0718H51.2262C50.6556 24.0718 50.2209 24.5472 50.153 25.0091C50.0715 25.5117 50.384 26.2453 51.0768 26.2453H51.0904Z" fill="#D5DAF3"/>
<path d="M51.987 31.0543C53.2503 31.2309 55.0299 31.4075 55.1114 30.0898C55.1386 29.6687 54.8669 29.0166 54.3371 28.9623C53.2639 28.8536 51.43 28.6227 51.267 29.8181C51.2126 30.2528 51.3621 30.9592 51.987 31.0543Z" fill="#D5DAF3"/>
<path d="M52.34 35.5507C53.0057 35.7137 53.7257 35.7001 54.3505 35.5507C54.7853 35.442 54.989 34.885 54.989 34.5047C54.989 34.1922 54.7173 33.5945 54.3369 33.5266C53.3453 33.3636 51.8374 33.2277 51.7015 34.4096C51.6608 34.8035 51.8238 35.4284 52.34 35.5507Z" fill="#D5DAF3"/>
<path d="M52.4354 40.4412C53.0196 40.5498 53.6852 40.5363 54.2557 40.4412C54.704 40.3732 54.9757 39.8435 54.9893 39.4767C55.0165 39.0691 54.7855 38.4442 54.2965 38.3627C53.3456 38.2269 51.9871 38.0775 51.729 39.1099C51.6204 39.5718 51.7698 40.2917 52.4354 40.414V40.4412Z" fill="#D5DAF3"/>
</svg>
