<svg width="69" height="70" viewBox="0 0 69 70" fill="none" xmlns="http://www.w3.org/2000/svg">
<path d="M52.0898 38.1171H45.9924C45.5871 38.1171 45.0408 37.7999 44.9527 37.377L44.1597 32.9538L42.5208 32.3017L39.0316 34.8394C38.5734 35.1742 37.939 35.1742 37.5161 34.7689L33.3396 30.5747C33.0047 30.2399 32.9166 29.5526 33.181 29.1826L35.8067 25.5876L35.1723 23.9487L30.8019 23.1734C30.3261 23.0853 29.9561 22.5918 29.9561 22.0984V16.0892C29.9561 15.5958 30.3614 15.1376 30.8372 15.0671L35.1195 14.3093L35.8243 12.6881L33.1457 8.96977C32.899 8.63494 33.0224 7.77145 33.3219 7.48949L37.3751 3.43636C37.8157 2.9958 38.4677 2.96055 38.9611 3.313L42.4503 5.85061L44.0716 5.19859L44.8293 0.916361C44.9175 0.370069 45.4461 0 46.0101 0H51.7549C52.4069 0 52.8652 0.405315 52.9885 1.03972L53.7287 5.26908L55.3852 5.93873L58.9801 3.33062C59.3502 3.06629 60.0199 3.13678 60.3371 3.45398L64.5311 7.64809C64.9188 8.03578 64.9717 8.70543 64.6545 9.12837L62.0817 12.6528L62.716 14.2917L66.9278 15.0318C67.527 15.1376 68.038 15.6134 68.038 16.2654V22.2041C68.038 22.6271 67.6151 23.1205 67.2274 23.191L62.8394 23.9664L62.205 25.6052L64.7602 29.1121C65.0598 29.535 65.0775 30.1871 64.6898 30.5924L60.5132 34.7689C60.1608 35.1213 59.4735 35.2094 59.1035 34.9451L55.5085 32.337L53.8696 32.9714L53.0942 37.3417C53.0237 37.7294 52.6008 38.1876 52.125 38.1876L52.0898 38.1171ZM55.2794 19.0321C55.2794 15.5076 52.4246 12.6705 48.9177 12.6705C45.4109 12.6705 42.5561 15.5253 42.5561 19.0321C42.5561 22.539 45.4109 25.3938 48.9177 25.3938C52.4246 25.3938 55.2794 22.539 55.2794 19.0321Z" fill="#D5DAF3"/>
<path d="M13.9199 43.862L11.6466 41.5887C11.347 41.2891 10.7831 41.2539 10.3778 41.4125C10.0429 41.5534 9.77858 41.9764 9.81383 42.4698L10.783 59.352H7.71676C7.04711 59.352 6.62419 58.7881 6.65944 58.1537C6.81804 55.5808 5.88405 53.237 4.06895 51.4396C0.227269 47.5979 -0.988668 42.0469 0.826436 36.9716C2.7649 31.5263 7.6639 27.8961 13.444 27.6142C19.6119 27.3146 25.0219 30.9977 27.1014 36.7954C28.8988 41.7825 27.9473 47.3159 24.2642 51.1929C22.4315 53.1313 21.4622 55.5808 21.5327 58.277C21.5327 58.7881 21.1274 59.352 20.5811 59.352H17.0742L18.0435 42.6108C18.0611 42.1702 17.8672 41.7473 17.6205 41.5534C17.3386 41.3243 16.6337 41.1834 16.3517 41.4653L13.9199 43.862Z" fill="#D5DAF3"/>
<path d="M23.0658 7.08419L24.3523 5.60391C14.889 6.46741 7.39954 14.1155 6.57129 23.6139C6.51843 24.2483 6.21884 24.636 5.65492 24.7594C5.19674 24.8475 4.33324 24.5303 4.38611 23.8783C5.12625 13.1815 13.4793 4.4937 24.1584 3.40112L22.872 2.14993C22.4667 1.74462 22.308 1.19833 22.5724 0.757771C22.8543 0.317213 23.6298 -0.0352344 24.0879 0.370079L27.7358 3.55972C28.2116 3.98266 28.2468 4.66993 27.8239 5.12811L24.6342 8.5116C24.2113 8.96978 23.5064 8.96978 23.154 8.61733C22.6958 8.17677 22.6429 7.55999 23.0482 7.08419H23.0658Z" fill="#D5DAF3"/>
<path d="M28.8109 57.801C28.4408 57.3076 28.5113 56.7085 29.0047 56.3384L32.6349 53.7127C33.0931 53.3778 33.8156 53.5717 34.0799 53.9417C34.4324 54.4352 34.3619 55.1224 33.8509 55.4925L32.5997 56.4265C42.0981 56.497 50.3278 49.8181 52.1957 40.5664C52.3015 40.073 52.7068 39.7205 53.0769 39.6677C53.4998 39.5972 54.0813 39.8439 54.2399 40.3021C52.5658 51.0341 42.7678 58.8584 31.8771 58.5588L33.1988 60.1801C33.516 60.5677 33.4279 61.2726 33.0931 61.5722C32.723 61.907 31.8948 62.0128 31.5424 61.537L28.7756 57.8187L28.8109 57.801Z" fill="#D5DAF3"/>
<path d="M20.2818 63.7399C19.9294 67.1233 16.9688 69.5376 13.6558 69.3438C10.3428 69.1499 7.66425 66.348 7.75236 62.9116L7.78758 61.5547H20.2995C20.3347 62.2948 20.3523 62.9997 20.2818 63.7399Z" fill="#D5DAF3"/>
<path d="M15.6469 45.2896L14.801 59.3522H12.8449L11.999 45.3072C12.7215 45.6067 13.4793 47.369 14.66 46.1883C14.9772 45.8711 15.2592 45.6244 15.6645 45.2896H15.6469Z" fill="#D5DAF3"/>
</svg>
