<svg width="70" height="70" viewBox="0 0 70 70" fill="none" xmlns="http://www.w3.org/2000/svg">
<path d="M0 14.0678V5.04739L14.9947 4.98853V13.5086C14.9947 14.3474 14.5386 14.9948 13.6409 14.9801H1.50095C0.750479 14.9801 0.294303 14.6711 0 14.0531V14.0678ZM6.25394 8.74089H3.75237V11.2425H6.25394V8.74089ZM11.2424 8.74089H8.7408V11.2425H11.2424V8.74089Z" fill="#D5DAF3"/>
<path d="M0 69.1465V59.9937H14.9947V68.7345C14.9947 69.4702 14.3767 69.9852 13.6704 69.9705H1.10364C0.618036 69.9705 0.279591 69.4408 0.0147183 69.1465H0ZM6.25394 63.7166H3.75237V66.2182H6.25394V63.7166ZM11.2424 63.7166H8.7408V66.2182H11.2424V63.7166Z" fill="#D5DAF3"/>
<path d="M0 57.5363V55.9029C0.309018 55.2848 0.750479 54.9758 1.50095 54.9758H13.7734C14.362 54.9758 14.9653 55.4909 14.9653 56.0795V57.4774L0 57.5363Z" fill="#D5DAF3"/>
<path d="M14.0824 0C15.1713 0.618036 15.0389 1.07421 14.9653 2.48686L0 2.45743V0H14.0824Z" fill="#D5DAF3"/>
<path d="M69.161 0L69.8232 0.573891C70.0145 1.19193 70.0439 1.89825 69.9115 2.50158H55.0198C54.9756 1.07421 54.8138 0.632752 55.9174 0H69.1758H69.161Z" fill="#D5DAF3"/>
<path d="M68.7934 14.9948H56.3296C55.535 14.9948 54.9758 14.4357 54.9758 13.641V4.98853H69.9706V13.641C69.9706 14.3326 69.5585 14.8624 68.7786 14.9801L68.7934 14.9948ZM61.2298 8.74089H58.7282V11.2425H61.2298V8.74089ZM66.2329 8.74089H63.7313V11.2425H66.2329V8.74089Z" fill="#D5DAF3"/>
<path d="M68.8227 69.9706H56.3296C55.5202 69.9706 54.9905 69.3967 54.9905 68.6021V59.979H69.9999V68.7345C69.9999 69.382 69.529 69.8676 68.8374 69.9706H68.8227ZM61.2297 63.7167H58.7281V66.2182H61.2297V63.7167ZM66.2329 63.7167H63.7313V66.2182H66.2329V63.7167Z" fill="#D5DAF3"/>
<path d="M36.2434 31.2695H33.7419V38.7154H29.9895V23.9267C29.9895 22.9408 30.4015 22.1461 30.9607 21.381C31.9025 20.086 32.8884 18.8647 34.1245 17.8787C34.6983 17.4226 35.2722 17.4226 35.8461 17.8787C37.1116 18.8794 38.0975 20.1449 39.0687 21.4692C39.6426 22.2491 39.9958 23.0585 39.9958 24.0591V38.7154H36.2434V31.2695ZM38.745 23.7354C38.745 21.6605 37.0675 19.9977 35.0074 19.9977C32.9472 19.9977 31.2697 21.6753 31.2697 23.7354C31.2697 25.7955 32.9472 27.473 35.0074 27.473C37.0675 27.473 38.745 25.7955 38.745 23.7354Z" fill="#D5DAF3"/>
<path d="M22.4994 31.2402H12.6108C12.3753 31.2402 11.875 31.1078 11.7132 30.9459L6.65115 25.8839C6.43042 25.6632 6.26855 25.207 6.26855 24.8833V19.9832H8.77014V24.4713L13.0228 28.724H22.4847L22.5141 31.2402H22.4994Z" fill="#D5DAF3"/>
<path d="M57.551 31.2404H47.4858V28.7388H56.9771L61.2298 24.4715V19.998H63.7166V24.8982C63.7166 25.2072 63.5695 25.6781 63.3488 25.8988L58.4192 30.8284C58.2573 30.9903 57.8306 31.2551 57.5363 31.2551L57.551 31.2404Z" fill="#D5DAF3"/>
<path d="M8.75542 49.958L6.26855 49.9874V44.9254C6.26855 44.6899 6.47457 44.2485 6.63643 44.0719L11.6984 39.0099C11.8603 38.848 12.3606 38.7156 12.5961 38.7156H18.747V41.2172H12.9934L8.75542 45.4845V49.9432V49.958Z" fill="#D5DAF3"/>
<path d="M63.7313 49.9727H61.2444V45.4845L57.0065 41.2319H51.2676V38.7156H57.5362C57.757 38.7156 58.2278 38.9069 58.3897 39.0687L63.3781 44.0572C63.5989 44.2779 63.7607 44.7341 63.7607 45.0431V49.9432L63.7313 49.9727Z" fill="#D5DAF3"/>
<path d="M69.9705 57.4774H54.9905V56.0647C54.9905 55.4909 55.5938 54.9758 56.1824 54.9758H68.7197C69.3819 54.9758 69.9411 55.535 69.9411 56.1678V57.4921L69.9705 57.4774Z" fill="#D5DAF3"/>
<path d="M37.4646 47.8389C37.2586 49.487 35.6546 53.7396 34.3009 52.0621C33.3149 50.8408 32.7263 49.3987 32.5203 47.8389C32.3143 46.2791 33.4768 45.0136 34.9336 44.9841C36.3904 44.9547 37.6706 46.2496 37.4793 47.8389H37.4646Z" fill="#D5DAF3"/>
<path d="M45.661 41.1876C44.3955 41.2465 43.1447 41.2465 41.9233 41.1729C42.2618 40.599 42.4825 40.3194 42.4825 39.9221V33.8889C42.7915 34.0214 43.0711 34.2715 43.1741 34.5511L45.661 41.1876Z" fill="#D5DAF3"/>
<path d="M28.0617 41.2171H24.3093L26.7668 34.6541C26.8992 34.3157 27.1346 34.0508 27.4878 33.8889V39.775C27.5172 40.2753 27.6644 40.5107 28.0617 41.2171Z" fill="#D5DAF3"/>
<path d="M27.5025 46.2202H25.001V51.2234H27.5025V46.2202Z" fill="#D5DAF3"/>
<path d="M44.9989 46.2202H42.4973V51.2234H44.9989V46.2202Z" fill="#D5DAF3"/>
<path d="M36.6113 42.468H33.4475C33.2856 42.1296 33.1532 41.7175 33.0208 41.2319H36.9644L36.6113 42.468Z" fill="#D5DAF3"/>
<path d="M34.9924 24.9717C35.6751 24.9717 36.2285 24.4182 36.2285 23.7356C36.2285 23.0529 35.6751 22.4995 34.9924 22.4995C34.3098 22.4995 33.7563 23.0529 33.7563 23.7356C33.7563 24.4182 34.3098 24.9717 34.9924 24.9717Z" fill="#D5DAF3"/>
</svg>
