<svg width="347" height="386" viewBox="0 0 347 386" fill="none" xmlns="http://www.w3.org/2000/svg">
<path d="M169.4 262.39H2C0.895431 262.39 0 263.285 0 264.39V312.78C0 313.885 0.895432 314.78 2 314.78H169.4C170.505 314.78 171.4 313.885 171.4 312.78V264.39C171.4 263.285 170.505 262.39 169.4 262.39Z" fill="#5370EA"/>
<path d="M170.938 265.102C183.889 265.102 194.388 275.601 194.388 288.552C194.388 301.503 183.888 312.002 170.938 312.002C157.987 312.002 147.487 301.503 147.487 288.552C147.487 275.601 157.986 265.102 170.938 265.102Z" fill="white" stroke="#B4C0F1" stroke-width="6"/>
<path d="M202.83 287.68C202.83 303.77 189.78 316.82 173.69 316.82V321.89C192.58 321.89 207.9 306.57 207.9 287.68C207.9 268.79 192.58 253.47 173.69 253.47V258.54C189.78 258.54 202.83 271.59 202.83 287.68Z" fill="#5370EA"/>
<path d="M169.8 8.83H2.39999C1.29542 8.83 0.399994 9.72543 0.399994 10.83V59.22C0.399994 60.3246 1.29543 61.22 2.4 61.22H169.8C170.905 61.22 171.8 60.3246 171.8 59.22V10.83C171.8 9.72543 170.905 8.83 169.8 8.83Z" fill="#5370EA"/>
<path d="M171.33 11.52C184.281 11.5201 194.78 22.0192 194.78 34.9702C194.78 47.9211 184.281 58.4203 171.33 58.4204C158.379 58.4204 147.88 47.9212 147.88 34.9702C147.88 22.0191 158.379 11.52 171.33 11.52Z" fill="white" stroke="#B4C0F1" stroke-width="6"/>
<path d="M202.96 34.21C202.96 50.3 189.91 63.35 173.82 63.35V68.42C192.71 68.42 208.03 53.1 208.03 34.21C208.03 15.32 192.71 0 173.81 0V5.07C189.9 5.07 202.95 18.12 202.95 34.21H202.96Z" fill="#5270EA"/>
<path d="M344.51 71.23H177.11C176.005 71.23 175.11 72.1254 175.11 73.23V121.62C175.11 122.725 176.005 123.62 177.11 123.62H344.51C345.615 123.62 346.51 122.725 346.51 121.62V73.23C346.51 72.1254 345.615 71.23 344.51 71.23Z" fill="#A94D90"/>
<path d="M175.577 74.0135C188.528 74.0136 199.027 84.5127 199.027 97.4637C199.027 110.415 188.528 120.914 175.577 120.914C162.626 120.914 152.127 110.415 152.126 97.4637C152.126 84.5126 162.626 74.0135 175.577 74.0135Z" fill="white" stroke="#D7B2CD" stroke-width="6"/>
<path d="M144.67 97.56C144.67 113.65 157.72 126.7 173.81 126.7V131.77C154.92 131.77 139.6 116.45 139.6 97.56C139.6 78.67 154.92 63.35 173.81 63.35V68.42C157.72 68.42 144.67 81.47 144.67 97.56Z" fill="#A94D90"/>
<path d="M169.4 135.53H2C0.895431 135.53 0 136.425 0 137.53V185.92C0 187.025 0.895432 187.92 2 187.92H169.4C170.505 187.92 171.4 187.025 171.4 185.92V137.53C171.4 136.425 170.505 135.53 169.4 135.53Z" fill="#5370EA"/>
<path d="M170.938 138.226C183.889 138.226 194.389 148.725 194.389 161.676C194.389 174.627 183.889 185.126 170.938 185.126C157.987 185.126 147.488 174.627 147.488 161.676C147.488 148.725 157.987 138.226 170.938 138.226Z" fill="white" stroke="#B4C0F1" stroke-width="6"/>
<path d="M343.25 198.05H175.85C174.745 198.05 173.85 198.945 173.85 200.05V248.44C173.85 249.545 174.745 250.44 175.85 250.44H343.25C344.355 250.44 345.25 249.545 345.25 248.44V200.05C345.25 198.945 344.355 198.05 343.25 198.05Z" fill="#A94D90"/>
<path d="M174.31 200.84C187.261 200.84 197.76 211.339 197.76 224.29C197.76 237.241 187.261 247.74 174.31 247.74C161.359 247.74 150.86 237.241 150.86 224.29C150.86 211.339 161.359 200.84 174.31 200.84Z" fill="white" stroke="#D7B2CD" stroke-width="6"/>
<path d="M144.62 224.28C144.62 240.37 157.67 253.42 173.76 253.42V258.49C154.87 258.49 139.55 243.17 139.55 224.28C139.55 205.39 154.87 190.07 173.76 190.07V195.14C157.67 195.14 144.62 208.19 144.62 224.28Z" fill="#A94D90"/>
<path d="M202.9 160.94C202.9 177.03 189.85 190.08 173.76 190.08V195.15C192.65 195.15 207.97 179.83 207.97 160.94C207.97 142.05 192.65 126.73 173.76 126.73V131.8C189.85 131.8 202.9 144.85 202.9 160.94Z" fill="#5370EA"/>
<path d="M343.25 324.79H175.85C174.745 324.79 173.85 325.685 173.85 326.79V375.18C173.85 376.285 174.745 377.18 175.85 377.18H343.25C344.355 377.18 345.25 376.285 345.25 375.18V326.79C345.25 325.685 344.355 324.79 343.25 324.79Z" fill="#A94D90"/>
<path d="M174.31 327.58C187.261 327.58 197.76 338.079 197.76 351.03C197.76 363.981 187.261 374.48 174.31 374.48C161.359 374.48 150.86 363.981 150.86 351.03C150.86 338.079 161.359 327.58 174.31 327.58Z" fill="white" stroke="#D7B2CD" stroke-width="6"/>
<path d="M144.62 351.03C144.62 367.12 157.67 380.17 173.76 380.17V385.24C154.87 385.24 139.55 369.92 139.55 351.03C139.55 332.14 154.87 316.82 173.76 316.82V321.89C157.67 321.89 144.62 334.94 144.62 351.03Z" fill="#A94D90"/>
</svg>
