<svg width="70" height="70" viewBox="0 0 70 70" fill="none" xmlns="http://www.w3.org/2000/svg">
<path d="M69.9808 13.2116V69.2656C69.9808 69.6508 69.7689 69.9783 69.3836 69.9783H3.73703C2.04193 69.9783 0.789871 68.8033 0.250521 67.3779C-0.250304 66.068 0.077151 64.6811 0.905438 63.6794C1.73373 62.6778 3.06286 62.1962 4.50755 62.3889C6.35675 62.6393 7.66657 64.2573 7.7051 66.1451C7.7051 66.6651 8.12889 66.9733 8.59119 67.0889C8.91865 67.166 9.53506 66.7614 9.53506 66.2221V13.2116H44.6891L37.2345 20.7433L35.7128 29.084C35.3853 29.5077 35.6357 30.9524 36.3484 30.8369L45.6137 29.2188L61.6594 13.1924H70L69.9808 13.2116ZM17.086 23.9216C17.5675 23.6905 17.8757 23.2859 17.8179 22.8044C17.7601 22.3999 17.3171 22.0339 16.8548 22.0339H15.1597C14.5626 22.0339 14.1581 22.3999 14.1388 22.9392C14.1388 23.3437 14.5048 23.8638 15.0056 23.8638L17.1052 23.9023L17.086 23.9216ZM24.0012 23.9023C24.6754 23.9023 25.0413 23.5556 24.9836 22.9392C24.945 22.4962 24.5983 22.0339 24.0012 22.0339H22.1905C21.9594 22.0339 21.4585 22.2843 21.3429 22.4577C21.1503 22.7659 21.4007 23.7675 21.786 23.806C22.4987 23.9023 23.2885 23.9023 24.0012 23.8831V23.9023ZM31.4365 23.8446C31.8988 23.806 32.207 23.1511 32.1492 22.8429C32.0722 22.4191 31.6677 22.0531 31.2054 22.0339H29.5103C28.9131 22.0339 28.4701 22.3806 28.4701 22.9392C28.4701 24.172 30.2422 23.9409 31.4365 23.8446ZM24.1745 29.5655C24.7332 29.5655 25.1184 29.1032 25.0991 28.6024C25.0991 28.1401 24.6754 27.7163 24.136 27.7163H15.0441C14.447 27.7163 14.081 28.2364 14.1195 28.7372C14.158 29.1995 14.5818 29.5848 15.1404 29.5848H24.1745V29.5655ZM42.2813 53.1043H55.3413C55.8806 53.1043 56.4007 52.7769 56.4007 52.199V47.1522C61.3512 47.1522 65.2807 43.1841 65.3578 38.3685C65.4348 33.5529 61.6208 29.527 56.8052 29.3729C51.9896 29.2188 47.9059 32.7824 47.5977 37.7714L42.0116 37.8291C41.4337 37.8291 41.1448 38.3685 41.1448 38.8886V52.1797C41.1448 52.7961 41.6649 53.1043 42.2813 53.1043ZM24.2516 33.8225C24.8487 33.8225 25.1762 33.1291 25.1184 32.7824C25.0414 32.3393 24.6754 31.9733 24.1745 31.9733H15.1597C14.5626 31.9733 14.1581 32.3201 14.1388 32.8979C14.1388 33.2447 14.5048 33.8418 15.0249 33.8418H24.2516V33.8225ZM31.4172 39.505C32.0722 39.505 32.3804 38.9656 32.3611 38.5226C32.3611 38.1181 31.9758 37.6365 31.4558 37.6365H14.6396C14.2544 37.6365 14.1003 38.4841 14.158 38.7923C14.2351 39.1197 14.6589 39.505 15.1597 39.505H31.4172ZM31.5521 43.762C32.0914 43.5694 32.3611 43.2227 32.3804 42.7989C32.3804 42.4907 32.0722 41.8935 31.6291 41.8935H15.0249C14.4662 41.8935 14.1388 42.3751 14.1388 42.8181C14.1388 43.1841 14.5048 43.762 15.0441 43.762H31.5521ZM18.6269 52.9117C19.0507 52.9117 19.4552 52.3338 19.4552 52.0064V48.5584C19.4552 47.8842 18.9929 47.5567 18.3573 47.5567H14.7166C14.3699 47.7493 14.1003 48.2116 14.1003 48.6547V51.9101C14.1003 52.4687 14.5433 52.931 15.1404 52.931H18.6077L18.6269 52.9117ZM26.043 52.931C26.4283 52.931 26.9483 52.7383 27.2758 52.5457V48.2694C27.2758 47.9034 26.6401 47.5567 26.3319 47.5567H22.961C22.4216 47.5567 21.9786 47.9805 21.9594 48.5198V51.8908C21.9594 52.4494 22.3639 52.9117 22.9417 52.9117H26.0238L26.043 52.931ZM34.114 52.931C34.6919 52.931 35.1157 52.4494 35.1157 51.8908V48.5006C35.1157 48.019 34.7304 47.5567 34.2296 47.5567H30.7238C30.1845 47.5567 29.7607 47.9998 29.7607 48.5391V51.8908C29.7607 52.3916 30.1459 52.9117 30.7045 52.9117H34.0755L34.114 52.931ZM64.1442 50.3113C64.568 50.3113 64.9147 49.6756 64.9147 49.3674C64.9147 49.0399 64.5873 48.4813 64.1828 48.4621H60.5229C60.0028 48.4428 59.5983 48.8858 59.579 49.3674C59.579 49.7912 60.0028 50.3113 60.5229 50.3113H64.1442ZM63.9709 53.817C64.6258 53.817 64.9532 53.2006 64.8955 52.7576C64.8377 52.3146 64.4332 51.9486 63.9131 51.9486H60.3688C59.8872 51.9678 59.5212 52.5842 59.579 52.9888C59.6368 53.374 60.0798 53.8556 60.5036 53.8363H63.9516L63.9709 53.817ZM18.4729 61.1753C19.07 61.1753 19.4745 60.6167 19.4745 60.1351V56.6679C19.4745 56.2056 18.9929 55.8011 18.5499 55.8011H15.0249C14.524 55.8011 14.1388 56.2826 14.1388 56.7642V60.1544C14.1388 60.713 14.6011 61.1561 15.179 61.1561H18.4729V61.1753ZM26.409 61.1753C26.9291 61.0597 27.2951 60.636 27.2951 60.1544V56.7835C27.2951 56.2249 26.8713 55.8011 26.3319 55.8011H22.8069C22.4217 55.8011 21.9786 56.2441 21.9786 56.6294V60.1544C21.9786 60.6938 22.4409 61.1175 22.961 61.1753H26.409ZM34.191 61.1561C34.7689 61.1561 35.1349 60.6167 35.1349 60.1737V56.7642C35.1349 56.2826 34.7689 55.8011 34.2681 55.8011H30.7431C30.3 55.8011 29.7992 56.2056 29.7992 56.6679V60.1351C29.7992 60.7323 30.2808 61.1946 30.8972 61.1946L34.191 61.1561Z" fill="#E6D3E1"/>
<path d="M7.6665 61.888C5.25868 60.0003 2.36929 59.981 0 61.9265V12.3255C0 10.1103 1.69511 8.45376 3.77546 8.41523C5.85581 8.37671 7.6087 9.9755 7.68575 12.1714V61.8687L7.6665 61.888Z" fill="#E6D3E1"/>
<path d="M53.2412 7.31132L39.3345 21.218L45.1641 27.0477L59.0708 13.141L53.2412 7.31132Z" fill="#E6D3E1"/>
<path d="M65.9163 6.2772L63.9322 8.2805L58.0957 2.46322L60.0412 0.498444C60.6961 -0.156482 61.7556 -0.175744 62.4298 0.498444L65.8778 3.94643C66.4942 4.56284 66.5905 5.62227 65.9163 6.29646V6.2772Z" fill="#E6D3E1"/>
<path d="M56.7787 3.7599L54.5312 6.00732L60.3609 11.837L62.6083 9.58954L56.7787 3.7599Z" fill="#E6D3E1"/>
<path d="M43.2253 27.7166L37.6199 28.776L38.6408 23.1321L43.2253 27.7166Z" fill="#E6D3E1"/>
<path d="M56.4201 38.8116C56.4201 38.1374 55.9385 37.7907 55.3607 37.81H49.4856C49.6975 33.9382 53.0106 31.0296 56.8054 31.2029C60.6001 31.3763 63.5858 34.5161 63.528 38.3301C63.4702 42.144 60.3882 45.2838 56.4394 45.2646V38.7924L56.4201 38.8116Z" fill="#E6D3E1"/>
<path d="M54.5512 46.9019L54.5897 51.2552H42.9937V39.6592H47.713C48.3871 43.242 50.8528 46.0351 54.5512 46.9019Z" fill="#E6D3E1"/>
<path d="M54.5898 39.6399V45.0141C52.0664 44.2822 50.2172 42.4137 49.5815 39.6784L54.5898 39.6399Z" fill="#E6D3E1"/>
<path d="M25.4649 49.406H23.8083V51.0626H25.4649V49.406Z" fill="#E6D3E1"/>
<path d="M33.2855 49.406H31.6289V51.0626H33.2855V49.406Z" fill="#E6D3E1"/>
<path d="M33.2855 57.6311H31.6289V59.2877H33.2855V57.6311Z" fill="#E6D3E1"/>
<path d="M17.6253 49.406H15.9688V51.0626H17.6253V49.406Z" fill="#E6D3E1"/>
<path d="M17.6253 57.6311H15.9688V59.2877H17.6253V57.6311Z" fill="#E6D3E1"/>
<path d="M25.4649 57.6311H23.8083V59.2877H25.4649V57.6311Z" fill="#E6D3E1"/>
</svg>
