<svg width="50" height="50" viewBox="0 0 50 50" fill="none" xmlns="http://www.w3.org/2000/svg">
<path d="M50 32.6226V35.0602C49.9446 35.1525 49.9354 35.3649 49.9077 35.5588C49.6492 37.8672 48.9567 40.0186 47.7471 42.0499L49.9169 49.9353L42.0593 47.7655C40.0556 48.9289 37.8857 49.6675 35.5404 49.9261C35.3465 49.9169 35.1249 49.9261 35.0418 50.0092H32.6042C26.9995 49.4644 21.9857 46.2696 19.3911 41.1174C31.2746 40.9512 40.9143 31.3114 41.0898 19.4187C46.242 22.0133 49.4368 27.0271 49.9816 32.6318L50 32.6226Z" fill="#E6D3E1"/>
<path d="M0.0653911 38.1165L2.64153 28.7999C1.11801 26.2053 0.25006 23.3614 0.0469242 20.4344C-0.756387 8.86489 8.86488 -0.756388 20.4252 0.0469236C24.5895 0.333161 28.5506 2.00442 31.6808 4.75599C39.9447 12.032 40.3879 24.7095 32.6503 32.5118C26.547 38.7259 16.9257 39.9909 9.39119 35.5404L0.0653911 38.1165ZM17.6367 23.5461L20.5545 23.5276V21.247L23.1121 18.8924C25.1158 17.055 25.5221 14.0726 24.1463 11.6996C22.7705 9.32656 20.1389 8.26471 17.4982 9.00339C15.0698 9.68666 13.2138 11.9581 13.2323 14.645H16.1501C16.1686 13.2231 17.1288 12.1335 18.3384 11.8104C19.6865 11.4595 21.0161 12.0966 21.6255 13.1954C22.318 14.4327 22.0503 15.8916 21.0254 16.8241L17.609 19.9635L17.6274 23.5369L17.6367 23.5461ZM20.5545 26.4639H17.6274V29.3909H20.5545V26.4639Z" fill="#E6D3E1"/>
</svg>
