<svg width="54" height="50" viewBox="0 0 54 50" fill="none" xmlns="http://www.w3.org/2000/svg">
<path d="M32.8216 45.7856L23.7844 40.3749C23.5887 40.5475 23.4506 40.7778 23.3009 41.0771L28.9304 44.4617C29.2873 44.6805 29.6327 44.9913 29.9665 45.2561C30.6573 45.7856 30.7954 46.7412 30.3579 47.4204C29.8744 48.1572 28.9189 48.3989 28.1361 47.9269L19.1104 42.5277C18.9147 42.7579 18.7881 42.9651 18.6615 43.2529L26.1675 47.7658C26.5128 48.3644 26.2135 49.1933 25.753 49.5847C25.2235 50.0337 24.4867 50.1603 23.842 49.7574L8.93359 40.4094L14.3329 28.333C16.1403 28.4481 17.8211 28.5863 19.594 28.8165L18.3852 30.8772C18.0628 31.8212 18.2355 32.8228 18.9378 33.5135C19.594 34.1582 20.6992 34.5036 21.6086 34.0546L23.6923 33.03C25.5688 32.109 27.7101 32.3047 29.3679 33.5826L38.9691 40.962C39.6944 41.5146 39.7635 42.5161 39.303 43.1723C38.7619 43.9437 37.8294 44.0473 37.0236 43.5638L28.09 38.199C27.9058 38.4638 27.7907 38.648 27.6411 38.9358L34.8362 43.299C35.5155 43.7134 35.3543 44.8762 34.9514 45.3712C34.4678 45.9583 33.6159 46.2346 32.8446 45.7741L32.8216 45.7856Z" fill="#5370EA"/>
<path d="M52.6686 44.554H47.868C47.5687 44.554 47.2233 44.3122 47.0966 44.0129L39.1532 26.2609C38.946 25.8004 39.2107 25.3399 39.6597 25.2018C43.8962 23.8318 48.363 23.521 52.7607 24.2348C53.1867 24.3729 53.4284 24.6492 53.4284 25.1212V43.7251C53.4284 44.1856 53.106 44.4503 52.6686 44.554Z" fill="#5370EA"/>
<path d="M5.618 44.5532H0.828886C0.391419 44.5417 0 44.1963 0 43.7243V25.1089C0 24.6715 0.241754 24.3031 0.67922 24.234C5.07691 23.5087 9.54368 23.8311 13.7802 25.201C14.2292 25.3507 14.4824 25.8112 14.2752 26.2717L6.33176 44.0121C6.19361 44.3114 5.92882 44.4726 5.60648 44.5647L5.618 44.5532Z" fill="#5370EA"/>
<path d="M39.2567 40.1101L29.8397 32.8804C27.9287 31.4183 25.4535 31.1881 23.3122 32.2472L21.3782 33.2027C20.7335 33.5251 19.9852 33.3754 19.5247 32.8919C19.0297 32.3854 18.9261 31.591 19.306 30.9463L19.9967 29.7836C22.1955 26.0996 26.8235 24.603 30.7837 26.3299L40.0511 30.3822L44.0689 39.3618L40.1202 40.9735C39.8093 40.6051 39.5791 40.3749 39.2452 40.0986L39.2567 40.1101Z" fill="#5370EA"/>
<path d="M30.4268 19.4109L26.7198 17.4768L23.0014 19.4224C22.8978 19.48 22.656 19.4569 22.5754 19.3994C22.4949 19.3418 22.3682 19.0655 22.3912 18.9619L23.0935 14.8405L20.1579 11.9509C20.0658 11.8703 19.9622 11.6056 19.9852 11.4904C20.0082 11.3523 20.273 11.1911 20.4341 11.1681L24.4865 10.581L26.3169 6.88552C26.3745 6.7704 26.5817 6.60923 26.6968 6.59771C26.835 6.5862 27.0883 6.75889 27.1458 6.89703L28.9532 10.5695L33.0977 11.1911C33.2358 11.2141 33.4661 11.4099 33.4776 11.525C33.4891 11.6631 33.374 11.8934 33.2473 12.0085L30.3577 14.8405L31.06 18.9619C31.083 19.0655 30.9564 19.3303 30.8758 19.3879C30.7952 19.4454 30.5419 19.4569 30.4268 19.3994V19.4109Z" fill="#5370EA"/>
<path d="M34.8363 7.62223C34.5139 8.02516 33.9728 8.00213 33.662 7.77189C33.2821 7.49559 33.1785 6.943 33.4893 6.54007L35.1701 4.44484C35.4809 4.06493 36.022 4.01888 36.3789 4.30669C36.7127 4.55996 36.8509 5.11255 36.5401 5.50397L34.8478 7.62223H34.8363Z" fill="#5370EA"/>
<path d="M19.9393 6.50589C20.2617 6.90882 20.1926 7.42687 19.8472 7.72619C19.5479 7.99098 18.9493 8.04854 18.6384 7.64561L16.9231 5.49281C16.6123 5.10139 16.7389 4.5488 17.0728 4.29553C17.4412 4.01923 17.9822 4.05377 18.2816 4.43368L19.9278 6.49438L19.9393 6.50589Z" fill="#5370EA"/>
<path d="M27.5833 3.39725C27.5833 3.94984 27.1804 4.27218 26.7659 4.2952C26.3054 4.31823 25.8564 3.97286 25.8564 3.44329V0.853029C25.8564 0.358 26.2594 0.0241437 26.6623 0.00111917C27.1228 -0.0219054 27.5718 0.311951 27.5718 0.853029V3.39725H27.5833Z" fill="#5370EA"/>
</svg>
