<svg width="80" height="80" viewBox="0 0 80 80" fill="none" xmlns="http://www.w3.org/2000/svg">
<rect width="80" height="80" rx="8" fill="#E2EEFF"/>
<path d="M57.0801 59.4915H37.1741C36.6569 59.5997 36.3683 59.9726 36.3683 60.4657L36.3322 65.0002L30.7874 59.732C30.6671 59.6238 30.3424 59.4915 30.1619 59.4915H14.8506C13.2268 59.4915 12 58.2045 12 56.5928V36.1095C12.0722 34.5459 13.2509 33.3311 14.8626 33.3311H53.8927L45.5695 47.7644L46.2671 54.9329C46.3273 55.2336 46.4956 55.5584 46.6881 55.6787C46.9286 55.835 47.3376 55.8711 47.6022 55.7508L54.2054 52.7559L59.8585 43.0134L59.8825 56.5687C59.8825 58.1444 58.7399 59.3832 57.1041 59.4674L57.0801 59.4915ZM46.664 39.3449C47.2895 39.3449 47.5541 38.7195 47.518 38.3587C47.4819 37.8535 47.1211 37.4927 46.5317 37.4927H16.7029C16.1015 37.4927 15.7286 37.9257 15.7406 38.4308C15.7406 38.9119 16.1255 39.3449 16.7149 39.3449H46.664ZM42.743 44.6733C43.3925 44.6733 43.6691 44.1079 43.633 43.687C43.597 43.266 43.2842 42.821 42.7189 42.821H16.7029C16.0894 42.821 15.7286 43.254 15.7406 43.7832C15.7406 44.1921 16.0894 44.6733 16.6307 44.6733H42.731H42.743ZM42.7791 50.0016C43.4526 50.0016 43.6932 49.3521 43.633 48.9311C43.5729 48.5101 43.2241 48.1493 42.6828 48.1493H16.6307C16.0534 48.1493 15.7046 48.6785 15.7406 49.1235C15.7767 49.6046 16.1255 50.0016 16.7029 50.0016H42.7791ZM42.767 55.3299C43.4165 55.3299 43.6811 54.7044 43.633 54.2714C43.5849 53.8384 43.2361 53.4776 42.7069 53.4776H16.7149C16.1255 53.4776 15.7527 53.8986 15.7527 54.3797C15.7527 54.8608 16.1135 55.3299 16.7149 55.3299H42.7791H42.767Z" fill="#5370EA"/>
<path d="M59.8443 26.6964L47.759 47.6626L53.209 50.8041L65.2943 29.8379L59.8443 26.6964Z" fill="#5370EA"/>
<path d="M20.8162 26.2223L17.5687 28.267C17.256 28.4594 16.835 28.4594 16.5824 28.3031C16.2456 28.0986 16.0532 27.6776 16.1494 27.2807L17.0996 23.5401L14.0446 20.9902C13.804 20.7977 13.7679 20.2926 13.8641 20.052C13.9724 19.7634 14.2851 19.4747 14.6219 19.4506L18.5309 19.186L19.9622 15.6017C20.0945 15.265 20.4674 15.0364 20.8042 15.0244C21.1169 15.0244 21.5258 15.2409 21.6581 15.5657L23.1015 19.186L26.9744 19.4506C27.3112 19.4747 27.66 19.7634 27.7562 20.0159C27.8885 20.3647 27.8043 20.8218 27.5157 21.0624L24.5328 23.5521L25.483 27.2687C25.5672 27.6175 25.4108 28.0505 25.1582 28.2429C24.8696 28.4594 24.4245 28.5076 24.1118 28.3031L20.8643 26.2343L20.8162 26.2223Z" fill="#5370EA"/>
<path d="M35.9595 26.2223L32.6398 28.3031C32.3271 28.4955 31.8941 28.4354 31.6535 28.267C31.3649 28.0625 31.1965 27.6416 31.2807 27.2807L32.2309 23.5401L29.2359 21.0503C28.9713 20.8338 28.8871 20.4129 28.9713 20.1122C29.0555 19.8115 29.3923 19.4867 29.7652 19.4506L33.6501 19.186L35.0574 15.6499C35.2017 15.277 35.5625 15.0244 35.9354 15.0244C36.3083 15.0244 36.6691 15.265 36.8134 15.6499L38.2087 19.186L41.9854 19.4386C42.4184 19.4627 42.7792 19.7273 42.8875 20.1122C42.9957 20.4971 42.8273 20.894 42.5026 21.1586L39.6159 23.5521L40.5661 27.2927C40.6623 27.6536 40.4939 28.0746 40.1932 28.279C39.9407 28.4594 39.5437 28.4715 39.207 28.3271L35.9354 26.2343L35.9595 26.2223Z" fill="#5370EA"/>
<path d="M51.0782 26.2224L47.8066 28.2791C47.4819 28.4836 47.0368 28.4355 46.7602 28.231C46.4836 28.0265 46.3272 27.6056 46.4234 27.2447L47.3736 23.5281L44.3907 21.0384C44.1261 20.8099 44.0299 20.4009 44.1141 20.0641C44.1983 19.7635 44.5471 19.4507 44.932 19.4267L48.7929 19.1621L50.2362 15.5417C50.3685 15.217 50.7775 14.9884 51.1022 15.0005C51.427 15.0125 51.7998 15.241 51.9442 15.5778L53.3635 19.1621L57.1642 19.4146C57.5251 19.4387 57.8979 19.7033 57.9941 19.9559C58.1505 20.3648 58.0543 20.7978 57.7295 21.0745L54.7707 23.5281L55.7209 27.2688C55.8051 27.6176 55.6367 28.0386 55.3601 28.243C55.0834 28.4475 54.6384 28.4716 54.3016 28.2551L51.0782 26.2103V26.2224Z" fill="#5370EA"/>
<path d="M66.2092 28.2309L60.7847 25.1037L62.0115 22.9868C62.3002 22.4936 62.9256 22.2892 63.4789 22.1569C65.1387 22.0125 66.7144 22.9026 67.3999 24.406C67.7127 25.0916 67.6525 25.7772 67.2917 26.3906L66.2092 28.2189V28.2309Z" fill="#5370EA"/>
<path d="M51.4872 51.9499L47.9991 53.5496L47.6143 49.7368L51.4872 51.9499Z" fill="#5370EA"/>
</svg>
