<svg width="51" height="50" viewBox="0 0 51 50" fill="none" xmlns="http://www.w3.org/2000/svg">
<path d="M50 6.22226V6.24246L49.7071 6.43438L45.6263 10.4849L46.6667 16.5254L41.1111 13.687L35.5455 16.5355L36.596 10.4849L33.0505 7.11116L29.5051 10.4748L30.5455 16.5254L24.9899 13.687L19.4344 16.5254L20.4748 10.4647L16.9293 7.10106L13.3838 10.4748L14.4243 16.5153L8.8687 13.6769L3.30303 16.5153L4.35355 10.4546L0 6.13135L6.09092 5.22226L8.899 0.0202022L11.6667 5.25256L16.9697 6.01014L22.2323 5.25256L25.0101 0.0202022L27.7778 5.25256L33.0404 6.01014L38.3434 5.25256L41.1212 0L43.899 5.25256L49.4141 6.06065C49.6263 6.09095 49.8485 6.16166 50.0101 6.22226H50Z" fill="#5370EA"/>
<path d="M49.9999 44.7175V49.9902H39.6464V47.3437C39.6464 44.7579 39.0403 42.2831 37.7979 39.9901C39.9696 38.081 42.9999 37.6467 45.6261 38.8386C48.0706 39.9396 49.5857 42.1417 49.9898 44.7175H49.9999Z" fill="#5370EA"/>
<path d="M36.7171 49.99H13.2827V46.9596C13.2827 42.7475 15.5857 38.899 19.2322 36.798C22.8787 34.6969 27.1817 34.7373 30.7575 36.798C34.3332 38.8586 36.6969 42.7475 36.707 46.9596V49.99H36.7171Z" fill="#5370EA"/>
<path d="M10.3535 49.9898H0L0.0101109 44.8483C0.323242 42.2523 1.82829 40.0806 4.16163 38.9392C6.82829 37.6361 9.9697 38.0402 12.1919 39.9998C10.9596 42.2826 10.3131 44.7675 10.3535 47.3534V49.9999V49.9898Z" fill="#5370EA"/>
<path d="M25 32.3134C28.2356 32.3134 30.8585 29.6904 30.8585 26.4548C30.8585 23.2192 28.2356 20.5962 25 20.5962C21.7644 20.5962 19.1414 23.2192 19.1414 26.4548C19.1414 29.6904 21.7644 32.3134 25 32.3134Z" fill="#5370EA"/>
<path d="M7.42436 35.2326C9.84549 35.2326 11.8082 33.2699 11.8082 30.8487C11.8082 28.4276 9.84549 26.4648 7.42436 26.4648C5.00324 26.4648 3.04053 28.4276 3.04053 30.8487C3.04053 33.2699 5.00324 35.2326 7.42436 35.2326Z" fill="#5370EA"/>
<path d="M42.586 35.2326C45.0071 35.2326 46.9698 33.2699 46.9698 30.8487C46.9698 28.4276 45.0071 26.4648 42.586 26.4648C40.1649 26.4648 38.2021 28.4276 38.2021 30.8487C38.2021 33.2699 40.1649 35.2326 42.586 35.2326Z" fill="#5370EA"/>
</svg>
