<svg width="50" height="50" viewBox="0 0 50 50" fill="none" xmlns="http://www.w3.org/2000/svg">
<path d="M39.5385 38.1917C39.3402 40.5304 37.9829 42.4097 36.0409 43.5999C35.7277 43.7878 35.3414 43.9027 34.9969 43.7148C32.9714 42.5976 31.5619 40.6557 31.3218 38.2857L29.3381 38.2648C29.004 38.2648 28.6281 37.9829 28.5863 37.6383L28.1687 34.621C26.5504 35.1744 25.7465 37.44 25.4855 39.0165C25.4228 39.4028 25.1827 39.7056 24.8486 39.7578C24.4623 39.8204 24.1387 39.622 23.9612 39.2566C22.8336 36.6047 22.1341 33.6292 23.721 30.9459L4.36417 30.925C2.02547 30.925 0.0208812 28.9831 0.0208812 26.634L0 4.59386C0 2.03592 2.00459 0 4.57298 0H40.2798C40.4886 0 40.8227 0.114847 40.9376 0.240134L49.7494 9.12508C49.8747 9.25037 50 9.53226 50 9.73063L49.9165 26.4251C49.9165 28.3984 48.6323 30.0063 46.8261 30.6327C48.5383 33.2637 47.8597 36.4377 46.6903 39.0687C46.565 39.3819 46.3145 39.6012 45.9908 39.6116C45.6672 39.622 45.3435 39.361 45.2704 39.0061C44.9468 37.3982 44.3621 35.331 42.702 34.5479L42.2635 37.6383C42.2218 37.9307 41.8041 38.2021 41.5327 38.2021H39.5281L39.5385 38.1917ZM42.7438 27.7929C43.8296 28.1061 44.7693 28.5759 45.6463 29.2754C47.2228 29.2337 48.4026 27.9808 48.4444 26.4043V10.545L43.9445 10.5137C41.5536 10.5032 39.6847 8.5404 39.6221 6.19127V1.61829L4.29108 1.63917C2.70411 1.63917 1.57653 3.09042 1.57653 4.5521V26.4878C1.58697 27.939 2.80852 29.2545 4.28064 29.2545H25.0992C26.018 28.4924 26.9889 28.0121 28.1478 27.6885C28.6281 21.8939 30.4343 16.1934 34.7567 12.1633C35.1535 11.7979 35.6129 11.6726 36.0514 12.0693C40.4469 16.0576 42.2844 21.9774 42.7751 27.7824L42.7438 27.7929ZM41.2612 32.0839C41.3761 29.4947 41.2299 27.1873 40.8123 24.8068C40.4364 22.7814 39.8935 20.8916 39.0687 18.9706H31.8647C31.2696 20.3696 30.8415 21.6851 30.4657 23.1364C29.7766 26.091 29.4738 29.0875 29.62 32.0944H41.2403L41.2612 32.0839ZM40.8854 36.6987L41.1777 33.65H29.7035L30.1002 36.6987H40.8854Z" fill="#5370EA"/>
<path d="M38.4736 46.9302C39.0792 45.74 40.1233 47.3687 41.4283 46.3351C42.4515 45.5312 41.7415 44.4976 42.0026 44.0904C42.3575 43.537 43.4434 43.9442 43.4434 42.8689C43.4434 41.4803 41.6163 42.5452 41.5745 41.2714C41.5536 40.7703 41.8982 40.4466 42.4515 40.4362C43.3703 40.4362 44.3308 40.8747 44.6962 41.7517C45.2287 43.0568 44.5396 44.341 43.412 44.9987C43.339 45.9488 43.0257 46.8989 42.2949 47.494C41.5014 48.1309 40.52 48.371 39.4759 48.2144C38.15 49.8849 35.6651 50.1981 33.9842 48.726C32.6269 49.7492 30.9982 49.7179 29.5574 49.1019C28.1166 48.4859 27.6989 46.972 27.0099 45.6356C26.4774 44.602 25.1932 43.8607 25.7883 42.3051C26.1955 41.2401 27.1456 40.2378 28.5551 40.2796C29.0249 40.29 29.4216 40.478 29.4634 40.9687C29.5887 42.4826 27.6781 41.1775 27.3126 42.7644C27.1769 43.3387 27.4484 44.0069 28.1061 44.1739C28.5238 44.2783 28.7848 44.5915 28.7743 45.0405C28.743 46.2412 29.4008 47.3479 30.5284 47.7759C31.6559 48.204 32.8253 47.8281 33.671 47.0555C34.099 46.6692 34.6002 46.8676 34.8925 47.2539C35.3519 47.8699 36.0932 48.1518 36.8449 48.0787C37.5027 48.0161 38.15 47.588 38.4945 46.9198L38.4736 46.9302Z" fill="#5370EA"/>
<path d="M27.0724 12.0795H22.9797C21.5807 12.09 20.5366 10.9624 20.5366 9.59468V5.65858C20.5366 4.29086 21.5911 3.17371 22.9797 3.18415H27.1142C28.3671 3.1946 29.432 4.3013 29.432 5.56461L29.4529 9.60512C29.4529 10.9102 28.461 12.0795 27.0724 12.0795ZM27.2708 7.71537C27.2708 6.4625 26.2581 5.44976 25.0052 5.44976C23.7523 5.44976 22.7396 6.4625 22.7396 7.71537C22.7396 8.96824 23.7523 9.98098 25.0052 9.98098C26.2581 9.98098 27.2708 8.96824 27.2708 7.71537Z" fill="#5370EA"/>
<path d="M26.7487 19.5864H15.452C14.93 19.5969 14.6272 19.2628 14.6272 18.8138C14.6272 18.3649 14.93 18.0308 15.452 18.0308H26.613C26.9889 18.0308 27.2708 18.4901 27.3334 18.7303C27.396 18.9704 27.229 19.5864 26.7592 19.5864H26.7487Z" fill="#5370EA"/>
<path d="M25.6629 26.467H15.4624C14.9613 26.467 14.6376 26.1851 14.6167 25.7466C14.5958 25.3394 14.836 24.9009 15.3476 24.9009H25.7046C26.1849 24.9009 26.4668 25.2976 26.4772 25.663C26.4981 26.1224 26.164 26.467 25.6629 26.467Z" fill="#5370EA"/>
<path d="M5.12625 18.1561C4.78171 17.8115 4.76083 17.3522 5.08449 17.0181C5.32463 16.7675 5.81533 16.6735 6.13899 16.9867L7.42318 18.25L11.4219 14.2617C11.7247 13.959 12.205 14.0007 12.4556 14.2304C12.7583 14.5228 12.8419 15.0239 12.5182 15.3476L7.99742 19.8788C7.70508 20.1711 7.23525 20.2442 6.92204 19.931L5.12625 18.1561Z" fill="#5370EA"/>
<path d="M6.83871 26.6548L5.12645 24.9426C4.8028 24.6189 4.77147 24.1595 5.06381 23.8359C5.37703 23.4913 5.87818 23.5018 6.22272 23.8359L7.43383 25.047L11.4117 21.0691C11.7249 20.7663 12.1843 20.7663 12.4871 21.0482C12.7899 21.3301 12.8421 21.8208 12.508 22.1654L8.03938 26.6444C7.67396 27.0098 7.20413 27.0098 6.84915 26.6444L6.83871 26.6548Z" fill="#5370EA"/>
<path d="M20.7976 22.9487H15.452C14.9613 22.9487 14.6481 22.6668 14.6272 22.2283C14.6063 21.8316 14.8569 21.3931 15.3476 21.3931H20.7767C21.2152 21.3931 21.4762 21.7898 21.4867 22.1448C21.4971 22.4998 21.2883 22.9487 20.7976 22.9487Z" fill="#5370EA"/>
<path d="M20.7245 16.1514H15.4312C14.9613 16.1514 14.6586 15.859 14.6168 15.4832C14.575 15.0551 14.8256 14.5957 15.3268 14.5957H20.6619C21.1317 14.5957 21.4345 14.8776 21.4658 15.2848C21.4971 15.692 21.2675 16.1514 20.7141 16.1514H20.7245Z" fill="#5370EA"/>
<path d="M35.3102 27.5632C37.1611 27.5632 38.6616 26.0627 38.6616 24.2118C38.6616 22.3608 37.1611 20.8604 35.3102 20.8604C33.4592 20.8604 31.9587 22.3608 31.9587 24.2118C31.9587 26.0627 33.4592 27.5632 35.3102 27.5632Z" fill="#5370EA"/>
</svg>
