<svg width="80" height="80" viewBox="0 0 80 80" fill="none" xmlns="http://www.w3.org/2000/svg">
<rect width="80" height="80" rx="8" fill="#E2EEFF"/>
<path d="M46.3744 43.7359L43.8079 46.2665C43.4481 46.6263 43.4601 47.19 43.8079 47.5378L45.1991 48.953L44.2996 51.0638L42.3687 51.0878C41.853 51.0878 41.4572 51.4836 41.4572 51.9993V55.4773C41.4572 56.065 41.9249 56.3888 42.4766 56.3888H44.3236L45.2111 58.5116L43.8559 59.8789C43.4481 60.2866 43.4841 60.8503 43.8798 61.2461L46.2305 63.6088C46.5903 63.9686 47.154 64.0525 47.5378 63.6807L48.977 62.2655L50.3202 62.9132C47.9096 64.0405 45.379 64.7122 42.7165 65L42.6805 61.426C42.6805 60.9942 42.2128 60.6224 41.805 60.6224H38.195C37.7273 60.6224 37.3675 60.9942 37.3075 61.426V65C25.5781 63.7407 16.2593 54.4099 15 42.7045H18.4661C18.9578 42.6685 19.3776 42.3087 19.3776 41.793V38.195C19.3776 37.7273 19.0178 37.3675 18.574 37.3075H15C16.2593 25.5661 25.5901 16.2593 37.2955 15V18.574C37.3915 19.0058 37.7393 19.3775 38.207 19.3775H41.6971C42.3087 19.3775 42.7525 18.9698 42.7045 18.3461V15C54.4339 16.2593 63.7527 25.5781 65.012 37.3075H61.546C61.0662 37.3315 60.6584 37.7033 60.6584 38.207V41.805C60.6584 42.2847 61.0662 42.6925 61.546 42.6925L65.012 42.7285C64.7122 45.319 64.0885 47.8016 62.9372 50.2842L62.2895 48.977L63.6568 47.5977C64.0166 47.2379 64.0645 46.6623 63.6808 46.2785L61.2701 43.8678C60.8263 43.4121 60.2507 43.4601 59.8189 43.8918L58.5236 45.1871L56.4128 44.2876L56.3888 42.3447C56.3888 41.829 56.017 41.4212 55.4773 41.4212H51.9873C51.4476 41.4212 51.0758 41.817 51.0638 42.3447L51.0398 44.2876L48.929 45.1871L47.5738 43.8319C47.2859 43.544 46.7222 43.3521 46.3385 43.7239L46.3744 43.7359ZM18.6939 32.9779C20.9487 26.1298 26.3097 20.8527 33.1219 18.646C33.6256 18.4781 33.8055 17.9743 33.6855 17.5306C33.5776 17.1588 33.1219 16.763 32.6181 16.9189C25.1703 19.3056 19.3176 25.1583 16.9309 32.6061C16.763 33.1458 17.2068 33.6256 17.6265 33.6975C18.1183 33.7815 18.514 33.5536 18.7059 32.9779H18.6939ZM63.0451 32.4622C60.5985 25.0504 54.7937 19.2936 47.4059 16.9189C46.9021 16.751 46.4464 17.1468 46.3385 17.5306C46.2185 17.9623 46.3984 18.4781 46.9021 18.646C53.7503 20.8647 59.1113 26.2017 61.3541 33.0379C61.522 33.5656 62.0137 33.8055 62.4694 33.6615C62.9252 33.5176 63.261 33.0619 63.0571 32.4622H63.0451ZM50.5601 23.5752L51.2077 22.4598C51.4836 21.9801 51.2797 21.4044 50.8119 21.1885C50.4282 21.0086 49.8645 21.1046 49.6246 21.5603L48.965 22.7956C48.7371 23.2274 49.013 23.7431 49.3967 23.935C49.7565 24.1149 50.2962 24.0309 50.5601 23.5752ZM31.071 22.8196C30.5913 21.8961 30.1475 20.7928 29.212 21.1885C28.9242 21.3085 28.5404 21.8002 28.7323 22.2439C29.1161 23.0955 29.6918 24.4507 30.6512 23.959C30.999 23.7911 31.3109 23.2994 31.071 22.8196ZM33.0739 50.74L39.3823 44.5035C41.4452 44.7673 43.2922 43.652 44.0957 41.733C44.8993 39.8141 44.4075 37.6553 42.7045 36.408V23.839C42.7045 22.2799 41.4092 21.1166 39.958 21.1526C38.5069 21.1885 37.2835 22.3879 37.3195 23.959V36.408C36.0242 37.4274 35.3766 38.9146 35.5685 40.6057L29.296 46.9141C28.2406 47.9815 28.2646 49.6486 29.272 50.692C30.2795 51.7354 31.9585 51.8434 33.0739 50.752V50.74ZM23.6592 29.5479L22.4359 28.8522C21.9801 28.5884 21.4044 28.8283 21.2245 29.224C21.0446 29.6198 21.1406 30.1595 21.5723 30.4114L22.7717 31.083C23.2274 31.3349 23.7791 31.083 23.971 30.6752C24.1389 30.3274 24.0669 29.7757 23.6712 29.5598L23.6592 29.5479ZM57.3363 31.011L58.3677 30.4114C58.7755 30.1715 58.8594 29.6318 58.6676 29.26C58.4877 28.9122 57.9599 28.6124 57.5402 28.8402L56.4128 29.4759C55.9451 29.7397 55.8731 30.3274 56.101 30.6992C56.3409 31.095 56.8566 31.2869 57.3243 31.011H57.3363ZM32.9779 61.3181C26.1658 59.0633 20.8887 53.7503 18.67 46.9741C18.4901 46.4344 18.0343 46.1825 17.5186 46.3384C17.1468 46.4464 16.751 46.9021 16.9189 47.4058C19.3056 54.8657 25.1583 60.7064 32.6062 63.0931C33.1458 63.261 33.6256 62.8172 33.6975 62.3975C33.7815 61.9057 33.5656 61.5099 32.9779 61.3181ZM22.4958 51.1837L23.5992 50.5361C24.0549 50.2722 24.1149 49.6846 23.887 49.3248C23.6592 48.965 23.1315 48.7611 22.6997 49.001L21.5603 49.6606C21.1046 49.9244 21.0206 50.5121 21.2845 50.9199C21.5124 51.2677 22.0281 51.4596 22.4838 51.1957L22.4958 51.1837ZM30.1475 58.6915C30.5793 58.2118 30.9151 57.6241 31.131 57.0604C31.3229 56.5927 30.9511 56.137 30.5793 55.993C29.6918 55.6452 29.1641 56.9045 28.7563 57.7201C28.6004 58.0319 28.8163 58.5116 29.0322 58.6795C29.296 58.8954 29.8597 59.0034 30.1475 58.6795V58.6915Z" fill="#5370EA"/>
<path d="M54.614 64.2323H52.8989L52.8869 62.4333C52.8869 61.282 51.5077 61.7857 49.4209 60.4424C49.0731 60.2146 48.5813 60.1666 48.2575 60.4904L46.9383 61.7977L45.7269 60.5984L47.0342 59.2671C47.8018 58.4875 46.4945 57.8639 45.9548 55.4053C45.8829 55.0575 45.559 54.6497 45.1872 54.6497L43.2683 54.6257V52.8987L45.0673 52.8867C45.5111 52.8867 45.8589 52.5629 45.9548 52.1311C46.5185 49.5286 47.8737 49.0848 46.9383 48.1493L45.7149 46.926L46.9503 45.7147L48.1616 46.938C49.0731 47.8495 49.5528 46.5182 52.1194 45.9546C52.5391 45.8586 52.8869 45.5228 52.8869 45.091V43.2681H54.626V44.9831C54.626 46.3144 55.8733 45.6547 58.116 47.0819C58.5478 47.3578 59.0155 47.2858 59.3633 46.938L60.5626 45.7267L61.7739 46.938L60.4667 48.2693C60.1788 48.5571 60.2028 49.0368 60.4067 49.3726C60.9584 50.2482 61.3302 51.1477 61.5581 52.1671C61.642 52.5389 61.9778 52.8867 62.3736 52.8867H64.2566V54.6017H62.4576C61.9898 54.6017 61.654 54.9375 61.5581 55.3813C61.3302 56.4247 60.9344 57.3242 60.3587 58.2477C60.2148 58.4875 60.2508 59.0033 60.4427 59.1951L61.7859 60.5504L60.5866 61.7857L59.2554 60.4904C58.9795 60.2146 58.4878 60.1906 58.164 60.4065C55.9452 61.8097 54.626 61.27 54.626 62.4693V64.2563L54.614 64.2323ZM60.4667 53.7742C60.4667 50.0683 57.4564 47.0579 53.7504 47.0579C50.0445 47.0579 47.0342 50.0683 47.0342 53.7742C47.0342 57.4801 50.0445 60.4904 53.7504 60.4904C57.4564 60.4904 60.4667 57.4801 60.4667 53.7742Z" fill="#5370EA"/>
<path d="M40.9053 15.7676H39.1067V17.5661H40.9053V15.7676Z" fill="#5370EA"/>
<path d="M17.5664 39.1064H15.7678V40.905H17.5664V39.1064Z" fill="#5370EA"/>
<path d="M64.2441 39.1064H62.4456V40.905H64.2441V39.1064Z" fill="#5370EA"/>
<path d="M40.9053 62.4453H39.1067V64.2439H40.9053V62.4453Z" fill="#5370EA"/>
<path d="M40.9057 35.5563H39.1067V23.8509C39.1067 23.3112 39.5265 22.9753 39.9462 22.9514C40.4259 22.9274 40.8937 23.2752 40.8937 23.8389V35.5563H40.9057Z" fill="#5370EA"/>
<path d="M42.6806 40.0058C42.6806 41.481 41.4813 42.6923 39.9941 42.6923C38.507 42.6923 37.3076 41.493 37.3076 40.0058C37.3076 38.5187 38.507 37.3193 39.9941 37.3193C41.4813 37.3193 42.6806 38.5187 42.6806 40.0058ZM41.3493 40.0058C41.3493 39.2622 40.7497 38.6626 40.0061 38.6626C39.2625 38.6626 38.6629 39.2622 38.6629 40.0058C38.6629 40.7494 39.2625 41.3491 40.0061 41.3491C40.7497 41.3491 41.3493 40.7494 41.3493 40.0058Z" fill="#5370EA"/>
<path d="M31.8265 49.4691C31.4067 49.8888 30.879 49.8768 30.5072 49.553C30.1834 49.2652 30.0755 48.6535 30.4473 48.2817L36.228 42.501C36.6598 42.9927 37.0196 43.3525 37.5113 43.7843L31.8145 49.4811L31.8265 49.4691Z" fill="#5370EA"/>
<path d="M53.7261 58.6798C56.4485 58.6798 58.6554 56.4729 58.6554 53.7505C58.6554 51.0282 56.4485 48.8213 53.7261 48.8213C51.0038 48.8213 48.7969 51.0282 48.7969 53.7505C48.7969 56.4729 51.0038 58.6798 53.7261 58.6798Z" fill="#5370EA"/>
</svg>
